<?xml version="1.0" encoding="utf-8"?>
<!-- Generator: Adobe Illustrator 16.0.0, SVG Export Plug-In . SVG Version: 6.00 Build 0)  -->
<!DOCTYPE svg PUBLIC "-//W3C//DTD SVG 1.1 Tiny//EN" "http://www.w3.org/Graphics/SVG/1.1/DTD/svg11-tiny.dtd">
<svg version="1.1" baseProfile="tiny" id="Layer_2" xmlns="http://www.w3.org/2000/svg" xmlns:xlink="http://www.w3.org/1999/xlink"
	 x="0px" y="0px" width="200px" height="200px" viewBox="0 0 200 200" xml:space="preserve">
<g>
	<path fill="#fff" d="M123.688,88.026C120.25,85.07,116,83.221,111,83.221v39.272c5,0,9.539-1.949,13.014-5.072
		c4.004-3.595,6.57-8.757,6.57-14.56C130.584,96.898,127.873,91.625,123.688,88.026z"/>
	<path fill="#fff" d="M158.377,48.566l-8.119,8.717c12.422,11.283,20.283,27.51,20.283,45.568
		c0,17.914-7.723,34.017-19.973,45.287l8.125,8.719c14.574-13.453,23.777-32.65,23.777-54.006
		C182.471,81.348,173.135,62.032,158.377,48.566z"/>
	<path fill="#fff" d="M140.736,67.517l-8.123,8.718c7.346,6.546,11.998,16.039,11.998,26.623
		c0,10.434-4.528,19.801-11.682,26.338l8.116,8.718c9.499-8.715,15.497-21.183,15.497-35.056
		C156.536,88.834,150.406,76.243,140.736,67.517z"/>
</g>
<path fill="#fff" d="M98.347,49.023L69.021,68.324c-4.759,2.756-12.547,7.267-17.307,10.023l-0.935,0.541
	C48.684,78.313,46.48,78,44.202,78h-2.403C28.103,78,17,89.103,17,102.799v0.402C17,116.896,28.103,128,41.798,128h2.403
	c2.575,0,5.059-0.393,7.394-1.121l0.169,0.098c4.761,2.754,12.549,7.266,17.307,10.023l29.277,19.293
	c4.759,2.759,8.651,0.516,8.651-4.984V112.66c0-5.5,0-14.5,0-20V54.011C107,48.511,103.105,46.267,98.347,49.023z"/>
</svg>
