<?xml version="1.0" encoding="utf-8"?>
<!-- Generator: Adobe Illustrator 16.0.0, SVG Export Plug-In . SVG Version: 6.00 Build 0)  -->
<!DOCTYPE svg PUBLIC "-//W3C//DTD SVG 1.1//EN" "http://www.w3.org/Graphics/SVG/1.1/DTD/svg11.dtd">
<svg version="1.1" id="Layer_2" xmlns="http://www.w3.org/2000/svg" xmlns:xlink="http://www.w3.org/1999/xlink" x="0px" y="0px"
	 width="200px" height="200px" viewBox="0 0 200 200" enable-background="new 0 0 200 200" xml:space="preserve">
<g id="Layer_38">
	<g>
		<polygon fill="none" points="29,111 44.486,111 29,91.075 		"/>
		<polygon fill="none" points="130,111 145.777,111 130,91.075 		"/>
		<polygon fill="none" points="54.948,111 71.612,111 45.624,78 28.961,78 		"/>
		<polygon fill="none" points="71,78 56.087,78 71,97.993 		"/>
		<polygon fill="none" points="146.915,78 130.253,78 156.238,111 172.904,111 		"/>
		<polygon fill="none" points="157.379,78 172,97.993 172,78 		"/>
		<path fill="#fff" d="M173.738,54H103v24h3.331h5.776L123,90.35V111h-16.669H103v24h70.738c4.729,0,9.262-3.93,9.262-8.658
			V62.748C183,58.02,178.467,54,173.738,54z M130,111V91.075L145.777,111H130z M130.253,78h16.662l25.989,33h-16.665L130.253,78z
			 M157.379,78H172v19.993L157.379,78z M172.921,130.625c-2.997,0-5.43-2.434-5.43-5.43c0-2.997,2.433-5.43,5.43-5.43
			s5.429,2.433,5.429,5.43C178.35,128.191,175.918,130.625,172.921,130.625z M172.921,68.9c-2.997,0-5.43-2.433-5.43-5.43
			c0-2.997,2.433-5.429,5.43-5.429s5.429,2.433,5.429,5.429C178.35,66.468,175.918,68.9,172.921,68.9z"/>
		<path fill="#fff" d="M19,62.748v63.594c0,4.729,4.117,8.658,8.844,8.658H100v-24h-3.166h-5.777L78,98.74V78h18.834H100V54
			H27.844C23.117,54,19,58.02,19,62.748z M28.897,130.625c-2.997,0-5.43-2.434-5.43-5.43c0-2.997,2.433-5.43,5.43-5.43
			s5.43,2.433,5.43,5.43C34.327,128.191,31.894,130.625,28.897,130.625z M29,111V91.075L44.486,111H29z M71,78v19.993L56.087,78H71z
			 M71.612,111H54.948L28.961,78h16.663L71.612,111z M34.327,63.471c0,2.997-2.433,5.43-5.43,5.43s-5.43-2.433-5.43-5.43
			c0-2.997,2.433-5.429,5.43-5.429S34.327,60.474,34.327,63.471z"/>
	</g>
</g>
</svg>
