<?xml version="1.0" encoding="utf-8"?>
<!-- Generator: Adobe Illustrator 16.0.0, SVG Export Plug-In . SVG Version: 6.00 Build 0)  -->
<!DOCTYPE svg PUBLIC "-//W3C//DTD SVG 1.1//EN" "http://www.w3.org/Graphics/SVG/1.1/DTD/svg11.dtd">
<svg version="1.1" id="Layer_2" xmlns="http://www.w3.org/2000/svg" xmlns:xlink="http://www.w3.org/1999/xlink" x="0px" y="0px"
	 width="200px" height="200px" viewBox="0 0 200 200" enable-background="new 0 0 200 200" xml:space="preserve">
<g id="Layer_68">
	<g>
		<path fill="#fff" d="M100,27.988c-39.771,0-72.012,32.24-72.012,72.011c0,39.771,32.241,72.013,72.012,72.013
			c39.771,0,72.012-32.24,72.012-72.013C172.012,60.228,139.771,27.988,100,27.988z M108.584,107.102
			c1.422-1.421,3.723-1.421,5.145,0c1.418,1.419,1.418,3.722,0,5.142c-1.422,1.42-3.723,1.42-5.145,0
			C107.166,110.823,107.166,108.521,108.584,107.102z M108.586,83.6c1.42-1.419,3.723-1.419,5.143,0c1.42,1.42,1.42,3.722,0,5.142
			c-1.42,1.419-3.723,1.419-5.143,0C107.168,87.322,107.168,85.02,108.586,83.6z M112.389,97.921c0-2.008,1.627-3.635,3.637-3.635
			c2.006,0,3.635,1.627,3.635,3.635s-1.629,3.636-3.635,3.636C114.016,101.557,112.389,99.929,112.389,97.921z M102.604,61.133
			v-6.147c10,0.616,19.479,4.592,26.725,10.83l-4.387,4.346C118.826,65.019,110.604,61.728,102.604,61.133z M99.406,90.206
			c3.825,0,6.924,3.101,6.924,6.925c0,3.823-3.102,6.924-6.924,6.924c-3.824,0-6.924-3.101-6.924-6.924
			C92.482,93.307,95.582,90.206,99.406,90.206z M95.771,81.304c0-2.008,1.627-3.635,3.635-3.635c2.006,0,3.635,1.627,3.635,3.635
			s-1.629,3.635-3.635,3.635C97.398,84.938,95.771,83.312,95.771,81.304z M99.406,33.229c3.825,0,6.924,3.102,6.924,6.926
			c0,3.822-3.102,6.924-6.924,6.924c-3.824,0-6.924-3.102-6.924-6.924C92.482,36.33,95.582,33.229,99.406,33.229z M96.604,55.046
			v6.146c-9,0.792-16.737,4.469-22.853,10.075l-4.294-4.335C76.691,60.223,86.604,55.862,96.604,55.046z M86.423,97.921
			c0,2.008-1.627,3.636-3.635,3.636c-2.008,0-3.635-1.628-3.635-3.636s1.627-3.635,3.635-3.635
			C84.796,94.286,86.423,95.913,86.423,97.921z M85.084,83.6c1.42-1.42,3.721-1.42,5.141,0c1.419,1.419,1.419,3.722,0,5.142
			c-1.42,1.418-3.721,1.418-5.141,0C83.666,87.321,83.666,85.02,85.084,83.6z M85.085,107.102c1.42-1.42,3.722-1.42,5.142,0
			c1.419,1.42,1.419,3.722,0,5.142c-1.42,1.42-3.722,1.42-5.142,0C83.666,110.823,83.666,108.521,85.085,107.102z M65,71.638
			l4.366,4.407c-4.781,6.072-7.798,12.847-8.27,21.847h-6.145C55.442,87.892,59.131,78.85,65,71.638z M65.816,129.329
			c-5.974-6.938-9.872-15.438-10.732-25.438h6.151c0.823,9,4.046,15.246,8.927,21.052L65.816,129.329z M96.604,144.952
			c-10-0.779-19.147-4.813-26.25-11.043l4.386-4.346c5.976,5.135,13.864,8.489,21.864,9.242V144.952z M99.406,118.176
			c-2.008,0-3.635-1.628-3.635-3.636s1.627-3.637,3.635-3.637c2.006,0,3.635,1.629,3.635,3.637S101.414,118.176,99.406,118.176z
			 M102.604,145.013v-6.146c8-0.563,15.445-3.55,21.395-8.23l4.324,4.363C121.23,140.769,112.604,144.424,102.604,145.013z
			 M133.066,130.585l-4.336-4.377c5.502-6,9.148-13.316,10.033-22.316h6.15C144.002,114.892,139.672,123.468,133.066,130.585z
			 M138.904,97.892c-0.508-9-3.941-16.908-9.34-23.191l4.344-4.304c6.5,7.407,10.619,16.495,11.141,27.495H138.904z"/>
	</g>
</g>
</svg>
