<?xml version="1.0" encoding="utf-8"?>
<!-- Generator: Adobe Illustrator 16.0.0, SVG Export Plug-In . SVG Version: 6.00 Build 0)  -->
<!DOCTYPE svg PUBLIC "-//W3C//DTD SVG 1.1//EN" "http://www.w3.org/Graphics/SVG/1.1/DTD/svg11.dtd">
<svg version="1.1" id="Layer_2" xmlns="http://www.w3.org/2000/svg" xmlns:xlink="http://www.w3.org/1999/xlink" x="0px" y="0px"
	 width="200px" height="200px" viewBox="0 0 200 200" enable-background="new 0 0 200 200" xml:space="preserve">
<g id="Layer_37">
	<g>
		<path fill="#fff" d="M17,69v0.043C17,76.08,23.936,81,30.973,81H37v19h126V81h4.839C174.877,81,181,76.08,181,69.043V69H17z"/>
		<g>
			<path fill="#fff" d="M125,105v30H73v-30H46.876c0,28,23.519,52.529,52.531,52.529c29.012,0,52.53-24.529,52.53-52.529H125z"/>
		</g>
		<g>
			<path fill="#fff" d="M99.744,105H99.07C91.888,105,86,110.938,86,118.119v0.672C86,125.973,91.888,132,99.07,132h0.674
				c7.181,0,12.256-6.027,12.256-13.209v-0.672C112,110.938,106.925,105,99.744,105z M99.405,125.441
				c-3.592,0-6.506-2.912-6.506-6.506c0-3.593,2.914-6.504,6.506-6.504c3.592,0,6.505,2.911,6.505,6.504
				C105.91,122.529,102.997,125.441,99.405,125.441z"/>
		</g>
	</g>
</g>
</svg>
