<?xml version="1.0" encoding="utf-8"?>
<!-- Generator: Adobe Illustrator 16.0.0, SVG Export Plug-In . SVG Version: 6.00 Build 0)  -->
<!DOCTYPE svg PUBLIC "-//W3C//DTD SVG 1.1//EN" "http://www.w3.org/Graphics/SVG/1.1/DTD/svg11.dtd">
<svg version="1.1" id="Layer_1" xmlns="http://www.w3.org/2000/svg" xmlns:xlink="http://www.w3.org/1999/xlink" x="0px" y="0px"
	 width="200px" height="200px" viewBox="0 0 200 200" enable-background="new 0 0 200 200" xml:space="preserve">
<circle fill="#ff8400" cx="100.115" cy="100" r="94.5"/>
<g id="Layer_49_1_">
	<g>
		<circle fill="#FFFFFF" cx="100.208" cy="38.993" r="16.412"/>
		<path fill="#FFFFFF" d="M132.615,92.076c-0.109-18.009-14.512-32.643-32.499-32.85c-17.987,0.207-32.501,14.841-32.501,32.85
			c0,0.064,0,2.81,0,3.221v0.052v23.105c0,3.379,2.752,6.119,6.136,6.119s6.138-2.74,6.138-6.12V95.297
			c0-0.011-0.131-0.022-0.131-0.034c0-0.495-0.257-3.124-0.256-3.187c0.044-4.588,2.141-8.824,3.895-12.244v33.604
			c0,0.075,0,0.146,0,0.221v56.522c0,3.998,3.455,7.24,7.454,7.24c3.997,0,7.451-3.242,7.451-7.24v-51.767h3.508v51.767
			c0,3.998,3.454,7.24,7.452,7.24c3.996,0,7.452-3.242,7.452-7.24v-51.971v-4.551V80.025c2.63,3.387,3.847,7.547,3.889,12.051
			c0,0.063-0.188,2.694-0.188,3.188c0,0.011-0.193,0.022-0.193,0.033v23.156c0,3.38,2.753,6.12,6.138,6.12
			c3.383,0,6.137-2.74,6.137-6.12V95.348v-0.052C132.495,94.885,132.617,92.14,132.615,92.076z"/>
	</g>
</g>
</svg>
