<?xml version="1.0" encoding="utf-8"?>
<!-- Generator: Adobe Illustrator 16.0.0, SVG Export Plug-In . SVG Version: 6.00 Build 0)  -->
<!DOCTYPE svg PUBLIC "-//W3C//DTD SVG 1.1//EN" "http://www.w3.org/Graphics/SVG/1.1/DTD/svg11.dtd">
<svg version="1.1" id="Layer_2" xmlns="http://www.w3.org/2000/svg" xmlns:xlink="http://www.w3.org/1999/xlink" x="0px" y="0px"
	 width="200px" height="200px" viewBox="0 0 200 200" enable-background="new 0 0 200 200" xml:space="preserve">
<g id="WIFI">
	<g>
		<path fill="#fff" d="M113.066,141.314c-0.121-0.119-0.28-0.215-0.4-0.332c-3.309-3.235-7.796-5.275-12.783-5.275
			c-5.033,0-9.602,2.025-12.916,5.32c-0.109,0.109-0.193,0.246-0.303,0.359c-3.154,3.297-5.129,7.741-5.129,12.666
			c0,4.713,1.82,8.965,4.741,12.213c3.357,3.741,8.181,6.142,13.6,6.142c5.583,0,10.515-2.533,13.867-6.454
			c2.759-3.211,4.489-7.336,4.489-11.898C118.232,149.1,116.244,144.622,113.066,141.314z"/>
		<path fill="#fff" d="M99.873,39.697c-29.827,0-57.231,11.497-78.745,30.623l9.909,10.379
			C50.005,64.355,73.9,54.555,99.873,54.555c25.801,0,49.547,9.671,68.45,25.818l9.915-10.383
			C156.773,51.069,129.527,39.697,99.873,39.697z"/>
		<path fill="#fff" d="M45.451,95.796l9.839,10.308c12.204-10.789,27.706-17.28,44.583-17.28c16.706,0,32.05,6.377,44.189,16.968
			l9.881-10.353c-14.68-13.37-33.51-21.473-54.07-21.473C79.139,73.966,60.175,82.219,45.451,95.796z"/>
		<path fill="#fff" d="M70.387,121.917l9.849,10.315c5.249-5.08,12.094-8.223,19.637-8.223c7.367,0,14.072,2.998,19.275,7.87
			l9.857-10.319c-7.717-7.675-17.912-12.406-29.133-12.406C88.478,109.154,78.132,114.023,70.387,121.917z"/>
	</g>
</g>
</svg>
