<?xml version="1.0" encoding="utf-8"?>
<!-- Generator: Adobe Illustrator 16.0.0, SVG Export Plug-In . SVG Version: 6.00 Build 0)  -->
<!DOCTYPE svg PUBLIC "-//W3C//DTD SVG 1.1//EN" "http://www.w3.org/Graphics/SVG/1.1/DTD/svg11.dtd">
<svg version="1.1" id="Layer_2" xmlns="http://www.w3.org/2000/svg" xmlns:xlink="http://www.w3.org/1999/xlink" x="0px" y="0px"
	 width="200px" height="200px" viewBox="0 0 200 200" enable-background="new 0 0 200 200" xml:space="preserve">
<g id="Layer_123">
	<g>
		<path fill="#fff" d="M164.214,25H34.786C28.829,25,24,29.829,24,35.786v129.428C24,171.171,28.829,176,34.786,176h129.428
			c5.957,0,10.786-4.829,10.786-10.786V35.786C175,29.829,170.171,25,164.214,25z M40.679,32.272c4.047,0,7.328,3.281,7.328,7.328
			c0,4.046-3.281,7.328-7.328,7.328c-4.047,0-7.328-3.281-7.328-7.328S36.632,32.272,40.679,32.272z M40.679,167.729
			c-4.047,0-7.328-3.281-7.328-7.328s3.281-7.327,7.328-7.327c4.047,0,7.328,3.28,7.328,7.327
			C48.007,164.445,44.726,167.729,40.679,167.729z M100,156.086c-31.125,0-56.355-25.23-56.355-56.355
			c0-31.125,25.231-56.355,56.355-56.355s56.355,25.23,56.355,56.355C156.355,130.854,131.124,156.086,100,156.086z M159.32,167.729
			c-4.047,0-7.326-3.281-7.326-7.328s3.279-7.327,7.326-7.327c4.049,0,7.328,3.28,7.328,7.327
			C166.648,164.445,163.369,167.729,159.32,167.729z M159.32,46.928c-4.047,0-7.326-3.281-7.326-7.328s3.279-7.328,7.326-7.328
			c4.049,0,7.328,3.281,7.328,7.328C166.648,43.646,163.369,46.928,159.32,46.928z"/>
		<path fill="#fff" d="M100,52.805c-25.917,0-46.926,21.009-46.926,46.926c0,25.917,21.009,46.923,46.926,46.923
			s46.925-21.008,46.925-46.924C146.925,73.813,125.917,52.805,100,52.805z M100,141.346c-22.983,0-41.614-18.633-41.614-41.615
			c0-22.984,18.631-41.614,41.614-41.614c22.982,0,41.613,18.63,41.613,41.614C141.613,122.713,122.982,141.346,100,141.346z"/>
		<circle fill="#fff" cx="100" cy="99.73" r="37.466"/>
	</g>
</g>
</svg>
