<?xml version="1.0" encoding="utf-8"?>
<!-- Generator: Adobe Illustrator 16.0.0, SVG Export Plug-In . SVG Version: 6.00 Build 0)  -->
<!DOCTYPE svg PUBLIC "-//W3C//DTD SVG 1.1//EN" "http://www.w3.org/Graphics/SVG/1.1/DTD/svg11.dtd">
<svg version="1.1" id="Layer_1" xmlns="http://www.w3.org/2000/svg" xmlns:xlink="http://www.w3.org/1999/xlink" x="0px" y="0px"
	 width="200px" height="200px" viewBox="0 0 200 200" enable-background="new 0 0 200 200" xml:space="preserve">
<g id="_x31_0_1_">
	<g id="_x30_6_2_">
		<path fill="#404040" d="M176.055,41.282c-0.344,0.077-0.353-0.025-0.662,0.204l-7.988,4.814c-1.842-1.474-3.764-2.711-5.894-3.599
			l0.643-9.628c0.21-1.421-0.752-2.764-2.181-2.977l-5.382-0.803c-1.429-0.212-2.752,0.767-2.961,2.191l-2.299,9.374
			c-2.258,0.243-4.485,0.784-6.634,1.652l-6.425-7.275c-0.516-0.696-1.739-1.578-2.557-1.563c-0.518,0.004-1.152-0.019-1.609,0.314
			l-4.402,3.261c-0.445,0.339-0.613,0.951-0.771,1.453c-0.244,0.766,0.035,1.913,0.553,2.613l5.129,8.423
			c-1.47,1.797-2.608,3.844-3.498,5.918l-9.643-0.57c-1.411-0.209-2.735,0.788-2.941,2.205l-0.799,5.418
			c-0.218,1.426,0.77,2.75,2.195,2.963l9.313,2.29c0.221,2.287,0.753,4.559,1.622,6.741l-6.71,5.983
			C121,81.55,121.206,82.84,122.057,84l3.262,4.394c0.862,1.156,2.032,1.735,3.191,0.872l7.841-4.722
			c1.854,1.541,3.777,2.854,5.925,3.779l-0.643,9.439c-0.219,1.428,0.721,2.77,2.157,2.979l5.387,0.815
			c1.437,0.212,2.748-0.762,2.947-2.189l2.222-9.039c2.375-0.22,4.726-0.784,6.982-1.699l6.171,6.976
			c0.514,0.701,1.706,1.561,2.521,1.544c0.526,0,1.135-0.006,1.591-0.344l4.391-3.254c0.462-0.346,0.635-0.93,0.792-1.431
			c0.259-0.775-0.008-1.897-0.53-2.6l-4.914-8.073c1.542-1.896,2.729-4.04,3.636-6.237l9.294,0.553
			c1.429,0.213,2.745-0.775,2.958-2.205l0.794-5.419c0.222-1.431-0.78-2.752-2.208-2.961l-9.101-2.233
			c-0.259-2.326-0.839-4.644-1.746-6.867l7.09-6.26c0.305-0.222-0.111-0.027,0.056-0.34c0.485-0.853,0.26-1.809-0.381-2.655
			l-3.256-4.396C177.86,41.569,177.026,41.069,176.055,41.282z M161.888,58.255c4.035,5.448,2.889,13.167-2.56,17.207
			c-5.453,4.035-13.162,2.898-17.21-2.557c-4.041-5.447-2.884-13.165,2.562-17.202C150.148,51.662,157.847,52.81,161.888,58.255z"/>
		<path fill="#404040" d="M145.663,70.275c2.588,3.49,7.532,4.231,11.023,1.64c3.517-2.598,4.242-7.541,1.641-11.027
			c-2.593-3.5-7.527-4.239-11.028-1.644C143.809,61.831,143.065,66.771,145.663,70.275z"/>
	</g>
	<g id="_x30_6_1_">
		<path fill="#404040" d="M128.197,104.829c-0.512-0.231-1.637-0.373-2.244-0.373l-15.317-1.404
			c-0.943-3.603-2.533-7.006-4.397-10.13l9.749-11.651c1.605-1.607,1.581-4.218-0.037-5.834l-6.144-6.11
			c-1.61-1.616-4.229-1.616-5.844,0l-11.776,9.762c-3.087-1.818-6.454-3.226-10.015-4.158l-1.303-15.314
			c0-1.377-0.727-3.375-1.767-4.121c-0.683-0.483-1.467-0.832-2.353-0.832H68.08c-0.891,0-1.68,0.349-2.358,0.832
			c-1.046,0.746-1.764,2.326-1.764,3.704l-1.431,15.475c-3.561,0.905-6.928,2.411-10.02,4.206L40.77,69.042
			c-1.607-1.607-4.226-1.58-5.826,0.023l-6.12,6.133c-1.616,1.611-1.616,4.226,0,5.838l9.695,11.7
			c-1.882,3.115-3.344,6.513-4.305,10.106l-16.611,1.293c-2.285,0-5.665,1.841-5.665,4.131v8.65c0,2.277,3.379,4.127,5.665,4.127
			l15.636,1.396c0.907,3.701,2.712,7.184,4.583,10.395l-9.421,11.396c-1.61,1.614-1.517,4.219,0.098,5.833l6.167,6.121
			c1.616,1.618,4.248,1.618,5.86,0l11.361-9.418c3.229,1.953,6.755,3.45,10.498,4.421l1.258,14.699c0,1.379,0.719,3.318,1.763,4.071
			c0.669,0.481,1.454,0.779,2.345,0.779h8.669c0.896,0,1.68-0.298,2.357-0.779c1.045-0.753,1.769-2.305,1.769-3.686l1.365-14.84
			c3.747-0.944,7.282-2.53,10.507-4.467l11.319,9.495c1.609,1.608,4.216,1.601,5.83-0.023l6.121-6.138
			c1.613-1.606,1.613-4.228,0-5.848l-9.486-11.43c1.876-3.201,3.328-6.683,4.254-10.383l14.935-1.264
			c0.599,0,2.295-0.146,2.807-0.378c1.438-0.645,4.458-2.077,4.458-3.754v-8.655C132.655,106.9,129.635,105.474,128.197,104.829z
			 M91.732,113.06c0,10.738-8.738,19.482-19.477,19.482c-10.739,0-19.483-8.744-19.483-19.482c0-10.74,8.737-19.476,19.483-19.476
			C82.999,93.583,91.732,102.324,91.732,113.06z"/>
		<path fill="#404040" d="M72.25,100.562c6.894,0,12.485,5.592,12.485,12.486c0,6.898-5.591,12.483-12.485,12.483
			c-6.896,0-12.486-5.585-12.486-12.483C59.764,106.153,65.354,100.562,72.25,100.562z"/>
	</g>
</g>
</svg>
