<?xml version="1.0" encoding="utf-8"?>
<!-- Generator: Adobe Illustrator 16.0.0, SVG Export Plug-In . SVG Version: 6.00 Build 0)  -->
<!DOCTYPE svg PUBLIC "-//W3C//DTD SVG 1.1//EN" "http://www.w3.org/Graphics/SVG/1.1/DTD/svg11.dtd">
<svg version="1.1" id="Layer_1" xmlns="http://www.w3.org/2000/svg" xmlns:xlink="http://www.w3.org/1999/xlink" x="0px" y="0px"
	 width="200px" height="200px" viewBox="0 0 200 200" enable-background="new 0 0 200 200" xml:space="preserve">
<path fill="#3C3C3C" d="M173.119,143.328c-16.655-23.546-22.986-41.231-21.851-61.041c0.918-15.947-4.291-30.784-14.667-41.777
	c-9.717-10.295-22.733-15.964-36.65-15.964c-13.283,0-25.823,5.284-35.313,14.878C53.938,50.25,48.149,65.453,48.337,82.236
	l0.002,0.158c0.272,23.769,0.469,40.94-19.939,58.541c-2.616,2.242-3.749,5.728-2.956,9.099c0.794,3.355,3.368,5.964,6.72,6.81
	c8.107,2.032,15.93,3.044,23.567,4.031c14.095,1.804,26.273,3.361,35.317,11.038c2.353,2.317,5.27,3.541,8.442,3.541
	c4.728,0,8.086-2.737,10.272-4.521l0.243-0.194c0.119-0.096,0.229-0.19,0.373-0.285c9.712-6.549,21.42-7.958,33.829-9.451
	c5.274-0.637,10.728-1.295,15.742-2.328l6.831-0.896c3.189-0.401,5.97-2.485,7.256-5.438
	C175.322,149.401,174.971,145.948,173.119,143.328z M66.752,81.879l-0.002-0.192c-0.134-11.603,3.768-22.013,10.985-29.312
	c6.003-6.069,13.894-9.412,22.216-9.412c8.794,0,17.055,3.618,23.261,10.186c6.866,7.28,10.302,17.251,9.672,28.078
	c-1.163,20.208,3.854,37.937,17.24,60.449c-2.701,0.39-5.434,0.719-8.102,1.041l-0.261,0.031
	c-13.906,1.674-28.286,3.404-41.666,12.423c-0.118,0.078-0.235,0.159-0.353,0.242c-12.693-9.093-26.801-10.902-41.7-12.813
	l-0.297-0.038c-1.715-0.221-3.462-0.446-5.222-0.686C67.213,122.066,66.999,103.356,66.752,81.879z"/>
</svg>
