<?xml version="1.0" encoding="utf-8"?>
<!-- Generator: Adobe Illustrator 16.0.0, SVG Export Plug-In . SVG Version: 6.00 Build 0)  -->
<!DOCTYPE svg PUBLIC "-//W3C//DTD SVG 1.1//EN" "http://www.w3.org/Graphics/SVG/1.1/DTD/svg11.dtd">
<svg version="1.1" id="Layer_1" xmlns="http://www.w3.org/2000/svg" xmlns:xlink="http://www.w3.org/1999/xlink" x="0px" y="0px"
	 width="200px" height="200px" viewBox="0 0 200 200" enable-background="new 0 0 200 200" xml:space="preserve">
<g>
	<g>
		<path fill="#404040" d="M100.001,62c0,0,0,0-0.002,0c0,0,0,0-0.002,0c-14.198,0-25.704,11.477-25.704,25.678
			c0,4.483,1.148,8.42,3.165,12.322h-0.03l22.595,38.589L122.57,100h-0.029c2.018-3.902,3.166-7.839,3.166-12.322
			C125.707,73.477,114.201,62,100.001,62z M99.999,104.404c-9.61,0-17.401-7.792-17.401-17.403c0-9.61,7.792-17.401,17.401-17.401
			c9.612,0,17.403,7.792,17.403,17.401C117.402,96.613,109.611,104.404,99.999,104.404z"/>
	</g>
	<g>
		<path fill="#404040" d="M99.769,14.965c-46.761,0-84.804,38.043-84.804,84.803c0,46.762,38.043,84.804,84.804,84.804
			s84.804-38.042,84.804-84.804C184.572,53.008,146.529,14.965,99.769,14.965z M142.35,100.176l22.678,4.91l2.687,0.738
			c-2.918,32.948-29.627,59.38-62.604,61.952l-0.546-2.011l-4.925-22.819l-4.909,22.83l-0.54,1.978
			c-32.963-2.687-59.582-29.21-62.386-62.164l1.792-0.49l22.813-4.923l-22.721-4.912l-1.953-0.533
			c2.443-33.288,29.017-60.14,62.278-62.933l0.704,2.544l4.923,22.66l4.911-22.608l0.723-2.619
			c33.277,2.674,59.952,29.441,62.51,62.729l-2.723,0.748L142.35,100.176z"/>
	</g>
</g>
</svg>
