<?xml version="1.0" encoding="utf-8"?>
<!-- Generator: Adobe Illustrator 16.0.0, SVG Export Plug-In . SVG Version: 6.00 Build 0)  -->
<!DOCTYPE svg PUBLIC "-//W3C//DTD SVG 1.1//EN" "http://www.w3.org/Graphics/SVG/1.1/DTD/svg11.dtd">
<svg version="1.1" id="Layer_1" xmlns="http://www.w3.org/2000/svg" xmlns:xlink="http://www.w3.org/1999/xlink" x="0px" y="0px"
	 width="200px" height="200px" viewBox="0 0 200 200" enable-background="new 0 0 200 200" xml:space="preserve">
<path fill="#404040" d="M182.326,46.702l-0.68-16.274l-16.271,0.746c-2.025,0.093-4.07,0.141-6.078,0.141
	c-30.816,0-48.524-11.21-49.807-12.051l-9.561-7.117l-9.181,7.091c-1.473,0.947-19.329,12.004-49.967,12.004
	c-2.018,0-4.073-0.048-6.109-0.142l-16.052-0.735l-0.885,16.044c-0.062,1.111-1.41,27.55,6.766,57.463
	c11.379,41.632,35.614,70.01,70.086,82.067l5.399,1.89l5.392-1.917c33.907-12.06,57.981-40.381,69.62-81.902
	C183.34,74.251,182.371,47.814,182.326,46.702z M163.68,49.949c0.015,6.865-0.53,27.122-6.722,49.14
	c-9.982,35.507-29.164,58.685-57.022,68.908c-28.325-10.221-47.621-33.405-57.362-68.927c-6.05-22.063-6.341-42.361-6.237-49.195
	c1.495,0.044,2.982,0.066,4.446,0.066c33.419,0,53.869-11.106,59.314-14.483c5.423,3.398,25.779,14.556,59.201,14.556
	C160.746,50.012,162.212,49.991,163.68,49.949z"/>
</svg>
