<?xml version="1.0" encoding="utf-8"?>
<!-- Generator: Adobe Illustrator 16.0.0, SVG Export Plug-In . SVG Version: 6.00 Build 0)  -->
<!DOCTYPE svg PUBLIC "-//W3C//DTD SVG 1.1//EN" "http://www.w3.org/Graphics/SVG/1.1/DTD/svg11.dtd">
<svg version="1.1" id="Layer_1" xmlns="http://www.w3.org/2000/svg" xmlns:xlink="http://www.w3.org/1999/xlink" x="0px" y="0px"
	 width="200px" height="200px" viewBox="0 0 200 200" enable-background="new 0 0 200 200" xml:space="preserve">
<g>
	<path fill="#404040" d="M181,22.62c0-3.656-2.893-6.62-6.46-6.62H25.46C21.892,16,19,18.964,19,22.62V41.38
		c0,3.656,2.892,6.62,6.46,6.62h149.08c3.567,0,6.46-2.964,6.46-6.62V22.62z M102,32.246C102,35.424,99.424,38,96.246,38h-5.492
		C87.576,38,85,35.424,85,32.246v-0.491C85,28.576,87.576,26,90.754,26h5.492c3.178,0,5.754,2.576,5.754,5.754V32.246z M129,32.246
		c0,3.178-2.576,5.754-5.754,5.754h-12.492c-3.178,0-5.754-2.576-5.754-5.754v-0.491c0-3.178,2.576-5.754,5.754-5.754h12.492
		c3.178,0,5.754,2.576,5.754,5.754V32.246z M173,32.246c0,3.178-2.576,5.754-5.754,5.754h-23.492c-3.178,0-5.754-2.576-5.754-5.754
		v-0.491c0-3.178,2.576-5.754,5.754-5.754h23.492c3.178,0,5.754,2.576,5.754,5.754V32.246z"/>
	<path fill="#404040" d="M182,59.924C182,56.1,178.9,53,175.077,53H25.923C22.1,53,19,56.1,19,59.924v19.152
		C19,82.9,22.1,86,25.923,86h149.154C178.9,86,182,82.9,182,79.076V59.924z M102,70.246C102,73.424,99.424,76,96.246,76h-5.492
		C87.576,76,85,73.424,85,70.246v-0.491C85,66.576,87.576,64,90.754,64h5.492c3.178,0,5.754,2.576,5.754,5.754V70.246z M129,70.246
		c0,3.178-2.576,5.754-5.754,5.754h-12.492c-3.178,0-5.754-2.576-5.754-5.754v-0.491c0-3.178,2.576-5.754,5.754-5.754h12.492
		c3.178,0,5.754,2.576,5.754,5.754V70.246z M173,70.246c0,3.178-2.576,5.754-5.754,5.754h-23.492c-3.178,0-5.754-2.576-5.754-5.754
		v-0.491c0-3.178,2.576-5.754,5.754-5.754h23.492c3.178,0,5.754,2.576,5.754,5.754V70.246z"/>
	<path fill="#404040" d="M181,97.976c0-3.853-2.893-6.976-6.46-6.976H25.46C21.892,91,19,94.123,19,97.976v19.049
		c0,3.853,2.892,6.976,6.46,6.976h149.08c3.567,0,6.46-3.123,6.46-6.976V97.976z M102,108.245c0,3.179-2.576,5.755-5.754,5.755
		h-5.492c-3.178,0-5.754-2.576-5.754-5.755v-0.49c0-3.179,2.576-5.755,5.754-5.755h5.492c3.178,0,5.754,2.576,5.754,5.755V108.245z
		 M129,108.245c0,3.179-2.576,5.755-5.754,5.755h-12.492c-3.178,0-5.754-2.576-5.754-5.755v-0.49c0-3.179,2.576-5.755,5.754-5.755
		h12.492c3.178,0,5.754,2.576,5.754,5.755V108.245z M173,108.245c0,3.179-2.576,5.755-5.754,5.755h-23.492
		c-3.178,0-5.754-2.576-5.754-5.755v-0.49c0-3.179,2.576-5.755,5.754-5.755h23.492c3.178,0,5.754,2.576,5.754,5.755V108.245z"/>
	<path fill="#404040" d="M77.61,162H24.672c-3.346,0-6.059,3.154-6.059,6.5c0,3.348,2.713,6.5,6.059,6.5h53.046
		c-0.81-2-1.259-4.443-1.259-6.643C76.459,166.264,76.874,165,77.61,162z"/>
	<path fill="#404040" d="M173.539,162h-52.648c0.735,3,1.15,4.264,1.15,6.357c0,2.199-0.449,4.643-1.258,6.643h52.756
		c3.345,0,6.059-3.152,6.059-6.5C179.598,165.154,176.884,162,173.539,162z"/>
	<path fill="#404040" d="M105,146.785V130H93v16.892c2-0.809,3.943-1.258,6.144-1.258C101.236,145.634,103,146.049,105,146.785z"/>
	<path fill="#404040" d="M105.164,153.71c-1.829-0.737-3.821-1.153-5.915-1.153c-2.201,0-4.297,0.45-6.202,1.26
		c-3.87,1.645-6.941,4.786-8.513,8.692c-0.736,1.829-1.151,3.822-1.151,5.915c0,2.201,0.45,4.298,1.259,6.202
		c2.416,5.68,8.045,9.664,14.607,9.664c6.564,0,12.193-3.984,14.609-9.664c0.81-1.904,1.26-4.001,1.26-6.202
		c0-2.093-0.416-4.086-1.151-5.915C112.355,158.508,109.167,155.318,105.164,153.71z"/>
</g>
</svg>
