<?xml version="1.0" encoding="utf-8"?>
<!-- Generator: Adobe Illustrator 16.0.0, SVG Export Plug-In . SVG Version: 6.00 Build 0)  -->
<!DOCTYPE svg PUBLIC "-//W3C//DTD SVG 1.1//EN" "http://www.w3.org/Graphics/SVG/1.1/DTD/svg11.dtd">
<svg version="1.1" id="Layer_1" xmlns="http://www.w3.org/2000/svg" xmlns:xlink="http://www.w3.org/1999/xlink" x="0px" y="0px"
	 width="200px" height="200px" viewBox="0 0 200 200" enable-background="new 0 0 200 200" xml:space="preserve">
<g>
	<path fill="#404040" d="M100,17.631c-45.418,0-82.369,36.951-82.369,82.369c0,45.419,36.951,82.369,82.369,82.369
		c45.418,0,82.369-36.95,82.369-82.369C182.369,54.582,145.418,17.631,100,17.631z M141.359,100.396l22.026,4.769l2.608,0.718
		c-2.834,32.002-28.776,57.676-60.807,60.173l-0.53-1.952l-4.784-22.164l-4.768,22.175l-0.524,1.921
		c-32.017-2.61-57.871-28.372-60.595-60.38l1.74-0.477l22.159-4.781l-22.068-4.771l-1.897-0.518
		c2.373-32.332,28.184-58.413,60.49-61.126l0.684,2.471l4.781,22.01l4.77-21.959l0.702-2.544
		c32.322,2.597,58.23,28.596,60.715,60.928l-2.644,0.727L141.359,100.396z"/>
</g>
</svg>
