<?xml version="1.0" encoding="utf-8"?>
<!-- Generator: Adobe Illustrator 16.0.0, SVG Export Plug-In . SVG Version: 6.00 Build 0)  -->
<!DOCTYPE svg PUBLIC "-//W3C//DTD SVG 1.1//EN" "http://www.w3.org/Graphics/SVG/1.1/DTD/svg11.dtd">
<svg version="1.1" id="Layer_1" xmlns="http://www.w3.org/2000/svg" xmlns:xlink="http://www.w3.org/1999/xlink" x="0px" y="0px"
	 width="200px" height="200px" viewBox="0 0 200 200" enable-background="new 0 0 200 200" xml:space="preserve">
<g>
	<path fill="#404040" d="M16,107h167V69H16V107z M160,75h16v11h-16V75z M160,89h16v12h-16V89z M127,75h30v11h-30V75z M127,89h30v12
		h-30V89z M98,75h16v11H98V75z M98,89h16v12H98V89z M80,75h15v11H80V75z M80,89h15v12H80V89z M60,75h17v11H60V75z M60,89h17v12H60
		V89z M42,75h15v11H42V75z M42,89h15v12H42V89z M23,75h15v11H23V75z M23,89h15v12H23V89z"/>
	<path fill="#404040" d="M16,148h167v-38H16V148z M160,116h16v11h-16V116z M160,130h16v12h-16V130z M127,116h30v11h-30V116z
		 M127,130h30v12h-30V130z M98,116h16v11H98V116z M98,130h16v12H98V130z M80,116h15v11H80V116z M80,130h15v12H80V130z M60,116h17v11
		H60V116z M60,130h17v12H60V130z M42,116h15v11H42V116z M42,130h15v12H42V130z M23,116h15v11H23V116z M23,130h15v12H23V130z"/>
	<polygon fill="#404040" points="142.337,52 56.081,52 16.118,66 182.3,66 	"/>
</g>
</svg>
