<?xml version="1.0" encoding="utf-8"?>
<!-- Generator: Adobe Illustrator 16.0.0, SVG Export Plug-In . SVG Version: 6.00 Build 0)  -->
<!DOCTYPE svg PUBLIC "-//W3C//DTD SVG 1.1//EN" "http://www.w3.org/Graphics/SVG/1.1/DTD/svg11.dtd">
<svg version="1.1" id="Layer_1" xmlns="http://www.w3.org/2000/svg" xmlns:xlink="http://www.w3.org/1999/xlink" x="0px" y="0px"
	 width="200px" height="200px" viewBox="0 0 200 200" enable-background="new 0 0 200 200" xml:space="preserve">
<path id="_x31_3" fill="#404040" d="M182.494,70.086v-7.711l-63.33-46.683h-12.818v9.115L32.394,57.394H17.506v8.17l6.896,4.522
	h5.793v58.163v17.985h9.069v3.522c0,0-6.4,3.191-5.904,9.767c0.5,6.574,5.365,9.102,10.592,8.864
	c3.589-0.169,7.267-3.098,7.477-8.299c0.046-1.134-0.126-1.783-0.494-1.83c0,0-0.655,0.044-0.877,1.415
	c-0.359,2.233-2.409,4.333-5.604,4.529c-2.304,0.146-4.573-1.548-5.11-3.886c-0.763-3.323,1.705-6.534,6.405-6.177l1.01-1.982
	l0.021-5.924h6.988v-17.985V70.086h38.075v87.026h-0.957l-10.341,16.552v10.644h60.133l-0.064-10.011l-8.369-17.185h-2.326V70.086
	H182.494z M163.477,57.394h-39V46.515h-5.438V24.133L163.477,57.394z M106.346,33.464v13.051h-7.251v10.879H52.815L106.346,33.464z
	 M43,142.787c-2.754,0-4.982-2.228-4.982-4.981c0-2.747,2.228-4.979,4.982-4.979c2.748,0,4.979,2.232,4.979,4.979
	C47.98,140.56,45.748,142.787,43,142.787z M48.327,129.919H35.635V70.086h12.692V129.919z M110.357,70.086L99.094,80.185V70.086
	H110.357z M124.477,152.577l-21.025-20.713l21.025-19.689V152.577z M99.094,128.355V87.914l21.402,20.396L99.094,128.355z
	 M99.094,135.415l23.126,21.697H99.094V135.415z M124.477,104.431L102.58,83.646l13.625-13.56h8.271V104.431z"/>
</svg>
