<?xml version="1.0" encoding="utf-8"?>
<!-- Generator: Adobe Illustrator 16.0.0, SVG Export Plug-In . SVG Version: 6.00 Build 0)  -->
<!DOCTYPE svg PUBLIC "-//W3C//DTD SVG 1.1//EN" "http://www.w3.org/Graphics/SVG/1.1/DTD/svg11.dtd">
<svg version="1.1" id="Layer_1" xmlns="http://www.w3.org/2000/svg" xmlns:xlink="http://www.w3.org/1999/xlink" x="0px" y="0px"
	 width="200px" height="200px" viewBox="0 0 200 200" enable-background="new 0 0 200 200" xml:space="preserve">
<g>
	<path fill="#404040" d="M53,144h92v-39.613C145,78.851,124.744,59,99.179,59h-0.393C73.218,59,53,78.851,53,104.387V144z
		 M105.435,73l-1.37,42h-9.148l-1.33-42H105.435z M94.835,122.806c1.315-1.154,2.915-1.733,4.796-1.733
		c1.879,0,3.458,0.597,4.735,1.793c1.275,1.196,1.915,2.653,1.915,4.372c0,1.748-0.625,3.212-1.874,4.395
		c-1.25,1.182-2.708,1.772-4.374,1.772c-2.257,0-4.017-0.604-5.279-1.813s-1.894-2.659-1.894-4.354
		C92.861,125.438,93.518,123.96,94.835,122.806z"/>
	<path fill="#404040" d="M100.5,45.958c2.911,0,5.5-2.36,5.5-5.27V20.665c0-2.911-2.589-5.27-5.5-5.27c-2.91,0-5.5,2.359-5.5,5.27
		v20.024C95,43.599,97.59,45.958,100.5,45.958z"/>
	<path fill="#404040" d="M182.73,94h-20.023c-2.911,0-5.27,2.09-5.27,5c0,2.91,2.358,5,5.27,5h20.023c2.911,0,5.27-2.09,5.27-5
		C188,96.09,185.642,94,182.73,94z"/>
	<path fill="#404040" d="M150.747,59.398l14.158-14.16c2.058-2.057,2.058-5.394,0-7.452c-2.058-2.058-5.395-2.058-7.452,0
		l-14.159,14.16c-2.057,2.057-2.058,5.394,0,7.452S148.688,61.457,150.747,59.398z"/>
	<path fill="#404040" d="M42.563,99c0-2.91-2.359-5-5.27-5H17.27C14.359,94,12,96.09,12,99c0,2.91,2.359,5,5.27,5h20.024
		C40.204,104,42.563,101.91,42.563,99z"/>
	<path fill="#404040" d="M49.201,59.398c2.059,2.058,5.395,2.058,7.452,0c2.058-2.058,2.058-5.395,0-7.452l-14.158-14.16
		c-2.059-2.058-5.396-2.058-7.454,0c-2.056,2.058-2.056,5.395,0,7.452L49.201,59.398z"/>
	<path fill="#404040" d="M155.856,156H156v-9H43v9h1.144c-6.694,0-12.12,5.307-12.12,12s5.426,12,12.12,12h111.713
		c6.694,0,12.119-5.307,12.119-12S162.551,156,155.856,156z"/>
</g>
</svg>
