<?xml version="1.0" encoding="utf-8"?>
<!-- Generator: Adobe Illustrator 16.0.0, SVG Export Plug-In . SVG Version: 6.00 Build 0)  -->
<!DOCTYPE svg PUBLIC "-//W3C//DTD SVG 1.1//EN" "http://www.w3.org/Graphics/SVG/1.1/DTD/svg11.dtd">
<svg version="1.1" id="Layer_1" xmlns="http://www.w3.org/2000/svg" xmlns:xlink="http://www.w3.org/1999/xlink" x="0px" y="0px"
	 width="200px" height="200px" viewBox="0 0 200 200" enable-background="new 0 0 200 200" xml:space="preserve">
<g>
	<path fill="#404040" d="M99.977,100.223"/>
	<polygon fill="#404040" points="68,133 68,56 55,56 55,145 144,145 144,133 	"/>
	<path fill="#404040" d="M79.308,101.487L79.308,101.487c1.666,0,3.229-0.651,4.404-1.832l10.237-10.295l13.083,21.597
		c0.999,1.649,2.671,2.725,4.588,2.95c0.234,0.026,0.479,0.04,0.723,0.04c1.65,0,3.26-0.671,4.422-1.848l32.699-33.164
		c1.165-1.181,1.8-2.746,1.788-4.403c-0.012-1.659-0.67-3.212-1.849-4.376c-1.169-1.154-2.719-1.789-4.361-1.789
		c-1.674,0-3.244,0.656-4.421,1.849L113.52,97.703l-13.066-21.568c-0.997-1.646-2.664-2.72-4.571-2.948
		c-1.896-0.227-3.794,0.43-5.142,1.788L74.905,90.9c-1.169,1.175-1.81,2.737-1.806,4.396c0.005,1.657,0.655,3.215,1.831,4.384
		C76.101,100.844,77.656,101.487,79.308,101.487z"/>
	<g>
		<path fill="#404040" d="M100,30.13c38.526,0,69.869,31.343,69.869,69.869s-31.343,69.87-69.869,69.87
			c-38.526,0-69.869-31.344-69.869-69.87S61.474,30.13,100,30.13 M100,15.13c-46.872,0-84.869,37.997-84.869,84.869
			c0,46.872,37.997,84.87,84.869,84.87s84.869-37.998,84.869-84.87C184.869,53.127,146.872,15.13,100,15.13L100,15.13z"/>
	</g>
</g>
</svg>
