<?xml version="1.0" encoding="utf-8"?>
<!-- Generator: Adobe Illustrator 16.0.0, SVG Export Plug-In . SVG Version: 6.00 Build 0)  -->
<!DOCTYPE svg PUBLIC "-//W3C//DTD SVG 1.1//EN" "http://www.w3.org/Graphics/SVG/1.1/DTD/svg11.dtd">
<svg version="1.1" id="Layer_1" xmlns="http://www.w3.org/2000/svg" xmlns:xlink="http://www.w3.org/1999/xlink" x="0px" y="0px"
	 width="200px" height="200px" viewBox="0 0 200 200" enable-background="new 0 0 200 200" xml:space="preserve">
<g>
	<path fill="#3D3D3D" d="M134.717,80.758h-20.335L100,101.956L85.618,80.758H65.284l24.369,36.428l-27.494,40.51h39.41v-13.756
		h-9.106L100,132.666l16.736,25.029h21.104l-27.494-40.51L134.717,80.758z M158.817,53.029l-21.464-21.479
		c-4.679-4.663-13.912-8.495-20.521-8.495H44.7c-6.61,0-12.027,5.418-12.027,12.028v129.835c0,6.61,5.417,12.027,12.027,12.027
		h110.602c6.607,0,12.025-5.417,12.025-12.027V73.551C167.313,66.94,163.496,57.691,158.817,53.029z M152.019,59.827
		c0.472,0.471,0.941,1.053,1.398,1.697h-24.573V36.966c0.66,0.455,1.225,0.926,1.695,1.397L152.019,59.827z M157.703,164.901
		c0,1.304-1.1,2.403-2.401,2.403H44.7c-1.303,0-2.403-1.1-2.403-2.403V35.083c0-1.303,1.1-2.403,2.403-2.403h72.133
		c0.723,0,1.538,0.095,2.402,0.252v38.217h38.216c0.157,0.863,0.252,1.68,0.252,2.402V164.901z"/>
</g>
</svg>
