<?xml version="1.0" encoding="utf-8"?>
<!-- Generator: Adobe Illustrator 16.0.0, SVG Export Plug-In . SVG Version: 6.00 Build 0)  -->
<!DOCTYPE svg PUBLIC "-//W3C//DTD SVG 1.1//EN" "http://www.w3.org/Graphics/SVG/1.1/DTD/svg11.dtd">
<svg version="1.1" id="Layer_1" xmlns="http://www.w3.org/2000/svg" xmlns:xlink="http://www.w3.org/1999/xlink" x="0px" y="0px"
	 width="200px" height="200px" viewBox="0 0 200 200" enable-background="new 0 0 200 200" xml:space="preserve">
<g>
	<path fill="#404040" d="M150.733,67.625l-4.248,4.252c2.604,1.904,5.083,3.968,7.432,6.169l-1.77,1.769
		c0.524,0.498,1.063,0.989,1.569,1.502l1.763-1.766c7.013,6.944,12.726,15.194,16.749,24.356l-2.438,1.022
		c0.284,0.668,0.556,1.338,0.832,2.014l2.452-1.037c3.722,9.156,5.775,19.168,5.775,29.661c0,0.015-0.001,0.03-0.001,0.045h-2.772
		c0,1.013-0.032,2.097-0.053,2.097h2.787c-0.086,3.16-0.351,6.273-0.798,9.327l5.584,2.3c0.548-2.362,0.926-13.75,0.926-14.146
		C184.522,107.604,171.24,83.064,150.733,67.625z"/>
	<path fill="#404040" d="M150.729,67.625C136.593,56.984,119.016,50.664,100,50.664c-19.019,0-36.595,6.32-50.732,16.961
		C28.764,83.064,15.48,107.604,15.48,135.189c0,0.396-0.098,9.825,0.774,14.146l5.723-2.344c-0.001-0.012-0.003-0.023-0.004-0.034
		l25.922-10.581c-0.006-0.396-0.026-0.791-0.026-1.188c0-18.678,9.875-35.079,24.671-44.288L53.554,71.853
		c4.158-3.037,8.627-5.671,13.346-7.858l0.833,1.977c0.656-0.302,1.309-0.609,1.976-0.893l-0.827-1.966
		c8.792-3.783,18.408-6.009,28.507-6.338l0.081,2.11c0-0.02,2.091-0.216,2.091-0.22l0.049-1.935c0.131,0,0.26-0.008,0.391-0.008
		c9.57,0,18.739,1.714,27.225,4.838l-0.88,2.166c0.68,0.251,1.348,0.524,2.013,0.795l0.89-2.178
		c6.164,2.465,11.95,5.673,17.23,9.535L150.729,67.625z"/>
	<path fill="#404040" d="M109.383,135.662c-0.085-0.059-39.898-19.369-39.898-19.369c-0.193-0.094-0.482-0.19-0.603-0.013
		c-0.12,0.182-0.038,0.315,0.126,0.456c0,0,33.032,29.265,33.248,29.408c2.957,1.973,6.952,1.311,8.921-1.636
		C113.145,141.556,112.339,137.632,109.383,135.662z"/>
</g>
</svg>
