<?xml version="1.0" encoding="utf-8"?>
<!-- Generator: Adobe Illustrator 16.0.0, SVG Export Plug-In . SVG Version: 6.00 Build 0)  -->
<!DOCTYPE svg PUBLIC "-//W3C//DTD SVG 1.1//EN" "http://www.w3.org/Graphics/SVG/1.1/DTD/svg11.dtd">
<svg version="1.1" id="Layer_1" xmlns="http://www.w3.org/2000/svg" xmlns:xlink="http://www.w3.org/1999/xlink" x="0px" y="0px"
	 width="200px" height="200px" viewBox="0 0 200 200" enable-background="new 0 0 200 200" xml:space="preserve">
<path fill="#404040" d="M136.334,29H71v30.198c-14.686-4.575-31.35-1.056-42.98,10.576c-16.691,16.691-16.694,43.76,0.001,60.455
	C39.651,141.859,56.315,145.376,71,140.802V171h114V77.799L136.334,29z M63.919,130h-9.637l-0.002-26H28.383l0.006-9.556
	l25.898,0.046l-0.005-25.875l9.64,0.25L63.917,95h26.206l-0.001,9.406l-26.196-0.309L63.919,130z M172,158H84v-23.882
	c1.557-1.179,3.057-2.468,4.477-3.888c16.695-16.694,16.695-43.765,0.001-60.46c-1.42-1.42-2.92-2.709-4.478-3.888V42h47v42h41V158z
	"/>
</svg>
