<?xml version="1.0" encoding="utf-8"?>
<!-- Generator: Adobe Illustrator 16.0.0, SVG Export Plug-In . SVG Version: 6.00 Build 0)  -->
<!DOCTYPE svg PUBLIC "-//W3C//DTD SVG 1.1//EN" "http://www.w3.org/Graphics/SVG/1.1/DTD/svg11.dtd">
<svg version="1.1" id="Layer_2" xmlns="http://www.w3.org/2000/svg" xmlns:xlink="http://www.w3.org/1999/xlink" x="0px" y="0px"
	 width="200px" height="200px" viewBox="0 0 200 200" enable-background="new 0 0 200 200" xml:space="preserve">
<path fill="#fff" d="M57,143h87v-37.561C144,81.211,124.979,62,100.721,62h-0.374C76.088,62,57,81.211,57,105.439V143z
	 M105.98,74h0.398C121.74,74,133,85.707,133,101.286v5.993c0,2.361-1.641,4.272-4,4.272s-4-1.911-4-4.272v-5.993
	C125,90.402,117.041,83,106.38,83h-0.399c-2.358,0-4.271-2.141-4.271-4.5S103.621,74,105.98,74z"/>
<path fill="#fff" d="M102,50c2.762,0,5-2.239,5-5V26c0-2.761-2.238-5-5-5c-2.761,0-5,2.239-5,5v19C97,47.761,99.239,50,102,50z"
	/>
<path fill="#fff" d="M180,95h-19c-2.762,0-5,2.239-5,5c0,2.762,2.238,5,5,5h19c2.762,0,5-2.238,5-5C185,97.239,182.762,95,180,95
	z"/>
<path fill="#fff" d="M149.65,62.753l13.436-13.435c1.952-1.952,1.952-5.119,0-7.071c-1.952-1.953-5.118-1.953-7.07,0
	L142.58,55.682c-1.952,1.952-1.953,5.118,0,7.071C144.532,64.706,147.698,64.706,149.65,62.753z"/>
<path fill="#fff" d="M47,100c0-2.761-2.239-5-5-5H23c-2.761,0-5,2.239-5,5c0,2.762,2.239,5,5,5h19C44.761,105,47,102.762,47,100z
	"/>
<path fill="#fff" d="M53.298,62.753c1.953,1.953,5.119,1.953,7.071,0c1.953-1.953,1.952-5.119,0-7.071L46.935,42.247
	c-1.953-1.953-5.119-1.953-7.071,0c-1.952,1.952-1.952,5.119,0,7.071L53.298,62.753z"/>
<path fill="#fff" d="M154.5,154h0.5v-8H47v8h1.5c-6.351,0-11.5,5.148-11.5,11.5S42.149,177,48.5,177h106
	c6.352,0,11.5-5.148,11.5-11.5S160.852,154,154.5,154z"/>
</svg>
