<?xml version="1.0" encoding="utf-8"?>
<!-- Generator: Adobe Illustrator 16.0.0, SVG Export Plug-In . SVG Version: 6.00 Build 0)  -->
<!DOCTYPE svg PUBLIC "-//W3C//DTD SVG 1.1//EN" "http://www.w3.org/Graphics/SVG/1.1/DTD/svg11.dtd">
<svg version="1.1" xmlns="http://www.w3.org/2000/svg" xmlns:xlink="http://www.w3.org/1999/xlink" x="0px" y="0px" width="200px"
	 height="200px" viewBox="0 0 200 200" enable-background="new 0 0 200 200" xml:space="preserve">


<g id="Layer_49">
	<g>
		<circle fill="#109dcb" cx="100.175" cy="30.418" r="18.719"/>
		<path fill="#109dcb" d="M137.136,90.962c-0.125-20.54-16.551-37.231-37.066-37.467C79.554,53.73,63,70.422,63,90.962
			c0,0.073,0,3.204,0,3.674v0.059v26.354c0,3.854,3.139,6.979,6.999,6.979S77,124.902,77,121.048V94.636
			c0-0.013-0.15-0.025-0.15-0.039c0-0.565-0.293-3.563-0.292-3.635C76.609,85.729,79,80.898,81,76.997v38.327
			c0,0.085,0,0.167,0,0.252v64.468c0,4.56,3.94,8.257,8.501,8.257c4.559,0,8.499-3.697,8.499-8.257V121h4v59.044
			c0,4.56,3.939,8.257,8.501,8.257c4.558,0,8.499-3.697,8.499-8.257v-59.276v-5.191V77.217c3,3.863,4.386,8.608,4.436,13.745
			c0,0.072-0.216,3.072-0.216,3.636c0,0.013-0.22,0.025-0.22,0.038v26.412c0,3.854,3.141,6.979,7,6.979s7-3.124,7-6.979V94.694
			v-0.059C137,94.166,137.139,91.035,137.136,90.962z"/>
	</g>
</g>
 
</svg>
