<?xml version="1.0" encoding="utf-8"?>
<!-- Generator: Adobe Illustrator 16.0.0, SVG Export Plug-In . SVG Version: 6.00 Build 0)  -->
<!DOCTYPE svg PUBLIC "-//W3C//DTD SVG 1.1//EN" "http://www.w3.org/Graphics/SVG/1.1/DTD/svg11.dtd">
<svg version="1.1" id="Layer_1" xmlns="http://www.w3.org/2000/svg" xmlns:xlink="http://www.w3.org/1999/xlink" x="0px" y="0px"
	 width="200px" height="200px" viewBox="0 0 200 200" enable-background="new 0 0 200 200" xml:space="preserve">
<g>
	<path fill="#404040" d="M184.68,101.649c0-47.648-37.68-86.412-86.68-86.412v24.116c36,0,62.564,27.946,62.564,62.296
		c0,19.164-8.291,37.333-23.336,49.107L122,133.802V185h45.531l-14.302-15.963C173.141,152.691,184.68,127.563,184.68,101.649z"/>
	<path fill="#404040" d="M15.16,98.589C15.16,146.236,53,185,102,185v-24.115c-36,0-62.725-27.945-62.725-62.296
		c0-19.164,8.371-37.333,23.416-49.107L78,66.437V15H32.148L46.53,31.082C26.619,47.428,15.16,72.676,15.16,98.589z"/>
</g>
</svg>
