<?xml version="1.0" encoding="utf-8"?>
<!-- Generator: Adobe Illustrator 16.0.0, SVG Export Plug-In . SVG Version: 6.00 Build 0)  -->
<!DOCTYPE svg PUBLIC "-//W3C//DTD SVG 1.1//EN" "http://www.w3.org/Graphics/SVG/1.1/DTD/svg11.dtd">
<svg version="1.1" id="Layer_1" xmlns="http://www.w3.org/2000/svg" xmlns:xlink="http://www.w3.org/1999/xlink" x="0px" y="0px"
	 width="200px" height="200px" viewBox="0 0 200 200" enable-background="new 0 0 200 200" xml:space="preserve">
<g>
	<circle fill="#404040" cx="58.915" cy="58.85" r="14.875"/>
	<path fill="#404040" d="M129.325,106.381c-10.168-9.029-19.232-13.8-28.527-15.012c-9.793-1.275-19.256,1.644-28.234,8.649
		l-3.695-7.739c1.034,0.133,2.06,0.239,3.068,0.311c4.06,0.29,7.829,0.036,10.587-1.187c8.122-3.597,17.13-17.873,19.696-22.162
		c1.949-3.253,0.89-7.467-2.362-9.416c-3.253-1.948-7.468-0.891-9.418,2.361c-4.127,6.886-10.678,15.421-13.419,16.636
		c-2.446,0.838-12.087-0.83-20.98-3.555c-0.32-0.136-0.65-0.257-0.998-0.346c-0.182-0.046-0.367-0.095-0.551-0.144
		c-0.152-0.049-0.308-0.097-0.459-0.146c-0.311-0.103-0.624-0.173-0.937-0.23c-9.294-2.582-20.592-7.119-22.211-9.149
		c-1.658-2.5-2.59-13.218-2.367-21.242c0.104-3.791-2.881-6.949-6.671-7.057c-3.789-0.105-6.947,2.879-7.055,6.669
		C14.648,48.621,14.566,65.5,19.48,72.9c1.668,2.512,4.709,4.754,8.288,6.693c2.47,1.339,5.499,2.63,8.604,3.803l16.381,35.122
		c1.828,3.203,4.836,5.302,8.163,6.088c0.591,0.285,1.226,0.503,1.902,0.625c30.393,5.487,30.731,18.604,31.294,40.336l0.023,0.972
		c0.102,3.842,3.111,6.924,6.868,7.192c0.24,0.017,0.484,0.022,0.73,0.016c4.089-0.107,7.315-3.509,7.208-7.597l-0.023-0.966
		c-0.501-19.365-1.066-41.003-30.076-51.099c12.749-11.844,24.757-10.744,40.647,3.37c1.821,1.617,4.219,2.173,6.433,1.712
		c1.505-0.313,2.925-1.094,4.022-2.332C132.662,113.78,132.385,109.097,129.325,106.381z"/>
	<polygon fill="#404040" points="185,19 146,19 136,19 136,31 136,181 146,181 146,31 185,31 	"/>
</g>
</svg>
