<?xml version="1.0" encoding="utf-8"?>
<!-- Generator: Adobe Illustrator 16.0.0, SVG Export Plug-In . SVG Version: 6.00 Build 0)  -->
<!DOCTYPE svg PUBLIC "-//W3C//DTD SVG 1.1//EN" "http://www.w3.org/Graphics/SVG/1.1/DTD/svg11.dtd">
<svg version="1.1" id="Layer_1" xmlns="http://www.w3.org/2000/svg" xmlns:xlink="http://www.w3.org/1999/xlink" x="0px" y="0px"
	 width="200px" height="200px" viewBox="0 0 200 200" enable-background="new 0 0 200 200" xml:space="preserve">
<g>
	<path fill="#3D3D3D" d="M47,34.452V93.79c-0.904,0.943-1.655,1.914-2.187,2.906c-3.847,7.185-2.313,22.593-1.752,27.144
		c0.428,3.452,3.571,5.903,7.021,5.479c3.453-0.426,5.907-3.568,5.483-7.02c-0.898-7.311-0.973-17.181,0.323-19.606
		c0.666-1.019,3.082-2.629,6.342-4.366l-5.22,46.616l-0.036,0.451c-0.009,0.177-1.043,17.695-20.332,26.441
		c-3.493,1.585-5.041,5.702-3.457,9.194c1.165,2.568,3.698,4.084,6.346,4.078c0.955-0.003,1.923-0.202,2.847-0.622
		c25.713-11.66,28.232-35.107,28.453-38.15l1.774-15.844c0.208-0.003,0.417,0.003,0.623-0.011C86.586,142.216,87,151.002,87,152.252
		v0.162v25.456c0,3.835,3.164,6.944,7,6.944c3.836,0,7-3.109,7-6.944v-24.358c0-3.391-0.037-16.466-17.125-32.173
		c0.072-0.325,0.139-0.652,0.184-0.988l0.768-7.693c1.694,2.196,3.51,3.984,5.406,4.997c7.187,3.839,22.594,2.288,27.144,1.722
		c3.452-0.43,5.9-3.577,5.473-7.026c-0.431-3.452-3.575-5.9-7.026-5.476c-7.309,0.907-17.178,0.992-19.606-0.302
		c-2.137-1.395-6.883-10.445-9.954-18.983c-0.269-0.747-0.668-1.407-1.156-1.975c-1.782-2.879-4.79-4.967-8.407-5.454l-0.329-0.045
		c-2.514-0.338-4.944,0.156-7.027,1.256c-3.415,1.264-8.426,3.294-13.111,5.839V40.933l94.92-14.538L151.211,185h19.269V15
		L47,34.452z"/>
	<circle fill="#3D3D3D" cx="85.479" cy="67.26" r="13.388"/>
</g>
</svg>
