<?xml version="1.0" encoding="utf-8"?>
<!-- Generator: Adobe Illustrator 16.0.0, SVG Export Plug-In . SVG Version: 6.00 Build 0)  -->
<!DOCTYPE svg PUBLIC "-//W3C//DTD SVG 1.1//EN" "http://www.w3.org/Graphics/SVG/1.1/DTD/svg11.dtd">
<svg version="1.1" id="Layer_1" xmlns="http://www.w3.org/2000/svg" xmlns:xlink="http://www.w3.org/1999/xlink" x="0px" y="0px"
	 width="200px" height="200px" viewBox="0 0 200 200" enable-background="new 0 0 200 200" xml:space="preserve">
<g>
	<g>
		<g>
			<circle fill="#404040" cx="100.334" cy="62.772" r="12.318"/>
			<path fill="#404040" d="M111,98.813C111,92.841,106.159,88,100.188,88h-0.375C93.841,88,89,92.841,89,98.813v40.375
				C89,145.159,93.841,150,99.813,150h0.375c5.972,0,10.813-4.841,10.813-10.813V98.813z"/>
		</g>
	</g>
	<g>
		<path fill="#404040" d="M100,27.13c40.181,0,72.869,32.689,72.869,72.869s-32.688,72.87-72.869,72.87
			c-40.18,0-72.869-32.689-72.869-72.87S59.82,27.13,100,27.13 M100,15.13c-46.872,0-84.869,37.997-84.869,84.869
			c0,46.872,37.997,84.87,84.869,84.87s84.869-37.998,84.869-84.87C184.869,53.127,146.872,15.13,100,15.13L100,15.13z"/>
	</g>
</g>
</svg>
