<?xml version="1.0" encoding="utf-8"?>
<!-- Generator: Adobe Illustrator 16.0.0, SVG Export Plug-In . SVG Version: 6.00 Build 0)  -->
<!DOCTYPE svg PUBLIC "-//W3C//DTD SVG 1.1//EN" "http://www.w3.org/Graphics/SVG/1.1/DTD/svg11.dtd">
<svg version="1.1" xmlns="http://www.w3.org/2000/svg" xmlns:xlink="http://www.w3.org/1999/xlink" x="0px" y="0px" width="100px"
	 height="100px" viewBox="0 0 100 100" enable-background="new 0 0 100 100" xml:space="preserve">
<g id="Isolation_Mode">
	<g id="Layer_1" display="none">
		<g display="inline">
			<g>
				<path d="M8.723,32.601L48.305,55.27c0.424,0.244,0.899,0.365,1.373,0.365s0.948-0.121,1.373-0.365l39.584-22.669
					c0.858-0.492,1.389-1.406,1.389-2.396s-0.53-1.904-1.389-2.396L51.051,5.14c-0.85-0.488-1.896-0.488-2.746,0L8.723,27.808
					c-0.859,0.492-1.389,1.407-1.389,2.396S7.863,32.108,8.723,32.601z M49.678,10.718l34.027,19.487L49.678,49.691L15.652,30.205
					L49.678,10.718z"/>
				<path d="M87.889,47.14L49.678,69.023L11.468,47.14c-1.323-0.758-3.011-0.299-3.769,1.023c-0.758,1.324-0.3,3.011,1.023,3.77
					l39.583,22.671c0.424,0.243,0.899,0.364,1.373,0.364s0.948-0.121,1.373-0.364l39.584-22.671c1.322-0.759,1.781-2.445,1.022-3.77
					C90.899,46.84,89.213,46.382,87.889,47.14z"/>
				<path d="M87.889,66.472L49.678,88.355l-38.21-21.884c-1.323-0.759-3.011-0.3-3.769,1.022c-0.758,1.324-0.3,3.013,1.023,3.771
					l39.583,22.671c0.424,0.242,0.899,0.363,1.373,0.363s0.948-0.121,1.373-0.363l39.584-22.671
					c1.322-0.758,1.781-2.446,1.022-3.771C90.899,66.172,89.213,65.713,87.889,66.472z"/>
			</g>
		</g>
	</g>
	<g display="none">
		<g display="inline">
			<path d="M92.623,18.671C81.204,11.294,71.732,7.708,63.785,7.708c-7.379,0-12.451,3.083-16.505,5.561
				c-3.065,1.875-5.727,3.493-8.725,3.493c-11.877,0-28.842-9.635-29.012-9.732C8.689,6.543,7.435,6.541,6.581,7.037
				C5.729,7.532,5,8.442,5,9.427v67.832c0,0.793,0.541,1.546,1.134,2.068c0.638,0.564,15.9,13.812,30.926,13.812
				c7.916,0,12.604-2.44,16.697-4.596c3.627-1.909,6.763-3.541,11.925-3.347c13.559,0.515,23.81,6.462,23.912,6.521
				c0.855,0.508,2.033,0.513,2.894,0.022C93.348,91.245,94,90.331,94,89.341v-68.35C94,20.054,93.411,19.18,92.623,18.671z
				 M11,14.009c5,2.504,14,6.379,22,7.744v65.475c-10-1.744-19-8.876-22-11.26V14.009z M51.266,83.656
				C47.684,85.541,44,87.309,39,87.563V22.285c4,0,7.704-2.187,11.166-4.303C53.91,15.693,58,13.342,63,13.249v66.453
				C58,79.994,54.688,81.855,51.266,83.656z M88,84.889c-4-1.81-11-4.244-19-5.003V13.8c5,1.143,12,4.021,19,8.705V84.889z"/>
		</g>
	</g>
	<g display="none">
		<path display="inline" d="M89.762,6H70.431C68.905,6,68,7.729,68,9.254v80.087C68,90.868,68.905,92,70.431,92h19.331
			C91.287,92,93,90.868,93,89.341V9.254C93,7.729,91.287,6,89.762,6z M87,87H73V12h14V87z"/>
		<path display="inline" d="M59.384,51H40.053C38.527,51,37,51.915,37,53.44v35.9C37,90.868,38.527,92,40.053,92h19.331
			C60.909,92,62,90.868,62,89.341v-35.9C62,51.915,60.909,51,59.384,51z M57,87H43V56h14V87z"/>
		<path display="inline" d="M29.006,34H9.674C8.149,34,7,35.345,7,36.87v52.471C7,90.868,8.149,92,9.674,92h19.332
			C30.531,92,32,90.868,32,89.341V36.87C32,35.345,30.531,34,29.006,34z M26,87H12V40h14V87z"/>
	</g>
	<path display="none" d="M90.528,77.725c-9.426-13.328-13.831-26.581-13.094-39.386c0.489-8.506-2.274-16.405-7.785-22.241
		c-5.128-5.435-11.99-8.425-19.323-8.425c-6.988,0-13.59,2.783-18.59,7.84c-5.7,5.766-8.785,13.833-8.683,22.916
		c0.162,14.089,0.314,27.396-12.417,38.374c-0.781,0.672-1.122,1.724-0.885,2.727c0.237,1.004,1.014,1.791,2.015,2.042
		c4.583,1.151,9.025,1.721,13.32,2.273c8.578,1.098,15.986,2.047,21.861,7.068c0.874,0.874,1.95,1.338,3.111,1.338
		c1.823,0,3.205-1.127,4.215-1.947c0.226-0.184,0.44-0.364,0.647-0.504c6.123-4.129,13.129-4.974,20.547-5.866
		c3.063-0.369,6.23-0.75,9.15-1.351l4.013-0.526c0.96-0.124,1.784-0.744,2.171-1.629C91.191,79.539,91.088,78.515,90.528,77.725z
		 M74.808,78.45c-7.741,0.933-15.746,1.896-22.971,6.767c-0.33,0.224-0.686,0.504-1.049,0.804c-0.156,0.126-0.367,0.296-0.563,0.444
		c-7.182-5.89-15.566-6.963-24.436-8.102c-2.527-0.323-5.105-0.652-7.704-1.105c10.803-11.863,10.645-25.599,10.49-39.089
		c-0.083-7.397,2.435-14.064,7.09-18.773c3.954-4,9.16-6.2,14.662-6.2c5.797,0,11.233,2.376,15.307,6.691
		c4.456,4.722,6.688,11.163,6.285,18.134c-0.74,12.867,3.154,26.022,11.582,39.159C80.671,77.743,77.69,78.103,74.808,78.45z"/>
	<g display="none">
		<path display="inline" d="M89.966,39.655c-5.68-14.58-18.895-24.521-34.487-25.947c-1.528-0.128-2.863,0.98-3.002,2.498
			c-0.141,1.52,0.979,2.863,2.497,3.001c13.495,1.235,24.932,9.838,29.847,22.452c7.1,18.224-1.951,38.827-20.174,45.931
			c-8.828,3.438-18.467,3.236-27.142-0.577c-8.676-3.812-15.347-10.77-18.787-19.598c-1.9-4.88-2.693-9.981-2.355-15.16
			c0.098-1.522-1.056-2.836-2.577-2.936c-1.52-0.085-2.835,1.055-2.936,2.577c-0.388,5.991,0.527,11.887,2.723,17.524
			c3.974,10.203,11.685,18.245,21.71,22.649c5.283,2.321,10.875,3.484,16.477,3.484c5.028,0,10.065-0.938,14.893-2.818
			C87.713,84.528,98.172,60.715,89.966,39.655z"/>
		<path display="inline" d="M49,43.061V8.195c0-1.112-0.664-2.116-1.69-2.547c-0.292-0.123-2.983-1.201-7.188-1.201
			c-5.31,0-13.389,1.749-21.72,10.081C4.325,28.604,7.497,42.667,7.639,43.276C7.93,44.527,9.045,45,10.329,45h35.916
			C47.771,45,49,44.586,49,43.061z M44,40H12.781c-0.186-4,0.847-12.778,9.785-21.717C31.797,9.052,40,9.595,44,10.288V40z"/>
	</g>
	<g display="none">
		<path display="inline" d="M94.372,49.216c-0.332-4.121-3.052-7.063-6.933-7.497c-2.54-0.281-4.944-1.958-5.985-4.172
			c-1.038-2.211-0.664-4.787,1.084-7.443c1.782-2.708,1.94-6.152,0.413-8.986c-2.244-4.162-7.436-5.696-12.335-3.379
			c-2.819,1.33-4.947,1.974-6.503,1.974c-2.121,0-3.724-1.203-6.063-7.505c-0.925-4.766-4.771-6.904-8.228-6.904
			c-3.66,0-7.614,2.436-8.27,7.093c-2.42,6.915-4.957,7.811-6.902,7.811c-1.853,0-4.315-0.876-7.321-2.611
			c-4.757-2.729-11.764,0.248-11.766,8.692c0,0.464,0.118,0.919,0.34,1.327c2.004,3.66,4.146,8.19,2.902,10.764
			c-1.125,2.33-5.154,3.468-8.336,4.013c-0.171,0.03-0.34,0.073-0.501,0.135c-2.496,0.936-4.164,3.636-4.353,7.053
			c-0.204,3.668,1.349,6.799,4.049,8.166c0.275,0.141,0.57,0.232,0.876,0.275c4.486,0.609,7.391,1.855,8.4,3.6
			c1.294,2.241-0.208,5.92-1.533,9.165c-0.634,1.548-1.231,3.01-1.543,4.36c-0.097,0.421-0.093,0.857,0.01,1.275
			c0.852,3.487,3.96,7.093,7.683,7.093c0.755,0,1.489-0.153,2.178-0.453c3.118-1.361,6.695-2.753,9.58-2.753
			c2.62,0,5.552,1.006,7.457,8.433c0.573,3.52,3.794,5.961,7.902,5.958c4.609,0,8.102-3.056,8.494-7.43
			c0.496-5.551,3.962-8.064,8.647-6.451c0.751,0.259,1.58,0.698,2.458,1.165c1.718,0.908,3.665,1.941,5.808,1.941
			c1.794,0,3.391-0.701,4.745-2.087c4.762-4.874,2.46-9.17,0.778-12.307c-0.315-0.593-0.643-1.2-0.882-1.698l-1.223-3.04
			c0.645-4.129,3.396-6.103,9.321-6.761c0.148-0.017,0.294-0.046,0.438-0.087C92.993,56.902,94.658,52.766,94.372,49.216z
			 M87.889,52.577c-3.549,0.404-12.915,1.767-13.967,12.306c-0.045,0.445,0.02,0.893,0.186,1.306l1.551,3.843
			c0.343,0.73,0.715,1.43,1.077,2.106c1.675,3.126,1.999,3.935,0.141,5.839c-0.415,0.423-0.645,0.423-0.796,0.423
			c-0.769,0-2.071-0.69-3.22-1.3c-1.027-0.545-2.089-1.105-3.248-1.505c-1.539-0.531-3.066-0.798-4.543-0.798
			c-6.277,0-10.753,4.703-11.404,11.979c-0.199,2.225-2.341,2.397-2.992,2.397c-0.913,0-2.319-0.358-2.456-1.354
			c-0.014-0.103-0.034-0.205-0.058-0.305c-2.134-8.447-6.455-12.732-12.845-12.732c-3.9,0-8.147,1.624-11.758,3.207
			c-0.421,0-1.568-0.931-2.122-2.279c0.259-0.82,0.664-1.807,1.084-2.837c1.626-3.98,3.853-9.432,1.204-14.016
			c-1.885-3.264-5.754-5.303-11.818-6.225c-0.479-0.451-0.792-1.408-0.785-2.484c0.009-1.3,0.455-2.147,0.704-2.39
			c6.331-1.152,10.243-3.438,11.954-6.979c2.224-4.604,0.106-9.973-2.667-15.148c0.236-2.999,1.989-4.086,3.461-3.25
			c3.908,2.252,7.205,3.347,10.077,3.347c7.333,0,10.487-6.739,12.221-11.813c0.067-0.197,0.112-0.401,0.134-0.609
			c0.19-1.831,1.637-2.481,2.818-2.481c0.722,0,2.444,0.25,2.831,2.567c0.028,0.167,0.073,0.334,0.131,0.496
			c2.015,5.488,4.718,11.346,11.33,11.346c2.422,0,5.235-0.796,8.857-2.503c0.839-0.394,1.633-0.596,2.36-0.596
			c1.711,0,2.498,1.122,2.759,1.602c0.57,1.06,0.508,2.303-0.166,3.328c-2.819,4.288-3.34,8.843-1.469,12.829
			c1.855,3.948,5.928,6.82,10.374,7.314c1.534,0.17,1.955,1.427,2.037,2.449C88.983,51.109,88.389,52.297,87.889,52.577z"/>
		<path display="inline" d="M50.083,35.492c-8.12,0-14.728,6.607-14.728,14.728s6.607,14.728,14.728,14.728
			c8.121,0,14.728-6.607,14.728-14.728S58.204,35.492,50.083,35.492z M50.083,59.424c-5.076,0-9.205-4.129-9.205-9.204
			c0-5.076,4.129-9.205,9.205-9.205s9.205,4.129,9.205,9.205C59.288,55.295,55.159,59.424,50.083,59.424z"/>
	</g>
	<g display="none">
		<path display="inline" d="M86.683,14h-17.95c-1.525,0-2.762,1.474-2.762,3s1.236,3,2.762,3H83v13.834c0,1.526,1.475,2.762,3,2.762
			s3-1.235,3-2.762V15.884C89,14.357,88.208,14,86.683,14z"/>
		<path display="inline" d="M32.831,80H17V64.212c0-1.526-1.475-2.761-3-2.761s-3,1.234-3,2.761v17.951
			C11,83.689,13.355,86,14.88,86h17.951c1.525,0,2.762-1.474,2.762-3S34.356,80,32.831,80z"/>
		<path display="inline" d="M32.831,14H14.88C13.355,14,11,14.357,11,15.884v17.951c0,1.526,1.475,2.762,3,2.762s3-1.235,3-2.762V20
			h15.831c1.525,0,2.762-1.474,2.762-3S34.356,14,32.831,14z"/>
		<path display="inline" d="M86,61.451c-1.525,0-3,1.234-3,2.761V80H68.732c-1.525,0-2.762,1.474-2.762,3s1.236,3,2.762,3h17.95
			C88.208,86,89,83.689,89,82.163V64.212C89,62.686,87.525,61.451,86,61.451z"/>
	</g>
	<g display="none">
		<path display="inline" d="M88.758,65h-17.95C69.28,65,67,67.903,67,69.429v17.95c0,1.525,1.474,2.762,3,2.762s3-1.236,3-2.762V71
			h15.758c1.526,0,2.762-1.475,2.762-3S90.284,65,88.758,65z"/>
		<path display="inline" d="M29.193,65H11.242c-1.526,0-2.762,1.475-2.762,3s1.235,3,2.762,3H28v16.379c0,1.525,1.474,2.762,3,2.762
			s3-1.236,3-2.762v-17.95C34,67.903,30.719,65,29.193,65z"/>
		<path display="inline" d="M31,9.859c-1.526,0-3,1.237-3,2.762V29H11.242c-1.526,0-2.762,1.475-2.762,3s1.235,3,2.762,3h17.951
			C30.719,35,34,32.097,34,30.572V12.621C34,11.096,32.526,9.859,31,9.859z"/>
		<path display="inline" d="M70.808,35h17.95c1.526,0,2.762-1.475,2.762-3s-1.235-3-2.762-3H73V12.621c0-1.525-1.474-2.762-3-2.762
			s-3,1.237-3,2.762v17.951C67,32.097,69.28,35,70.808,35z"/>
	</g>
	<path display="none" d="M50,4.311c-22.604,0-40.993,18.39-40.993,40.993c0,21.856,17.208,39.721,38.78,40.881l-7.208,5.241
		c-1.053,0.766-1.285,2.241-0.519,3.293c0.461,0.637,1.18,0.971,1.908,0.971c0.481,0,0.967-0.146,1.386-0.45l12.398-9.016
		c1.053-0.766,1.284-2.241,0.519-3.293L47.26,70.533c-0.764-1.052-2.24-1.284-3.294-0.521c-1.053,0.763-1.288,2.238-0.522,3.293
		l5.386,7.408C29.816,80.089,14.53,64.466,14.53,45.303c0-19.558,15.912-35.47,35.47-35.47c19.558,0,35.47,15.912,35.47,35.47
		c0,8.344-2.952,16.446-8.313,22.816c-0.981,1.165-0.832,2.907,0.335,3.889c1.165,0.984,2.908,0.834,3.892-0.334
		c6.197-7.362,9.61-16.727,9.61-26.371C90.993,22.701,72.604,4.311,50,4.311z"/>
	<g display="none">
		<path display="inline" d="M50,45.083c1.525,0,3-1.235,3-2.762V9.182c0-1.526-1.475-2.761-3-2.761c-1.525,0-3,1.235-3,2.761v33.14
			C47,43.849,48.475,45.083,50,45.083z"/>
		<path display="inline" d="M88.196,37.683C84.221,27.478,76.51,19.436,66.485,15.032c-1.396-0.604-3.026,0.019-3.639,1.419
			c-0.614,1.397,0.021,3.026,1.417,3.641C72.938,23.899,79.61,30.86,83.05,39.687c3.44,8.83,3.236,18.468-0.572,27.142
			c-3.812,8.676-10.771,15.345-19.601,18.786c-8.829,3.438-18.467,3.236-27.141-0.577C27.061,81.23,20.389,74.27,16.949,65.442
			c-3.44-8.829-3.235-18.468,0.574-27.142c3.354-7.635,9.315-13.868,16.789-17.549c1.368-0.674,1.931-2.33,1.256-3.7
			c-0.673-1.364-2.323-1.923-3.697-1.257c-8.638,4.256-15.529,11.459-19.404,20.284c-4.404,10.024-4.639,21.166-0.664,31.368
			c3.976,10.202,11.686,18.247,21.71,22.651c5.283,2.319,10.873,3.481,16.474,3.481c5.03,0,10.067-0.938,14.896-2.818
			c10.202-3.975,18.247-11.686,22.651-21.71C91.937,59.026,92.173,47.886,88.196,37.683z"/>
	</g>
	<g id="_x31_2" display="none">
		<path display="inline" d="M67.175,18C66.899,11,62,4.727,56,2.393v2.156c0,0.623-0.377,1.126-1,1.126c-0.625,0-1-0.503-1-1.126
			V1.713c-1-0.156-1-0.243-3-0.295v4.257c0,0.624-0.379,1.128-1,1.128c-0.622,0-1-0.504-1-1.128V1.418c-2,0.053-2,0.141-3,0.296
			v2.835c0,0.623-0.379,1.126-1,1.126s-1-0.503-1-1.126V2.396C39,4.738,33.493,11,33.18,18H31v5h38v-5H67.175z"/>
		<path display="inline" d="M50.222,37.525c7.41,0,13.551-4.525,14.76-13.525H35.458C36.668,33,42.809,37.525,50.222,37.525z"/>
		<rect x="31" y="72" display="inline" width="4" height="3"/>
		<path display="inline" d="M35,41.236c-9,3.309-16,12.555-16,27.499v24.579c0,3.064,2.256,5.552,5.323,5.552
			c3.066,0,4.677-2.487,4.677-5.552V68.735c0-4.171,1-7.524,2-10.167V67h4V41.236z"/>
		<path display="inline" d="M53.647,54.507l6.896-14.814c0,0-20.414,0.153-20.602,0.153l6.861,14.623L53.647,54.507z"/>
		<polygon display="inline" points="60.595,84 50.239,84 39.885,84 34.708,84 31,84 31,87 69,87 69,84 65.771,84 		"/>
		<rect x="65" y="72" display="inline" width="4" height="3"/>
		<path display="inline" d="M65,41.244V67h4v-8.379c1,2.607,1,5.935,1,10.114v24.579c0,3.064,2.1,5.552,5.164,5.552
			c3.068,0,5.578-2.487,5.578-5.552l-0.43-24.579C80.313,53.799,73,44.553,65,41.244z"/>
	</g>
	<path id="_x31_3" d="M95,34v-4.253L60.068,4H53v5.028L12.211,27H4v4.506L7.805,34H11v32.078V76h5v1.943c0,0-3.529,1.76-3.254,5.385
		c0.273,3.626,2.958,5.023,5.842,4.889c1.979-0.091,4.007-1.705,4.123-4.576c0.025-0.626-0.068-0.984-0.273-1.007
		c0,0-0.363,0.022-0.484,0.777c-0.197,1.231-1.329,2.391-3.091,2.5c-1.272,0.077-2.521-0.855-2.818-2.144
		c-0.421-1.831,0.94-3.605,3.532-3.405l0.557-1.097L20.145,76H24v-9.922V34h21v48h-0.527L41,91.129V97h30.935l-0.037-5.521
		L67.283,82H66V34H95z M84.509,27H63v-6h-3V8.656L84.509,27z M53,13.801V21h-4v6H23.475L53,13.801z M18.06,74.1
		c-1.517,0-2.746-1.23-2.746-2.746c0-1.519,1.229-2.748,2.746-2.748s2.748,1.229,2.748,2.748C20.807,72.869,19.577,74.1,18.06,74.1z
		 M21,67h-7V34h7V67z M55.214,34L49,39.57V34H55.214z M63,79.499L51.402,68.075L63,57.213V79.499z M49,66.138V43.833l11.805,11.251
		L49,66.138z M49,70.031L61.756,82H49V70.031z M63,52.944L50.923,41.478L58.438,34H63V52.944z"/>
	<g id="_x31_4" display="none">
		<path display="inline" d="M218.633,73.564l-0.265,1.115c-0.077,0.322-0.482,0.499-0.801,0.421
			c-0.318-0.077-0.601-0.42-0.523-0.742l0.348-1.466c-0.644-0.242-0.634-0.286-1.289-0.474l-0.521,2.2
			c-0.08,0.322-0.484,0.5-0.803,0.422c-0.318-0.076-0.6-0.421-0.525-0.742l0.525-2.201c-0.67-0.133-0.682-0.088-1.361-0.168
			l-0.348,1.466c-0.078,0.321-0.484,0.499-0.803,0.421c-0.317-0.076-0.6-0.42-0.523-0.742l0.266-1.113
			c-2.947,0.607-6.496,3.343-7.568,7.859c-0.006,0.021,0.177,0.223,0.177,0.223l16.971,4.111c0,0,0.258-0.116,0.263-0.139
			C222.924,79.5,220.986,75.449,218.633,73.564z"/>
		
			<rect x="203.483" y="81.407" transform="matrix(0.9719 0.2355 -0.2355 0.9719 25.4072 -47.8527)" display="inline" width="19.082" height="2.053"/>
		<path display="inline" d="M210.957,91.098c3.791,0.92,7.643-1.298,9.215-5.163l-15.109-3.663
			C204.729,86.438,207.164,90.178,210.957,91.098z"/>
		<path display="inline" d="M231.821,115.369c-6.526-1.617-9.563-3.338-11.807-7.109c-2.418-4.071-2.279-6.721-2.271-9.29
			c0.005-1.146-0.348-2.456-0.995-3.484c-0.85-1.983-3.232-4.573-9.908-4.054c0,0-0.019,0.001-0.051,0.006
			c-0.277,0.005-0.558,0.033-0.838,0.104c-15.408,3.891-16.741,26.648-16.816,27.613c-0.157,2.036,0.742,3.766,2.758,3.929
			c0.1,0.007,0.197,0.012,0.295,0.012c1.89,0,2.922-1.774,3.078-3.711c0.317-3.945,2.49-12.854,7.412-17.688
			c-0.057,0.83-0.098,1.719-0.113,2.689c-0.049,3.096-0.352,5.758-1.281,8.692c-2.544,8.026,0.77,12.589,2.438,14.27
			c-1.564,4.896-5.538,12.259-15.466,21.048c-1.559,1.378-1.714,3.772-0.351,5.347c0.743,0.854,1.779,1.291,2.822,1.291
			c0.878,0,1.76-0.311,2.471-0.938c11.219-9.931,15.892-18.626,17.789-24.767l0.043-0.104c4.25,2.101,11.586,7.781,13.761,22.779
			c0.268,1.841,1.832,3.165,3.621,3.165c0.177,0,0.355-0.012,0.536-0.039c2.001-0.296,3.386-2.177,3.094-4.198
			c-2.765-19.055-12.924-26.14-18.367-28.646l1.236-8.606c3.479,3.604,8.591,5.939,15.277,7.598
			c0.294,0.072,0.587,0.107,0.876,0.107c1.648,0,3.145-0.444,3.555-2.133C235.102,117.265,233.786,115.859,231.821,115.369z"/>
		<polygon display="inline" points="243,154 240,154 240,61.837 197,70.563 197,106 194,106 194,68.318 243,58.465 		"/>
	</g>
</g>
<g id="Layer_3">
</g>
</svg>
