<?xml version="1.0" encoding="utf-8"?>
<!-- Generator: Adobe Illustrator 16.0.0, SVG Export Plug-In . SVG Version: 6.00 Build 0)  -->
<!DOCTYPE svg PUBLIC "-//W3C//DTD SVG 1.1//EN" "http://www.w3.org/Graphics/SVG/1.1/DTD/svg11.dtd">
<svg version="1.1" id="Layer_1" xmlns="http://www.w3.org/2000/svg" xmlns:xlink="http://www.w3.org/1999/xlink" x="0px" y="0px"
	 width="200px" height="200px" viewBox="0 0 200 200" enable-background="new 0 0 200 200" xml:space="preserve">
<g>
	<path fill="#404040" d="M116.083,168.46l-32.217-0.026c-3.87,0.036-7.008,3.156-6.995,6.96c0.008,1.28,0.636,5.521,8.335,6.351
		c0.521,0.116,2.059,1.158,3.076,1.789c2.98,1.847,7.062,4.467,11.635,4.467h0.019c4.64,0,8.795-2.701,11.832-4.605
		c0.808-0.506,2.137-1.384,2.653-1.575c5.317-0.449,8.729-3.045,8.707-6.604C123.103,171.439,120.007,168.46,116.083,168.46z"/>
	<path fill="#404040" d="M142.801,31.593c-5.266-5.831-11.947-10.791-19.325-14.174C116.044,14.013,108.026,12,100.264,12h-0.569
		c-7.729,0-15.743,2.016-23.174,5.422c-7.382,3.385-14.063,8.301-19.323,14.13c-9.982,11.06-14.397,24.901-12.432,38.934
		c2.161,15.368,9.72,25.775,15.794,34.129c4.386,6.029,8.173,11.242,8.318,16.319l0.168,5.855l61.914-0.002l0.164-5.85
		c0.146-5.077,3.936-10.289,8.322-16.323c6.073-8.351,13.63-18.743,15.787-34.112C157.198,56.471,152.783,42.652,142.801,31.593z
		 M80.325,115c-1.673-6-5.424-11.343-9.7-17.224c-5.568-7.658-11.879-16.399-13.627-28.84c-1.473-10.514,1.889-21.068,9.466-29.462
		C74.875,30.154,87.646,24,99.795,24h0.388c12.155,0,24.934,6.115,33.351,15.441c7.579,8.395,10.941,18.863,9.468,29.376
		c-1.746,12.437-8.055,21.27-13.628,28.938C125.1,103.633,121.351,109,119.678,115H80.325z"/>
	<path fill="#404040" d="M124.289,132H75.71c-3.663,0-6.644,2.932-6.644,6.5s2.98,6.5,6.644,6.5h48.579
		c3.664,0,6.646-2.932,6.646-6.5S127.953,132,124.289,132z"/>
	<path fill="#404040" d="M124.289,151H75.71c-3.663,0-6.644,2.932-6.644,6.5s2.98,6.5,6.644,6.5h48.579
		c3.664,0,6.646-2.932,6.646-6.5S127.953,151,124.289,151z"/>
</g>
</svg>
