<?xml version="1.0" encoding="utf-8"?>
<!-- Generator: Adobe Illustrator 16.0.0, SVG Export Plug-In . SVG Version: 6.00 Build 0)  -->
<!DOCTYPE svg PUBLIC "-//W3C//DTD SVG 1.1//EN" "http://www.w3.org/Graphics/SVG/1.1/DTD/svg11.dtd">
<svg version="1.1" id="Layer_1" xmlns="http://www.w3.org/2000/svg" xmlns:xlink="http://www.w3.org/1999/xlink" x="0px" y="0px"
	 width="200px" height="200px" viewBox="0 0 200 200" enable-background="new 0 0 200 200" xml:space="preserve">
<path fill="#404040" d="M100.004,15.232c-46.82,0-84.769,37.951-84.769,84.769c0,46.816,37.949,84.767,84.769,84.767
	c46.813,0,84.76-37.95,84.76-84.767C184.765,53.183,146.817,15.232,100.004,15.232z M121.746,169.338
	c0,0,18.912-47.927-19.226-76.922c0,0,1.893,26.473-13.239,34.984c0,0,4.73-17.025-3.472-25.529c0,0-1.89,18.909-15.125,28.059
	c-13.241,9.132-3.157,35.069,3.464,41.331c0,0-34.668-15.811-34.356-42.599c0.318-26.791,18.911-41.607,15.762-58.625
	c0,0,9.139,6.604,7.564,25.205c0,0,33.097-40.652,26.164-66.496c0,0,34.038,13.235,38.447,53.899c0,0,9.456-11.664,2.205-27.423
	c0,0,29.317,24.899,30.263,60.202C161.139,150.735,121.746,169.338,121.746,169.338z"/>
</svg>
