<?xml version="1.0" encoding="utf-8"?>
<!-- Generator: Adobe Illustrator 16.0.0, SVG Export Plug-In . SVG Version: 6.00 Build 0)  -->
<!DOCTYPE svg PUBLIC "-//W3C//DTD SVG 1.1//EN" "http://www.w3.org/Graphics/SVG/1.1/DTD/svg11.dtd">
<svg version="1.1" id="Layer_1" xmlns="http://www.w3.org/2000/svg" xmlns:xlink="http://www.w3.org/1999/xlink" x="0px" y="0px"
	 width="200px" height="200px" viewBox="0 0 200 200" enable-background="new 0 0 200 200" xml:space="preserve">
<path fill="#404040" d="M99.989,15.621c-46.696,0-84.687,37.851-84.687,84.378c0,46.524,37.99,84.38,84.687,84.38
	c46.703,0,84.708-37.855,84.708-84.38C184.697,53.472,146.692,15.621,99.989,15.621z M99.989,35.788
	c13.956,0,26.854,4.476,37.426,11.997L47.55,137.268c-7.57-10.52-12.08-23.367-12.08-37.269
	C35.47,64.593,64.412,35.788,99.989,35.788z M99.989,164.209c-13.638,0-26.279-4.26-36.711-11.475l89.695-89.296
	c7.264,10.388,11.551,22.976,11.551,36.561C164.524,135.404,135.575,164.209,99.989,164.209z"/>
</svg>
