<?xml version="1.0" encoding="utf-8"?>
<!-- Generator: Adobe Illustrator 16.0.0, SVG Export Plug-In . SVG Version: 6.00 Build 0)  -->
<!DOCTYPE svg PUBLIC "-//W3C//DTD SVG 1.1//EN" "http://www.w3.org/Graphics/SVG/1.1/DTD/svg11.dtd">
<svg version="1.1" id="Layer_1" xmlns="http://www.w3.org/2000/svg" xmlns:xlink="http://www.w3.org/1999/xlink" x="0px" y="0px"
	 width="200px" height="200px" viewBox="0 0 200 200" enable-background="new 0 0 200 200" xml:space="preserve">
<g>
	<path fill="#404040" d="M132.172,32.764L127,30.67v25.703l2.178,0.887c17.826,9.755,27.289,26.107,27.289,47.29
		c0,32.57-24.87,58.084-56.648,58.084c-31.876,0-56.836-25.514-56.836-58.084c0-24.612,10.17-41.636,30.397-50.598L75,52.975V28.393
		l-4.107,1.684c-31.807,11.355-50.004,38.5-50.004,74.473c0,44.489,36.132,80.684,80.517,80.684
		c43.614,0,77.746-35.44,77.746-80.684C179.151,72.965,161.584,46.135,132.172,32.764z"/>
	<path fill="#404040" d="M100.5,109.041c6.545,0,11.5-5.563,11.5-12.398V27.165c0-6.836-4.955-12.398-11.5-12.398
		c-6.542,0-11.5,5.562-11.5,12.398v69.478C89,103.479,93.958,109.041,100.5,109.041z"/>
</g>
</svg>
