<?xml version="1.0" encoding="utf-8"?>
<!-- Generator: Adobe Illustrator 16.0.0, SVG Export Plug-In . SVG Version: 6.00 Build 0)  -->
<!DOCTYPE svg PUBLIC "-//W3C//DTD SVG 1.1//EN" "http://www.w3.org/Graphics/SVG/1.1/DTD/svg11.dtd">
<svg version="1.1" id="Layer_1" xmlns="http://www.w3.org/2000/svg" xmlns:xlink="http://www.w3.org/1999/xlink" x="0px" y="0px"
	 width="200px" height="200px" viewBox="0 0 200 200" enable-background="new 0 0 200 200" xml:space="preserve">
<g>
	<g>
		<g>
			<path fill="#404040" d="M170.084,79.812c-0.031-0.867-0.724-1.322-1.548-1.322c-0.825,0-1.518,0.344-1.549,1.211l-0.092,2.3h3.28
				L170.084,79.812z"/>
			<path fill="#404040" d="M171.518,112.971c0.002-0.041,0.006,0.029,0.006,0.029h-0.009l-1.235-28h-3.487l-1.235,28h-0.012
				c0,4-2.327,5-3.263,5H155v6.229l7.59-1.195l0.312-0.267c2.908-0.436,8.442-1.767,8.605-9.767h0.017L171.518,112.971z"/>
		</g>
	</g>
	<g>
		<path fill="#404040" d="M29.82,79.812c0.03-0.867,0.722-1.322,1.547-1.322c0.825,0,1.517,0.344,1.548,1.211l0.093,2.3h-3.281
			L29.82,79.812z"/>
		<path fill="#404040" d="M28.385,112.971C28.384,112.93,28.378,113,28.378,113h0.01l1.235-28h3.488l1.234,28h0.012
			c0,4,2.328,5,3.262,5H43v6.229l-6.637-1.195l0.161-0.267c-2.906-0.436-7.964-1.767-8.129-9.767h-0.016L28.385,112.971z"/>
	</g>
	<g>
		<path fill="#404040" d="M30.963,49.336c8.591,0,16.482,3.312,22.68,8.822l-2.855,2.989c-5.462-4.709-12.343-7.529-19.824-7.529
			c-7.431,0-14.27,2.785-19.714,7.434l-2.855-2.989C14.574,52.612,22.422,49.336,30.963,49.336z"/>
		<path fill="#404040" d="M46.637,65.494l-2.834,2.969c-3.514-3.108-7.979-4.978-12.84-4.978c-4.812,0-9.23,1.837-12.728,4.888
			l-2.845-2.981c4.229-3.851,9.651-6.185,15.573-6.185C36.935,59.207,42.396,61.584,46.637,65.494z"/>
		<path fill="#404040" d="M39.456,73.017l-2.838,2.972c-1.51-1.463-3.483-2.369-5.655-2.369c-2.121,0-4.053,0.863-5.551,2.268
			l-2.84-2.972c2.224-2.21,5.16-3.573,8.391-3.573C34.246,69.342,37.225,70.743,39.456,73.017z"/>
	</g>
	<g>
		<path fill="#404040" d="M168.83,49.336c8.59,0,16.481,3.312,22.679,8.822l-2.854,2.989c-5.463-4.709-12.343-7.529-19.824-7.529
			c-7.431,0-14.27,2.785-19.715,7.434l-2.855-2.989C152.441,52.612,160.288,49.336,168.83,49.336z"/>
		<path fill="#404040" d="M184.504,65.494l-2.834,2.969c-3.515-3.108-7.979-4.978-12.84-4.978c-4.812,0-9.23,1.837-12.728,4.888
			l-2.845-2.981c4.229-3.851,9.65-6.185,15.572-6.185C174.802,59.207,180.262,61.584,184.504,65.494z"/>
		<path fill="#404040" d="M177.322,73.017l-2.838,2.972c-1.511-1.463-3.483-2.369-5.654-2.369c-2.121,0-4.053,0.863-5.552,2.268
			l-2.84-2.972c2.225-2.21,5.16-3.573,8.392-3.573C172.112,69.342,175.092,70.743,177.322,73.017z"/>
	</g>
	<g>
		<path fill="#404040" d="M99.363,42.212c8.59,0,16.483,3.312,22.68,8.822l-2.854,2.989c-5.464-4.709-12.344-7.529-19.826-7.529
			c-7.43,0-14.269,2.785-19.713,7.434l-2.856-2.989C82.975,45.488,90.822,42.212,99.363,42.212z"/>
		<path fill="#404040" d="M115.038,58.371l-2.834,2.969c-3.516-3.108-7.979-4.978-12.841-4.978c-4.811,0-9.229,1.838-12.727,4.888
			l-2.846-2.981c4.229-3.851,9.651-6.185,15.572-6.185C105.336,52.083,110.796,54.46,115.038,58.371z"/>
		<path fill="#404040" d="M107.855,65.894l-2.838,2.972c-1.51-1.463-3.482-2.369-5.655-2.369c-2.121,0-4.052,0.863-5.551,2.268
			l-2.839-2.972c2.223-2.21,5.159-3.573,8.39-3.573C102.646,62.218,105.625,63.62,107.855,65.894z"/>
	</g>
	<g>
		<g>
			<path fill="#404040" d="M98.346,74.931c0.03-0.868,0.723-1.264,1.549-1.264c0.824,0,1.516,0.255,1.547,1.122L101.534,77h-3.28
				L98.346,74.931z"/>
			<path fill="#404040" d="M96.711,108h0.194l0.006-0.029C96.911,107.93,96.906,108,96.906,108h0.01l1.235-28h3.49l1.232,28h-0.209
				H96.711z"/>
		</g>
	</g>
	<g>
		<path fill="#404040" d="M146.815,110H51.562c-3.301,0-5.562,2.715-5.562,6.018v32.717c0,3.301,2.261,5.266,5.562,5.266H52v0.875
			c0,1.334,1.759,3.125,3.094,3.125h4.835c1.336,0,2.071-1.791,2.071-3.125V154h74v0.875c0,1.334,1.958,3.125,3.295,3.125h4.834
			c1.335,0,2.871-1.791,2.871-3.125V154h-0.185c3.3,0,6.185-1.965,6.185-5.266v-32.717C153,112.715,150.115,110,146.815,110z
			 M57.189,128.594c-2.136,0-3.868-1.732-3.868-3.869c0-2.135,1.731-3.867,3.868-3.867s3.868,1.732,3.868,3.867
			C61.058,126.861,59.326,128.594,57.189,128.594z M68.794,128.594c-2.137,0-3.868-1.732-3.868-3.869
			c0-2.135,1.731-3.867,3.868-3.867c2.137,0,3.868,1.732,3.868,3.867C72.663,126.861,70.932,128.594,68.794,128.594z
			 M79.754,128.594c-2.136,0-3.868-1.732-3.868-3.869c0-2.135,1.731-3.867,3.868-3.867c2.137,0,3.869,1.732,3.869,3.867
			C83.623,126.861,81.891,128.594,79.754,128.594z M90.792,128.594c-2.136,0-3.868-1.732-3.868-3.869
			c0-2.135,1.732-3.867,3.868-3.867c2.137,0,3.868,1.732,3.868,3.867C94.661,126.861,92.929,128.594,90.792,128.594z
			 M101.831,128.594c-2.136,0-3.868-1.732-3.868-3.869c0-2.135,1.732-3.867,3.868-3.867c2.137,0,3.869,1.732,3.869,3.867
			C105.7,126.861,103.968,128.594,101.831,128.594z"/>
	</g>
</g>
</svg>
