<?xml version="1.0" encoding="utf-8"?>
<!-- Generator: Adobe Illustrator 16.0.0, SVG Export Plug-In . SVG Version: 6.00 Build 0)  -->
<!DOCTYPE svg PUBLIC "-//W3C//DTD SVG 1.1//EN" "http://www.w3.org/Graphics/SVG/1.1/DTD/svg11.dtd">
<svg version="1.1" id="Layer_1" xmlns="http://www.w3.org/2000/svg" xmlns:xlink="http://www.w3.org/1999/xlink" x="0px" y="0px"
	 width="200px" height="200px" viewBox="0 0 200 200" enable-background="new 0 0 200 200" xml:space="preserve">
<g>
	<path fill="#404040" d="M150.167,15H49.833C45.263,15,41,18.887,41,23.458V185h117V23.458C158,18.887,154.736,15,150.167,15z
		 M57,34h60v9H57V34z M57,61h60v9H57V61z M57,88h60v9H57V88z M103.104,161.55c-8.571,0-15.52-6.948-15.52-15.52
		c0-8.572,6.949-15.52,15.52-15.52s15.519,6.947,15.519,15.52C118.622,154.602,111.675,161.55,103.104,161.55z M136.979,97.931
		c-3.285,0-5.947-2.663-5.947-5.947c0-3.285,2.662-5.948,5.947-5.948s5.947,2.663,5.947,5.948
		C142.926,95.269,140.264,97.931,136.979,97.931z M136.979,71.038c-3.285,0-5.947-2.663-5.947-5.948
		c0-3.285,2.662-5.948,5.947-5.948s5.947,2.663,5.947,5.948C142.926,68.375,140.264,71.038,136.979,71.038z M136.979,44.145
		c-3.285,0-5.947-2.663-5.947-5.948c0-3.285,2.662-5.947,5.947-5.947s5.947,2.663,5.947,5.947
		C142.926,41.482,140.264,44.145,136.979,44.145z"/>
</g>
</svg>
