<?xml version="1.0" encoding="utf-8"?>
<!-- Generator: Adobe Illustrator 16.0.0, SVG Export Plug-In . SVG Version: 6.00 Build 0)  -->
<!DOCTYPE svg PUBLIC "-//W3C//DTD SVG 1.1//EN" "http://www.w3.org/Graphics/SVG/1.1/DTD/svg11.dtd">
<svg version="1.1" id="Layer_1" xmlns="http://www.w3.org/2000/svg" xmlns:xlink="http://www.w3.org/1999/xlink" x="0px" y="0px"
	 width="200px" height="200px" viewBox="0 0 200 200" enable-background="new 0 0 200 200" xml:space="preserve">
<g id="Layer_49">
	<g>
		<ellipse fill="#1212C9" cx="100.951" cy="30.418" rx="22.132" ry="18.719"/>
		<path fill="#1212C9" d="M144.649,90.962c-0.147-20.54-19.568-37.231-43.822-37.467C76.571,53.73,57,70.422,57,90.962
			c0,0.073,0,3.204,0,3.674v0.06v26.354c0,3.854,3.711,6.979,8.274,6.979c4.564,0,8.278-3.126,8.278-6.98V94.636
			c0-0.013-0.177-0.024-0.177-0.039c0-0.564-0.347-3.563-0.346-3.635c0.061-5.233,2.887-10.064,5.252-13.965v38.327
			c0,0.085,0,0.167,0,0.252v64.468c0,4.56,4.658,8.257,10.051,8.257c5.39,0,10.048-3.697,10.048-8.257V121h4.729v59.044
			c0,4.56,4.657,8.257,10.051,8.257c5.388,0,10.047-3.697,10.047-8.257v-59.276v-5.19v-38.36c3.548,3.863,5.187,8.608,5.245,13.745
			c0,0.072-0.255,3.072-0.255,3.636c0,0.014-0.26,0.025-0.26,0.038v26.412c0,3.854,3.713,6.979,8.275,6.979
			c4.563,0,8.276-3.124,8.276-6.979V94.694v-0.06C144.489,94.166,144.652,91.035,144.649,90.962z"/>
	</g>
</g>
</svg>
