<?xml version="1.0" encoding="utf-8"?>
<!-- Generator: Adobe Illustrator 16.0.0, SVG Export Plug-In . SVG Version: 6.00 Build 0)  -->
<!DOCTYPE svg PUBLIC "-//W3C//DTD SVG 1.1//EN" "http://www.w3.org/Graphics/SVG/1.1/DTD/svg11.dtd">
<svg version="1.1" id="Layer_1" xmlns="http://www.w3.org/2000/svg" xmlns:xlink="http://www.w3.org/1999/xlink" x="0px" y="0px"
	 width="200px" height="200px" viewBox="0 0 200 200" enable-background="new 0 0 200 200" xml:space="preserve">
<g>
	<circle fill="#404040" cx="71.03" cy="69.252" r="17.267"/>
	<path fill="#404040" d="M100,15.13c-46.872,0-84.869,37.997-84.869,84.869c0,46.872,37.997,84.87,84.869,84.87
		s84.869-37.998,84.869-84.87C184.869,53.127,146.872,15.13,100,15.13z M48,150.979v-29.067c0-0.064,0-5.822,3-10.958v42.934
		C49.97,152.95,48.975,151.975,48,150.979z M94,172.602c-1.344-0.109-2.678-0.253-4-0.436v-60.361c0,0.022,0.577,0.041,0.59,0.064
		c2.958,4.877,3.41,10.041,3.41,10.076V172.602z M109,172.293V134h20v13.813l34.46-23.05L129,101.713V113h-21.914
		c-1.442-4.227-3.949-9.282-8.292-13.646c-6.49-6.52-16.062-9.826-27.49-9.826c-11.429,0-20.94,3.307-27.43,9.826
		C34.493,108.782,34,121.442,34,121.945v8.895c-4.397-9.372-6.869-19.821-6.869-30.84c0-40.18,32.689-72.869,72.869-72.869
		c24.108,0,45.509,11.776,58.78,29.87H128V46.069l-34.459,23.05L128,92.169V81h42.341c1.639,6.062,2.528,12.427,2.528,19
		C172.869,137.131,144.946,167.843,109,172.293z"/>
</g>
</svg>
