<?xml version="1.0" encoding="utf-8"?>
<!-- Generator: Adobe Illustrator 16.0.0, SVG Export Plug-In . SVG Version: 6.00 Build 0)  -->
<!DOCTYPE svg PUBLIC "-//W3C//DTD SVG 1.1//EN" "http://www.w3.org/Graphics/SVG/1.1/DTD/svg11.dtd">
<svg version="1.1" id="Layer_1" xmlns="http://www.w3.org/2000/svg" xmlns:xlink="http://www.w3.org/1999/xlink" x="0px" y="0px"
	 width="200px" height="200px" viewBox="0 0 200 200" enable-background="new 0 0 200 200" xml:space="preserve">
<g>
	<g>
		<polygon fill="#404040" points="100.942,186 97.159,186 97.178,166 100.961,166 		"/>
		
			<rect x="127.896" y="162.395" transform="matrix(0.499 0.8666 -0.8666 0.499 210.9085 -36.261)" fill="#404040" width="17.843" height="3.789"/>
		
			<rect x="155.692" y="134.659" transform="matrix(0.8653 0.5012 -0.5012 0.8653 90.612 -64.1162)" fill="#404040" width="17.841" height="3.786"/>
		<polygon fill="#404040" points="185,100.918 166,100.899 166,97.115 185,97.132 		"/>
		<polygon fill="#404040" points="157.908,66.796 156.022,63.514 171.482,54.607 173.375,57.887 		"/>
		
			<rect x="135.07" y="23.982" transform="matrix(0.8652 0.5014 -0.5014 0.8652 34.9618 -64.2405)" fill="#404040" width="3.781" height="17.846"/>
		<polygon fill="#404040" points="118.984,180.96 114.384,163.71 118.041,162.738 122.635,179.985 		"/>
		
			<rect x="143.617" y="150.36" transform="matrix(0.7065 0.7077 -0.7077 0.7065 152.5207 -63.2679)" fill="#404040" width="17.845" height="3.787"/>
		
			<rect x="163.288" y="116.379" transform="matrix(0.9656 0.2602 -0.2602 0.9656 36.7059 -40.7354)" fill="#404040" width="17.842" height="3.781"/>
		<polygon fill="#404040" points="164.113,83.134 163.142,79.475 180.389,74.872 181.369,78.529 		"/>
		
			<rect x="150.766" y="36.05" transform="matrix(0.7061 0.7081 -0.7081 0.7061 76.7066 -94.8759)" fill="#404040" width="3.782" height="17.852"/>
		<polygon fill="#404040" points="78.753,180.913 75.101,179.933 79.739,162.702 83.396,163.683 		"/>
		
			<rect x="116.784" y="16.385" transform="matrix(0.9655 0.2602 -0.2602 0.9655 10.6748 -30.0114)" fill="#404040" width="3.783" height="17.845"/>
	</g>
	<path fill="#404040" d="M108.131,98.563c-0.004,5.074-4.111,9.175-9.181,9.165c-5.066-0.005-9.171-4.112-9.161-9.183
		c0.004-5.065,4.115-9.17,9.181-9.164C104.038,89.386,108.142,93.499,108.131,98.563z"/>
	<path fill="#404040" d="M80.913,98.538c0.011-10,6.324-18.093,18.17-18.082l0,0l0.071-66.187
		c-45.402-0.05-84.377,37.645-84.427,84.191c-0.037,31.655,17.369,59.238,43.151,73.677l33.347-57.26
		C85.123,111.962,80.905,105.753,80.913,98.538z"/>
	<path fill="#404040" d="M143.552,73.372c-0.286-0.462-0.876-0.626-1.354-0.385l-27.072,13.555
		c-0.267,0.131-0.459,0.368-0.539,0.653c-0.079,0.284-0.039,0.586,0.118,0.835l2.862,4.619c0.155,0.251,0.409,0.424,0.695,0.479
		c0.062,0.011,0.127,0.017,0.192,0.017c0.229,0,0.444-0.071,0.629-0.209l24.208-18.173
		C143.728,74.435,143.836,73.833,143.552,73.372z"/>
</g>
</svg>
