<?xml version="1.0" encoding="utf-8"?>
<!-- Generator: Adobe Illustrator 16.0.0, SVG Export Plug-In . SVG Version: 6.00 Build 0)  -->
<!DOCTYPE svg PUBLIC "-//W3C//DTD SVG 1.1//EN" "http://www.w3.org/Graphics/SVG/1.1/DTD/svg11.dtd">
<svg version="1.1" id="Layer_1" xmlns="http://www.w3.org/2000/svg" xmlns:xlink="http://www.w3.org/1999/xlink" x="0px" y="0px"
	 width="200px" height="200px" viewBox="0 0 200 200" enable-background="new 0 0 200 200" xml:space="preserve">
<g id="Layer_49_1_">
	<g>
		<circle fill="#EFD914" cx="99.208" cy="38.993" r="16.412"/>
		<path fill="#EFD914" d="M131.615,92.076c-0.109-18.009-14.512-32.643-32.499-32.85c-17.987,0.207-32.501,14.841-32.501,32.85
			c0,0.064,0,2.81,0,3.221v0.052v23.105c0,3.379,2.752,6.119,6.136,6.119s6.138-2.74,6.138-6.12V95.297
			c0-0.011-0.131-0.022-0.131-0.034c0-0.495-0.257-3.124-0.256-3.187c0.044-4.588,2.141-8.824,3.895-12.244v33.604
			c0,0.075,0,0.146,0,0.224v56.521c0,3.997,3.455,7.239,7.454,7.239c3.997,0,7.451-3.242,7.451-7.239v-51.768h3.508v51.768
			c0,3.997,3.453,7.239,7.451,7.239c3.994,0,7.45-3.242,7.45-7.239v-51.972v-4.551V80.025c2.63,3.387,3.849,7.547,3.892,12.051
			c0,0.063-0.188,2.694-0.188,3.188c0,0.011-0.192,0.022-0.192,0.033v23.156c0,3.38,2.752,6.12,6.137,6.12
			c3.386,0,6.14-2.74,6.14-6.12V95.348v-0.052C131.495,94.885,131.617,92.14,131.615,92.076z"/>
	</g>
</g>
</svg>
