<?xml version="1.0" encoding="utf-8"?>
<!-- Generator: Adobe Illustrator 16.0.0, SVG Export Plug-In . SVG Version: 6.00 Build 0)  -->
<!DOCTYPE svg PUBLIC "-//W3C//DTD SVG 1.1//EN" "http://www.w3.org/Graphics/SVG/1.1/DTD/svg11.dtd">
<svg version="1.1" id="Layer_1" xmlns="http://www.w3.org/2000/svg" xmlns:xlink="http://www.w3.org/1999/xlink" x="0px" y="0px"
	 width="200px" height="200px" viewBox="0 0 200 200" enable-background="new 0 0 200 200" xml:space="preserve">
<g>
	<path fill="#404040" d="M158,16.425c0-0.787-0.638-1.425-1.425-1.425H42.425C41.638,15,41,15.638,41,16.425v167.15
		c0,0.787,0.638,1.425,1.425,1.425h114.15c0.787,0,1.425-0.638,1.425-1.425V16.425z M101.184,124.88
		c-24.561,0-44.474-19.911-44.474-44.474c0-24.562,19.913-44.473,44.474-44.473c24.563,0,44.475,19.912,44.475,44.473
		C145.658,104.969,125.747,124.88,101.184,124.88z"/>
	<path fill="#404040" d="M101.184,42.286c-21.052,0-38.12,17.067-38.12,38.12c0,21.054,17.068,38.122,38.12,38.122
		c21.056,0,38.121-17.067,38.121-38.122C139.305,59.353,122.239,42.286,101.184,42.286z M101.184,108.998
		c-15.789,0-28.59-12.802-28.59-28.592c0-15.789,12.801-28.59,28.59-28.59c15.791,0,28.592,12.801,28.592,28.59
		C129.775,96.196,116.975,108.998,101.184,108.998z"/>
	<circle fill="#404040" cx="101.184" cy="80.407" r="23.599"/>
</g>
</svg>
