<?xml version="1.0" encoding="utf-8"?>
<!-- Generator: Adobe Illustrator 16.0.0, SVG Export Plug-In . SVG Version: 6.00 Build 0)  -->
<!DOCTYPE svg PUBLIC "-//W3C//DTD SVG 1.1//EN" "http://www.w3.org/Graphics/SVG/1.1/DTD/svg11.dtd">
<svg version="1.1" id="Layer_1" xmlns="http://www.w3.org/2000/svg" xmlns:xlink="http://www.w3.org/1999/xlink" x="0px" y="0px"
	 width="200px" height="200px" viewBox="0 0 200 200" enable-background="new 0 0 200 200" xml:space="preserve">
<g>
	<path fill="#404040" d="M167.292,159.062c0-0.019-0.292-0.037-0.292-0.056V40.881c0-15.715-29.074-27.564-67.5-27.564
		c-38.426,0-67.5,11.85-67.5,27.564v118.125c0,0.019,0.406,0.037,0.407,0.056c0,0.019,0.198,0.037,0.198,0.056
		c0,15.716,29.078,27.566,67.505,27.566c38.425,0,67.352-11.851,67.352-27.566C167.462,159.099,167.292,159.08,167.292,159.062z
		 M100.186,180.07c-35.824,0-60.792-11.061-60.885-21.009c0.043-4.624,5.477-9.487,14.864-13.369
		c-0.153-2.274,0.515-4.886,2.118-7.662l-0.165-0.065c-7.03,2.43-12.117,5.462-17.117,8.938V53.096
		c11,9.251,33.431,15.352,61,15.352c27.57,0,50-6.101,61-15.352v93.808c-4-3.347-9.256-6.277-15.929-8.66
		c1.612,2.87,2.319,5.554,2.054,7.867c8.782,3.81,13.891,8.491,13.932,12.951C160.965,169.01,136.009,180.07,100.186,180.07z
		 M100.211,61.945c-35.891,0-60.902-11.101-60.902-21.064c0-9.962,25.012-21.063,60.902-21.063c35.89,0,60.901,11.101,60.901,21.063
		C161.112,50.845,136.101,61.945,100.211,61.945z"/>
	<path fill="#404040" d="M108.859,83.874c-4.453-7.715-11.743-7.715-16.195,0l-31.3,54.214c-4.455,7.714-0.81,14.025,8.098,14.025
		h62.599c8.909,0,12.553-6.312,8.099-14.025L108.859,83.874z M121.943,143.576H79.579c-6.027,0-8.494-4.271-5.479-9.491
		l21.181-36.688c3.015-5.221,7.947-5.221,10.961,0l21.183,36.688C130.438,139.306,127.973,143.576,121.943,143.576z"/>
	<path fill="#404040" d="M100.763,104.153c-2.328,0-4.215,1.889-4.215,4.216v16.106c0,2.327,1.887,4.215,4.215,4.215
		c2.326,0,4.215-1.888,4.215-4.215v-16.106C104.978,106.042,103.089,104.153,100.763,104.153z"/>
	<circle fill="#404040" cx="100.667" cy="135.496" r="3.927"/>
</g>
</svg>
