<?xml version="1.0" encoding="utf-8"?>
<!-- Generator: Adobe Illustrator 16.0.0, SVG Export Plug-In . SVG Version: 6.00 Build 0)  -->
<!DOCTYPE svg PUBLIC "-//W3C//DTD SVG 1.1//EN" "http://www.w3.org/Graphics/SVG/1.1/DTD/svg11.dtd">
<svg version="1.1" id="Layer_1" xmlns="http://www.w3.org/2000/svg" xmlns:xlink="http://www.w3.org/1999/xlink" x="0px" y="0px"
	 width="200px" height="200px" viewBox="0 0 200 200" enable-background="new 0 0 200 200" xml:space="preserve">
<g>
	<path fill="#404040" d="M134.68,53c-0.053-1.489-1.241-2.395-2.656-2.395c-1.418,0-2.605,0.774-2.658,2.265L129.207,57h5.629
		L134.68,53z"/>
	<path fill="#404040" d="M98.79,85.815c-6.621-7.682-10.589-17.359-10.589-27.88c0-10.449,3.917-20.066,10.456-27.722l-4.204-4.016
		c-7.664,8.692-12.27,19.727-12.27,31.738c0,12.082,4.657,23.18,12.403,31.894L98.79,85.815z"/>
	<path fill="#404040" d="M104.904,79.977l4.173-3.985c-4.371-4.941-6.997-11.22-6.997-18.056c0-6.766,2.582-12.98,6.871-17.896
		l-4.192-4.001c-5.415,5.945-8.696,13.571-8.696,21.898C96.063,66.334,99.404,74.015,104.904,79.977z"/>
	<path fill="#404040" d="M119.66,65.89c-2.057-2.125-3.331-4.898-3.331-7.954c0-2.983,1.215-5.699,3.188-7.806l-4.18-3.992
		c-3.107,3.125-5.023,7.254-5.023,11.798c0,4.616,1.972,8.806,5.169,11.943L119.66,65.89z"/>
	<path fill="#404040" d="M170.075,26.198l-4.204,4.016c6.538,7.656,10.455,17.273,10.455,27.722c0,10.521-3.968,20.198-10.588,27.88
		l4.204,4.014c7.745-8.713,12.402-19.812,12.402-31.894C182.345,45.924,177.739,34.89,170.075,26.198z"/>
	<path fill="#404040" d="M159.771,36.038l-4.193,4.001c4.288,4.916,6.87,11.13,6.87,17.896c0,6.836-2.628,13.115-6.998,18.056
		l4.175,3.985c5.499-5.962,8.841-13.643,8.841-22.042C168.465,49.609,165.184,41.983,159.771,36.038z"/>
	<path fill="#404040" d="M145.011,50.129c1.973,2.107,3.187,4.823,3.187,7.806c0,3.056-1.272,5.829-3.329,7.954l4.177,3.989
		c3.196-3.138,5.169-7.328,5.169-11.943c0-4.543-1.916-8.673-5.024-11.798L145.011,50.129z"/>
	<path fill="#404040" d="M142.582,105h-5.661l-1.906-45h-5.986l-1.905,45H31.796C26.13,105,22,110.936,22,116.602v38.98
		C22,161.245,26.13,166,31.796,166H34v0.116c0,2.291,1.563,3.884,3.855,3.884h8.297c2.292,0,4.848-1.593,4.848-3.884V166h75v0.116
		c0,2.291,1.384,3.884,3.676,3.884h8.298c2.291,0,5.026-1.593,5.026-3.884V166h-0.418c5.665,0,9.418-4.755,9.418-10.418v-38.98
		C152,110.936,148.247,105,142.582,105z M41.451,138.183c-3.666,0-6.638-2.972-6.638-6.638s2.972-6.638,6.638-6.638
		c3.666,0,6.637,2.972,6.637,6.638S45.116,138.183,41.451,138.183z M61.363,138.183c-3.666,0-6.637-2.972-6.637-6.638
		s2.972-6.638,6.637-6.638c3.666,0,6.638,2.972,6.638,6.638S65.029,138.183,61.363,138.183z M80.17,138.183
		c-3.666,0-6.637-2.972-6.637-6.638s2.972-6.638,6.637-6.638c3.666,0,6.638,2.972,6.638,6.638S83.836,138.183,80.17,138.183z"/>
</g>
</svg>
