<?xml version="1.0" encoding="utf-8"?>
<!-- Generator: Adobe Illustrator 16.0.0, SVG Export Plug-In . SVG Version: 6.00 Build 0)  -->
<!DOCTYPE svg PUBLIC "-//W3C//DTD SVG 1.1//EN" "http://www.w3.org/Graphics/SVG/1.1/DTD/svg11.dtd">
<svg version="1.1" id="Layer_1" xmlns="http://www.w3.org/2000/svg" xmlns:xlink="http://www.w3.org/1999/xlink" x="0px" y="0px"
	 width="200px" height="200px" viewBox="0 0 200 200" enable-background="new 0 0 200 200" xml:space="preserve">
<g id="축소">
	<polygon fill="#404040" points="144,57 144,15 129,15 129,55.305 129,73 144.945,73 185,73 185,57 	"/>
	<polygon fill="#404040" points="55,57 15,57 15,73 54.748,73 71,73 71,55.305 71,15 55,15 	"/>
	<polygon fill="#404040" points="129,127 129,142.502 129,184 144,184 144,141 185,141 185,127 144.945,127 	"/>
	<polygon fill="#404040" points="15,127 15,141 55,141 55,184 71,184 71,142.502 71,127 54.748,127 	"/>
</g>
</svg>
