<?xml version="1.0" encoding="utf-8"?>
<!-- Generator: Adobe Illustrator 16.0.0, SVG Export Plug-In . SVG Version: 6.00 Build 0)  -->
<!DOCTYPE svg PUBLIC "-//W3C//DTD SVG 1.1//EN" "http://www.w3.org/Graphics/SVG/1.1/DTD/svg11.dtd">
<svg version="1.1" id="Layer_2" xmlns="http://www.w3.org/2000/svg" xmlns:xlink="http://www.w3.org/1999/xlink" x="0px" y="0px"
	 width="200px" height="200px" viewBox="-80 -80 200 200" enable-background="new -80 -80 200 200" xml:space="preserve">
<path fill="#fff" d="M33.245,4.73C29.672,1.657,25.08-0.265,20-0.265c-5.512,0-10.495,2.209-14.166,5.756
	C1.992,9.205-0.415,14.386-0.415,20.15c0,5.604,2.265,10.677,5.922,14.368c3.701,3.73,8.824,6.049,14.493,6.049
	c5.241,0,9.971-2.027,13.585-5.273c4.163-3.74,6.832-9.106,6.832-15.14C40.417,13.956,37.599,8.472,33.245,4.73z"/>
<path fill="#fff" d="M-23.896-26.433l-8.44-9.064C-47.172-21.532-56.5-1.783-56.5,20.15c0,21.773,9.189,41.407,23.84,55.348
	l8.444-9.062c-12.22-11.679-19.878-28.09-19.878-46.286C-44.095,1.798-36.295-14.734-23.896-26.433z"/>
<path fill="#fff" d="M71.447-36.298l-8.44,9.063c12.914,11.731,21.088,28.603,21.088,47.38c0,18.625-8.028,35.367-20.765,47.085
	l8.448,9.066C86.93,62.31,96.5,42.349,96.5,20.146C96.5-2.213,86.792-22.297,71.447-36.298z"/>
<path fill="#fff" d="M-13.986-15.792C-23.538-6.756-29.535,5.996-29.535,20.15c0,13.996,5.859,26.628,15.226,35.646l8.444-9.066
	C-12.8,39.981-17.125,30.568-17.125,20.15c0-10.578,4.466-20.108,11.588-26.878L-13.986-15.792z"/>
<path fill="#fff" d="M53.105-16.594L44.661-7.53c7.637,6.807,12.475,16.676,12.475,27.68c0,10.847-4.709,20.587-12.147,27.383
	l8.44,9.065c9.877-9.062,16.112-22.024,16.112-36.448C69.533,5.57,63.16-7.521,53.105-16.594z"/>
</svg>
