<?xml version="1.0" encoding="utf-8"?>
<!-- Generator: Adobe Illustrator 16.0.0, SVG Export Plug-In . SVG Version: 6.00 Build 0)  -->
<!DOCTYPE svg PUBLIC "-//W3C//DTD SVG 1.1//EN" "http://www.w3.org/Graphics/SVG/1.1/DTD/svg11.dtd">
<svg version="1.1" id="Layer_1" xmlns="http://www.w3.org/2000/svg" xmlns:xlink="http://www.w3.org/1999/xlink" x="0px" y="0px"
	 width="200px" height="200px" viewBox="0 0 200 200" enable-background="new 0 0 200 200" xml:space="preserve">
<g>
	<g>
		<path fill="#404040" d="M126,91.837v-49.14c0-14.415-11.584-26.143-25.998-26.143C85.585,16.554,74,28.282,74,42.697V54h16V42.697
			c0-5.387,4.614-9.77,10.002-9.77c5.386,0,9.998,4.383,9.998,9.77v59.098l4.512,2.234c11.397,5.504,18.705,17.234,18.705,29.883
			c0,18.285-14.902,33.161-33.186,33.161c-18.285,0-33.175-14.876-33.175-33.161c0-12.647,7.242-24.378,18.641-29.883L90,101.795V80
			H74v11.837c-14,8.966-23.461,24.957-23.461,42.075c0,27.313,22.186,49.534,49.499,49.534c27.31,0,49.44-22.221,49.44-49.534
			C149.479,116.792,140,100.802,126,91.837z"/>
		<rect x="74" y="63" fill="#404040" width="16" height="8"/>
	</g>
	<g>
		<path fill="#404040" d="M119.149,151.809c-2.036,1.03-4.68,1.545-7.933,1.545c-4.157,0-7.473-1.268-9.946-3.805
			c-2.472-2.536-3.708-5.914-3.708-10.134c0-4.424,1.379-8.044,4.138-10.86c2.757-2.815,6.298-4.224,10.62-4.224
			c2.72,0,4.997,0.362,6.828,1.087v5.302c-1.908-1.106-4.069-1.66-6.485-1.66c-2.833,0-5.105,0.922-6.815,2.766
			c-1.71,1.843-2.565,4.245-2.565,7.208c0,2.911,0.813,5.237,2.441,6.979c1.627,1.742,3.795,2.613,6.503,2.613
			c2.554,0,4.862-0.611,6.922-1.831V151.809z"/>
	</g>
	<g>
		<path fill="#404040" d="M86.538,137.773c-4.417,0-8.01-3.594-8.01-8.011s3.593-8.01,8.01-8.01s8.01,3.593,8.01,8.01
			S90.955,137.773,86.538,137.773z M86.538,125.402c-2.404,0-4.36,1.956-4.36,4.36s1.956,4.36,4.36,4.36s4.36-1.956,4.36-4.36
			S88.942,125.402,86.538,125.402z"/>
	</g>
</g>
</svg>
