<?xml version="1.0" encoding="utf-8"?>
<!-- Generator: Adobe Illustrator 16.0.0, SVG Export Plug-In . SVG Version: 6.00 Build 0)  -->
<!DOCTYPE svg PUBLIC "-//W3C//DTD SVG 1.1//EN" "http://www.w3.org/Graphics/SVG/1.1/DTD/svg11.dtd">
<svg version="1.1" id="Layer_1" xmlns="http://www.w3.org/2000/svg" xmlns:xlink="http://www.w3.org/1999/xlink" x="0px" y="0px"
	 width="200px" height="200px" viewBox="0 0 200 200" enable-background="new 0 0 200 200" xml:space="preserve">
<g>
	<path fill="#404040" d="M99.927,173.963c0.002-0.023,0.003-0.045,0.006-0.07H99.92C99.923,173.918,99.924,173.939,99.927,173.963z"
		/>
	<path fill="#404040" d="M99.953,40.39c0,0-0.014-0.013-0.032-0.032c-0.012,0.013-0.02,0.02-0.02,0.02L99.953,40.39z"/>
	<path fill="#404040" d="M76.326,52.925l23.915,47.197l21.553-33.295l11.244,21.103l3.131-3.93h45.168
		c0.184,0,0.357-0.737,0.516-1.204c11.187-32.902-7.457-60.998-36.959-60.998c-28.967,0-44.332,17.681-44.972,18.327
		C99.939,40.145,99.953,40,99.953,40h-0.052c0,0,0.007,0.182,0.02,0.169c-0.8-0.804-16.129-18.341-44.959-18.341
		c-29.502,0-48.146,28.043-36.959,60.946C18.042,82.892,18.09,83,18.131,83h41.863L76.326,52.925z"/>
	<path fill="#404040" d="M131.456,107.362l-10.394-19.668l-21.701,33.569L76.097,75.45L65.012,96H22.221
		c18.428,30,76.006,67,77.699,82h0.013c1.673-14,57.954-51,77.046-81h-36.877L131.456,107.362z"/>
</g>
</svg>
