<?xml version="1.0" encoding="utf-8"?>
<!-- Generator: Adobe Illustrator 16.0.0, SVG Export Plug-In . SVG Version: 6.00 Build 0)  -->
<!DOCTYPE svg PUBLIC "-//W3C//DTD SVG 1.1//EN" "http://www.w3.org/Graphics/SVG/1.1/DTD/svg11.dtd">
<svg version="1.1" id="Layer_1" xmlns="http://www.w3.org/2000/svg" xmlns:xlink="http://www.w3.org/1999/xlink" x="0px" y="0px"
	 width="200px" height="200px" viewBox="0 0 200 200" enable-background="new 0 0 200 200" xml:space="preserve">
<g id="Pool">
	<g>
		<path fill="#404040" d="M147.161,23.222c-14.149,0-23.58,19.505-37.729,19.505c-14.146,0-23.577-19.505-37.72-19.505
			c-14.152,0-23.573,19.505-37.725,19.505c-7.076,0-12.964-12.419-18.866-14.783v28.301c5.888,2.354,11.784,14.776,18.858,14.776
			c14.151,0,23.58-19.504,37.725-19.504c14.15,0,23.582,19.504,37.728,19.504c14.142,0,23.572-19.504,37.723-19.504
			c14.146,0,23.58,19.504,37.725,19.504V42.727C170.734,42.727,161.306,23.222,147.161,23.222z"/>
	</g>
	<g>
		<path fill="#404040" d="M147.161,76.101c-14.149,0-23.58,19.505-37.729,19.505c-14.146,0-23.577-19.505-37.72-19.505
			c-14.152,0-23.573,19.505-37.725,19.505c-7.076,0-12.964-12.42-18.866-14.785v28.302c5.888,2.356,11.784,14.777,18.858,14.777
			c14.151,0,23.58-19.504,37.725-19.504c14.15,0,23.582,19.504,37.728,19.504c14.142,0,23.572-19.504,37.723-19.504
			c14.146,0,23.58,19.504,37.725,19.504V95.605C170.734,95.605,161.306,76.101,147.161,76.101z"/>
	</g>
	<g>
		<path fill="#404040" d="M147.161,128.98c-14.149,0-23.58,19.503-37.729,19.503c-14.146,0-23.577-19.503-37.72-19.503
			c-14.152,0-23.573,19.503-37.725,19.503c-7.076,0-12.964-12.419-18.866-14.783v28.303c5.888,2.354,11.784,14.775,18.858,14.775
			c14.151,0,23.58-19.503,37.725-19.503c14.15,0,23.582,19.503,37.728,19.503c14.142,0,23.572-19.503,37.723-19.503
			c14.146,0,23.58,19.503,37.725,19.503v-28.295C170.734,148.483,161.306,128.98,147.161,128.98z"/>
	</g>
</g>
</svg>
