<?xml version="1.0" encoding="utf-8"?>
<!-- Generator: Adobe Illustrator 16.0.0, SVG Export Plug-In . SVG Version: 6.00 Build 0)  -->
<!DOCTYPE svg PUBLIC "-//W3C//DTD SVG 1.1//EN" "http://www.w3.org/Graphics/SVG/1.1/DTD/svg11.dtd">
<svg version="1.1" id="Layer_1" xmlns="http://www.w3.org/2000/svg" xmlns:xlink="http://www.w3.org/1999/xlink" x="0px" y="0px"
	 width="200px" height="200px" viewBox="0 0 200 200" enable-background="new 0 0 200 200" xml:space="preserve">
<g>
	<rect x="37" y="79" fill="#404040" width="14" height="7"/>
	<path fill="#404040" d="M70.797,136.863c2.092,0,3.964,0.479,5.617,1.438v-4.592c-1.586-0.627-3.558-0.941-5.914-0.941
		c-3.744,0-6.811,1.221-9.198,3.658c-2.39,2.439-3.584,5.574-3.584,9.404c0,3.656,1.071,6.58,3.211,8.777
		c2.142,2.197,5.014,3.295,8.614,3.295c2.817,0,5.107-0.445,6.871-1.338v-4.342c-1.784,1.057-3.783,1.586-5.995,1.586
		c-2.345,0-4.223-0.756-5.632-2.264c-1.411-1.508-2.114-3.523-2.114-6.045c0-2.564,0.741-4.646,2.222-6.242
		S68.343,136.863,70.797,136.863z"/>
	<path fill="#404040" d="M41.232,137.085c0,3.825,3.112,6.938,6.938,6.938c3.825,0,6.937-3.113,6.937-6.938
		c0-3.824-3.112-6.937-6.937-6.937C44.344,130.148,41.232,133.261,41.232,137.085z M51.946,137.085c0,2.082-1.694,3.777-3.776,3.777
		c-2.083,0-3.777-1.695-3.777-3.777s1.694-3.775,3.777-3.775C50.252,133.31,51.946,135.003,51.946,137.085z"/>
	<path fill="#404040" d="M127.715,93.596c0-4.294-1.55-6.441-4.648-6.441c-3.274,0-4.912,2.225-4.912,6.676
		c0,4.236,1.589,6.354,4.766,6.354C126.116,100.185,127.715,97.989,127.715,93.596z"/>
	<path fill="#404040" d="M149.628,109.214c-3.257,0-4.884,2.218-4.884,6.648c0,4.235,1.589,6.354,4.765,6.354
		c3.179,0,4.766-2.197,4.766-6.591c0-2.077-0.418-3.665-1.248-4.765C152.189,109.764,151.059,109.214,149.628,109.214z"/>
	<path fill="#404040" d="M177.152,88h0.054l-41.264-71.836L94.677,88h0.054c-3.686,5-5.787,13.595-5.787,21.794
		c0,0.006,0,0.013,0,0.019c-2.138-2.084-4.46-3.965-6.945-5.572V61.681C82,49.197,71.985,39.04,59.501,39.04
		C47.016,39.04,37,49.197,37,61.681V71h14v-9.319c0-4.665,3.836-8.46,8.502-8.46c4.664,0,8.498,3.796,8.498,8.46v51.183l4.152,1.936
		c9.872,4.766,16.322,14.925,16.322,25.88c0,15.836-12.845,28.719-28.68,28.719c-15.836,0-28.701-12.883-28.701-28.719
		c0-10.954,6.203-21.113,16.075-25.88L51,112.864V94H37v10.24c-13,7.765-20.163,21.614-20.163,36.439
		c0,23.654,19.292,42.899,42.947,42.899c23.094,0,41.773-18.351,42.642-41.236c8.525,8.475,20.388,13.657,33.512,13.657
		c0.003,0,0.003,0,0.005,0c0.001,0,0.003,0,0.004,0c25.957,0,46.991-20.247,46.991-46.206C182.938,101.595,180.839,93,177.152,88z
		 M112.419,94.125c0-3.53,0.977-6.357,2.926-8.486c1.952-2.127,4.594-3.191,7.929-3.191c3.177,0,5.647,0.966,7.412,2.896
		c1.765,1.932,2.646,4.605,2.646,8.018c0,3.488-0.985,6.289-2.956,8.397c-1.972,2.106-4.583,3.162-7.838,3.162
		c-3.021,0-5.462-0.985-7.324-2.957C113.351,99.993,112.419,97.38,112.419,94.125z M125.302,126h-6.44l28.001-43h6.53L125.302,126z
		 M156.981,123.774c-1.962,2.136-4.561,3.205-7.796,3.205c-3.021,0-5.461-0.985-7.323-2.955c-1.863-1.97-2.794-4.594-2.794-7.867
		c0-3.529,0.976-6.364,2.926-8.501c1.95-2.139,4.575-3.206,7.869-3.206c3.215,0,5.695,0.952,7.441,2.853
		c1.744,1.901,2.618,4.599,2.618,8.089C159.923,118.844,158.941,121.637,156.981,123.774z"/>
</g>
</svg>
