<?xml version="1.0" encoding="utf-8"?>
<!-- Generator: Adobe Illustrator 16.0.0, SVG Export Plug-In . SVG Version: 6.00 Build 0)  -->
<!DOCTYPE svg PUBLIC "-//W3C//DTD SVG 1.1//EN" "http://www.w3.org/Graphics/SVG/1.1/DTD/svg11.dtd">
<svg version="1.1" id="Layer_1" xmlns="http://www.w3.org/2000/svg" xmlns:xlink="http://www.w3.org/1999/xlink" x="0px" y="0px"
	 width="200px" height="200px" viewBox="0 0 200 200" enable-background="new 0 0 200 200" xml:space="preserve">
<g>
	<path fill="#404040" d="M88.85,99.487c-4.151,0-7.516,3.365-7.516,7.515v28.719c0,4.149,3.365,7.513,7.516,7.513
		c4.15,0,7.515-3.363,7.515-7.513v-28.719C96.365,102.853,93,99.487,88.85,99.487z"/>
	<circle fill="#404040" cx="88.678" cy="155.369" r="7.001"/>
	<path fill="#404040" d="M185,59.762C185,35.041,164.957,15,140.235,15c-23.127,0-42.16,17.547-44.512,40.056
		c-7.202-4.42-15.576-1.667-21.313,8.271L18.602,159.99C10.66,173.746,17.158,185,33.041,185h111.618
		c15.883,0,22.38-11.254,14.439-25.01l-33.431-57.903c4.569,1.572,9.466,2.438,14.568,2.438C164.957,104.525,185,84.483,185,59.762z
		 M115.034,40.74l7.144-7.135l19.174,19.176l19.169-19.178l7.132,7.142l-19.174,19.169l19.403,19.402l-7.138,7.136l-19.393-19.4
		l-19.408,19.4l-7.135-7.136l19.399-19.402L115.034,40.74z M126.616,169.779H51.08c-10.748,0-15.146-7.617-9.771-16.926
		l37.767-65.416c5.376-9.31,14.169-9.31,19.545,0l37.768,65.416C141.763,162.162,137.365,169.779,126.616,169.779z"/>
</g>
</svg>
