<?xml version="1.0" encoding="utf-8"?>
<!-- Generator: Adobe Illustrator 16.0.0, SVG Export Plug-In . SVG Version: 6.00 Build 0)  -->
<!DOCTYPE svg PUBLIC "-//W3C//DTD SVG 1.1//EN" "http://www.w3.org/Graphics/SVG/1.1/DTD/svg11.dtd">
<svg version="1.1" id="Layer_1" xmlns="http://www.w3.org/2000/svg" xmlns:xlink="http://www.w3.org/1999/xlink" x="0px" y="0px"
	 width="200px" height="200px" viewBox="0 0 200 200" enable-background="new 0 0 200 200" xml:space="preserve">
<g>
	<g>
		<path fill="#404040" d="M101.104,148.402c-26.144,0-47.417-21.273-47.417-47.418s21.272-47.417,47.417-47.417
			c26.146,0,47.418,21.272,47.418,47.417S127.249,148.402,101.104,148.402z M101.104,67.706c-18.348,0-33.278,14.929-33.278,33.279
			c0,18.349,14.93,33.278,33.278,33.278c18.35,0,33.279-14.93,33.279-33.278C134.383,82.635,119.453,67.706,101.104,67.706z"/>
	</g>
	<g>
		<g>
			<path fill="#404040" d="M107,32c0,2.75-2.25,5-5,5h-4c-2.75,0-5-2.25-5-5V20c0-2.75,2.25-5,5-5h4c2.75,0,5,2.25,5,5V32z"/>
		</g>
		<g>
			<path fill="#404040" d="M107,179c0,2.75-2.25,5-5,5h-4c-2.75,0-5-2.25-5-5v-15c0-2.75,2.25-5,5-5h4c2.75,0,5,2.25,5,5V179z"/>
		</g>
	</g>
	<g>
		<g>
			<path fill="#404040" d="M34,93c2.75,0,5,2.25,5,5v5c0,2.75-2.25,5-5,5H20c-2.75,0-5-2.25-5-5v-5c0-2.75,2.25-5,5-5H34z"/>
		</g>
		<g>
			<path fill="#404040" d="M180,93c2.75,0,5,2.25,5,5v5c0,2.75-2.25,5-5,5h-14c-2.75,0-5-2.25-5-5v-5c0-2.75,2.25-5,5-5H180z"/>
		</g>
	</g>
	<g>
		<g>
			<path fill="#404040" d="M48.303,143.202c1.945-1.944,5.127-1.944,7.072,0l2.925,2.926c1.945,1.944,1.944,5.126,0,7.07
				l-9.59,9.589c-1.945,1.944-5.127,1.944-7.072,0l-2.926-2.926c-1.944-1.944-1.944-5.126,0-7.07L48.303,143.202z"/>
		</g>
		<g>
			<path fill="#404040" d="M151.607,39.897c1.945-1.944,5.127-1.944,7.072,0l2.925,2.926c1.945,1.944,1.945,5.126,0.001,7.071
				l-9.591,9.591c-1.944,1.945-5.126,1.945-7.071,0l-2.929-2.928c-1.945-1.944-1.945-5.126,0-7.07L151.607,39.897z"/>
		</g>
	</g>
	<g>
		<g>
			<path fill="#404040" d="M142.019,153.193c-1.944-1.944-1.944-5.126,0-7.07l2.926-2.926c1.944-1.944,5.126-1.944,7.07,0.001
				l9.591,9.592c1.944,1.945,1.943,5.127-0.001,7.071l-2.925,2.922c-1.944,1.944-5.127,1.944-7.071,0L142.019,153.193z"/>
		</g>
		<g>
			<path fill="#404040" d="M38.711,49.89c-1.944-1.945-1.944-5.127,0-7.072l2.926-2.925c1.945-1.945,5.127-1.945,7.071,0l9.591,9.59
				c1.944,1.944,1.945,5.126,0,7.071l-2.929,2.929c-1.944,1.944-5.126,1.944-7.07,0L38.711,49.89z"/>
		</g>
	</g>
</g>
</svg>
