<?xml version="1.0" encoding="utf-8"?>
<!-- Generator: Adobe Illustrator 16.0.0, SVG Export Plug-In . SVG Version: 6.00 Build 0)  -->
<!DOCTYPE svg PUBLIC "-//W3C//DTD SVG 1.1//EN" "http://www.w3.org/Graphics/SVG/1.1/DTD/svg11.dtd">
<svg version="1.1" id="Layer_1" xmlns="http://www.w3.org/2000/svg" xmlns:xlink="http://www.w3.org/1999/xlink" x="0px" y="0px"
	 width="200px" height="200px" viewBox="0 0 200 200" enable-background="new 0 0 200 200" xml:space="preserve">
<g id="Detector">
	<path id="새로고침_1_" fill="#404040" d="M42.076,40.968c-32.008,32.008-32.006,84.086-0.001,116.09
		c28.706,28.706,73.686,31.8,105.938,8.517l-1.322,8.372c-0.327,2.076,0.173,4.154,1.409,5.854c1.237,1.702,3.066,2.818,5.117,3.136
		c2.475,0.398,5.018-0.425,6.802-2.209c1.178-1.179,1.941-2.675,2.206-4.326l4.604-29.094c0.663-4.289-2.277-8.316-6.547-8.984
		l-29.083-4.605c-4.119-0.65-8.33,2.392-8.999,6.539c-0.327,2.077,0.168,4.15,1.403,5.854c1.238,1.698,3.063,2.817,5.132,3.141
		l10.171,1.612c-25.557,19.244-61.478,17.107-84.61-6.024c-25.27-25.27-25.27-66.384,0-91.654
		c25.271-25.271,66.386-25.271,91.655-0.001c10.786,10.786,17.438,25.069,18.737,40.221c0.407,4.741,4.602,8.272,9.34,7.868
		c2.02-0.174,3.937-1.057,5.38-2.5c1.81-1.808,2.716-4.31,2.488-6.855c-1.653-19.207-10.074-37.298-23.729-50.952
		C126.162,8.964,74.084,8.96,42.076,40.968z"/>
	<g>
		<path fill="#404040" d="M137.998,94.363c-0.351-0.158-0.594-0.254-1.008-0.254l-10.275-0.966c-0.649-2.483-1.605-4.822-2.89-6.969
			l6.769-8.015c1.105-1.105,1.122-2.905,0.008-4.017l-4.207-4.205c-1.105-1.11-2.903-1.11-4.014,0l-8.096,6.719
			c-2.126-1.252-4.436-2.222-6.885-2.861l-0.9-10.533c0-0.95-0.498-1.749-1.214-2.262C104.821,60.666,104.283,61,103.67,61h-5.961
			c-0.619,0-1.159-0.334-1.624-0.001c-0.717,0.514-1.212,1.312-1.212,2.263L93.89,73.764c-2.45,0.624-4.765,1.584-6.893,2.822
			l-8.078-6.805c-1.104-1.105-2.906-1.104-4.008,0l-4.212,4.212c-1.11,1.107-1.11,2.902,0,4.009l6.669,8.044
			c-1.293,2.142-2.299,4.48-2.96,6.952l-9.969,0.889c-1.571,0-2.438,1.27-2.438,2.842v5.951c0,1.57,0.867,2.836,2.438,2.836
			l10.028,0.96c0.624,2.548,1.502,4.944,2.788,7.151l-6.662,7.842c-1.109,1.106-1.135,2.901-0.024,4.012l4.196,4.213
			c1.111,1.11,2.9,1.11,4.007,0l7.805-6.48c2.224,1.346,4.642,2.374,7.217,3.042l0.86,10.11c0,0.95,0.495,1.937,1.212,2.448
			C96.33,139.149,96.87,139,97.484,139h5.962c0.619,0,1.158,0.149,1.622-0.187c0.718-0.512,1.216-1.405,1.216-2.354l0.938-10.125
			c2.579-0.649,5.011-1.698,7.229-3.025l7.783,6.551c1.105,1.107,2.901,1.11,4.01-0.003l4.212-4.219
			c1.111-1.104,1.111-2.908,0-4.019l-6.525-7.864c1.295-2.201,2.291-4.599,2.929-7.142l10.271-0.872
			c0.413,0,0.517-0.099,0.867-0.257c0.987-0.44,2.002-1.428,2.002-2.579v-5.959C140,95.789,138.985,94.806,137.998,94.363z
			 M113.979,100.026c0,7.391-6.012,13.402-13.403,13.402c-7.387,0-13.399-6.011-13.399-13.402c0-7.388,6.012-13.397,13.399-13.397
			C107.967,86.628,113.979,92.638,113.979,100.026z"/>
		<path fill="#404040" d="M91.986,100.018c0,4.744,3.847,8.595,8.59,8.595c4.746,0,8.591-3.852,8.591-8.595
			c0-4.747-3.845-8.59-8.591-8.59C95.833,91.428,91.986,95.271,91.986,100.018z"/>
	</g>
</g>
</svg>
