<?xml version="1.0" encoding="utf-8"?>
<!-- Generator: Adobe Illustrator 16.0.0, SVG Export Plug-In . SVG Version: 6.00 Build 0)  -->
<!DOCTYPE svg PUBLIC "-//W3C//DTD SVG 1.1//EN" "http://www.w3.org/Graphics/SVG/1.1/DTD/svg11.dtd">
<svg version="1.1" id="Layer_1" xmlns="http://www.w3.org/2000/svg" xmlns:xlink="http://www.w3.org/1999/xlink" x="0px" y="0px"
	 width="200px" height="200px" viewBox="0 0 200 200" enable-background="new 0 0 200 200" xml:space="preserve">
<g>
	<path fill="#404040" d="M180.619,88.028c-0.758-0.34-1.317-0.547-2.207-0.547L156.261,85.4c-1.4-5.349-3.471-10.389-6.234-15.015
		l14.575-17.265c2.382-2.38,2.416-6.257,0.014-8.654l-9.063-9.058c-2.38-2.393-6.253-2.393-8.646,0l-17.442,14.474
		c-4.579-2.698-9.556-4.787-14.832-6.164l-1.939-22.691c0-2.047-1.072-3.846-2.614-4.954c-1.001-0.717-2.161-0.073-3.481-0.073
		H93.752c-1.33,0-2.495-0.644-3.496,0.073c-1.545,1.108-2.613,2.869-2.613,4.917l-2.117,22.642
		c-5.276,1.345-10.265,3.421-14.849,6.089L53.277,35.067c-2.38-2.381-6.262-2.377-8.635,0.004l-9.073,9.075
		c-2.392,2.386-2.392,6.252,0,8.639l14.367,17.329c-2.787,4.616-4.953,9.652-6.379,14.975l-22.39,1.915
		c-3.385,0-6.166,2.736-6.166,6.121v12.823c0,3.382,2.781,6.109,6.166,6.109l22.062,2.068c1.345,5.488,3.467,10.65,6.236,15.406
		l-14.238,16.894c-2.39,2.383-2.391,6.249,0.003,8.642l9.068,9.074c2.395,2.394,6.263,2.394,8.649,0l16.819-13.96
		c4.792,2.898,10.004,5.114,15.553,6.554l1.854,21.78c0,2.049,1.07,4.074,2.613,5.182c0.999,0.721,2.161,0.305,3.485,0.305h12.846
		c1.331,0,2.494,0.416,3.492-0.305c1.547-1.107,2.62-2.98,2.62-5.027l2.021-21.788c5.556-1.4,10.796-3.646,15.572-6.507
		l16.769,14.123c2.382,2.384,6.249,2.391,8.639-0.009l9.072-9.088c2.393-2.379,2.393-6.26,0-8.652l-14.059-16.941
		c2.79-4.743,4.938-9.906,6.31-15.385l22.128-1.88c0.89,0,1.182-0.211,1.939-0.552c2.127-0.951,4.381-3.078,4.381-5.558V93.595
		C185,91.101,182.746,88.982,180.619,88.028z M128.804,100.23c0,15.922-12.951,28.871-28.875,28.871
		c-15.913,0-28.864-12.948-28.864-28.871c0-15.917,12.952-28.863,28.864-28.863C115.853,71.367,128.804,84.313,128.804,100.23z"/>
	<path fill="#404040" d="M81.425,100.213c0,10.217,8.29,18.515,18.505,18.515c10.226,0,18.508-8.298,18.508-18.515
		c0-10.228-8.282-18.505-18.508-18.505C89.715,81.708,81.425,89.986,81.425,100.213z"/>
</g>
</svg>
