<?xml version="1.0" encoding="utf-8"?>
<!-- Generator: Adobe Illustrator 16.0.0, SVG Export Plug-In . SVG Version: 6.00 Build 0)  -->
<!DOCTYPE svg PUBLIC "-//W3C//DTD SVG 1.1//EN" "http://www.w3.org/Graphics/SVG/1.1/DTD/svg11.dtd">
<svg version="1.1" id="Isolation_Mode" xmlns="http://www.w3.org/2000/svg" xmlns:xlink="http://www.w3.org/1999/xlink" x="0px"
	 y="0px" width="40px" height="40px" viewBox="0 0 40 40" enable-background="new 0 0 40 40" xml:space="preserve">
<g display="none">
	<path display="inline" fill="#2C2C2C" d="M9.82,13.935l-0.934-0.934c-4.504,3.392-7.422,8.782-7.422,14.843
		c0,0.087-0.021,2.158,0.17,3.107l1.257-0.515c-0.119-0.819-0.182-1.657-0.182-2.51C2.709,22.179,5.51,17.086,9.82,13.935z"/>
	<path display="inline" fill="#2C2C2C" d="M8.579,27.844c0-4.104,2.169-7.707,5.42-9.729l-4.463-4.477
		c-4.311,3.15-7.175,8.661-7.175,14.409c0,0.853,0.148,1.671,0.267,2.49l5.957-2.432C8.583,28.018,8.579,27.931,8.579,27.844z"/>
	<path display="inline" fill="#2C2C2C" d="M38.6,27.844c0-6.061-2.918-11.451-7.423-14.843l-0.934,0.934
		c4.311,3.151,7.11,8.244,7.11,13.992c0,0.856-0.063,1.697-0.184,2.52l1.227,0.505C38.517,30.433,38.6,27.931,38.6,27.844z"/>
	<path display="inline" fill="#2C2C2C" d="M20.032,10.605c3.818,0,7.348,1.236,10.21,3.33l0.934-0.934
		c-3.105-2.338-6.967-3.726-11.145-3.726c-4.178,0-8.039,1.388-11.145,3.726l0.934,0.934C12.684,11.842,16.213,10.605,20.032,10.605
		z"/>
	<path display="inline" fill="#2C2C2C" d="M13.328,23.692c-0.042-0.021-0.106-0.042-0.132-0.003
		c-0.026,0.04-0.008,0.069,0.028,0.101c0,0,7.257,6.429,7.304,6.46c0.649,0.434,1.527,0.288,1.96-0.359
		c0.432-0.648,0.255-1.511-0.395-1.943C22.074,27.935,13.328,23.692,13.328,23.692z"/>
	<g display="inline">
		<path fill="#2C2C2C" d="M13.377,12.441l-0.322-0.766l-0.439,0.185l0.328,0.777C13.087,12.571,13.23,12.504,13.377,12.441z"/>
		<path fill="#2C2C2C" d="M19.935,11.032l0.024-0.943l-0.519,0.073l0.035,0.918C19.476,11.076,19.935,11.033,19.935,11.032z"/>
		<path fill="#2C2C2C" d="M26.262,12.319l0.296-0.725l-0.441-0.181l-0.297,0.73C25.969,12.199,26.115,12.259,26.262,12.319z"/>
		<path fill="#2C2C2C" d="M35.546,21.639l0.804-0.34l-0.186-0.439l-0.801,0.336C35.426,21.343,35.485,21.49,35.546,21.639z"/>
		<path fill="#2C2C2C" d="M31.832,16.009l0.554-0.554l-0.337-0.337l-0.562,0.561C31.603,15.788,31.721,15.896,31.832,16.009z"/>
		<path fill="#2C2C2C" d="M36.744,27.937c0,0.223-0.007,0.461-0.012,0.461h0.656v-0.461H36.744z"/>
	</g>
</g>
<g display="none">
	<g display="inline">
		<rect x="19.585" y="34" fill="#2C2C2C" width="0.787" height="4"/>
		
			<rect x="25.978" y="33.099" transform="matrix(0.4991 0.8666 -0.8666 0.4991 42.9671 -7.3421)" fill="#2C2C2C" width="3.712" height="0.788"/>
		
			<rect x="31.761" y="27.328" transform="matrix(0.8653 0.5012 -0.5012 0.8653 18.4216 -13.1154)" fill="#2C2C2C" width="3.712" height="0.788"/>
		<rect x="34" y="19.52" fill="#2C2C2C" width="4" height="0.787"/>
		
			<rect x="33.24" y="10.086" transform="matrix(0.4985 0.8669 -0.8669 0.4985 27.2182 -23.1675)" fill="#2C2C2C" width="0.787" height="3.712"/>
		
			<rect x="27.47" y="4.303" transform="matrix(0.8652 0.5015 -0.5015 0.8652 6.8456 -13.1426)" fill="#2C2C2C" width="0.787" height="3.713"/>
		
			<rect x="22.169" y="34.672" transform="matrix(0.2577 0.9662 -0.9662 0.2577 51.7168 2.8157)" fill="#2C2C2C" width="3.714" height="0.787"/>
		
			<rect x="29.248" y="30.595" transform="matrix(0.7064 0.7078 -0.7078 0.7064 31.0636 -12.9182)" fill="#2C2C2C" width="3.713" height="0.788"/>
		
			<rect x="33.341" y="23.525" transform="matrix(0.9656 0.2602 -0.2602 0.9656 7.4359 -8.3343)" fill="#2C2C2C" width="3.712" height="0.787"/>
		
			<rect x="34.812" y="13.893" transform="matrix(0.2567 0.9665 -0.9665 0.2567 41.3917 -22.319)" fill="#2C2C2C" width="0.788" height="3.713"/>
		
			<rect x="30.736" y="6.814" transform="matrix(0.7062 0.708 -0.708 0.7062 15.2857 -19.4931)" fill="#2C2C2C" width="0.787" height="3.714"/>
		
			<rect x="15.464" y="33.2" transform="matrix(0.9658 0.2594 -0.2594 0.9658 9.638 -2.9136)" fill="#2C2C2C" width="0.787" height="3.713"/>
		
			<rect x="23.666" y="2.723" transform="matrix(0.9656 0.26 -0.26 0.9656 2.0181 -6.0984)" fill="#2C2C2C" width="0.787" height="3.713"/>
	</g>
	<circle display="inline" fill="#2C2C2C" cx="19.958" cy="19.817" r="1.908"/>
	<path display="inline" fill="#2C2C2C" d="M16.204,19.813c0.002-2.081,1.316-3.764,3.78-3.762l0,0l0.015-13.77
		c-9.445-0.01-17.554,7.832-17.564,17.515c-0.008,6.585,3.613,12.324,8.977,15.328l6.938-11.912
		C17.08,22.606,16.202,21.314,16.204,19.813z"/>
	<path display="inline" fill="#2C2C2C" d="M29.235,14.578c-0.06-0.096-0.183-0.13-0.282-0.08l-5.632,2.82
		c-0.056,0.027-0.096,0.077-0.112,0.136s-0.008,0.122,0.024,0.174l0.596,0.961c0.032,0.052,0.085,0.088,0.145,0.1
		c0.013,0.002,0.026,0.003,0.04,0.003c0.048,0,0.093-0.015,0.131-0.043l5.036-3.781C29.271,14.799,29.294,14.674,29.235,14.578z"/>
</g>
<g display="none">
	<path display="inline" fill="#2C2C2C" d="M19.301,10.997c-1.635-2.077-4.114-2.734-5.833-2.418l0.403,0.559
		c0.115,0.161,0.036,0.415-0.124,0.529c-0.161,0.115-0.428,0.107-0.544-0.054l-0.529-0.734c-0.363,0.196-0.379,0.175-0.722,0.398
		l0.794,1.103c0.117,0.162,0.037,0.417-0.123,0.529c-0.16,0.114-0.428,0.108-0.544-0.054L11.286,9.75
		c-0.324,0.253-0.307,0.276-0.612,0.554l0.529,0.734c0.116,0.162,0.037,0.415-0.123,0.528c-0.162,0.115-0.428,0.109-0.545-0.054
		l-0.4-0.556c-0.851,1.517-1.008,4.06,0.43,6.267l-0.302,0.215l0.715,1.005l9.337-6.654L19.6,10.784L19.301,10.997z"/>
	<path display="inline" fill="#2C2C2C" d="M18.409,18.962c1.91-1.362,2.418-3.981,1.283-6.218l-7.607,5.422
		C13.844,19.957,16.501,20.323,18.409,18.962z"/>
	<path display="inline" fill="#2C2C2C" d="M11.59,20.587c-0.333,0.16-0.557,0.452-0.706,0.92c-0.317-0.328-0.622-0.536-0.94-0.651
		c-0.663-0.236-1.241-0.035-1.767,0.359c-0.156-0.636-0.474-1.16-1.138-1.397C6.72,19.703,6.354,19.671,5.9,19.725
		c0.181-0.456,0.188-0.822,0.037-1.158c-0.188-0.424-0.606-0.732-1.279-0.96c0.404-0.286,0.683-0.622,0.7-1.051
		c0.02-0.452-0.257-0.882-0.672-1.29c0.581-0.054,1.066-0.209,1.338-0.571c0.258-0.344,0.257-0.781,0.125-1.257
		c0.663,0.255,1.185,0.276,1.598,0.069c0.33-0.166,1.164-0.861,0.83-2.394L7.67,9.73l-0.12,1.496
		c-0.082,1.043-0.282,1.352-0.433,1.429c-0.123,0.061-0.373-0.006-0.561-0.072c-0.293-0.106-0.667-0.291-1.141-0.569l-1.521-0.892
		l0.749,1.44c0.538,1.034,0.533,1.408,0.434,1.541c-0.101,0.134-0.493,0.277-1.781,0.191l-1.628-0.108l1.328,0.948
		c1.05,0.751,1.262,1.11,1.254,1.277c-0.006,0.166-0.241,0.459-1.312,0.917l-1.492,0.638l1.741,0.275
		c0.543,0.085,0.95,0.179,1.245,0.285c0.187,0.067,0.422,0.171,0.479,0.298c0.069,0.154,0.025,0.52-0.57,1.378l-0.857,1.234
		l1.577-0.494c0.823-0.259,1.382-0.336,1.662-0.238c0.285,0.103,0.451,0.646,0.492,1.618l0.061,1.415l0.945-1.057
		c0.647-0.724,1.121-1.041,1.405-0.937c0.28,0.1,0.661,0.514,1.134,1.234l0.906,1.384l0.119-1.495
		c0.085-1.045,0.284-1.355,0.434-1.428c0.125-0.064,0.374,0.002,0.561,0.07c0.293,0.105,0.667,0.292,1.141,0.569l1.521,0.891
		l-0.75-1.439C14.536,21.231,13.099,19.865,11.59,20.587z"/>
	<path display="inline" fill="#2C2C2C" d="M30.133,25.822c3.289-0.176,3.492-0.652,7.194-3.262c0.162-0.114,0.305-0.246,0.429-0.389
		c0.712-0.82,1.133-1.756,0.471-2.688c-0.78-1.095-2.051-1.049-3.138-0.283c-3.616,2.546-3.419,2.66-6.259,2.149
		c-1.572-0.284-2.487-0.423-3.179-0.643c3.016-4.095,3.284-10.619,3.254-10.87c-0.125-1.032-1.131-2.117-2.162-1.993
		c-1.034,0.124-1.939,1.146-1.814,2.177c0.006,0.048-0.105,4.671-2.375,7.455c-0.412,0.507-0.99,1.042-1.593,1.5
		c-1.361,0.326-3.28,1.138-4.369,2.665c-0.761,1.07-0.634,2.558-0.333,3.354c1.011,2.316,2.073,2.996,4.309,5.087
		c1.853,1.733,5.18,4.653,6.282,5.294l6.684-6.293L30.133,25.822z"/>
</g>
<g display="none">
	<path display="inline" fill="#2C2C2C" d="M4.902,22.732l0.154-0.038c-0.216-1.123,0.271-2.121,0.862-2.594l0.068,0.29
		c0.02,0.083,0.125,0.13,0.209,0.109c0.083-0.021,0.156-0.109,0.136-0.193l-0.09-0.381c0.167-0.063,0.165-0.074,0.335-0.124
		l0.136,0.573c0.02,0.084,0.125,0.13,0.208,0.11c0.082-0.021,0.156-0.11,0.136-0.193L6.92,19.72
		c0.174-0.035,0.177-0.023,0.354-0.045l0.09,0.382c0.02,0.084,0.125,0.13,0.208,0.109c0.082-0.021,0.156-0.109,0.136-0.193
		L7.64,19.684c0.737,0.152,1.614,0.821,1.928,1.918l0.156-0.039l0.126,0.52l-4.824,1.169L4.902,22.732z"/>
	<path display="inline" fill="#2C2C2C" d="M7.914,24.661c-0.986,0.238-1.988-0.338-2.397-1.344l3.93-0.952
		C9.534,23.448,8.9,24.421,7.914,24.661z"/>
	<path display="inline" fill="#2C2C2C" d="M6.812,17.241c0.27-0.272,0.386-0.636,0.368-1.146c0.426,0.211,0.793,0.308,1.146,0.308
		c0.732,0,1.226-0.4,1.602-0.968c0.376,0.568,0.87,0.968,1.603,0.968c0.352,0,0.722-0.096,1.147-0.308
		c-0.018,0.51,0.104,0.87,0.369,1.146c0.332,0.348,0.849,0.504,1.586,0.492c-0.296,0.419-0.45,0.847-0.318,1.273
		c0.14,0.448,0.561,0.771,1.11,1.026c-0.549,0.255-0.97,0.578-1.11,1.026c-0.131,0.427,0.022,0.854,0.318,1.273
		c-0.738-0.019-1.255,0.145-1.586,0.492c-0.265,0.276-0.837,1.248,0.026,2.631l1.369,1.036l-0.407-1.506
		c-0.282-1.051-0.196-1.423-0.076-1.55c0.1-0.104,0.367-0.125,0.573-0.125c0.324,0,0.756,0.051,1.315,0.157l1.8,0.34l-1.236-1.146
		c-0.889-0.822-1.014-1.191-0.964-1.355c0.053-0.167,0.384-0.442,1.675-0.81l1.63-0.464l-1.63-0.464
		c-1.291-0.366-1.623-0.643-1.675-0.809c-0.05-0.165,0.075-0.534,0.964-1.357l1.236-1.146l-1.8,0.339
		c-0.56,0.105-0.991,0.158-1.315,0.158c-0.207,0-0.474-0.022-0.573-0.125c-0.121-0.127-0.207-0.5,0.076-1.549l0.407-1.506
		l-1.369,1.035c-0.715,0.54-1.234,0.814-1.542,0.814c-0.315,0-0.668-0.474-1.048-1.41L9.928,12.65l-0.553,1.363
		c-0.381,0.936-0.733,1.41-1.048,1.41c-0.308,0-0.826-0.274-1.541-0.814l-1.37-1.035l0.406,1.506
		c0.283,1.049,0.198,1.421,0.075,1.549c-0.098,0.104-0.366,0.125-0.572,0.125c-0.325,0-0.756-0.052-1.317-0.158L2.21,16.257
		l1.236,1.146C3.705,17.642,5.588,18.475,6.812,17.241z"/>
	<path display="inline" fill="#2C2C2C" d="M1.936,27.066c0.172-0.374,0.616-0.539,0.988-0.367l1.928,0.886l0.864-1.73
		c0.115-0.229,0.7-0.548,1.213-0.71c0.174-0.072,0.36-0.119,0.556-0.135l0.527-0.041c0.832-0.218,2.006,0.162,2.283,0.426
		l2.648,2.522l0.433,3.166c0.056,0.407-0.229,0.783-0.638,0.84c-0.034,0.005-0.068,0.009-0.101,0.009
		c-0.367,0-0.687-0.268-0.737-0.641l-0.363-2.642l-0.873-0.818c0.054,0.683,0.122,1.583,0.14,2.008
		c0.016,0.391,0.086,0.717,0.096,1.348L11,31.816v0.023c0,0.217,0.084,1.16,0.081,1.16H11v4.49c0,0.609-0.391,1.103-1,1.103
		c-0.609,0-1-0.493-1-1.103v-4.367l-1,0.015v4.353c0,0.609-0.391,1.103-1,1.103S6,38.1,6,37.49v-5.987
		c0-1.108-0.101-2.396-0.144-2.709l-0.342,0.741L2.29,28.052C1.916,27.88,1.765,27.44,1.936,27.066z"/>
	<path display="inline" fill="#2C2C2C" d="M18.058,0.702V11.82h6.947v2.983c0,0-5.421,2.704-4.998,8.271
		c0.42,5.572,4.543,7.715,8.974,7.512c3.039-0.141,6.155-2.619,6.332-7.031c0.038-0.959-0.104-1.512-0.421-1.547
		c0,0-0.555,0.035-0.741,1.193c-0.304,1.891-2.043,3.678-4.749,3.844c-1.951,0.113-3.87-1.314-4.328-3.293
		c-0.646-2.813,1.443-5.539,5.426-5.233l0.855-1.685l0.017-5.014h6.824V0.702H18.058z"/>
</g>
<g id="_x34_6" display="none">
	<g id="_x32_" display="inline">
		<polygon fill="none" points="32.389,15 7.875,15 20.132,28.011 		"/>
		<polygon fill="#2D2D2D" points="20.132,28.011 7.875,15 5.687,15 18.011,28.132 20.132,30.253 22.253,28.132 34.577,15 32.389,15 
					"/>
	</g>
</g>
<rect id="_x34_5" x="3" y="18.419" display="none" fill="#2D2D2D" width="34" height="4"/>
<g id="_x34_4" display="none">
	<rect x="3" y="18.919" display="inline" fill="#2D2D2D" width="34" height="3"/>
	<rect x="18.5" y="3.419" display="inline" fill="#2D2D2D" width="3" height="34"/>
</g>
<g id="_x34_3" display="none">
	<polygon display="inline" fill="#2D2D2D" points="7.447,2.554 32,27.271 32,14 37,14 37,37 16,37 16,32 28.895,32 3.767,6.313 	"/>
</g>
<g id="_x34_2" display="none">
	<path display="inline" fill="#2D2D2D" d="M34.729,2H5.156L5.134,35.471L24,39.336V36h8V18.924l2.598-2.455L34.729,2z M21,36.057
		L8,33.256V5.449l10,2.688v11.487l3,2.66v10.722v1.33V36.057z M29,17.822V33h-5V21.184l-3-2.661V6.065L17.297,5h14.574
		l-0.104,10.128L29,17.822z"/>
</g>
<g id="_x34_1" display="none">
	<g display="inline">
		<g>
			<g>
				<path fill="#2D2D2D" d="M23.432,1.705H6.731v36.129h29.092V14.127L23.432,1.705z M32.559,34.568H9.996V4.971h12.04v10.653
					h10.521v18.944H32.559z"/>
			</g>
		</g>
	</g>
</g>
<g id="_x34_0" display="none">
	<polygon display="inline" fill="#2D2D2D" points="14,18 9,18 9,12 6,12 6,18 1,18 1,21 6,21 6,27 9,27 9,21 14,21 	"/>
	<g display="inline">
		<g>
			<path fill="#2D2D2D" d="M29.688,5.164H16.183v29.211h23.522V15.208L29.688,5.164z M37.064,31.734H18.823V7.804h9.733v8.613h8.508
				V31.734z"/>
		</g>
	</g>
</g>
<g id="_x33_9" display="none">
	<g display="inline">
		<g>
			<path fill="#2D2D2D" d="M20.414,2.771c-6.796,0-12.305,5.509-12.305,12.306c0,1.083,0.141,2.133,0.402,3.134
				c0.263,1,0.649,1.951,1.141,2.834c0.299,0.538,0.638,0.943,1.012,1.43L20.295,37h0.237l9.628-14.521
				c0.377-0.487,0.718-0.949,1.018-1.492c0.491-0.882,0.875-1.804,1.139-2.802c0.263-1.001,0.404-2.038,0.404-3.121
				C32.721,8.267,27.209,2.771,20.414,2.771z M20.414,22.887c-4.384,0-7.939-3.554-7.939-7.938c0-4.384,3.555-7.939,7.939-7.939
				c4.385,0,7.938,3.555,7.938,7.939C28.354,19.333,24.799,22.887,20.414,22.887z"/>
		</g>
		<g>
			<rect x="16.059" y="13.767" fill="#2D2D2D" width="8.785" height="2.361"/>
			<rect x="19.271" y="10.554" fill="#2D2D2D" width="2.361" height="8.786"/>
		</g>
	</g>
</g>
<path id="_x33_8" display="none" fill="#2C2C2C" d="M28.758,26.174c2.049-2.612,3.171-5.835,3.171-9.146
	c0-8.188-6.662-14.85-14.851-14.85c-8.187,0-14.848,6.662-14.848,14.85c0,8.187,6.661,14.848,14.848,14.848
	c3.313,0,6.536-1.122,9.147-3.171l9.013,9.013l2.531-2.532L28.758,26.174z M17.078,5.758c6.214,0,11.27,5.055,11.27,11.27
	c0,6.212-5.056,11.267-11.27,11.267c-6.213,0-11.267-5.055-11.267-11.267C5.812,10.813,10.865,5.758,17.078,5.758z"/>
<g id="_x33_7" display="none">
	<g display="inline">
		<path fill="#2C2C2C" d="M20.003,11.938C27,11.938,32.931,16,34.883,21h3.041C35.93,14,28.663,9.125,20.003,9.125
			C11.344,9.125,4.078,14,2.083,21h3.041C7.076,16,13.006,11.938,20.003,11.938z"/>
	</g>
	<g display="inline">
		<path fill="#2C2C2C" d="M20.003,30.063C27,30.063,32.931,27,34.883,21h3.041c-1.994,8-9.261,11.875-17.921,11.875
			C11.344,32.875,4.078,29,2.083,21h3.041C7.076,27,13.006,30.063,20.003,30.063z"/>
	</g>
	
		<circle display="inline" fill="#2C2C2C" stroke="#2D2D2D" stroke-width="4" stroke-miterlimit="10" cx="20.003" cy="20.858" r="7.409"/>
</g>
<g id="_x33_6">
	<polygon fill="#2C2C2C" points="40.143,20 19,5.858 19,13 0.172,13 3.143,20 0.173,27 19,27 19,34.143 	"/>
</g>
<g id="_x33_5" display="none">
	<polygon display="inline" fill="#2C2C2C" points="-0.143,20 21,5.858 21,13 40.143,13 37.172,20 40.142,27 21,27 21,34.143 	"/>
</g>
<g id="_x33_4" display="none">
	<path display="inline" fill="#2C2C2C" d="M20.003,9.125C11.344,9.125,4.078,14,2.083,21c1.995,8,9.261,11.875,17.92,11.875
		C28.663,32.875,35.93,29,37.924,21C35.93,14,28.663,9.125,20.003,9.125z M14.595,20.858c0-2.982,2.427-5.408,5.409-5.408
		s5.408,2.426,5.408,5.408s-2.426,5.409-5.408,5.409S14.595,23.84,14.595,20.858z M5.124,21c1.548-3.965,5.603-7.332,10.703-8.56
		c-3.095,1.542-5.232,4.731-5.232,8.417c0,4.334,2.95,7.983,6.944,9.07C11.643,29.283,6.842,26.281,5.124,21z M22.469,29.928
		c3.994-1.087,6.943-4.736,6.943-9.07c0-3.686-2.136-6.875-5.23-8.417c5.1,1.228,9.153,4.594,10.701,8.559
		C33.165,26.28,28.364,29.283,22.469,29.928z"/>
</g>
<g id="_x33_3" display="none">
	<path display="inline" fill="#2C2C2C" d="M20,4.341c-9.061,0-16.405,7.345-16.405,16.405S10.939,37.151,20,37.151
		c9.06,0,16.404-7.345,16.404-16.405S29.061,4.341,20,4.341z M24.208,34.165c0,0,3.66-9.275-3.721-14.887
		c0,0,0.367,5.123-2.562,6.771c0,0,0.916-3.295-0.672-4.94c0,0-0.366,3.659-2.927,5.43c-2.563,1.768-0.611,6.787,0.67,7.999
		c0,0-6.709-3.06-6.649-8.244c0.062-5.185,3.66-8.052,3.05-11.346c0,0,1.769,1.278,1.464,4.878c0,0,6.405-7.868,5.063-12.869
		c0,0,6.587,2.562,7.441,10.431c0,0,1.83-2.257,0.427-5.307c0,0,5.674,4.819,5.856,11.651
		C31.832,30.564,24.208,34.165,24.208,34.165z"/>
</g>
<g id="_x33_2" display="none">
	<g display="inline">
		<path fill="#2C2C2C" d="M26,10V7h-3v3h-6V7h-3v3H5v24h30V10H26z M32,31H8V13h6v0.487V16h3v-2v-1h6v0.487V16h3v-2v-1h6V31z"/>
		<g>
			<path fill="#2C2C2C" d="M15.278,26.978h4.266v1.606h-6.282v-0.759c0-0.542,0.092-1.042,0.277-1.501
				c0.185-0.457,0.449-0.886,0.793-1.285c0.344-0.398,1.067-1.01,2.17-1.835c0.428-0.319,0.736-0.624,0.923-0.916
				s0.28-0.617,0.28-0.978c0-0.446-0.131-0.794-0.393-1.043c-0.262-0.248-0.669-0.372-1.22-0.372c-0.861,0-1.688,0.342-2.481,1.025
				v-1.716c0.811-0.565,1.729-0.848,2.755-0.848c1.039,0,1.842,0.253,2.41,0.759s0.851,1.205,0.851,2.099
				c0,0.46-0.074,0.868-0.222,1.224s-0.344,0.678-0.588,0.968c-0.244,0.289-0.524,0.558-0.841,0.807
				c-0.317,0.248-0.642,0.495-0.974,0.741c-0.615,0.456-1.056,0.846-1.323,1.169S15.278,26.731,15.278,26.978z"/>
			<path fill="#2C2C2C" d="M21.499,26.513c0.679,0.506,1.463,0.759,2.352,0.759c0.583,0,1.053-0.133,1.408-0.4
				c0.355-0.266,0.533-0.647,0.533-1.145c0-1.044-0.789-1.565-2.365-1.565h-0.889v-1.49h0.826c1.413,0,2.119-0.487,2.119-1.463
				c0-0.911-0.542-1.367-1.627-1.367c-0.679,0-1.337,0.224-1.975,0.67v-1.606c0.684-0.364,1.49-0.547,2.42-0.547
				c0.925,0,1.677,0.219,2.256,0.656c0.578,0.438,0.867,1.044,0.867,1.818c0,1.308-0.667,2.138-2.002,2.488v0.027
				c0.697,0.073,1.258,0.329,1.682,0.77c0.424,0.439,0.635,0.972,0.635,1.596c0,0.952-0.345,1.699-1.035,2.238
				c-0.69,0.541-1.605,0.811-2.744,0.811c-1.003,0-1.823-0.173-2.461-0.52V26.513z"/>
		</g>
	</g>
</g>
<g id="_x33_1" display="none">
	<g display="inline">
		<path fill="#2C2C2C" d="M12.169,7c-0.398-2-2.132-3.493-4.212-3.493c-2.375,0-4.299,1.898-4.299,4.272
			c0,2.375,1.924,4.479,4.299,4.479c2.08,0,3.814-1.259,4.212-3.259H36V7H12.169z"/>
		<path fill="#2C2C2C" d="M7.957,15.507c-2.375,0-4.299,1.898-4.299,4.272c0,2.375,1.924,4.479,4.299,4.479
			c2.08,0,3.814-1.259,4.212-3.259H36v-2H12.169C11.771,17,10.037,15.507,7.957,15.507z"/>
		<path fill="#2C2C2C" d="M7.957,27.508c-2.375,0-4.299,1.897-4.299,4.271c0,2.375,1.924,4.479,4.299,4.479
			c2.08,0,3.814-1.259,4.212-3.259H36v-2H12.169C11.771,29,10.037,27.508,7.957,27.508z"/>
	</g>
</g>
<g id="_x33_0" display="none">
	<g display="inline">
		<polygon fill="#2C2C2C" points="20.042,2.404 2.083,20 2,20 2,23 5.879,23 7,21.9 8.938,20 20,9.151 31.063,20 33,21.9 34.121,23 
			38,23 38,20 		"/>
		<polygon fill="#2C2C2C" points="29.633,20 20,10.552 10.367,20 7.308,23 7,23.303 7,38 16,38 16,28 24,28 24,38 33,38 33,23.303 
			32.691,23 		"/>
	</g>
</g>
<g id="_x32_9" display="none">
	<path display="inline" fill="#2C2C2C" d="M32.931,11.959l-1.242-0.129c-1.005-0.104-1.905,0.628-2.009,1.633l-0.046,0.438
		l-2.452-0.253l0.186-1.788c0.104-1.005-0.628-1.906-1.634-2.01L6.356,7.843C5.351,7.739,4.451,8.47,4.347,9.475l-1.125,10.86
		c-0.104,1.004,0.627,1.905,1.632,2.009l7.816,0.81l-1.932,4.563H3.996v-2.114c0-1.011-0.821-1.831-1.832-1.831H0v11.867h2.164
		c1.011,0,1.832-0.82,1.832-1.831v-2.115h9.344V31.68l0.031,0.013l3.435-8.108l7.425,0.769c1.006,0.104,1.906-0.627,2.011-1.632
		l0.185-1.788l2.452,0.254l-0.046,0.438c-0.104,1.005,0.628,1.905,1.633,2.01l1.242,0.128c1.006,0.104,1.906-0.627,2.01-1.632
		l0.847-8.162C34.668,12.964,33.937,12.063,32.931,11.959z M11.352,13.543c-0.316,1.319-1.641,2.133-2.96,1.817
		c-1.319-0.317-2.131-1.641-1.815-2.96c0.316-1.32,1.641-2.132,2.96-1.817C10.855,10.899,11.668,12.224,11.352,13.543z"/>
</g>
<g id="_x32_8" display="none">
	<g display="inline">
		<g>
			<path fill="#2C2C2C" d="M20.414,2.771c-6.796,0-12.305,5.509-12.305,12.306c0,1.083,0.141,2.133,0.402,3.134
				c0.263,1,0.649,1.951,1.141,2.834c0.299,0.538,0.638,0.943,1.012,1.429L20.295,37h0.237l9.628-14.522
				c0.377-0.487,0.718-0.949,1.018-1.491c0.491-0.883,0.875-1.805,1.138-2.803c0.263-1.001,0.404-2.038,0.404-3.121
				C32.721,8.267,27.209,2.771,20.414,2.771z M20.414,22.887c-4.384,0-7.939-3.554-7.939-7.939c0-4.384,3.555-7.939,7.939-7.939
				c4.385,0,7.938,3.555,7.938,7.939C28.353,19.333,24.799,22.887,20.414,22.887z"/>
		</g>
		<g>
			<rect x="16.059" y="13.767" fill="#2C2C2C" width="8.785" height="2.361"/>
			<rect x="19.271" y="10.554" fill="#2C2C2C" width="2.361" height="8.786"/>
		</g>
	</g>
</g>
<g id="_x32_7" display="none">
	
		<rect x="18.684" y="1.432" transform="matrix(0.7072 0.707 -0.707 0.7072 20.3952 -8.5379)" display="inline" fill="#2C2C2C" width="3.642" height="37.843"/>
	
		<rect x="18.825" y="1.433" transform="matrix(-0.7072 0.707 -0.707 -0.7072 49.6376 20.1497)" display="inline" fill="#2C2C2C" width="3.643" height="37.842"/>
</g>
<polygon id="_x32_6" display="none" fill="#2C2C2C" points="28.264,17.879 12,1.615 9.879,3.736 26.143,20 9.879,36.264 12,38.385 
	28.264,22.121 30.385,20 "/>
<polygon id="_x32_5" display="none" fill="#2C2C2C" points="12,17.879 28.264,1.615 30.385,3.736 14.121,20 30.385,36.264 
	28.264,38.385 12,22.121 9.879,20 "/>
<g id="_x32_4" display="none">
	<polygon id="_x33_" display="inline" fill="#2C2C2C" points="18.011,28.132 1.747,11.868 3.868,9.747 20.132,26.011 36.396,9.747 
		38.517,11.868 22.253,28.132 20.132,30.253 	"/>
</g>
<g id="_x32_3" display="none">
	<g display="inline">
		<path fill="#2C2C2C" d="M22,4.549v3c7.065,0.496,12.666,6.387,12.666,13.576c0,7.513-6.112,13.625-13.625,13.625
			c-7.217,0-13.125-5.646-13.58-12.75h-3c0.459,8.76,7.708,15.75,16.58,15.75c9.167,0,16.625-7.458,16.625-16.625
			C37.666,12.282,30.72,5.05,22,4.549z"/>
	</g>
	<g display="inline">
		<path fill="#2C2C2C" d="M19.5,20H2v-1.389C2,9.813,9.378,3,18.153,3h1.393L19.5,20z M5.603,17H16.73l0.031-11.199
			C10.632,6.389,6.186,11,5.603,17z"/>
	</g>
</g>
<g id="_x32_2" display="none">
	<path display="inline" fill="#2C2C2C" d="M17.213,31.406c-0.462,0.31-0.732,0.797-0.854,1.526
		c-0.546-0.421-1.044-0.664-1.547-0.766c-1.042-0.209-1.862,0.219-2.561,0.921c-0.372-0.918-0.963-1.63-2.005-1.839
		c-0.503-0.102-1.057-0.07-1.725,0.108c0.172-0.721,0.103-1.269-0.196-1.739c-0.374-0.591-1.066-0.963-2.121-1.155
		c0.543-0.514,0.884-1.08,0.818-1.725c-0.069-0.678-0.577-1.261-1.287-1.781c0.856-0.206,1.549-0.546,1.875-1.145
		c0.31-0.571,0.215-1.225-0.088-1.907c1.048,0.239,1.832,0.154,2.403-0.246c0.457-0.317,1.55-1.54,0.718-3.758l-1.657-1.87
		l0.148,2.264c0.102,1.578-0.127,2.083-0.337,2.231c-0.171,0.119-0.559,0.073-0.852,0.014c-0.463-0.093-1.063-0.289-1.832-0.601
		l-2.467-1l1.433,1.988c1.03,1.428,1.104,1.99,0.986,2.21c-0.123,0.223-0.675,0.52-2.62,0.673l-2.458,0.193l2.192,1.129
		c1.734,0.894,2.127,1.381,2.156,1.633c0.024,0.251-0.261,0.738-1.764,1.658l-2.09,1.277l2.662,0.033
		c0.829,0.011,1.458,0.061,1.921,0.154c0.295,0.059,0.668,0.166,0.78,0.342C6.984,30.444,7,31,6.296,32.415l-1.012,2.029l2.25-1.081
		c1.173-0.565,1.992-0.807,2.432-0.719c0.449,0.09,0.814,0.867,1.089,2.311l0.398,2.101l1.181-1.783
		c0.811-1.225,1.448-1.8,1.898-1.71c0.439,0.088,1.099,0.627,1.964,1.604l1.655,1.866l-0.147-2.262
		c-0.103-1.578,0.127-2.084,0.338-2.229c0.169-0.12,0.557-0.075,0.85-0.016c0.463,0.093,1.062,0.291,1.833,0.602l2.468,0.998
		l-1.434-1.985C21.759,31.724,19.313,29.998,17.213,31.406z"/>
	<path display="inline" fill="#2C2C2C" d="M32.812,3H29v0.888l-18.106,6.808L10,10.721V12h3.908l-0.026,11H17v-0.277
		c0,0-2.992,0.316-2.992,2.825c0,1.695,0.705,2.908,2.865,2.908c0.923,0,1.822-0.904,1.875-2.242
		c0.012-0.291-0.118-0.459-0.213-0.47c0,0-0.212,0.011-0.268,0.362c-0.093,0.573-0.763,1.096-1.586,1.096
		c-1.479,0-1.522-0.969-1.522-1.585c0-1.086,1.119-1.774,2.327-1.682l0.257,0.255L17.744,23H19V12h1.276L26,12.59v25.056
		l1.742-0.017l-0.051-8.355l5.729,6.487l0.009,1.841l1.911-0.134L35.303,12H39v-1.305L32.812,3z M30.35,12.59L28,15.137v-2.573
		L30.35,12.59z M15.346,10.708L29,5.65v3.122v1.949L15.346,10.708z M32.967,22.304L28,27.514V17 M34,33.738l-4.763-5.322L34,23.356
		V33.738z M34,21.367l-5.217-5.383l3.314-3.38L34,12.617V21.367z M37.198,11h-4.432l-0.025-5.418L37.198,11z"/>
</g>
<g id="_x32_1" display="none">
	<g display="inline">
		<path fill="#2C2C2C" d="M32.897,8.756c0.398-2.068-0.498-3.903-1.586-4.773l-0.126,0.534c-0.036,0.154-0.231,0.238-0.383,0.201
			c-0.153-0.037-0.288-0.201-0.251-0.355l0.166-0.703c-0.308-0.115-0.303-0.137-0.617-0.227l-0.25,1.054
			c-0.036,0.154-0.23,0.239-0.382,0.203c-0.153-0.037-0.288-0.202-0.252-0.356l0.251-1.054c-0.32-0.063-0.326-0.041-0.651-0.08
			l-0.168,0.701c-0.037,0.154-0.23,0.238-0.383,0.202c-0.151-0.037-0.287-0.201-0.251-0.355l0.127-0.533
			c-1.356,0.28-2.971,1.511-3.548,3.529l-0.289-0.07l-0.231,0.956l8.878,2.151l0.231-0.956L32.897,8.756z"/>
		<path fill="#2C2C2C" d="M27.638,12.374c1.816,0.44,3.659-0.621,4.411-2.471L24.817,8.15
			C24.656,10.144,25.822,11.935,27.638,12.374z"/>
		<path fill="#2C2C2C" d="M19.817,17.364c-1.737,3.491-1.63,5.317-1.652,5.591c-0.071,0.925,0.352,1.712,1.268,1.785
			c0.045,0.005,0.097,0.006,0.142,0.006c0.859,0,1.331-0.807,1.402-1.688c0.146-1.794,0.682-3.563,2.919-5.762
			c-0.025,0.377-0.042,0.781-0.05,1.223c-0.022,1.407-0.16,1.261-0.582,2.594c-1.157,3.65,0.13,4.801,0.889,5.563
			c0.046,4.102-1.318,3.674-5.833,7.67c-0.709,0.627-0.779,1.716-0.16,2.431c0.338,0.39,0.81,0.588,1.284,0.588
			c0.399,0,0.77-0.179,1.124-0.428c5.101-3.613,6.74-3.671,7.601-8.475l0.019-0.044c1.932,0.954,4.538,0.982,5.527,7.802
			c0.121,0.838,1.072,1.62,1.886,1.62c0.081,0,0.161-0.006,0.244-0.018c0.91-0.134,1.54-0.989,1.407-1.91
			c-1.258-8.663-5.186-10.038-7.661-11.177l0.11-3.663c1.307,2.252,2.689,2.994,5.73,3.747c0.134,0.033,0.267,0.05,0.397,0.05
			c0.749,0,1.43-0.202,1.617-0.97c0.219-0.903-0.379-1.542-1.271-1.764c-2.969-0.736-3.131-1.163-4.15-2.879
			c-1.1-1.851-1.278-2.032-1.274-3.201c0.002-0.532,0.031-0.559-0.275-1.031C30.077,14.129,28.793,13,25.792,13c0,0-0.005,0-0.009,0
			c-0.131,0-0.365-0.169-0.499-0.136c-1.477,0.373-2.863,1.038-3.731,2C21.553,14.864,19.817,16.992,19.817,17.364z"/>
	</g>
	<path display="inline" fill="#2C2C2C" d="M20,14v-1.322l-1.003-0.518L13,5.465V6h-1v1.13L3.487,12H2v1.146L2.422,14H3v8.38V25h2
		v0.507c0,0-1.188,0.591-1.125,1.558c0.055,0.83,0.561,1.4,1.636,1.375c0.585-0.014,0.982-0.694,0.927-1.417
		c-0.012-0.166-0.042-0.261-0.098-0.268c0,0-0.109,0.007-0.141,0.207c-0.053,0.328-0.36,0.637-0.829,0.666
		c-0.339,0.02-0.674-0.229-0.753-0.571c-0.112-0.486,0.397-0.96,1.087-0.905L6,25.949V25h1v-2.62V14h3v13H9.029L8,29.813V31h8.502
		l-0.01-1.455L15.218,27H15V14H20z M13,7.186L16.919,12H14v-1h-1V7.186z M4,14h2v8H4V14z M5.151,24.483
		c-0.404,0-0.731-0.327-0.731-0.731s0.327-0.73,0.731-0.73c0.404,0,0.731,0.326,0.731,0.73S5.555,24.483,5.151,24.483z M5.852,12
		L12,8.464V11h-1v1H5.852z M12.738,14L11,15.746V14H12.738z M14.384,19.862L11,23.031v-6.395L14.384,19.862z M11,27v-3.135
		L13.598,27H11z M14,26.446l-3.043-2.998L14,20.599V26.446z M14,19.121l-3.238-2.788L13.68,14H14V19.121z"/>
</g>
<g id="_x32_0" display="none">
	<path display="inline" fill="#2C2C2C" d="M12.44,8.077C11.099,6.37,9.063,5.828,7.65,6.086l0.33,0.46
		c0.095,0.132,0.03,0.34-0.102,0.434C7.747,7.074,7.527,7.066,7.433,6.935L6.999,6.331C6.701,6.491,6.687,6.474,6.404,6.657
		l0.651,0.907C7.151,7.698,7.086,7.907,6.955,8C6.823,8.093,6.603,8.087,6.508,7.955L5.856,7.046C5.59,7.254,5.604,7.272,5.354,7.5
		l0.433,0.604c0.095,0.133,0.03,0.341-0.103,0.435c-0.131,0.094-0.35,0.088-0.446-0.045L4.91,8.035
		c-0.701,1.246-0.832,3.335,0.349,5.149L5.01,13.361l0.587,0.827l7.676-5.458l-0.587-0.826L12.44,8.077z"/>
	<path display="inline" fill="#2C2C2C" d="M11.701,14.621c1.569-1.117,1.989-3.269,1.058-5.106l-6.255,4.447
		C7.949,15.434,10.132,15.736,11.701,14.621z"/>
	<path display="inline" fill="#2C2C2C" d="M35.028,30.034c-0.664-1.323-2.417-3.679-6.056-4.823
		c1.217-0.407,2.901-0.278,5.104,1.364c0.806,0.602,2.287,0.299,2.921-0.431c0.064-0.071,0.121-0.148,0.175-0.232
		c0.588-0.923,0.301-2.138-0.616-2.75c-7.57-5.04-10.188-1.707-13.135-0.372l-2.096-2.522c2.703-0.142,2.871-0.533,5.914-2.674
		c0.135-0.093,0.251-0.201,0.354-0.32c0.584-0.672,0.932-1.441,0.388-2.206c-0.639-0.901-1.682-0.864-2.576-0.235
		c-2.972,2.09-2.813,2.181-5.145,1.759c-1.291-0.233-2.042-0.349-2.612-0.53c2.482-3.361,2.708-8.721,2.683-8.928
		c-0.101-0.848-0.927-1.74-1.775-1.639c-0.849,0.103-1.593,0.939-1.491,1.789c0.004,0.038-0.091,3.837-1.958,6.121
		c-0.34,0.417-0.815,0.855-1.311,1.232c-1.119,0.266-2.696,0.931-3.592,2.186c-0.626,0.878-0.523,2.101-0.277,2.755
		c0.829,1.903,2.032,1.913,3.876,3.625c1.224,1.139,0.849,1.234,1.874,2.544c2.936,3.757,4.407,3.622,5.683,3.537
		c0.667-0.057,1.336-0.213,1.961-0.413c5.496-0.051,7.356,1.691,8.023,3.022c0.049,0.098,0.123,0.244,0.254,0.413
		c0.701,0.896,2,1.051,2.897,0.349C35.304,32.021,35.51,30.904,35.028,30.034z"/>
	<path display="inline" fill="#2C2C2C" d="M15.752,30.361c0.175-0.055,0.492,0.084,0.726,0.212c0.368,0.202,0.825,0.525,1.395,0.991
		l1.831,1.498L19.011,31c-0.146-0.432-1.766-2.54-3.917-1.896c-0.474,0.14-0.831,0.479-1.126,1.069
		c-0.35-0.501-0.708-0.84-1.11-1.057c-0.829-0.452-1.636-0.305-2.413,0.107c-0.074-0.876-0.388-1.636-1.217-2.088
		c-0.4-0.216-0.879-0.335-1.49-0.359c0.335-0.568,0.419-1.05,0.29-1.527c-0.161-0.6-0.65-1.098-1.494-1.539
		c0.595-0.291,1.033-0.681,1.147-1.246c0.119-0.594,0-1.04-0.464-1.667c0.779,0.05,1.626,0.118,2.051-0.297
		c0.001-0.001,0.002-0.001,0.002-0.002c-0.63-0.598-0.976-0.817-1.482-1.063c-0.293,0.083-0.994-0.011-2.29-0.304l-2.174-0.527
		l1.542,1.509c1.236,1.213,1.432,1.72,1.387,1.942c-0.043,0.218-0.417,0.552-1.935,0.937l-2.111,0.53l2.249,0.727
		c0.699,0.227,1.219,0.435,1.588,0.634c0.233,0.129,0.522,0.318,0.57,0.497c0.06,0.219-0.073,0.692-1.043,1.708l-1.391,1.456
		l2.193-0.328c1.142-0.169,1.902-0.158,2.25,0.03c0.357,0.196,0.463,0.951,0.315,2.247L8.724,32.38l1.471-1.202
		c1.009-0.824,1.702-1.146,2.058-0.951c0.351,0.189,0.767,0.821,1.245,1.876l0.912,2.019l0.47-1.957
		C15.208,30.8,15.536,30.43,15.752,30.361z"/>
</g>
<path id="_x31_9" display="none" fill="#2C2C2C" d="M30.102,8.846V8.564L24.42,7.588l-0.303-1.412h-7.401l-0.572,1.412L9.757,8.564
	v0.282L1.871,28.644l5.403,2.489l3.223-6.815v9.23h19.234v-9.23l3.255,6.815l5.205-2.488L30.102,8.846z M21.224,12.303v19.396
	h-1.479V12.303L17.72,7.286h5.392L21.224,12.303z"/>
<g id="_x31_8" display="none">
	<path display="inline" fill="#2C2C2C" d="M37.058,28C37.058,15,32,9.309,27,6.969v2.196c0,0.634-0.266,1.146-0.898,1.146
		C25.467,10.312,25,9.799,25,9.165V6.276c-2-0.158-2-0.247-3-0.3v4.335c0,0.635-0.867,1.148-1.5,1.148c-0.634,0-1.5-0.514-1.5-1.148
		V5.976c-2,0.054-2,0.143-3,0.301v2.888c0,0.634-0.367,1.146-1,1.146c-0.632,0-1-0.513-1-1.146V6.972C8,9.358,3.46,15,3.46,28H2v5
		h36v-5H37.058z M20.462,29.96c-4.282,0-7.765-3.484-7.765-7.766c0-4.282,3.483-7.765,7.765-7.765c4.281,0,7.766,3.483,7.766,7.765
		C28.228,26.476,24.743,29.96,20.462,29.96z"/>
	<path display="inline" fill="#2C2C2C" d="M20.462,15.331c-3.784,0-6.863,3.079-6.863,6.863s3.079,6.864,6.863,6.864
		s6.863-3.08,6.863-6.864S24.246,15.331,20.462,15.331z M26,24h-4v3h-3v-3h-4v-3h4v-4h3v4h4V24z"/>
</g>
<g id="_x31_7" display="none">
	<path display="inline" fill="#2C2C2C" d="M30.984,27.991l-0.987-0.031c0.836-2.111,1.403-3.51,1.625-6.077
		c0.703-0.308,1.273-0.744,1.696-1.316c1.313-1.777,1.014-4.417,0.495-7.006c-0.292-1.458-1.422-2.509-3.313-3.132
		c0.021-0.008,0.045-0.016,0.065-0.024c-1.52-4.481-4.699-6.978-10.536-6.978c-5.551,0-8.804,2.476-10.417,6.923
		c0.038,0.006,0.077,0.013,0.115,0.02c-2.003,0.614-3.196,1.686-3.497,3.19c-0.519,2.588-0.817,5.229,0.495,7.006
		c0.426,0.577,1.002,1.015,1.713,1.324c0.223,2.563,0.79,3.957,1.625,6.066l-1.106,0.034l-1.023-0.218L6.32,28.928
		c1.515,6.132,5.598,8.368,5.598,8.368L14,36.286v-1.154l0.376-0.854c1.697,1.494,3.611,2.348,5.702,2.348
		c2.08,0,3.882-0.846,5.574-2.325L26,35.132v1.154l2.049,1.01c0,0,4.019-2.236,5.533-8.368l-1.599-1.154L30.984,27.991z
		 M10.537,20.487c-1.108-0.112-1.858-0.453-2.292-1.042c-0.883-1.195-0.551-3.575-0.163-5.513c0.413-2.058,4.732-2.28,6.57-2.28
		c1.231,0,2.238,0.088,2.588,0.124c0.178,0.099,0.63,0.45,0.639,1.467C17.672,16.02,13.936,20.838,10.537,20.487z M20.03,34.435
		c-3.814,0-6.906-3.152-6.906-7.039c0-3.888,3.092-7.039,6.906-7.039c3.815,0,6.907,3.151,6.907,7.039
		C26.937,31.282,23.845,34.435,20.03,34.435z M29.508,20.487c-3.397,0.352-7.136-4.467-7.343-7.244
		c0.009-1.037,0.478-1.381,0.631-1.466c0.34-0.035,1.349-0.125,2.597-0.125c1.837,0,6.158,0.222,6.569,2.28
		c0.389,1.938,0.721,4.317-0.161,5.513C31.365,20.034,30.614,20.375,29.508,20.487z"/>
	<path display="inline" fill="#2C2C2C" d="M20.03,21.493c-3.181,0-5.769,2.641-5.769,5.887c0,3.247,2.588,5.888,5.769,5.888
		c3.182,0,5.769-2.641,5.769-5.888C25.799,24.134,23.212,21.493,20.03,21.493z M20.956,24.008c0.167-0.287,0.474-0.466,0.806-0.466
		c0.162,0,0.322,0.043,0.463,0.125c0.215,0.123,0.369,0.325,0.433,0.565c0.065,0.238,0.032,0.488-0.093,0.704
		c-0.246,0.427-0.838,0.589-1.27,0.341c-0.214-0.125-0.368-0.325-0.432-0.564C20.798,24.473,20.832,24.222,20.956,24.008z
		 M17.403,24.232c0.064-0.24,0.217-0.441,0.432-0.564c0.142-0.083,0.302-0.126,0.464-0.126c0.331,0,0.64,0.179,0.805,0.466
		c0.125,0.214,0.158,0.465,0.093,0.705c-0.064,0.239-0.218,0.439-0.433,0.565c-0.431,0.247-1.023,0.085-1.27-0.342
		C17.371,24.721,17.338,24.471,17.403,24.232z M16.57,28.397c-0.512,0-0.929-0.417-0.929-0.93c0-0.512,0.417-0.928,0.929-0.928
		c0.513,0,0.929,0.416,0.929,0.928C17.499,27.98,17.083,28.397,16.57,28.397z M19.104,30.93c-0.246,0.428-0.838,0.588-1.27,0.34
		c-0.214-0.123-0.368-0.324-0.433-0.564c-0.064-0.238-0.031-0.488,0.094-0.704c0.165-0.287,0.474-0.465,0.805-0.465
		c0.162,0,0.322,0.043,0.463,0.123c0.215,0.126,0.369,0.326,0.433,0.565C19.262,30.465,19.229,30.715,19.104,30.93z M20.03,28.397
		c-0.512,0-0.929-0.417-0.929-0.93c0-0.512,0.417-0.928,0.929-0.928c0.513,0,0.93,0.416,0.93,0.928
		C20.96,27.98,20.542,28.397,20.03,28.397z M22.657,30.705c-0.063,0.24-0.218,0.441-0.433,0.564c-0.43,0.249-1.022,0.088-1.269-0.34
		c-0.124-0.215-0.157-0.465-0.093-0.705c0.064-0.239,0.218-0.439,0.432-0.564c0.142-0.081,0.302-0.124,0.465-0.124
		c0.33,0,0.64,0.178,0.805,0.465C22.689,30.217,22.723,30.467,22.657,30.705z M24.419,27.468c0,0.513-0.416,0.93-0.929,0.93
		s-0.929-0.417-0.929-0.93c0-0.512,0.416-0.928,0.929-0.928S24.419,26.956,24.419,27.468z"/>
</g>
<g id="_x31_6" display="none">
	<g id="Layer_3_2_" display="inline">
	</g>
	<path display="inline" fill="#2C2C2C" d="M38.125,34H1.938L20.031,4.184L38.125,34z M8.065,30h23.931L20.031,10.282L8.065,30z"/>
	<rect x="19" y="16" display="inline" fill="#2C2C2C" width="2" height="9"/>
	<rect x="19.13" y="25.979" display="inline" fill="#2C2C2C" width="1.747" height="1.747"/>
</g>
<path id="_x31_5" display="none" fill="#2C2C2C" d="M26.471,23.154c3.011-2.061,4.992-5.51,4.992-9.426
	c0-6.304-5.129-11.425-11.431-11.425C13.728,2.304,8.6,7.434,8.6,13.738c0,3.917,1.981,7.355,4.993,9.416
	C7.822,25.641,3.766,31,3.718,38H7.04c0.064-7,5.865-12.879,12.992-12.879C27.158,25.121,32.959,31,33.023,38h3.321
	C36.297,31,32.24,25.643,26.471,23.154z M20.032,21.854c-4.473,0-8.112-3.639-8.112-8.112c0-4.474,3.639-8.113,8.112-8.113
	s8.112,3.639,8.112,8.113C28.144,18.214,24.505,21.854,20.032,21.854z"/>
<g id="_x31_4" display="none">
	<path display="inline" fill="#2C2C2C" d="M19.057,12.406c0.323-1.685-0.408-3.179-1.293-3.888l-0.103,0.434
		c-0.03,0.125-0.188,0.194-0.312,0.164c-0.125-0.03-0.234-0.164-0.205-0.289l0.136-0.572c-0.251-0.093-0.247-0.111-0.503-0.184
		l-0.204,0.858c-0.03,0.125-0.188,0.194-0.312,0.165c-0.124-0.03-0.234-0.165-0.205-0.29l0.204-0.858
		c-0.261-0.052-0.265-0.034-0.53-0.065l-0.136,0.571c-0.03,0.125-0.188,0.194-0.313,0.164c-0.124-0.03-0.234-0.164-0.204-0.289
		l0.104-0.434c-1.106,0.228-2.42,1.23-2.89,2.874l-0.235-0.057l-0.189,0.778l7.23,1.752l0.189-0.778L19.057,12.406z"/>
	<path display="inline" fill="#2C2C2C" d="M14.771,15.352c1.479,0.358,2.98-0.506,3.593-2.013l-5.891-1.427
		C12.344,13.536,13.293,14.994,14.771,15.352z"/>
	<path display="inline" fill="#2C2C2C" d="M8,6.627v13.018c-2,3.069-1.552,4.674-1.571,4.914c-0.062,0.813,0.25,1.505,1.055,1.57
		c0.04,0.003,0.055,0.004,0.095,0.004c0.755,0,1.156-0.708,1.218-1.481c0.127-1.578,0.591-3.133,2.559-5.065
		c-0.023,0.332-0.042,0.687-0.048,1.075c-0.02,1.237-0.142,1.109-0.514,2.281c-1.017,3.208,0.113,4.218,0.78,4.89
		c0.041,3.604-1.159,3.229-5.126,6.741c-0.623,0.551-0.686,1.508-0.141,2.136c0.297,0.343,0.711,0.517,1.128,0.517
		c0.351,0,0.677-0.156,0.987-0.376c4.484-3.175,5.925-3.226,6.681-7.448l0.016-0.038c1.698,0.839,3.989,0.863,4.858,6.857
		c0.107,0.736,0.942,1.424,1.658,1.424c0.07,0,0.142-0.006,0.214-0.017c0.801-0.118,1.354-0.869,1.237-1.677
		c-1.104-7.616-4.558-8.824-6.733-9.825l0.156-1.553c1.39,1.44,1.921,1.349,4.594,2.011c0.118,0.029,0.235,0.043,0.351,0.043
		c0.658,0,1.257-0.177,1.421-0.853c0.192-0.794-0.333-1.355-1.118-1.55c-2.608-0.647-2.581-0.507-3.477-2.015
		c-0.966-1.627-0.91-2.685-0.907-3.712c0.002-0.467,0.027-0.396-0.242-0.811C16.779,16.897,14.799,15,12.161,16c0,0-0.004,0-0.008,0
		C12.038,16,10,16.521,10,17.367V7.939l19.396-3.553L29.181,37H33V2.689L8,6.627z"/>
</g>
<path id="_x31_3" display="none" fill="#2C2C2C" d="M37.302,13.636v-1.614L24.043,2.248h-2.684v1.908L5.877,10.979H2.76v1.71
	l1.444,0.947h1.213v12.177v3.766h1.898v0.737c0,0-1.34,0.668-1.236,2.045c0.104,1.376,1.123,1.905,2.217,1.855
	c0.751-0.035,1.521-0.648,1.565-1.737c0.01-0.237-0.026-0.373-0.104-0.383c0,0-0.137,0.009-0.184,0.296
	C9.5,32.859,9.071,33.299,8.402,33.34c-0.482,0.03-0.958-0.324-1.07-0.813c-0.16-0.695,0.357-1.368,1.341-1.293l0.211-0.415
	l0.004-1.24h1.463v-3.766V13.636h7.971v18.22h-0.2l-2.165,3.465v2.229h12.589l-0.014-2.096l-1.752-3.598h-0.487v-18.22H37.302z
	 M33.32,10.979h-8.165V8.701h-1.139V4.015L33.32,10.979z M21.359,5.969v2.732h-1.518v2.278h-9.689L21.359,5.969z M8.098,28.856
	c-0.577,0-1.043-0.467-1.043-1.043c0-0.575,0.466-1.043,1.043-1.043c0.575,0,1.042,0.468,1.042,1.043
	C9.14,28.39,8.673,28.856,8.098,28.856z M9.213,26.162H6.556V13.636h2.657V26.162z M22.199,13.636l-2.358,2.114v-2.114H22.199z
	 M25.155,30.906l-4.402-4.337l4.402-4.122V30.906z M19.841,25.835v-8.467l4.481,4.271L19.841,25.835z M19.841,27.313l4.841,4.543
	h-4.841V27.313z M25.155,20.826l-4.584-4.352l2.853-2.839h1.731V20.826z"/>
<g id="_x31_2" display="none">
	<path display="inline" fill="#2C2C2C" d="M26.675,8.33c-0.103-2.567-1.937-4.866-4.183-5.722v0.79c0,0.229-0.142,0.413-0.375,0.413
		c-0.232,0-0.373-0.185-0.373-0.413v-1.04c-0.375-0.057-0.375-0.089-1.124-0.108v1.561c0,0.229-0.142,0.414-0.375,0.414
		c-0.232,0-0.374-0.186-0.374-0.414V2.25c-0.749,0.02-0.749,0.052-1.123,0.108v1.04c0,0.229-0.142,0.413-0.375,0.413
		s-0.375-0.185-0.375-0.413V2.608c-1.872,0.858-3.934,3.154-4.05,5.721h-0.816v1.833h14.226V8.33H26.675z"/>
	<path display="inline" fill="#2C2C2C" d="M20.33,15.489c2.773,0,5.073-1.66,5.524-4.959H14.802
		C15.254,13.829,17.553,15.489,20.33,15.489z"/>
	<rect x="13.132" y="28.128" display="inline" fill="#2C2C2C" width="1.498" height="1.101"/>
	<path display="inline" fill="#2C2C2C" d="M14.63,16.849c-3.37,1.213-5.99,4.603-5.99,10.083v9.012c0,1.124,0.844,2.037,1.993,2.037
		c1.147,0,1.751-0.912,1.751-2.037v-9.012c0-1.529,0.375-2.758,0.749-3.728v3.092h1.498V16.849z"/>
	<path display="inline" fill="#2C2C2C" d="M21.61,21.715l2.583-5.431c0,0-7.644,0.056-7.713,0.056l2.569,5.362L21.61,21.715z"/>
	<polygon display="inline" fill="#2C2C2C" points="24.213,32.529 20.335,32.529 16.458,32.529 14.521,32.529 13.132,32.529 
		13.132,33.63 27.358,33.63 27.358,32.529 26.151,32.529 	"/>
	<rect x="25.861" y="28.128" display="inline" fill="#2C2C2C" width="1.497" height="1.101"/>
	<path display="inline" fill="#2C2C2C" d="M25.861,16.852v9.444h1.497v-3.072c0.375,0.957,0.375,2.177,0.375,3.708v9.012
		c0,1.124,0.785,2.037,1.933,2.037c1.149,0,2.089-0.912,2.089-2.037l-0.161-9.012C31.594,21.456,28.856,18.065,25.861,16.852z"/>
</g>
<g id="_x31_1" display="none">
	<path display="inline" fill="#2C2C2C" d="M38,29V6H2v23h17v4h-6.438L9,36h23l-3.438-3H22v-4H38z M5,26V9h30v17H5z"/>
</g>
<g id="_x31_0_1_" display="none">
	<g id="_x30_6_2_" display="inline">
		<path fill="#2C2C2C" d="M36.347,7.118c-0.073,0.017-0.076-0.005-0.142,0.044l-1.721,1.037c-0.396-0.317-0.81-0.584-1.269-0.775
			l0.139-2.074c0.044-0.306-0.162-0.595-0.47-0.641l-1.16-0.173c-0.307-0.046-0.592,0.165-0.637,0.472l-0.495,2.019
			c-0.486,0.052-0.966,0.169-1.429,0.356l-1.383-1.567c-0.112-0.15-0.376-0.34-0.552-0.337c-0.111,0.001-0.248-0.004-0.346,0.068
			l-0.948,0.702c-0.096,0.073-0.132,0.205-0.166,0.313c-0.053,0.165,0.008,0.412,0.119,0.563l1.104,1.814
			c-0.316,0.387-0.561,0.828-0.752,1.275l-2.078-0.123c-0.304-0.045-0.589,0.17-0.634,0.475l-0.172,1.167
			c-0.047,0.307,0.166,0.592,0.473,0.638l2.006,0.493c0.048,0.493,0.162,0.982,0.349,1.452l-1.444,1.289
			c-0.249,0.186-0.205,0.464-0.021,0.714l0.702,0.946c0.185,0.249,0.438,0.374,0.688,0.188l1.688-1.017
			c0.399,0.332,0.813,0.615,1.276,0.814l-0.139,2.033c-0.046,0.308,0.156,0.597,0.466,0.642l1.16,0.175
			c0.309,0.046,0.591-0.164,0.635-0.471l0.478-1.947c0.511-0.047,1.017-0.169,1.504-0.366l1.329,1.503
			c0.11,0.151,0.367,0.336,0.543,0.332c0.113,0,0.244-0.001,0.342-0.074l0.946-0.701c0.099-0.074,0.137-0.2,0.171-0.308
			c0.056-0.167-0.002-0.409-0.115-0.56l-1.058-1.739c0.332-0.408,0.588-0.87,0.783-1.343l2.002,0.119
			c0.308,0.046,0.591-0.167,0.637-0.475l0.171-1.167c0.047-0.308-0.168-0.593-0.476-0.638l-1.96-0.481
			c-0.055-0.501-0.18-1-0.376-1.479l1.527-1.348c0.066-0.048-0.024-0.006,0.013-0.073c0.104-0.184,0.055-0.39-0.082-0.572
			l-0.702-0.947C36.736,7.18,36.556,7.072,36.347,7.118z M33.296,10.774c0.869,1.173,0.622,2.836-0.551,3.706
			c-1.174,0.869-2.835,0.624-3.707-0.551c-0.87-1.173-0.621-2.835,0.552-3.705C30.767,9.354,32.426,9.601,33.296,10.774z"/>
		<path fill="#2C2C2C" d="M29.802,13.363c0.558,0.751,1.622,0.911,2.374,0.353c0.757-0.56,0.914-1.624,0.354-2.375
			c-0.559-0.754-1.622-0.913-2.376-0.354C29.402,11.544,29.242,12.608,29.802,13.363z"/>
	</g>
	<g id="_x30_6_1_" display="inline">
		<path fill="#2C2C2C" d="M26.04,20.804c-0.11-0.049-0.353-0.079-0.483-0.079l-3.299-0.303c-0.204-0.776-0.546-1.509-0.947-2.182
			l2.099-2.509c0.346-0.346,0.341-0.909-0.008-1.257l-1.323-1.316c-0.346-0.348-0.911-0.348-1.259,0l-2.536,2.103
			c-0.665-0.392-1.39-0.695-2.157-0.896l-0.281-3.298c0-0.297-0.156-0.727-0.38-0.888C15.319,10.075,15.15,10,14.959,10h-1.867
			c-0.192,0-0.362,0.075-0.508,0.179c-0.225,0.161-0.38,0.501-0.38,0.798l-0.308,3.333c-0.767,0.195-1.492,0.519-2.158,0.906
			L7.21,13.097c-0.346-0.346-0.91-0.34-1.255,0.005l-1.318,1.321c-0.348,0.347-0.348,0.91,0,1.257l2.088,2.52
			c-0.405,0.671-0.72,1.403-0.927,2.177L2.22,20.655c-0.492,0-1.22,0.397-1.22,0.89v1.863c0,0.491,0.728,0.889,1.22,0.889l3.368,0.3
			c0.195,0.798,0.584,1.548,0.987,2.239l-2.029,2.455c-0.347,0.347-0.327,0.908,0.021,1.256l1.328,1.318
			c0.348,0.349,0.915,0.349,1.262,0l2.447-2.028c0.696,0.421,1.455,0.743,2.261,0.952l0.271,3.166c0,0.297,0.155,0.715,0.38,0.877
			C12.66,34.936,12.829,35,13.021,35h1.867c0.193,0,0.362-0.064,0.508-0.168c0.225-0.162,0.381-0.496,0.381-0.794l0.294-3.196
			c0.807-0.203,1.568-0.545,2.263-0.962l2.437,2.045c0.347,0.346,0.908,0.344,1.256-0.005l1.318-1.322
			c0.348-0.346,0.348-0.911,0-1.259l-2.043-2.462c0.405-0.689,0.718-1.44,0.917-2.237l3.216-0.272c0.13,0,0.495-0.031,0.605-0.081
			C26.349,24.148,27,23.84,27,23.479v-1.865C27,21.251,26.349,20.943,26.04,20.804z M18.186,22.577c0,2.314-1.882,4.196-4.195,4.196
			s-4.196-1.882-4.196-4.196c0-2.313,1.882-4.194,4.196-4.194S18.186,20.265,18.186,22.577z"/>
		<circle fill="#2C2C2C" cx="13.99" cy="22.575" r="2.689"/>
	</g>
</g>
<g id="_x30_9" display="none">
	<g display="inline">
		<rect x="3" y="28" fill="#2C2C2C" width="6" height="10"/>
		<rect x="12" y="23" fill="#2C2C2C" width="6" height="15"/>
		<rect x="21" y="17" fill="#2C2C2C" width="6" height="21"/>
		<rect x="30" y="12" fill="#2C2C2C" width="6" height="26"/>
		<polygon fill="#2C2C2C" points="13.422,11.281 21.125,14.512 36.578,3.566 35.422,1.934 20.875,12.238 13.078,8.969 3.112,17.23 
			4.388,18.77 		"/>
	</g>
</g>
<path id="_x30_8" display="none" fill="#2C2C2C" d="M36.796,30.805c-3.749-5.3-5.502-9.56-5.211-14.631
	c0.205-3.564-0.956-6.875-3.269-9.326c-2.158-2.287-5.047-3.546-8.138-3.546c-2.946,0-5.729,1.173-7.834,3.302
	c-2.39,2.417-3.682,5.821-3.64,9.584c0.064,5.587,0.124,9.864-4.862,14.164c-0.445,0.382-0.637,0.975-0.502,1.548
	c0.135,0.571,0.574,1.016,1.144,1.159c1.866,0.468,3.664,0.699,5.438,0.929c3.395,0.435,6.327,0.811,8.572,2.728
	c0.44,0.44,0.985,0.674,1.577,0.674c0.896,0,1.553-0.535,2.04-0.932c0.063-0.049,0.12-0.099,0.178-0.137
	c2.387-1.609,5.165-1.943,8.16-2.304c1.229-0.148,2.501-0.302,3.65-0.54l1.62-0.213c0.541-0.068,1.015-0.424,1.233-0.925
	C37.171,31.839,37.111,31.251,36.796,30.805z M20.137,34.023c-2.932-2.262-6.275-2.691-9.823-3.146
	c-0.751-0.097-1.522-0.195-2.296-0.314c3.944-4.779,3.881-9.221,3.821-14.489c-0.033-2.868,0.939-5.449,2.735-7.266
	c1.513-1.529,3.503-2.372,5.605-2.372c2.218,0,4.298,0.91,5.859,2.563c1.715,1.818,2.574,4.302,2.418,6.994
	c-0.294,5.106,1.185,9.328,4.396,14.531c-0.937,0.16-1.897,0.275-2.835,0.389c-3.182,0.383-6.471,0.779-9.479,2.808
	C20.417,33.801,20.288,33.9,20.137,34.023z"/>
<g id="_x30_7" display="none">
	<g display="inline">
		<g>
			<path fill="#2C2C2C" d="M20.414,2.771c-6.796,0-12.305,5.509-12.305,12.306c0,1.083,0.141,2.133,0.402,3.134
				c0.263,1,0.649,1.951,1.141,2.834c0.299,0.538,0.638,0.943,1.012,1.429L20.295,37h0.237l9.628-14.522
				c0.377-0.487,0.718-0.949,1.018-1.491c0.491-0.883,0.875-1.805,1.138-2.803c0.263-1.001,0.404-2.038,0.404-3.121
				C32.721,8.267,27.209,2.771,20.414,2.771z M20.414,22.887c-4.384,0-7.939-3.554-7.939-7.939c0-4.384,3.555-7.939,7.939-7.939
				c4.385,0,7.938,3.555,7.938,7.939C28.353,19.333,24.799,22.887,20.414,22.887z"/>
		</g>
	</g>
</g>
<g id="_x30_6" display="none">
	<path display="inline" fill="#2C2C2C" d="M36.028,17.194c-0.149-0.067-0.313-0.108-0.489-0.108l-4.401-0.411
		c-0.276-1.056-0.698-2.052-1.244-2.965l2.871-3.41c0.471-0.47,0.475-1.236,0-1.709l-1.792-1.789c-0.47-0.473-1.235-0.473-1.708,0
		L25.819,9.66c-0.904-0.533-1.888-0.945-2.93-1.217l-0.383-4.481c0-0.404-0.212-0.744-0.517-0.962C21.793,2.857,21.563,3,21.303,3
		h-2.537c-0.263,0-0.493-0.143-0.69-0.001c-0.305,0.219-0.516,0.559-0.516,0.963L17.142,8.43C16.1,8.695,15.114,9.104,14.209,9.63
		l-3.437-2.895c-0.47-0.47-1.237-0.47-1.706,0L7.275,8.527c-0.472,0.471-0.472,1.235,0,1.706l2.837,3.422
		c-0.55,0.912-0.978,1.906-1.26,2.958l-4.528,0.378C3.656,16.991,3,17.532,3,18.2v2.532c0,0.668,0.656,1.207,1.324,1.207l4.41,0.408
		C9,23.432,9.446,24.451,9.993,25.391l-2.799,3.336c-0.472,0.471-0.465,1.234,0.007,1.707l1.794,1.792
		c0.473,0.473,1.238,0.473,1.709,0l3.323-2.757c0.946,0.572,1.976,1.01,3.072,1.294l0.367,4.302c0,0.404,0.211,0.73,0.516,0.949
		C18.18,36.156,18.409,36,18.671,36h2.537c0.263,0,0.492,0.156,0.689,0.014c0.306-0.219,0.518-0.552,0.518-0.956l0.399-4.284
		c1.097-0.276,2.132-0.711,3.075-1.276l3.312,2.794c0.471,0.471,1.234,0.475,1.706,0.001l1.792-1.794
		c0.473-0.47,0.473-1.235,0-1.708l-2.776-3.346c0.551-0.937,0.975-1.956,1.246-3.038l4.37-0.371c0.176,0,0.34-0.042,0.489-0.109
		C36.448,21.738,37,21.318,37,20.828v-2.535C37,17.801,36.448,17.382,36.028,17.194z M25.688,19.604
		c0,3.145-2.558,5.702-5.703,5.702c-3.143,0-5.701-2.558-5.701-5.702c0-3.144,2.558-5.7,5.701-5.7
		C23.131,13.903,25.688,16.46,25.688,19.604z"/>
	<circle display="inline" fill="#2C2C2C" cx="19.987" cy="19.601" r="3.655"/>
</g>
<g id="_x30_5" display="none">
	<polygon display="inline" fill="#2C2C2C" points="32.577,4 25,4 25,7 33,7 33,15 36,15 36,7.423 36,4 	"/>
	<polygon display="inline" fill="#2C2C2C" points="4,4 4,7.423 4,15 7,15 7,7 15,7 15,4 7.423,4 	"/>
	<polygon display="inline" fill="#2C2C2C" points="33,33 25,33 25,36 32.577,36 36,36 36,32.577 36,25 33,25 	"/>
	<polygon display="inline" fill="#2C2C2C" points="7,25 4,25 4,32.577 4,36 7.423,36 15,36 15,33 7,33 	"/>
</g>
<g id="_x30_4" display="none">
	<polygon display="inline" fill="#2C2C2C" points="28,12 28,4 25,4 25,11.753 25,15 28.247,15 36,15 36,12 	"/>
	<polygon display="inline" fill="#2C2C2C" points="12,12 4,12 4,15 11.753,15 15,15 15,11.753 15,4 12,4 	"/>
	<polygon display="inline" fill="#2C2C2C" points="25,25 25,28.247 25,36 28,36 28,28 36,28 36,25 28.247,25 	"/>
	<polygon display="inline" fill="#2C2C2C" points="4,25 4,28 12,28 12,36 15,36 15,28.247 15,25 11.753,25 	"/>
</g>
<path id="_x30_3" display="none" fill="#2C2C2C" d="M20.031,2.815c-8.469,0-15.359,6.89-15.359,15.358
	c0,7.595,5.542,13.956,12.889,15.142l-1.283,0.933c-0.318,0.231-0.527,0.572-0.588,0.961c-0.062,0.389,0.033,0.778,0.262,1.092
	c0.274,0.38,0.72,0.607,1.192,0.607c0.312,0,0.61-0.097,0.864-0.28l4.458-3.24c0.655-0.479,0.799-1.401,0.322-2.055l-3.238-4.457
	c-0.459-0.631-1.418-0.785-2.056-0.325c-0.318,0.231-0.527,0.571-0.588,0.96c-0.061,0.389,0.032,0.778,0.263,1.095l1.132,1.559
	c-5.927-0.835-10.396-5.87-10.396-11.991c0-6.686,5.439-12.125,12.125-12.125c6.687,0,12.126,5.439,12.126,12.125
	c0,2.854-1.01,5.624-2.843,7.8c-0.573,0.681-0.485,1.703,0.195,2.276c0.29,0.244,0.66,0.381,1.042,0.381
	c0.479,0,0.93-0.211,1.236-0.577c2.322-2.76,3.602-6.268,3.602-9.88C35.39,9.705,28.5,2.815,20.031,2.815z"/>
<g id="_x30_2" display="none">
	<g display="inline">
		<polygon fill="#2C2C2C" points="32.374,8.299 14.693,25.979 7.688,18.971 4.968,21.691 11.972,28.7 11.965,28.704 14.686,31.426 
			35.096,11.02 		"/>
	</g>
</g>
<g id="_x30_1" display="none">
	<path display="inline" fill="#2C2C2C" d="M27,7.591v3.808c4,2.301,5.768,6.097,5.768,10.391c0,7.009-5.523,12.709-12.531,12.709
		c-7.007,0-12.241-5.7-12.241-12.709c0-4.768,2.004-8.927,7.004-11.101V7.054C8,9.473,4.813,15.166,4.813,21.79
		c0,8.811,6.978,15.979,15.789,15.979c8.81,0,15.532-7.169,15.532-15.979C36.134,15.608,33,10.246,27,7.591z"/>
	<rect x="19" y="4" display="inline" fill="#2C2C2C" width="4" height="15"/>
</g>
</svg>
