<?xml version="1.0" encoding="utf-8"?>
<!-- Generator: Adobe Illustrator 16.0.0, SVG Export Plug-In . SVG Version: 6.00 Build 0)  -->
<!DOCTYPE svg PUBLIC "-//W3C//DTD SVG 1.1//EN" "http://www.w3.org/Graphics/SVG/1.1/DTD/svg11.dtd">
<svg version="1.1" id="Isolation_Mode" xmlns="http://www.w3.org/2000/svg" xmlns:xlink="http://www.w3.org/1999/xlink" x="0px"
	 y="0px" width="100px" height="100px" viewBox="0 0 100 100" enable-background="new 0 0 100 100" xml:space="preserve">
<g id="Layer_1" display="none">
	<g display="inline">
		<g>
			<path d="M8.723,32.601L48.305,55.27c0.424,0.244,0.899,0.365,1.373,0.365s0.948-0.121,1.373-0.365l39.584-22.669
				c0.858-0.492,1.389-1.406,1.389-2.396s-0.53-1.904-1.389-2.396L51.051,5.14c-0.85-0.488-1.896-0.488-2.746,0L8.723,27.808
				c-0.859,0.492-1.389,1.407-1.389,2.396S7.863,32.108,8.723,32.601z M49.678,10.718l34.027,19.487L49.678,49.691L15.652,30.205
				L49.678,10.718z"/>
			<path d="M87.889,47.14L49.678,69.023L11.468,47.14c-1.323-0.758-3.011-0.299-3.769,1.023c-0.758,1.324-0.3,3.011,1.023,3.77
				l39.583,22.671c0.424,0.243,0.899,0.364,1.373,0.364s0.948-0.121,1.373-0.364l39.584-22.671c1.322-0.759,1.781-2.445,1.022-3.77
				C90.899,46.84,89.213,46.382,87.889,47.14z"/>
			<path d="M87.889,66.472L49.678,88.355l-38.21-21.884c-1.323-0.759-3.011-0.3-3.769,1.022c-0.758,1.324-0.3,3.013,1.023,3.771
				l39.583,22.671c0.424,0.242,0.899,0.363,1.373,0.363s0.948-0.121,1.373-0.363l39.584-22.671c1.322-0.758,1.781-2.446,1.022-3.771
				C90.899,66.172,89.213,65.713,87.889,66.472z"/>
		</g>
	</g>
</g>
<g display="none">
	<g display="inline">
		<path d="M92.623,18.671C81.204,11.294,71.732,7.708,63.785,7.708c-7.379,0-12.451,3.083-16.505,5.561
			c-3.065,1.875-5.727,3.493-8.725,3.493c-11.877,0-28.842-9.635-29.012-9.732C8.689,6.543,7.435,6.541,6.581,7.037
			C5.729,7.532,5,8.442,5,9.427v67.832c0,0.793,0.541,1.546,1.134,2.068c0.638,0.564,15.9,13.812,30.926,13.812
			c7.916,0,12.604-2.44,16.697-4.596c3.627-1.909,6.763-3.541,11.925-3.347c13.559,0.515,23.81,6.462,23.912,6.521
			c0.855,0.508,2.033,0.513,2.894,0.022C93.348,91.245,94,90.331,94,89.341v-68.35C94,20.054,93.411,19.18,92.623,18.671z
			 M11,14.009c5,2.504,14,6.379,22,7.744v65.475c-10-1.744-19-8.876-22-11.26V14.009z M51.266,83.656
			C47.684,85.541,44,87.309,39,87.563V22.285c4,0,7.704-2.187,11.166-4.303C53.91,15.693,58,13.342,63,13.249v66.453
			C58,79.994,54.688,81.855,51.266,83.656z M88,84.889c-4-1.81-11-4.244-19-5.003V13.8c5,1.143,12,4.021,19,8.705V84.889z"/>
	</g>
</g>
<g display="none">
	<path display="inline" d="M89.762,6H70.431C68.905,6,68,7.729,68,9.254v80.087C68,90.868,68.905,92,70.431,92h19.331
		C91.287,92,93,90.868,93,89.341V9.254C93,7.729,91.287,6,89.762,6z M87,87H73V12h14V87z"/>
	<path display="inline" d="M59.384,51H40.053C38.527,51,37,51.915,37,53.44v35.9C37,90.868,38.527,92,40.053,92h19.331
		C60.909,92,62,90.868,62,89.341v-35.9C62,51.915,60.909,51,59.384,51z M57,87H43V56h14V87z"/>
	<path display="inline" d="M29.006,34H9.674C8.149,34,7,35.345,7,36.87v52.471C7,90.868,8.149,92,9.674,92h19.332
		C30.531,92,32,90.868,32,89.341V36.87C32,35.345,30.531,34,29.006,34z M26,87H12V40h14V87z"/>
</g>
<path display="none" d="M90.528,77.725c-9.426-13.328-13.831-26.581-13.094-39.386c0.489-8.506-2.274-16.405-7.785-22.241
	c-5.128-5.435-11.99-8.425-19.323-8.425c-6.988,0-13.59,2.783-18.59,7.84c-5.7,5.766-8.785,13.833-8.683,22.916
	c0.162,14.089,0.314,27.396-12.417,38.374c-0.781,0.672-1.122,1.724-0.885,2.727c0.237,1.004,1.014,1.791,2.015,2.042
	c4.583,1.151,9.025,1.721,13.32,2.273c8.578,1.098,15.986,2.047,21.861,7.068c0.874,0.874,1.95,1.338,3.111,1.338
	c1.823,0,3.205-1.127,4.215-1.947c0.226-0.184,0.44-0.364,0.647-0.504c6.123-4.129,13.129-4.974,20.547-5.866
	c3.063-0.369,6.23-0.75,9.15-1.351l4.013-0.526c0.96-0.124,1.784-0.744,2.171-1.629C91.191,79.539,91.088,78.515,90.528,77.725z
	 M74.808,78.45c-7.741,0.933-15.746,1.896-22.971,6.767c-0.33,0.224-0.686,0.504-1.049,0.804c-0.156,0.126-0.367,0.296-0.563,0.444
	c-7.182-5.89-15.566-6.963-24.436-8.102c-2.527-0.323-5.105-0.652-7.704-1.105c10.803-11.863,10.645-25.599,10.49-39.089
	c-0.083-7.397,2.435-14.064,7.09-18.773c3.954-4,9.16-6.2,14.662-6.2c5.797,0,11.233,2.376,15.307,6.691
	c4.456,4.722,6.688,11.163,6.285,18.134c-0.74,12.867,3.154,26.022,11.582,39.159C80.671,77.743,77.69,78.103,74.808,78.45z"/>
<g display="none">
	<path display="inline" d="M89.966,39.655c-5.68-14.58-18.895-24.521-34.487-25.947c-1.528-0.128-2.863,0.98-3.002,2.498
		c-0.141,1.52,0.979,2.863,2.497,3.001c13.495,1.235,24.932,9.838,29.847,22.452c7.1,18.224-1.951,38.827-20.174,45.931
		c-8.828,3.438-18.467,3.236-27.142-0.577c-8.676-3.812-15.347-10.77-18.787-19.598c-1.9-4.88-2.693-9.981-2.355-15.16
		c0.098-1.522-1.056-2.836-2.577-2.936c-1.52-0.085-2.835,1.055-2.936,2.577c-0.388,5.991,0.527,11.887,2.723,17.524
		c3.974,10.203,11.685,18.245,21.71,22.649c5.283,2.321,10.875,3.484,16.477,3.484c5.028,0,10.065-0.938,14.893-2.818
		C87.713,84.528,98.172,60.715,89.966,39.655z"/>
	<path display="inline" d="M49,43.061V8.195c0-1.112-0.664-2.116-1.69-2.547c-0.292-0.123-2.983-1.201-7.188-1.201
		c-5.31,0-13.389,1.749-21.72,10.081C4.325,28.604,7.497,42.667,7.639,43.276C7.93,44.527,9.045,45,10.329,45h35.916
		C47.771,45,49,44.586,49,43.061z M44,40H12.781c-0.186-4,0.847-12.778,9.785-21.717C31.797,9.052,40,9.595,44,10.288V40z"/>
</g>
<g display="none">
	<path display="inline" d="M94.372,49.216c-0.332-4.121-3.052-7.063-6.933-7.497c-2.54-0.281-4.944-1.958-5.985-4.172
		c-1.038-2.211-0.664-4.787,1.084-7.443c1.782-2.708,1.94-6.152,0.413-8.986c-2.244-4.162-7.436-5.696-12.335-3.379
		c-2.819,1.33-4.947,1.974-6.503,1.974c-2.121,0-3.724-1.203-6.063-7.505c-0.925-4.766-4.771-6.904-8.228-6.904
		c-3.66,0-7.614,2.436-8.27,7.093c-2.42,6.915-4.957,7.811-6.902,7.811c-1.853,0-4.315-0.876-7.321-2.611
		c-4.757-2.729-11.764,0.248-11.766,8.692c0,0.464,0.118,0.919,0.34,1.327c2.004,3.66,4.146,8.19,2.902,10.764
		c-1.125,2.33-5.154,3.468-8.336,4.013c-0.171,0.03-0.34,0.073-0.501,0.135c-2.496,0.936-4.164,3.636-4.353,7.053
		c-0.204,3.668,1.349,6.799,4.049,8.166c0.275,0.141,0.57,0.232,0.876,0.275c4.486,0.609,7.391,1.855,8.4,3.6
		c1.294,2.241-0.208,5.92-1.533,9.165c-0.634,1.548-1.231,3.01-1.543,4.36c-0.097,0.421-0.093,0.857,0.01,1.275
		c0.852,3.487,3.96,7.093,7.683,7.093c0.755,0,1.489-0.153,2.178-0.453c3.118-1.361,6.695-2.753,9.58-2.753
		c2.62,0,5.552,1.006,7.457,8.433c0.573,3.52,3.794,5.961,7.902,5.958c4.609,0,8.102-3.056,8.494-7.43
		c0.496-5.551,3.962-8.064,8.647-6.451c0.751,0.259,1.58,0.698,2.458,1.165c1.718,0.908,3.665,1.941,5.808,1.941
		c1.794,0,3.391-0.701,4.745-2.087c4.762-4.874,2.46-9.17,0.778-12.307c-0.315-0.593-0.643-1.2-0.882-1.698l-1.223-3.04
		c0.645-4.129,3.396-6.103,9.321-6.761c0.148-0.017,0.294-0.046,0.438-0.087C92.993,56.902,94.658,52.766,94.372,49.216z
		 M87.889,52.577c-3.549,0.404-12.915,1.767-13.967,12.306c-0.045,0.445,0.02,0.893,0.186,1.306l1.551,3.843
		c0.343,0.73,0.715,1.43,1.077,2.106c1.675,3.126,1.999,3.935,0.141,5.839c-0.415,0.423-0.645,0.423-0.796,0.423
		c-0.769,0-2.071-0.69-3.22-1.3c-1.027-0.545-2.089-1.105-3.248-1.505c-1.539-0.531-3.066-0.798-4.543-0.798
		c-6.277,0-10.753,4.703-11.404,11.979c-0.199,2.225-2.341,2.397-2.992,2.397c-0.913,0-2.319-0.358-2.456-1.354
		c-0.014-0.103-0.034-0.205-0.058-0.305c-2.134-8.447-6.455-12.732-12.845-12.732c-3.9,0-8.147,1.624-11.758,3.207
		c-0.421,0-1.568-0.931-2.122-2.279c0.259-0.82,0.664-1.807,1.084-2.837c1.626-3.98,3.853-9.432,1.204-14.016
		c-1.885-3.264-5.754-5.303-11.818-6.225c-0.479-0.451-0.792-1.408-0.785-2.484c0.009-1.3,0.455-2.147,0.704-2.39
		c6.331-1.152,10.243-3.438,11.954-6.979c2.224-4.604,0.106-9.973-2.667-15.148c0.236-2.999,1.989-4.086,3.461-3.25
		c3.908,2.252,7.205,3.347,10.077,3.347c7.333,0,10.487-6.739,12.221-11.813c0.067-0.197,0.112-0.401,0.134-0.609
		c0.19-1.831,1.637-2.481,2.818-2.481c0.722,0,2.444,0.25,2.831,2.567c0.028,0.167,0.073,0.334,0.131,0.496
		c2.015,5.488,4.718,11.346,11.33,11.346c2.422,0,5.235-0.796,8.857-2.503c0.839-0.394,1.633-0.596,2.36-0.596
		c1.711,0,2.498,1.122,2.759,1.602c0.57,1.06,0.508,2.303-0.166,3.328c-2.819,4.288-3.34,8.843-1.469,12.829
		c1.855,3.948,5.928,6.82,10.374,7.314c1.534,0.17,1.955,1.427,2.037,2.449C88.983,51.109,88.389,52.297,87.889,52.577z"/>
	<path display="inline" d="M50.083,35.492c-8.12,0-14.728,6.607-14.728,14.728s6.607,14.728,14.728,14.728
		c8.121,0,14.728-6.607,14.728-14.728S58.204,35.492,50.083,35.492z M50.083,59.424c-5.076,0-9.205-4.129-9.205-9.204
		c0-5.076,4.129-9.205,9.205-9.205s9.205,4.129,9.205,9.205C59.288,55.295,55.159,59.424,50.083,59.424z"/>
</g>
<g display="none">
	<path display="inline" d="M86.683,14h-17.95c-1.525,0-2.762,1.474-2.762,3s1.236,3,2.762,3H83v13.834c0,1.526,1.475,2.762,3,2.762
		s3-1.235,3-2.762V15.884C89,14.357,88.208,14,86.683,14z"/>
	<path display="inline" d="M32.831,80H17V64.212c0-1.526-1.475-2.761-3-2.761s-3,1.234-3,2.761v17.951C11,83.689,13.355,86,14.88,86
		h17.951c1.525,0,2.762-1.474,2.762-3S34.356,80,32.831,80z"/>
	<path display="inline" d="M32.831,14H14.88C13.355,14,11,14.357,11,15.884v17.951c0,1.526,1.475,2.762,3,2.762s3-1.235,3-2.762V20
		h15.831c1.525,0,2.762-1.474,2.762-3S34.356,14,32.831,14z"/>
	<path display="inline" d="M86,61.451c-1.525,0-3,1.234-3,2.761V80H68.732c-1.525,0-2.762,1.474-2.762,3s1.236,3,2.762,3h17.95
		C88.208,86,89,83.689,89,82.163V64.212C89,62.686,87.525,61.451,86,61.451z"/>
</g>
<g display="none">
	<path display="inline" d="M88.758,65h-17.95C69.28,65,67,67.903,67,69.429v17.95c0,1.525,1.474,2.762,3,2.762s3-1.236,3-2.762V71
		h15.758c1.526,0,2.762-1.475,2.762-3S90.284,65,88.758,65z"/>
	<path display="inline" d="M29.193,65H11.242c-1.526,0-2.762,1.475-2.762,3s1.235,3,2.762,3H28v16.379c0,1.525,1.474,2.762,3,2.762
		s3-1.236,3-2.762v-17.95C34,67.903,30.719,65,29.193,65z"/>
	<path display="inline" d="M31,9.859c-1.526,0-3,1.237-3,2.762V29H11.242c-1.526,0-2.762,1.475-2.762,3s1.235,3,2.762,3h17.951
		C30.719,35,34,32.097,34,30.572V12.621C34,11.096,32.526,9.859,31,9.859z"/>
	<path display="inline" d="M70.808,35h17.95c1.526,0,2.762-1.475,2.762-3s-1.235-3-2.762-3H73V12.621c0-1.525-1.474-2.762-3-2.762
		s-3,1.237-3,2.762v17.951C67,32.097,69.28,35,70.808,35z"/>
</g>
<path display="none" d="M50,4.311c-22.604,0-40.993,18.39-40.993,40.993c0,21.856,17.208,39.721,38.78,40.881l-7.208,5.241
	c-1.053,0.766-1.285,2.241-0.519,3.293c0.461,0.637,1.18,0.971,1.908,0.971c0.481,0,0.967-0.146,1.386-0.45l12.398-9.016
	c1.053-0.766,1.284-2.241,0.519-3.293L47.26,70.533c-0.764-1.052-2.24-1.284-3.294-0.521c-1.053,0.763-1.288,2.238-0.522,3.293
	l5.386,7.408C29.816,80.089,14.53,64.466,14.53,45.303c0-19.558,15.912-35.47,35.47-35.47c19.558,0,35.47,15.912,35.47,35.47
	c0,8.344-2.952,16.446-8.313,22.816c-0.981,1.165-0.832,2.907,0.335,3.889c1.165,0.984,2.908,0.834,3.892-0.334
	c6.197-7.362,9.61-16.727,9.61-26.371C90.993,22.701,72.604,4.311,50,4.311z"/>
<g display="none">
	<path display="inline" d="M50,45.083c1.525,0,3-1.235,3-2.762V9.182c0-1.526-1.475-2.761-3-2.761c-1.525,0-3,1.235-3,2.761v33.14
		C47,43.849,48.475,45.083,50,45.083z"/>
	<path display="inline" d="M88.196,37.683C84.221,27.478,76.51,19.436,66.485,15.032c-1.396-0.604-3.026,0.019-3.639,1.419
		c-0.614,1.397,0.021,3.026,1.417,3.641C72.938,23.899,79.61,30.86,83.05,39.687c3.44,8.83,3.236,18.468-0.572,27.142
		c-3.812,8.676-10.771,15.345-19.601,18.786c-8.829,3.438-18.467,3.236-27.141-0.577C27.061,81.23,20.389,74.27,16.949,65.442
		c-3.44-8.829-3.235-18.468,0.574-27.142c3.354-7.635,9.315-13.868,16.789-17.549c1.368-0.674,1.931-2.33,1.256-3.7
		c-0.673-1.364-2.323-1.923-3.697-1.257c-8.638,4.256-15.529,11.459-19.404,20.284c-4.404,10.024-4.639,21.166-0.664,31.368
		c3.976,10.202,11.686,18.247,21.71,22.651c5.283,2.319,10.873,3.481,16.474,3.481c5.03,0,10.067-0.938,14.896-2.818
		c10.202-3.975,18.247-11.686,22.651-21.71C91.937,59.026,92.173,47.886,88.196,37.683z"/>
</g>
<g id="_x31_2" display="none">
	<path display="inline" d="M67.675,17.582c-0.276-7-5.175-13.273-11.175-15.607v2.156c0,0.623-0.377,1.126-1,1.126
		c-0.625,0-1-0.503-1-1.126V1.295c-1-0.156-1-0.243-3-0.295v4.257c0,0.624-0.379,1.128-1,1.128c-0.622,0-1-0.504-1-1.128V1
		c-2,0.053-2,0.141-3,0.296v2.835c0,0.623-0.379,1.126-1,1.126s-1-0.503-1-1.126V1.978c-5,2.342-10.507,8.604-10.82,15.604H31.5v5
		h38v-5H67.675z"/>
	<path display="inline" d="M50.723,37.107c7.409,0,13.551-4.525,14.76-13.525H35.958C37.168,32.582,43.309,37.107,50.723,37.107z"/>
	<rect x="31.5" y="71.582" display="inline" width="4" height="3"/>
	<path display="inline" d="M35.5,40.818c-9,3.309-16,12.555-16,27.498v24.58c0,3.063,2.256,5.552,5.322,5.552
		s4.678-2.487,4.678-5.552v-24.58c0-4.17,1-7.523,2-10.166v8.432h4V40.818z"/>
	<path display="inline" d="M54.146,54.089l6.896-14.813c0,0-20.414,0.152-20.602,0.152l6.861,14.623L54.146,54.089z"/>
	<polygon display="inline" points="61.096,83.582 50.738,83.582 40.385,83.582 35.208,83.582 31.5,83.582 31.5,86.582 69.5,86.582 
		69.5,83.582 66.271,83.582 	"/>
	<rect x="65.5" y="71.582" display="inline" width="4" height="3"/>
	<path display="inline" d="M65.5,40.826v25.756h4v-8.379c1,2.607,1,5.936,1,10.113v24.58c0,3.063,2.1,5.552,5.164,5.552
		c3.068,0,5.578-2.487,5.578-5.552l-0.43-24.58C80.813,53.381,73.5,44.135,65.5,40.826z"/>
</g>
<path id="_x31_3" display="none" d="M95.5,33.582v-4.253L60.568,3.582H53.5V8.61L12.711,26.582H4.5v4.506l3.805,2.494H11.5V65.66
	v9.922h5v1.943c0,0-3.529,1.76-3.254,5.385c0.273,3.626,2.958,5.023,5.842,4.889c1.979-0.091,4.008-1.705,4.123-4.576
	c0.025-0.625-0.068-0.983-0.273-1.007c0,0-0.362,0.022-0.483,0.777c-0.197,1.231-1.329,2.392-3.091,2.5
	c-1.272,0.077-2.521-0.854-2.818-2.144c-0.421-1.832,0.939-3.605,3.532-3.406l0.557-1.096l0.011-3.266H24.5V65.66V33.582h21v48
	h-0.527L41.5,90.711v5.871h30.936l-0.037-5.521l-4.615-9.479H66.5v-48H95.5z M85.009,26.582H63.5v-6h-3V8.238L85.009,26.582z
	 M53.5,13.383v7.199h-4v6H23.975L53.5,13.383z M18.561,73.682c-1.518,0-2.746-1.229-2.746-2.746c0-1.519,1.229-2.748,2.746-2.748
	c1.517,0,2.748,1.229,2.748,2.748C21.307,72.451,20.077,73.682,18.561,73.682z M21.5,66.582h-7v-33h7V66.582z M55.714,33.582
	l-6.214,5.57v-5.57H55.714z M63.5,79.081L51.902,67.657L63.5,56.795V79.081z M49.5,65.721V43.415l11.805,11.251L49.5,65.721z
	 M49.5,69.613l12.756,11.969H49.5V69.613z M63.5,52.525L51.423,41.061l7.515-7.479H63.5V52.525z"/>
<g id="Isolation_Mode_2_" display="none">
	<g display="inline">
		<path d="M23.6,34.587l-2.414-2.414C9.539,40.941,1.994,54.879,1.994,70.547c0,0.227-0.055,5.582,0.439,8.035l3.252-1.33
			c-0.309-2.119-0.471-4.285-0.471-6.488C5.216,55.9,12.456,42.734,23.6,34.587z"/>
		<path d="M20.391,70.547c0-10.607,5.609-19.924,14.014-25.154L22.865,33.816C11.721,41.963,4.314,56.209,4.314,71.07
			c0,2.203,0.383,4.32,0.69,6.438l15.401-6.285C20.402,70.998,20.391,70.773,20.391,70.547z"/>
		<path d="M98.008,70.547c0-15.668-7.546-29.605-19.191-38.374l-2.414,2.414C87.547,42.734,94.787,55.9,94.787,70.764
			c0,2.213-0.164,4.387-0.475,6.514l3.17,1.305C97.795,77.242,98.008,70.771,98.008,70.547z"/>
		<path d="M50.001,25.979c9.872,0,18.997,3.196,26.399,8.608l2.414-2.414c-8.03-6.046-18.012-9.634-28.814-9.634
			s-20.784,3.588-28.814,9.634l2.414,2.414C31.003,29.176,40.128,25.979,50.001,25.979z"/>
		<path d="M32.668,59.814c-0.109-0.055-0.273-0.109-0.342-0.008c-0.068,0.104-0.021,0.178,0.072,0.262
			c0,0,18.763,16.621,18.885,16.701c1.68,1.121,3.947,0.746,5.066-0.932c1.115-1.676,0.659-3.904-1.02-5.023
			C55.283,70.783,32.668,59.814,32.668,59.814z"/>
	</g>
	<g display="inline">
		<path d="M32.796,30.725l-0.833-1.979l-1.137,0.479l0.847,2.008C32.046,31.061,32.417,30.887,32.796,30.725z"/>
		<path d="M49.752,27.082l0.063-2.438l-1.342,0.188l0.092,2.375C48.564,27.195,49.752,27.084,49.752,27.082z"/>
		<path d="M66.109,30.408l0.766-1.874l-1.143-0.466l-0.769,1.889C65.352,30.1,65.73,30.254,66.109,30.408z"/>
		<path d="M90.111,54.504l2.08-0.879l-0.479-1.135l-2.071,0.871C89.802,53.74,89.957,54.119,90.111,54.504z"/>
		<path d="M80.512,39.948l1.432-1.433l-0.871-0.871l-1.452,1.451C79.918,39.378,80.223,39.656,80.512,39.948z"/>
		<path d="M93.212,70.789c-0.001,0.574-0.019,1.189-0.03,1.189h1.695v-1.189H93.212z"/>
	</g>
</g>
<g display="none">
	<path display="inline" d="M54.603,30.339c0.849-4.414-1.066-8.332-3.387-10.189l-0.27,1.139c-0.077,0.328-0.492,0.509-0.818,0.43
		c-0.326-0.079-0.613-0.429-0.536-0.758l0.356-1.499c-0.657-0.246-0.646-0.292-1.317-0.483l-0.534,2.249
		c-0.079,0.329-0.494,0.51-0.817,0.432c-0.325-0.08-0.614-0.431-0.536-0.76l0.535-2.249c-0.684-0.136-0.694-0.089-1.391-0.171
		l-0.355,1.498c-0.079,0.329-0.493,0.508-0.818,0.43c-0.325-0.078-0.614-0.429-0.536-0.758l0.271-1.137
		c-2.897,0.597-6.34,3.226-7.574,7.533l-0.615-0.149l-0.495,2.039l18.949,4.592l0.494-2.039L54.603,30.339z"/>
	<path display="inline" d="M43.374,38.062c3.875,0.939,7.809-1.325,9.416-5.274l-15.438-3.741
		C37.012,33.301,39.5,37.123,43.374,38.062z"/>
	<path display="inline" d="M25,15.195v34.117c-4,8.044-3.755,12.25-3.804,12.878c-0.164,2.133,0.81,3.945,2.92,4.115
		c0.104,0.009,0.222,0.012,0.326,0.012c1.979,0,3.068-1.858,3.232-3.886c0.333-4.133,1.569-8.209,6.725-13.273
		c-0.06,0.869-0.1,1.801-0.117,2.816c-0.051,3.242-0.367,2.905-1.341,5.977c-2.665,8.409,0.299,11.056,2.046,12.816
		c0.106,9.448-3.036,8.46-13.435,17.667c-1.633,1.443-1.795,3.952-0.367,5.6c0.779,0.896,1.865,1.354,2.957,1.354
		c0.92,0,1.775-0.411,2.587-0.985c11.751-8.323,15.529-8.454,17.509-19.523l0.041-0.1c4.452,2.199,10.454,2.265,12.733,17.974
		c0.279,1.929,2.471,3.731,4.345,3.731c0.186,0,0.372-0.014,0.562-0.042c2.097-0.31,3.548-2.28,3.241-4.397
		c-2.895-19.96-11.943-23.126-17.645-25.749l0.407-4.071c3.644,3.775,5.038,3.535,12.041,5.271c0.309,0.076,0.615,0.113,0.918,0.113
		c1.726,0,3.294-0.465,3.724-2.234c0.505-2.08-0.873-3.552-2.93-4.063c-6.837-1.696-6.764-1.326-9.112-5.278
		c-2.533-4.265-2.386-7.039-2.377-9.73c0.003-1.224,0.069-1.716-0.635-2.802c-0.917-2.068-3.874-5.633-10.788-5.095
		c0,0-0.009,0.001-0.021,0.002c-0.302,0.002-0.842,0.037-1.147,0.114C34.193,39.381,31,41.125,29,43.342V18.634l42.84-8.711
		L72.21,96H76V4.875L25,15.195z"/>
</g>
<g id="Layer_3" display="none">
	<g id="Layer_3_2_" display="inline">
	</g>
	<path display="inline" d="M96.233,88H3.767L50,11.814L96.233,88z M19.424,80h61.151L50,29.614L19.424,80z"/>
	<rect x="47" y="44" display="inline" width="5" height="21"/>
	<rect x="47" y="68" display="inline" width="5" height="5"/>
</g>
<g display="none">
	<g display="inline">
		<rect x="48.876" y="85.494" width="2" height="9.18"/>
		<rect x="65.114" y="83.607" transform="matrix(0.499 0.8666 -0.8666 0.499 108.3098 -18.1247)" width="9.432" height="1.999"/>
		<rect x="79.805" y="68.949" transform="matrix(0.8654 0.5011 -0.5011 0.8654 46.4331 -32.9386)" width="9.43" height="2"/>
		<rect x="85.302" y="49.111" transform="matrix(1 0.0011 -0.0011 1 0.0574 -0.1029)" width="9.389" height="2"/>
		<rect x="83.562" y="25.147" transform="matrix(0.499 0.8666 -0.8666 0.499 68.2475 -58.3212)" width="2" height="9.432"/>
		<rect x="68.906" y="10.457" transform="matrix(0.8654 0.5011 -0.5011 0.8654 17.0122 -32.986)" width="2" height="9.432"/>
		<rect x="55.439" y="87.6" transform="matrix(0.2575 0.9663 -0.9663 0.2575 130.2755 7.6554)" width="9.434" height="1.999"/>
		<rect x="73.423" y="77.245" transform="matrix(0.7064 0.7078 -0.7078 0.7064 78.3273 -32.3348)" width="9.431" height="2"/>
		<rect x="83.819" y="59.285" transform="matrix(0.9656 0.2602 -0.2602 0.9656 18.7326 -20.9572)" width="9.429" height="2"/>
		<rect x="87.556" y="34.817" transform="matrix(0.2578 0.9662 -0.9662 0.2578 103.926 -56.2201)" width="2" height="9.435"/>
		<rect x="77.2" y="16.837" transform="matrix(0.7061 0.7081 -0.7081 0.7061 38.2422 -49.0384)" width="2" height="9.433"/>
		<rect x="38.406" y="83.862" transform="matrix(0.9657 0.2597 -0.2597 0.9657 24.3587 -7.195)" width="2" height="9.433"/>
		<rect x="59.242" y="6.443" transform="matrix(0.9657 0.2597 -0.2597 0.9657 4.9655 -15.2635)" width="2" height="9.431"/>
	</g>
	<circle display="inline" cx="49.824" cy="49.867" r="4.848"/>
	<path display="inline" d="M40.287,49.858c0.005-5.285,3.342-9.562,9.602-9.555l0,0l0.039-34.978
		C25.934,5.299,5.336,25.218,5.309,49.818C5.29,66.546,14.487,81.122,28.114,88.752l17.622-30.257
		C42.511,56.954,40.282,53.672,40.287,49.858z"/>
	<path display="inline" d="M73.39,36.56c-0.151-0.245-0.464-0.331-0.719-0.204l-14.306,7.164c-0.139,0.07-0.242,0.195-0.284,0.344
		c-0.043,0.15-0.021,0.31,0.062,0.442l1.513,2.441c0.082,0.132,0.216,0.224,0.368,0.252c0.034,0.006,0.068,0.009,0.103,0.009
		c0.119,0,0.235-0.038,0.332-0.111l12.793-9.604C73.48,37.121,73.54,36.803,73.39,36.56z"/>
</g>
<g display="none">
	<path display="inline" fill="none" d="M50,51.271c-9.809,0-17.761,8.104-17.761,18.102c0,9.994,7.953,18.102,17.761,18.102
		c9.809,0,17.761-8.107,17.761-18.102C67.762,59.376,59.81,51.271,50,51.271z"/>
	<path display="inline" d="M78.17,70.904l-2.539-0.079c2.15-5.432,3.609-11.597,4.181-18.199c1.808-0.791,3.274-1.914,4.361-3.385
		c3.375-4.57,2.607-11.359,1.273-18.016c-0.751-3.749-3.656-6.453-8.521-8.054c0.055-0.021,0.115-0.041,0.168-0.063
		C73.186,11.584,65.008,5.167,50,5.167c-14.277,0-22.642,6.366-26.791,17.803c0.097,0.018,0.197,0.034,0.295,0.051
		c-5.151,1.579-8.218,4.336-8.993,8.205c-1.333,6.656-2.102,13.446,1.272,18.016c1.096,1.483,2.578,2.612,4.405,3.404
		c0.573,6.593,2.03,12.748,4.177,18.172l-2.843,0.088l-2.631-0.558l-4.149,2.969c3.896,15.768,14.148,21.519,14.148,21.519
		L34,92.237v-2.969l1.212-2.198c4.367,3.843,9.412,6.038,14.789,6.038c5.349,0,10.37-2.175,14.721-5.98L66,89.269v2.969l4.945,2.597
		c0,0,10.171-5.751,14.066-21.519l-4.189-2.969L78.17,70.904z M80.686,32.179c0.998,4.985,1.853,11.102-0.417,14.177
		c-1.12,1.515-3.048,2.392-5.896,2.68C65.636,49.94,56.022,37.548,55.49,30.406c0.024-2.666,1.23-3.552,1.621-3.771
		c0.875-0.089,3.471-0.32,6.678-0.32C68.516,26.314,79.626,26.886,80.686,32.179z M19.273,32.179
		c1.061-5.292,12.17-5.864,16.896-5.864c3.166,0,5.755,0.229,6.654,0.318c0.458,0.254,1.622,1.158,1.645,3.773
		c-0.532,7.141-10.14,19.531-18.882,18.629c-2.849-0.288-4.777-1.165-5.895-2.68C17.42,43.281,18.275,37.164,19.273,32.179z
		 M50,87.475c-9.809,0-17.761-8.107-17.761-18.102c0-9.997,7.953-18.102,17.761-18.102c9.809,0,17.761,8.104,17.761,18.102
		C67.762,79.367,59.81,87.475,50,87.475z"/>
	<path display="inline" d="M50,54.193c-8.181,0-14.836,6.791-14.836,15.139c0,8.35,6.655,15.142,14.836,15.142
		c8.181,0,14.836-6.792,14.836-15.142C64.837,60.984,58.182,54.193,50,54.193z M61.288,69.561c0,1.317-1.071,2.391-2.389,2.391
		c-1.318,0-2.39-1.073-2.39-2.391s1.071-2.389,2.39-2.389C60.217,67.172,61.288,68.243,61.288,69.561z M52.142,76.649
		c0.165-0.616,0.561-1.132,1.112-1.451c0.365-0.21,0.777-0.321,1.194-0.321c0.851,0,1.646,0.459,2.071,1.196
		c0.319,0.554,0.404,1.196,0.238,1.813c-0.164,0.616-0.561,1.132-1.113,1.451c-1.105,0.639-2.63,0.225-3.264-0.875
		C52.061,77.91,51.976,77.266,52.142,76.649z M56.518,63.05c-0.633,1.098-2.153,1.514-3.264,0.875
		c-0.552-0.319-0.947-0.835-1.112-1.451c-0.166-0.616-0.081-1.261,0.239-1.813c0.426-0.737,1.22-1.196,2.072-1.196
		c0.417,0,0.828,0.111,1.191,0.319c0.553,0.319,0.948,0.837,1.113,1.453C56.924,61.854,56.839,62.496,56.518,63.05z M50,67.172
		c1.318,0,2.39,1.071,2.39,2.389s-1.072,2.391-2.39,2.391c-1.317,0-2.389-1.073-2.389-2.391S48.683,67.172,50,67.172z
		 M43.484,76.073c0.424-0.737,1.218-1.196,2.07-1.196c0.416,0,0.829,0.111,1.192,0.319c0.553,0.321,0.949,0.837,1.114,1.453
		c0.166,0.616,0.081,1.261-0.24,1.813c-0.633,1.1-2.156,1.512-3.264,0.875c-0.552-0.319-0.948-0.835-1.113-1.451
		C43.078,77.27,43.163,76.627,43.484,76.073z M47.86,62.474c-0.165,0.616-0.561,1.132-1.112,1.453
		c-1.108,0.637-2.631,0.221-3.265-0.877c-0.319-0.554-0.404-1.196-0.238-1.813c0.165-0.616,0.56-1.132,1.111-1.451
		c0.365-0.21,0.777-0.321,1.194-0.321c0.851,0,1.645,0.459,2.07,1.196C47.94,61.213,48.025,61.857,47.86,62.474z M43.492,69.561
		c0,1.317-1.072,2.391-2.389,2.391c-1.318,0-2.39-1.073-2.39-2.391s1.072-2.389,2.39-2.389
		C42.42,67.172,43.492,68.243,43.492,69.561z"/>
</g>
<g>
	<path d="M50.688,51.441c-5.694,0-10.328,4.633-10.328,10.327s4.633,10.327,10.328,10.327s10.327-4.633,10.327-10.327
		S56.382,51.441,50.688,51.441z M57,63h-5v5h-3v-5h-5v-3h5v-5h3v5h5V63z"/>
	<path d="M92.125,68C92.125,46,78,30.688,67,24.895v5.436c0,1.57-1.68,2.839-3.25,2.839c-1.569,0-3.75-1.269-3.75-2.839v-7.15
		c-4-0.393-4-0.611-6-0.742v10.731c0,1.571-1.933,2.843-3.5,2.843S47,34.74,47,33.169V22.438c-4,0.133-3,0.354-6,0.744v7.148
		c0,1.57-1.934,2.839-3.5,2.839c-1.565,0-3.5-1.269-3.5-2.839v-5.427C22,30.809,9.753,47,8.962,68H5v10h91V68H92.125z
		 M50.688,72.722c-6.04,0-10.953-4.913-10.953-10.953s4.914-10.953,10.953-10.953c6.04,0,10.953,4.913,10.953,10.953
		S56.728,72.722,50.688,72.722z"/>
</g>
<g display="none">
	<path display="inline" d="M32.005,38.446c-7.033-0.549-12.808,3.126-15.298,7.07l1.825,0.221c0.524,0.064,0.881,0.679,0.813,1.2
		c-0.065,0.524-0.563,1.033-1.088,0.968l-2.4-0.291c-0.27,1.066-0.342,1.06-0.523,2.138l3.601,0.439
		c0.529,0.064,0.884,0.682,0.818,1.198c-0.068,0.521-0.564,1.033-1.092,0.971l-3.603-0.441c-0.09,1.092-0.016,1.101-0.021,2.201
		l2.397,0.291c0.528,0.066,0.881,0.681,0.814,1.199c-0.065,0.523-0.561,1.035-1.09,0.969l-1.818-0.22
		c1.438,4.414,6.142,9.324,13.077,10.493l-0.125,0.984l3.267,0.416l3.838-30.364l-3.267-0.413L32.005,38.446z"/>
	<path display="inline" d="M46.021,54.609c0.785-6.21-3.437-11.95-9.88-13.766l-3.127,24.737
		C39.71,65.366,45.237,60.815,46.021,54.609z"/>
	<path display="inline" d="M36.87,70.934c-0.289,0.94-0.12,1.91,0.527,3.046c-1.219,0.029-2.175,0.25-2.978,0.666
		c-1.666,0.874-2.314,2.375-2.494,4.116c-1.529-0.845-3.132-1.167-4.799-0.295c-0.802,0.42-1.527,1.081-2.245,2.067
		c-0.567-1.181-1.273-1.854-2.204-2.169c-1.172-0.395-2.535-0.135-4.199,0.772c0.173-1.308,0.014-2.464-0.796-3.275
		c-0.852-0.855-2.195-1.089-3.749-1.016c0.946-1.235,1.52-2.47,1.302-3.659c-0.208-1.129-1.067-1.917-2.241-2.521
		c1.702-0.837,2.686-1.822,3.027-3.012c0.271-0.945,0.415-3.842-3.196-5.959l-4.353-0.723l2.72,2.944
		c1.897,2.052,2.142,2.999,2.02,3.438c-0.103,0.352-0.685,0.72-1.156,0.967c-0.739,0.385-1.779,0.784-3.183,1.211l-4.502,1.371
		l4.182,1.136c3.004,0.813,3.729,1.501,3.808,1.936c0.081,0.441-0.347,1.467-2.845,3.841l-3.159,3l4.263-0.891
		c3.376-0.7,4.462-0.47,4.776-0.15c0.313,0.312,0.466,1.304-0.574,4.232l-1.448,4.083l3.69-2.917c1.152-0.91,2.07-1.541,2.81-1.929
		c0.47-0.245,1.103-0.515,1.452-0.397c0.428,0.145,1.068,0.892,1.675,3.616l0.871,3.913l1.883-3.99
		c0.983-2.082,1.839-3.321,2.539-3.689c0.717-0.375,2.085,0.283,4.065,1.958l2.887,2.442l-0.362-3.764
		c-0.25-2.579-0.015-4.082,0.702-4.456c0.702-0.366,2.208-0.363,4.479,0.013l4.352,0.724l-2.719-2.94
		c-1.897-2.055-2.144-3.006-2.017-3.437c0.1-0.354,0.683-0.724,1.153-0.969c0.739-0.387,1.78-0.781,3.184-1.21l4.5-1.374
		l-4.18-1.134C43.465,66.315,38.186,66.666,36.87,70.934z"/>
	<path display="inline" d="M80.697,44.021c5.605-6.774,5.039-8.036,6.619-20.022c0.069-0.526,0.069-1.042,0.012-1.548
		c-0.322-2.875-1.396-5.396-4.423-5.781c-3.56-0.45-5.768,2.123-6.229,5.644c-1.547,11.702-0.974,11.519-7.113,16.169
		c-3.4,2.574-5.331,4.116-7.012,5.077c-2.579-13.328-14.894-25.658-15.44-26.055c-2.252-1.624-6.202-1.613-7.826,0.637
		c-1.625,2.252-1.259,5.875,0.992,7.5c0.104,0.073,8.975,8.659,10.331,18.146c0.246,1.731,0.253,3.83,0.06,5.843
		c-1.824,3.259-3.704,8.491-2.676,13.395c0.724,3.429,3.87,5.871,5.978,6.725c6.373,2.204,9.631,1.354,17.781,0.75
		c6.75-0.5,18.5-1.75,21.75-2.75l-0.252-24.5L80.697,44.021z"/>
</g>
<g display="none">
	<g display="inline">
		<path d="M80.671,25.565c0.914-4.746-1.146-8.959-3.641-10.956l-0.29,1.226c-0.082,0.353-0.528,0.547-0.879,0.462
			c-0.351-0.085-0.659-0.461-0.575-0.815l0.383-1.612c-0.707-0.264-0.696-0.314-1.417-0.519l-0.575,2.418
			c-0.083,0.353-0.528,0.548-0.876,0.464c-0.351-0.085-0.661-0.463-0.579-0.816l0.576-2.418c-0.734-0.146-0.747-0.096-1.496-0.184
			l-0.382,1.61c-0.085,0.353-0.529,0.546-0.879,0.462c-0.349-0.084-0.661-0.461-0.577-0.815l0.291-1.223
			c-3.114,0.642-6.817,3.468-8.143,8.1l-0.662-0.16l-0.532,2.192l20.375,4.938l0.531-2.193L80.671,25.565z"/>
		<path d="M68.599,33.869c4.168,1.01,8.396-1.424,10.124-5.671l-16.598-4.023C61.757,28.75,64.434,32.86,68.599,33.869z"/>
		<path d="M50.65,45.32c-3.986,8.014-3.741,12.204-3.79,12.831c-0.164,2.124,0.806,3.93,2.91,4.099
			c0.104,0.01,0.222,0.013,0.324,0.013c1.973,0,3.056-1.851,3.22-3.871c0.333-4.118,1.564-8.179,6.7-13.225
			c-0.06,0.866-0.099,1.793-0.115,2.806c-0.052,3.231-0.366,2.895-1.337,5.954c-2.654,8.379,0.299,11.017,2.04,12.77
			c0.104,9.414-3.025,8.43-13.386,17.603c-1.627,1.438-1.79,3.938-0.367,5.579c0.776,0.894,1.858,1.349,2.946,1.349
			c0.916,0,1.769-0.409,2.578-0.982c11.707-8.291,15.471-8.423,17.445-19.45l0.041-0.1c4.435,2.19,10.416,2.256,12.687,17.906
			c0.278,1.922,2.462,3.719,4.328,3.719c0.186,0,0.37-0.015,0.561-0.042c2.088-0.308,3.533-2.271,3.229-4.382
			C87.778,68.009,78.764,64.854,73.082,62.24l0.252-8.406c3,5.167,6.173,6.872,13.151,8.601c0.308,0.076,0.611,0.114,0.914,0.114
			c1.719,0,3.281-0.465,3.71-2.227c0.503-2.071-0.869-3.539-2.918-4.048c-6.813-1.689-7.187-2.669-9.524-6.607
			c-2.524-4.248-2.934-4.664-2.925-7.346c0.005-1.219,0.07-1.709-0.633-2.791c-0.911-2.061-3.859-5.613-10.747-5.077
			c0,0-0.01,0.001-0.021,0.002c-0.3,0.003-0.837,0.037-1.144,0.113c-3.39,0.856-6.571,2.593-8.563,4.802
			C54.635,39.371,50.65,44.468,50.65,45.32z"/>
	</g>
	<path display="inline" d="M50,37v-2.435l-1.768-1.189L35,18.013V18h-2v3.833L13.171,33H9v2.639L10.726,37H13v19.834V64h3v0.011
		c0,0-2.406,1.356-2.26,3.573c0.125,1.906,1.449,3.214,3.917,3.156c1.344-0.031,2.333-1.594,2.208-3.251
		c-0.029-0.382-0.058-0.601-0.184-0.615c0,0-0.229,0.015-0.304,0.476c-0.121,0.752-0.816,1.461-1.893,1.527
		c-0.778,0.047-1.542-0.522-1.724-1.31c-0.258-1.118,0.572-2.203,2.157-2.08l0.34-0.313L18.262,64H21v-7.166V37h6v31h-1.109
		L23,73.895V78h20.042l-0.024-3.748L40.094,68H39V37H50z M35,21.961L44,33h-7v-3h-2V21.961z M15,37h4v20h-4V37z M16.991,61.661
		c-0.927,0-1.678-0.753-1.678-1.679c0-0.928,0.751-1.678,1.678-1.678c0.926,0,1.678,0.75,1.678,1.678
		C18.669,60.908,17.917,61.661,16.991,61.661z M18.6,33L33,24.896V30h-3v3H18.6z M34.402,37L29,41.606V37H34.402z M36.768,51.055
		L29,58.329V43.65L36.768,51.055z M29,68v-7.758L36.376,68H29z M37,66.166l-6.985-6.88L37,52.745V66.166z M37,49.353l-7.282-6.699
		L36.565,37H37V49.353z"/>
</g>
<g display="none">
	<path display="inline" d="M12.517,62.102l0.344-0.086c-0.481-2.506,0.606-4.732,1.924-5.788l0.153,0.647
		c0.044,0.187,0.28,0.289,0.465,0.244c0.185-0.046,0.348-0.244,0.304-0.431l-0.202-0.852c0.373-0.14,0.367-0.164,0.748-0.275
		l0.303,1.279c0.045,0.187,0.281,0.29,0.465,0.245s0.349-0.245,0.305-0.431l-0.304-1.278c0.388-0.078,0.394-0.051,0.79-0.099
		l0.202,0.852c0.045,0.187,0.28,0.289,0.465,0.243c0.184-0.044,0.349-0.243,0.304-0.43l-0.154-0.646
		c1.646,0.339,3.602,1.832,4.303,4.279l0.349-0.086l0.281,1.159l-10.766,2.608L12.517,62.102z"/>
	<path display="inline" d="M19.24,66.405c-2.201,0.532-4.437-0.754-5.349-2.997l8.77-2.126C22.855,63.698,21.442,65.87,19.24,66.405
		z"/>
	<path display="inline" d="M16.782,49.846c0.601-0.607,0.861-1.42,0.821-2.558c0.95,0.471,1.771,0.686,2.56,0.686
		c1.633,0,2.736-0.893,3.574-2.16c0.839,1.267,1.942,2.16,3.576,2.16c0.787,0,1.611-0.214,2.56-0.686
		c-0.04,1.137,0.231,1.94,0.823,2.558c0.741,0.775,1.895,1.125,3.541,1.098c-0.661,0.937-1.002,1.892-0.709,2.841
		c0.312,1.001,1.25,1.723,2.476,2.292c-1.225,0.568-2.164,1.29-2.476,2.289c-0.293,0.953,0.048,1.906,0.709,2.844
		c-1.648-0.043-2.802,0.321-3.541,1.097c-0.591,0.618-1.869,2.786,0.058,5.873l3.056,2.312l-0.908-3.361
		c-0.63-2.344-0.438-3.174-0.168-3.458c0.221-0.231,0.819-0.279,1.278-0.279c0.724,0,1.688,0.114,2.937,0.351l4.018,0.759
		l-2.759-2.558c-1.983-1.837-2.263-2.66-2.151-3.025c0.117-0.373,0.858-0.988,3.739-1.807l3.638-1.035l-3.638-1.035
		c-2.881-0.819-3.622-1.435-3.739-1.807c-0.112-0.367,0.168-1.19,2.151-3.027l2.759-2.556l-4.018,0.757
		c-1.249,0.235-2.212,0.351-2.937,0.351c-0.461,0-1.057-0.049-1.278-0.28c-0.271-0.284-0.462-1.115,0.168-3.457l0.908-3.361
		l-3.056,2.31c-1.597,1.205-2.754,1.816-3.441,1.816c-0.703,0-1.489-1.059-2.339-3.146l-1.236-3.042l-1.235,3.042
		c-0.85,2.087-1.636,3.146-2.339,3.146c-0.688,0-1.843-0.612-3.439-1.816l-3.057-2.31l0.906,3.361
		c0.631,2.342,0.441,3.173,0.167,3.457c-0.219,0.231-0.816,0.28-1.276,0.28c-0.725,0-1.686-0.116-2.939-0.351l-4.016-0.757
		l2.76,2.556C9.846,50.741,14.049,52.599,16.782,49.846z"/>
	<path display="inline" d="M5.899,71.773c0.384-0.835,1.375-1.201,2.204-0.818l4.302,1.976l1.928-3.861
		c0.256-0.513,1.563-1.223,2.708-1.585c0.388-0.161,0.803-0.265,1.239-0.301l1.178-0.092c1.855-0.485,4.478,0.363,5.094,0.951
		l5.91,5.63l0.967,7.065c0.125,0.909-0.512,1.749-1.422,1.875c-0.077,0.01-0.153,0.019-0.227,0.019c-0.819,0-1.532-0.597-1.646-1.43
		l-0.81-5.896l-1.948-1.825c0.121,1.523,0.272,3.532,0.312,4.481c0.036,0.871,0.13,1.6,0.151,3.006L26,82.376v0.053
		c0,0.483,0.032,2.319,0.025,2.634L26,85.064v9.974c0,1.359-1.14,2.462-2.5,2.462S21,96.397,21,95.038v-9.746l-1,0.032v9.714
		c0,1.359-1.141,2.462-2.5,2.462S15,96.397,15,95.038V81.677c0-2.476-0.239-5.347-0.337-6.046l-0.77,1.653l-7.201-3.312
		C5.856,73.59,5.517,72.608,5.899,71.773z"/>
</g>
<path display="none" d="M76.601,20.902v-0.745l-15.01-2.58l-0.797-3.729H41.243l-1.51,3.729l-16.872,2.58v0.745L2.029,73.197
	l14.271,6.576l8.515-18.006v24.385h50.809V61.768l8.597,18.006l13.75-6.574L76.601,20.902z M53.15,30.034v51.234h-3.908V30.034
	l-5.347-13.254h14.244L53.15,30.034z"/>
<g display="none">
	<path display="inline" d="M31.08,39.379c-4.181-0.487-7.708,1.573-9.283,3.868l1.083,0.174c0.312,0.05,0.51,0.425,0.458,0.733
		c-0.051,0.311-0.359,0.603-0.671,0.553l-1.425-0.229c-0.185,0.63-0.228,0.625-0.36,1.264l2.138,0.344
		c0.313,0.05,0.511,0.426,0.459,0.732c-0.052,0.31-0.359,0.604-0.672,0.555l-2.138-0.345c-0.079,0.648-0.035,0.655-0.063,1.311
		l1.423,0.229c0.313,0.052,0.509,0.427,0.458,0.734c-0.051,0.31-0.357,0.604-0.671,0.552l-1.08-0.172
		c0.758,2.665,3.451,5.699,7.56,6.554l-0.097,0.585l1.939,0.321l2.979-18.019l-1.939-0.32L31.08,39.379z"/>
	<path display="inline" d="M39.072,49.335c0.609-3.685-1.778-7.203-5.579-8.433l-2.428,14.68
		C35.064,55.607,38.462,53.018,39.072,49.335z"/>
	<path display="inline" d="M92.145,38.301c-2.729-0.892-8.364-1.7-14.907,1.742c1.103-2.23,3.579-4.371,8.85-5.158
		c1.927-0.286,3.538-2.738,3.399-4.607c-0.013-0.186-0.04-0.37-0.082-0.557c-0.465-2.069-2.529-3.336-4.625-2.908
		C67.502,30.34,68.516,38.492,66.32,44.371l-6.329-0.563c3.496-3.912,3.188-4.678,4.401-11.79c0.053-0.313,0.065-0.62,0.043-0.924
		c-0.129-1.721-0.711-3.249-2.508-3.546c-2.111-0.351-3.485,1.134-3.843,3.223c-1.187,6.943-0.841,6.848-4.608,9.48
		c-2.086,1.458-3.272,2.334-4.297,2.869c-1.234-8.006-8.299-15.639-8.615-15.888c-1.307-1.02-3.662-1.103-4.682,0.202
		c-1.02,1.307-0.884,3.474,0.422,4.494c0.06,0.047,5.154,5.368,5.748,11.056c0.107,1.038,0.063,2.29-0.097,3.486
		c-1.162,1.901-2.401,4.98-1.899,7.928c0.352,2.062,2.174,3.588,3.411,4.146c3.75,1.459,5.408-0.183,10.283-0.378
		c3.24-0.128,2.859,0.516,6.061,0.897c9.18,1.094,11.002-1.115,12.629-2.987c0.835-0.994,1.533-2.128,2.112-3.261
		c7.437-7.63,12.374-7.808,15.118-6.908c0.2,0.065,0.502,0.165,0.914,0.212c2.192,0.263,4.18-1.313,4.438-3.507
		C95.254,40.637,94,38.827,92.145,38.301z"/>
	<path display="inline" d="M32.162,61.908c-0.551,0.703-0.741,1.602-0.604,2.83c-0.991-0.436-1.833-0.604-2.623-0.539
		c-1.634,0.128-2.663,1.181-3.393,2.618c-0.946-1.304-2.127-2.183-3.762-2.055c-0.789,0.063-1.595,0.361-2.504,0.946
		c-0.059-1.234-0.399-2.08-1.042-2.7c-0.808-0.783-1.994-1.071-3.64-0.909c0.583-1.063,0.844-2.124,0.466-3.13
		c-0.397-1.058-1.399-1.764-2.674-2.283c1.177-0.71,2.056-1.564,2.283-2.675c0.213-1.052-0.21-2.055-0.952-3.015
		c1.652-0.085,2.776-0.572,3.451-1.468c0.539-0.717,1.631-3.163-0.561-6.352l-3.257-2.256l1.195,3.564
		c0.833,2.485,0.712,3.397,0.465,3.727c-0.202,0.265-0.794,0.367-1.257,0.403c-0.725,0.057-1.697,0.009-2.968-0.146l-4.086-0.502
		l2.981,2.548c2.142,1.829,2.493,2.696,2.411,3.103c-0.085,0.41-0.774,1.133-3.587,2.249l-3.553,1.408l3.729,0.831
		c2.953,0.657,3.748,1.264,3.896,1.659c0.145,0.388-0.063,1.299-1.894,3.445L8.14,66.193l3.956-1.138
		c1.232-0.354,2.185-0.553,2.911-0.611c0.461-0.035,1.062-0.031,1.302,0.202c0.298,0.284,0.56,1.169,0.128,3.752l-0.62,3.705
		l2.862-2.739c1.493-1.429,2.603-2.181,3.288-2.237c0.705-0.054,1.582,1.028,2.61,3.219l1.498,3.192l0.979-3.389
		c0.67-2.324,1.367-3.532,2.07-3.587c0.69-0.056,1.899,0.516,3.6,1.692l3.257,2.257l-1.194-3.563
		c-0.832-2.483-0.712-3.398-0.463-3.728c0.2-0.266,0.793-0.365,1.254-0.4c0.725-0.06,1.696-0.012,2.971,0.146l4.084,0.5
		l-2.979-2.545C39.028,60.388,34.661,58.71,32.162,61.908z"/>
</g>
<g display="none">
	<path display="inline" d="M16.234,63.102l0.344-0.086c-0.482-2.506,0.605-4.732,1.924-5.788l0.152,0.647
		c0.045,0.187,0.28,0.289,0.466,0.244c0.185-0.046,0.349-0.244,0.304-0.431l-0.201-0.852c0.373-0.14,0.367-0.164,0.748-0.275
		l0.303,1.279c0.045,0.187,0.28,0.29,0.465,0.245c0.184-0.045,0.349-0.245,0.305-0.431l-0.305-1.278
		c0.389-0.078,0.395-0.051,0.791-0.099l0.201,0.852c0.045,0.187,0.28,0.289,0.465,0.243c0.184-0.044,0.35-0.243,0.305-0.43
		l-0.154-0.646c1.646,0.339,3.603,1.832,4.304,4.279l0.349-0.086l0.281,1.159l-10.766,2.608L16.234,63.102z"/>
	<path display="inline" d="M22.957,67.405c-2.201,0.532-4.437-0.754-5.349-2.997l8.771-2.126
		C26.572,64.698,25.158,66.87,22.957,67.405z"/>
	<path display="inline" d="M20.498,50.846c0.602-0.607,0.861-1.42,0.821-2.558c0.95,0.472,1.771,0.686,2.56,0.686
		c1.633,0,2.736-0.893,3.574-2.159c0.839,1.267,1.941,2.159,3.576,2.159c0.786,0,1.611-0.214,2.56-0.686
		c-0.04,1.138,0.231,1.94,0.823,2.558c0.74,0.775,1.895,1.125,3.54,1.098c-0.661,0.937-1.003,1.892-0.71,2.841
		c0.313,1.001,1.251,1.723,2.477,2.292c-1.226,0.568-2.164,1.29-2.477,2.289c-0.293,0.953,0.049,1.906,0.71,2.844
		c-1.647-0.043-2.802,0.321-3.54,1.097c-0.592,0.618-1.869,2.786,0.058,5.873l3.056,2.312l-0.908-3.361
		c-0.63-2.344-0.438-3.174-0.168-3.458c0.222-0.231,0.819-0.279,1.278-0.279c0.724,0,1.688,0.114,2.937,0.351l4.018,0.759
		l-2.759-2.558c-1.983-1.837-2.263-2.66-2.151-3.025c0.117-0.373,0.857-0.988,3.739-1.807l3.638-1.035l-3.638-1.035
		c-2.882-0.819-3.622-1.435-3.739-1.807c-0.111-0.367,0.168-1.19,2.151-3.027l2.759-2.557l-4.018,0.758
		c-1.249,0.235-2.213,0.352-2.937,0.352c-0.462,0-1.057-0.049-1.278-0.28c-0.27-0.284-0.462-1.114,0.168-3.456l0.908-3.361
		l-3.056,2.311c-1.597,1.204-2.755,1.816-3.44,1.816c-0.703,0-1.49-1.059-2.34-3.146l-1.236-3.042l-1.235,3.042
		c-0.851,2.088-1.636,3.146-2.339,3.146c-0.688,0-1.844-0.612-3.439-1.816l-3.057-2.311l0.906,3.361
		c0.632,2.342,0.441,3.172,0.168,3.456c-0.22,0.231-0.816,0.28-1.276,0.28c-0.725,0-1.687-0.116-2.938-0.352l-4.016-0.758
		l2.76,2.557C13.562,51.741,17.765,53.599,20.498,50.846z"/>
	<path display="inline" d="M9.616,72.773c0.384-0.835,1.375-1.201,2.204-0.818l4.303,1.976l1.928-3.861
		c0.256-0.513,1.563-1.223,2.707-1.585c0.389-0.161,0.803-0.265,1.239-0.301l1.178-0.092c1.855-0.485,4.478,0.363,5.094,0.951
		l5.91,5.63l0.967,7.065c0.125,0.909-0.513,1.749-1.423,1.875c-0.076,0.01-0.152,0.019-0.227,0.019c-0.818,0-1.531-0.597-1.645-1.43
		l-0.811-5.896l-1.947-1.825c0.121,1.523,0.271,3.532,0.312,4.481c0.036,0.871,0.272,1.6,0.293,3.006L30,83.376v0.053
		c0,0.483,0.031,2.319,0.025,2.634L30,86.064v9.974c0,1.359-1.141,2.462-2.5,2.462S25,97.397,25,96.038v-9.746l-1,0.032v9.714
		c0,1.359-1.141,2.462-2.5,2.462S19,97.397,19,96.038V82.677c0-2.476-0.381-5.347-0.479-6.046l-0.842,1.653l-7.236-3.312
		C9.608,74.59,9.233,73.608,9.616,72.773z"/>
	<path display="inline" d="M45.596,1.188V26h15.504v6.658c0,0-12.098,6.035-11.154,18.459c0.938,12.438,10.14,17.221,20.028,16.766
		c6.783-0.313,13.738-5.846,14.132-15.691c0.087-2.14-0.229-3.376-0.939-3.453c0,0-1.237,0.076-1.653,2.662
		c-0.678,4.219-4.56,8.209-10.599,8.578c-4.355,0.256-8.637-2.934-9.659-7.35c-1.443-6.278,3.222-12.361,12.108-11.679l1.909-3.76
		L75.311,26h15.23V1.188H45.596z"/>
</g>
</svg>
