<?xml version="1.0" encoding="utf-8"?>
<!-- Generator: Adobe Illustrator 16.0.0, SVG Export Plug-In . SVG Version: 6.00 Build 0)  -->
<!DOCTYPE svg PUBLIC "-//W3C//DTD SVG 1.1//EN" "http://www.w3.org/Graphics/SVG/1.1/DTD/svg11.dtd">
<svg version="1.1" id="Layer_1" xmlns="http://www.w3.org/2000/svg" xmlns:xlink="http://www.w3.org/1999/xlink" x="0px" y="0px"
	 width="200px" height="200px" viewBox="0 0 200 200" enable-background="new 0 0 200 200" xml:space="preserve">
<g id="Healthcare">
	<path fill="#404040" d="M185,47.91C185,29.734,170.267,15,152.092,15H47.909C29.734,15,15,29.734,15,47.91v104.181
		C15,170.267,29.734,185,47.909,185h104.183C170.267,185,185,170.267,185,152.091V47.91z M153.954,169H50.05
		C41.296,169,32,158.952,32,150.197V46.296C32,37.143,41.859,31,50.05,31h103.904C162.816,31,170,37.432,170,46.296v103.901
		C170,158.389,163.105,169,153.954,169z"/>
	<polygon fill="#404040" points="114,52 86,52 86,85 53,85 53,113 86,113 86,145 114,145 114,113 146,113 146,85 114,85 	"/>
</g>
</svg>
