<?xml version="1.0" encoding="utf-8"?>
<!-- Generator: Adobe Illustrator 16.0.0, SVG Export Plug-In . SVG Version: 6.00 Build 0)  -->
<!DOCTYPE svg PUBLIC "-//W3C//DTD SVG 1.1//EN" "http://www.w3.org/Graphics/SVG/1.1/DTD/svg11.dtd">
<svg version="1.1" id="Layer_1" xmlns="http://www.w3.org/2000/svg" xmlns:xlink="http://www.w3.org/1999/xlink" x="0px" y="0px"
	 width="200px" height="200px" viewBox="0 0 200 200" enable-background="new 0 0 200 200" xml:space="preserve">
<g>
	<path fill="#404040" d="M100,15.499c-46.594,0-84.501,37.907-84.501,84.501S53.406,184.501,100,184.501
		s84.501-37.907,84.501-84.501S146.594,15.499,100,15.499z M100,30.801c38.156,0,69.199,31.042,69.199,69.199
		c0,11.77-2.961,22.857-8.166,32.571L49.886,52.356C62.5,39.094,80.294,30.801,100,30.801z M73.821,164.041
		c0.01-0.056,0.026-0.111,0.035-0.168c3.996-27.543,14.521-27.654,22.325-31.511l0.075,0.176
		c3.309,18.502,9.495,19.585,27.925,32.293c-7.532,2.818-15.678,4.368-24.181,4.368C90.738,169.199,81.902,167.357,73.821,164.041z
		 M137.482,158.122c-0.372-0.667-0.854-1.285-1.457-1.818c-18.232-16.141-23.745-14.414-23.558-30.976
		c0.468-0.472,0.985-0.98,1.509-1.555l-32.388-23.376c-3.677,6.066-4.409,5.498-15.908,8.354c-3.606,0.892-6.02,3.473-5.138,7.12
		c0.755,3.105,3.506,3.917,6.529,3.917c0.531,0,1.069-0.064,1.613-0.198c12.279-3.04,14.721-2.619,21.107-9.237l0.717,7.134
		c-9.412,4.331-24.029,9.518-29.942,39.329C42.595,144.306,30.801,123.51,30.801,100c0-12.957,3.587-25.088,9.809-35.467
		l111.741,80.644C148.041,150.164,143.036,154.528,137.482,158.122z"/>
	<path fill="#404040" d="M109.766,70.249c-8.875-2.404-16.127,1.115-20.007,4.594l23.918,17.261
		c-0.033-1.672-0.119-3.222-0.217-4.664c3.771,3.705,6.326,7.105,8.079,10.338l14.379,10.378
		c-0.148-4.628-1.505-10.898-7.421-20.446c-9.088-13.24-16.677-16.708-18.695-17.462C109.786,70.242,109.766,70.249,109.766,70.249z
		"/>
	<circle fill="#404040" cx="96.211" cy="53.018" r="14.503"/>
</g>
</svg>
