<?xml version="1.0" encoding="utf-8"?>
<!-- Generator: Adobe Illustrator 16.0.0, SVG Export Plug-In . SVG Version: 6.00 Build 0)  -->
<!DOCTYPE svg PUBLIC "-//W3C//DTD SVG 1.1//EN" "http://www.w3.org/Graphics/SVG/1.1/DTD/svg11.dtd">
<svg version="1.1" id="Layer_1" xmlns="http://www.w3.org/2000/svg" xmlns:xlink="http://www.w3.org/1999/xlink" x="0px" y="0px"
	 width="200px" height="200px" viewBox="0 0 200 200" enable-background="new 0 0 200 200" xml:space="preserve">
<path fill="#404040" d="M158.321,80.727c0.051-0.658,0.077-1.319,0.077-1.98c0-14.094-11.467-25.561-25.561-25.561
	c-3.282,0-6.542,0.641-9.579,1.87c-8.27-11.267-21.298-17.905-35.438-17.905c-23.897,0-43.407,19.142-44.001,42.899
	c-16.494,4.569-28.182,19.878-28.182,37.272c0,21.252,17.29,38.678,38.542,38.678h93.249c0.029,0,0.059,0,0.088,0
	c0.026,0,0.13-0.14,0.156-0.141c20.573-0.98,36.689-17.977,36.689-38.605C184.362,100.663,173.803,86.025,158.321,80.727z
	 M54.18,142c-13.837,0-25.094-11.117-25.094-24.955c0-12.816,9.554-23.435,22.25-24.86c2.102,0.007,18.571,0.591,21.692,15.703
	c0.365,1.769,2.016,2.985,3.813,2.788c1.795-0.198,3.145-1.722,3.115-3.527c-0.013-0.791-0.572-18.859-22.664-27.489
	c0.786-16.161,14.18-29.065,30.531-29.065c11.493,0,21.911,6.362,27.186,16.602l1.816,3.524c0.483,0.937,1.362,1.605,2.393,1.822
	c1.03,0.217,2.104-0.043,2.923-0.706l3.081-2.499c2.181-1.769,4.814-2.704,7.618-2.704c6.678,0,12.111,5.434,12.111,12.113
	c0,1.52-0.29,3.021-0.862,4.463l-1.512,3.806c-0.396,0.997-0.313,2.121,0.226,3.048c0.538,0.928,1.473,1.558,2.535,1.709
	l4.053,0.576c12.272,1.745,21.526,12.282,21.526,24.696c0,13.375-10.417,24.955-23.731,24.955H54.18z"/>
</svg>
