<?xml version="1.0" encoding="utf-8"?>
<!-- Generator: Adobe Illustrator 16.0.0, SVG Export Plug-In . SVG Version: 6.00 Build 0)  -->
<!DOCTYPE svg PUBLIC "-//W3C//DTD SVG 1.1//EN" "http://www.w3.org/Graphics/SVG/1.1/DTD/svg11.dtd">
<svg version="1.1" id="Layer_1" xmlns="http://www.w3.org/2000/svg" xmlns:xlink="http://www.w3.org/1999/xlink" x="0px" y="0px"
	 width="200px" height="200px" viewBox="0 0 200 200" enable-background="new 0 0 200 200" xml:space="preserve">
<g>
	<g>
		<rect x="66.33" y="137.503" fill="#404040" width="7.138" height="5.244"/>
		<path fill="#404040" d="M73.472,83.764c-16.057,5.778-28.541,21.931-28.541,48.039v42.938c0,5.359,4.022,9.705,9.497,9.705
			c5.464,0,8.343-4.346,8.343-9.705v-42.938c0-7.285,1.786-13.141,3.568-17.76v14.729h7.137V83.764H73.472z"/>
		<path fill="#404040" d="M106.729,106.946l12.309-25.875c0,0-36.421,0.266-36.754,0.266l12.24,25.549L106.729,106.946z"/>
		<polygon fill="#404040" points="119.13,158.473 100.65,158.473 82.183,158.473 72.949,158.473 66.33,158.473 66.33,171.996 
			134.117,171.996 134.117,158.473 128.365,158.473 		"/>
		<rect x="126.983" y="137.503" fill="#404040" width="7.134" height="5.244"/>
		<path fill="#404040" d="M126.983,83.777v44.996h7.134v-14.632c1.788,4.559,1.788,10.366,1.788,17.662v42.938
			c0,5.359,3.739,9.705,9.207,9.705c5.476,0,9.956-4.346,9.956-9.705l-0.772-42.938C154.296,105.714,141.256,89.556,126.983,83.777z
			"/>
	</g>
</g>
<rect x="78" y="138" fill="#404040" width="43" height="5"/>
<g>
	<path fill="#404040" d="M128.57,44.218c-0.439-10.987-8.289-20.829-17.902-24.491v3.38c0,0.978-0.606,1.768-1.606,1.768
		c-0.993,0-1.597-0.79-1.597-1.768v-4.45c-1.604-0.244-1.604-0.38-4.812-0.461v6.68c0,0.978-0.607,1.772-1.604,1.772
		c-0.996,0-1.602-0.794-1.602-1.772v-6.68c-3.204,0.083-3.204,0.221-4.807,0.461v4.45c0,0.978-0.608,1.768-1.604,1.768
		c-0.995,0-1.602-0.79-1.602-1.768v-3.377c-8.013,3.674-16.837,13.501-17.337,24.488h-3.494v7.849h60.892v-7.849H128.57z"/>
	<path fill="#404040" d="M101.411,76.862c11.868,0,21.713-7.104,23.645-21.229H77.75C79.685,69.758,89.525,76.862,101.411,76.862z"
		/>
</g>
</svg>
