<?xml version="1.0" encoding="utf-8"?>
<!-- Generator: Adobe Illustrator 16.0.0, SVG Export Plug-In . SVG Version: 6.00 Build 0)  -->
<!DOCTYPE svg PUBLIC "-//W3C//DTD SVG 1.1//EN" "http://www.w3.org/Graphics/SVG/1.1/DTD/svg11.dtd">
<svg version="1.1" id="Layer_1" xmlns="http://www.w3.org/2000/svg" xmlns:xlink="http://www.w3.org/1999/xlink" x="0px" y="0px"
	 width="200px" height="200px" viewBox="0 0 200 200" enable-background="new 0 0 200 200" xml:space="preserve">
<g>
	<path fill="#404040" d="M181,41.869c0-3.794-3.075-6.869-6.868-6.869H25.868C22.075,35,19,38.075,19,41.869v19.262
		C19,64.925,22.075,68,25.868,68h148.264c3.793,0,6.868-3.075,6.868-6.869V41.869z M102,52.292C102,55.444,99.444,58,96.292,58
		h-5.583C87.556,58,85,55.444,85,52.292v-0.583C85,48.556,87.556,46,90.708,46h5.583c3.153,0,5.708,2.556,5.708,5.708V52.292z
		 M128,52.226c0,3.152-1.66,5.774-4.811,5.774h-12.516c-3.152,0-5.674-2.622-5.674-5.774v-0.548c0-3.152,2.521-5.677,5.674-5.677
		h12.516c3.15,0,4.811,2.525,4.811,5.677V52.226z M172,52.292c0,3.153-2.556,5.708-5.708,5.708h-23.584
		c-3.152,0-5.708-2.556-5.708-5.708v-0.583c0-3.153,2.556-5.708,5.708-5.708h23.584c3.152,0,5.708,2.556,5.708,5.708V52.292z"/>
	<path fill="#404040" d="M180,79.725c0-3.905-3.147-6.725-6.798-6.725H25.646C21.996,73,19,75.82,19,79.725v18.67
		C19,102.3,21.996,105,25.646,105h147.556c3.65,0,6.798-2.7,6.798-6.605V79.725z M102,90.291C102,93.444,99.444,96,96.292,96h-5.583
		C87.556,96,85,93.444,85,90.291v-0.582C85,86.556,87.556,84,90.708,84h5.583c3.153,0,5.708,2.556,5.708,5.709V90.291z M128,90.69
		c0,2.933-2.37,5.31-5.293,5.31h-12.414C107.37,96,105,93.623,105,90.69V89.31c0-2.933,2.37-5.31,5.293-5.31h12.414
		c2.923,0,5.293,2.377,5.293,5.31V90.69z M172,90.291c0,3.153-2.556,5.709-5.708,5.709h-23.584c-3.152,0-5.708-2.556-5.708-5.709
		v-0.582c0-3.153,2.556-5.709,5.708-5.709h23.584c3.152,0,5.708,2.556,5.708,5.709V90.291z"/>
	<path fill="#404040" d="M77.345,144H24.83c-3.319,0-6.01,3.181-6.01,6.5s2.691,6.5,6.01,6.5h52.623
		c-0.802-2-1.249-4.46-1.249-6.643C76.204,148.283,76.615,146,77.345,144z"/>
	<path fill="#404040" d="M172.509,144h-52.228c0.729,2,1.142,4.283,1.142,6.357c0,2.183-0.446,4.643-1.249,6.643h52.335
		c3.318,0,6.012-3.181,6.012-6.5S175.827,144,172.509,144z"/>
	<path fill="#404040" d="M105,128.408V111H93v17.514c2-0.802,3.96-1.248,6.143-1.248C101.219,127.266,103,127.678,105,128.408z"/>
	<path fill="#404040" d="M104.681,135.277c-1.816-0.73-3.792-1.143-5.869-1.143c-2.183,0-4.263,0.446-6.152,1.25
		c-3.839,1.631-6.886,4.745-8.445,8.62c-0.73,1.816-1.143,3.793-1.143,5.868c0,2.185,0.446,4.264,1.25,6.154
		c2.396,5.634,7.98,9.586,14.49,9.586c6.512,0,12.096-3.952,14.494-9.586c0.802-1.891,1.248-3.97,1.248-6.154
		c0-2.075-0.412-4.052-1.142-5.868C111.814,140.037,108.65,136.873,104.681,135.277z"/>
</g>
</svg>
