<?xml version="1.0" encoding="utf-8"?>
<!-- Generator: Adobe Illustrator 16.0.0, SVG Export Plug-In . SVG Version: 6.00 Build 0)  -->
<!DOCTYPE svg PUBLIC "-//W3C//DTD SVG 1.1//EN" "http://www.w3.org/Graphics/SVG/1.1/DTD/svg11.dtd">
<svg version="1.1" id="Layer_1" xmlns="http://www.w3.org/2000/svg" xmlns:xlink="http://www.w3.org/1999/xlink" x="0px" y="0px"
	 width="200px" height="200px" viewBox="0 0 200 200" enable-background="new 0 0 200 200" xml:space="preserve">
<circle fill="#ff8400" cx="100.115" cy="100" r="94.5"/>
<g>
	<path fill="#FFFFFF" d="M149.978,74.987c0-27.62-22.382-49.487-49.997-49.487c-0.001,0-0.002,0-0.004,0c-0.001,0-0.002,0-0.005,0
		c-27.614,0-49.995,21.867-49.995,49.487c0,8.721,2.232,17.513,6.156,23.513h-0.059L99.5,174.776v0.013v-0.007v0.007v-0.013
		L143.878,98.5h-0.058C147.743,92.5,149.978,83.708,149.978,74.987z M105.5,107.81V97.573c0-3.091-2.402-5.073-5.493-5.073h-0.022
		c-3.091,0-6.484,1.982-6.484,5.073v10.243C79.5,105.362,68.094,93.5,66.363,78.5h8.809c3.091,0,5.328-2.648,5.328-5.739v-0.022
		c0-3.091-2.237-5.239-5.328-5.239h-8.246C69.872,53.5,80.5,43.326,93.5,41.058v6.869c0,3.091,3.394,5.573,6.484,5.573h0.022
		c3.091,0,5.493-2.482,5.493-5.573v-6.862c14,2.28,24.584,12.435,27.526,26.435h-8.208c-3.091,0-6.318,2.148-6.318,5.239v0.022
		c0,3.091,3.228,5.739,6.318,5.739h8.771C131.86,93.5,120.5,105.341,105.5,107.81z"/>
	<circle fill="#FFFFFF" cx="99.995" cy="72.75" r="6.409"/>
</g>
</svg>
