<?xml version="1.0" encoding="utf-8"?>
<!-- Generator: Adobe Illustrator 16.0.0, SVG Export Plug-In . SVG Version: 6.00 Build 0)  -->
<!DOCTYPE svg PUBLIC "-//W3C//DTD SVG 1.1//EN" "http://www.w3.org/Graphics/SVG/1.1/DTD/svg11.dtd">
<svg version="1.1" id="Layer_2" xmlns="http://www.w3.org/2000/svg" xmlns:xlink="http://www.w3.org/1999/xlink" x="0px" y="0px"
	 width="200px" height="200px" viewBox="0 0 200 200" enable-background="new 0 0 200 200" xml:space="preserve">
<g id="Layer_108">
	<g>
		<g>
			<path fill="#fff" d="M67.765,107H57.75c-4.833,0-8.75-3.918-8.75-8.75V98H19v51.25c0,5.521,4.477,9.75,10,9.75h10
				c0-3,2.239-5,5-5h15c2.761,0,5,2,5,5h25c0-3,2.239-5,5-5h6v-21.775C84.594,131.785,71.723,121.252,67.765,107z"/>
			<path fill="#fff" d="M57.75,89h9.873C71.415,74.494,84.413,63.72,100,63.275V41h-6c-2.761,0-5-2-5-5H64c0,3-2.239,5-5,5H44
				c-2.761,0-5-2-5-5H29c-5.523,0-10,4.727-10,10.25V96h30.176C49.986,92.006,53.517,89,57.75,89z"/>
			<path fill="#fff" d="M153,98.25c0,4.832-3.918,8.75-8.75,8.75h-10.016c-3.957,14.252-16.828,24.785-32.234,25.225V154h7
				c2.762,0,5,2,5,5h25c0-3,2.238-5,5-5h15c2.762,0,5,2,5,5h9c5.521,0,10-4.229,10-9.75V98h-30V98.25z"/>
			<path fill="#fff" d="M173,36h-9c0,3-2.238,5-5,5h-15c-2.762,0-5-2-5-5h-25c0,3-2.238,5-5,5h-7v22.275
				C117.587,63.72,130.585,74.494,134.378,89h9.872c4.232,0,7.764,3.006,8.574,7H183V46.25C183,40.727,178.521,36,173,36z"/>
		</g>
		<circle fill="#fff" cx="101" cy="97.5" r="18"/>
	</g>
</g>
</svg>
