<?xml version="1.0" encoding="utf-8"?>
<!-- Generator: Adobe Illustrator 16.0.0, SVG Export Plug-In . SVG Version: 6.00 Build 0)  -->
<!DOCTYPE svg PUBLIC "-//W3C//DTD SVG 1.1//EN" "http://www.w3.org/Graphics/SVG/1.1/DTD/svg11.dtd">
<svg version="1.1" id="Layer_1" xmlns="http://www.w3.org/2000/svg" xmlns:xlink="http://www.w3.org/1999/xlink" x="0px" y="0px"
	 width="200px" height="200px" viewBox="0 0 200 200" enable-background="new 0 0 200 200" xml:space="preserve">
<path fill="#404040" d="M184.568,98.718c-4.694-16.476-15.347-30.62-30.807-40.9c-15.374-10.224-34.037-15.627-53.97-15.627
	c-19.929,0-38.589,5.403-53.963,15.627c-15.46,10.281-26.113,24.424-30.808,40.9l-0.292,1.023l0.258,1.034
	c8.846,35.476,40.548,56.655,84.805,56.655c44.263,0,75.966-21.179,84.811-56.655l0.258-1.034L184.568,98.718z M80.93,61.15
	c-13.98,6.966-23.631,21.368-23.631,38.017c0,19.578,13.323,36.057,31.365,40.966c-26.631-2.912-48.313-16.47-56.076-40.323
	C39.582,81.9,57.895,66.693,80.93,61.15z M75.366,99.167c0-13.467,10.962-24.423,24.432-24.423
	c13.469,0,24.426,10.956,24.426,24.423c0,13.469-10.957,24.429-24.426,24.429C86.328,123.596,75.366,112.636,75.366,99.167z
	 M110.93,140.133c18.04-4.909,31.359-21.393,31.359-40.966c0-16.647-9.645-31.049-23.623-38.013
	C141.7,66.698,160.009,81.902,167,99.81C159.239,123.658,137.558,137.221,110.93,140.133z"/>
</svg>
