<?xml version="1.0" encoding="utf-8"?>
<!-- Generator: Adobe Illustrator 16.0.0, SVG Export Plug-In . SVG Version: 6.00 Build 0)  -->
<!DOCTYPE svg PUBLIC "-//W3C//DTD SVG 1.1//EN" "http://www.w3.org/Graphics/SVG/1.1/DTD/svg11.dtd">
<svg version="1.1" id="Layer_1" xmlns="http://www.w3.org/2000/svg" xmlns:xlink="http://www.w3.org/1999/xlink" x="0px" y="0px"
	 width="200px" height="200px" viewBox="0 0 200 200" enable-background="new 0 0 200 200" xml:space="preserve">
<g>
	<g>
		<path fill="#3D3D3D" d="M158.817,53.029l-21.464-21.479c-4.679-4.663-13.912-8.495-20.521-8.495H44.7
			c-6.61,0-12.027,5.418-12.027,12.028v129.835c0,6.61,5.417,12.027,12.027,12.027h110.602c6.607,0,12.025-5.417,12.025-12.027
			V73.551C167.313,66.94,163.496,57.691,158.817,53.029z M152.019,59.827c0.472,0.471,0.941,1.053,1.398,1.697h-24.573V36.966
			c0.66,0.455,1.225,0.926,1.695,1.397L152.019,59.827z M157.703,164.901c0,1.304-1.1,2.403-2.401,2.403H44.7
			c-1.303,0-2.403-1.1-2.403-2.403V35.083c0-1.303,1.1-2.403,2.403-2.403h72.133c0.723,0,1.538,0.095,2.402,0.252v38.217h38.216
			c0.157,0.863,0.252,1.68,0.252,2.402V164.901z"/>
	</g>
	<g>
		<path fill="#3D3D3D" d="M62.691,116.949v13.266h-7.243V92.807h12.351c9.114,0,13.672,3.905,13.672,11.715
			c0,3.778-1.376,6.819-4.129,9.123c-2.753,2.305-6.213,3.405-10.381,3.304H62.691z M62.691,98.576v12.706h3.685
			c4.998,0,7.497-2.16,7.497-6.48c0-4.15-2.449-6.226-7.344-6.226H62.691z"/>
		<path fill="#3D3D3D" d="M87.443,130.215V92.807h12.401c13.248,0,19.873,6.083,19.873,18.247c0,5.794-1.868,10.437-5.604,13.926
			c-3.736,3.49-8.543,5.235-14.422,5.235H87.443z M94.686,98.83v25.388h4.574c4.015,0,7.158-1.165,9.428-3.494
			c2.27-2.33,3.405-5.519,3.405-9.568c0-3.981-1.136-7.03-3.405-9.148c-2.271-2.118-5.396-3.177-9.377-3.177H94.686z"/>
		<path fill="#3D3D3D" d="M147.086,98.83H133.49v10.292h12.529v5.947H133.49v15.146h-7.242V92.807h20.838V98.83z"/>
	</g>
</g>
</svg>
