<?xml version="1.0" encoding="utf-8"?>
<!-- Generator: Adobe Illustrator 16.0.0, SVG Export Plug-In . SVG Version: 6.00 Build 0)  -->
<!DOCTYPE svg PUBLIC "-//W3C//DTD SVG 1.1//EN" "http://www.w3.org/Graphics/SVG/1.1/DTD/svg11.dtd">
<svg version="1.1" id="Layer_1" xmlns="http://www.w3.org/2000/svg" xmlns:xlink="http://www.w3.org/1999/xlink" x="0px" y="0px"
	 width="200px" height="200px" viewBox="0 0 200 200" enable-background="new 0 0 200 200" xml:space="preserve">
<path fill="#404040" d="M144.778,107.238c-4.407-5.34-8.922-20.1-10.032-32.768l-2.104-24.046
	c-1.11-12.668-2.082-23.038-2.158-23.038c-0.077,0,1.827-2.71,4.232-6.193c2.405-3.484-5.56-6.193-17.7-6.193H82.982
	c-12.141,0-20.105,2.707-17.699,6.189c2.406,3.483,4.312,6.262,4.234,6.262s-1.049,10.329-2.158,22.997l-2.106,23.979
	c-1.109,12.668-5.624,27.461-10.032,32.801c-4.408,5.341,1.919,9.771,14.06,9.771H91v42.269l9,25.441l9-25.441V117h21.718
	C142.858,117,149.186,112.578,144.778,107.238z M74.456,102c3.01-8,5.029-18.157,5.74-26.27l2.106-23.952
	c0.935-10.679,1.654-18.472,1.94-21.247C84.273,30.399,84.301,30,84.328,30h31.402c0.256,0,0.957,10.042,1.969,21.595l2.105,24.099
	c0.71,8.101,2.729,18.307,5.736,26.307H74.456z"/>
</svg>
