<?xml version="1.0" encoding="utf-8"?>
<!-- Generator: Adobe Illustrator 16.0.0, SVG Export Plug-In . SVG Version: 6.00 Build 0)  -->
<!DOCTYPE svg PUBLIC "-//W3C//DTD SVG 1.1//EN" "http://www.w3.org/Graphics/SVG/1.1/DTD/svg11.dtd">
<svg version="1.1" id="Layer_1" xmlns="http://www.w3.org/2000/svg" xmlns:xlink="http://www.w3.org/1999/xlink" x="0px" y="0px"
	 width="200px" height="200px" viewBox="0 0 200 200" enable-background="new 0 0 200 200" xml:space="preserve">
<g>
	<path fill="#404040" d="M181,147.209L116.649,35.774c-9.157-15.861-24.141-15.849-33.297,0.012L19,147.203
		C9.843,163.064,17.337,176,35.65,176h128.701C182.665,176,190.157,163.07,181,147.209z M143.548,159H56.45
		c-12.392,0-17.463-9.009-11.265-19.743l43.547-75.544c6.199-10.734,16.338-10.791,22.536-0.057l43.549,75.628
		C161.013,150.019,155.942,159,143.548,159z"/>
	<path fill="#404040" d="M99.978,85c0,0,0,0-0.001,0c0,0-0.001,0-0.002,0c-12.521,0-22.669,10.365-22.669,22.888
		c0,3.956,1.012,7.112,2.792,11.112h-0.027L100,152.733v0.006v-0.002v0.002v-0.006L119.883,119h-0.026
		c1.778-4,2.792-7.156,2.792-11.112C122.648,95.365,112.5,85,99.978,85z M99.977,122.585c-8.476,0-15.347-6.871-15.347-15.347
		c0-8.477,6.871-15.348,15.347-15.348c8.477,0,15.347,6.871,15.347,15.348C115.323,115.714,108.453,122.585,99.977,122.585z"/>
</g>
</svg>
