<?xml version="1.0" encoding="utf-8"?>
<!-- Generator: Adobe Illustrator 16.0.0, SVG Export Plug-In . SVG Version: 6.00 Build 0)  -->
<!DOCTYPE svg PUBLIC "-//W3C//DTD SVG 1.1//EN" "http://www.w3.org/Graphics/SVG/1.1/DTD/svg11.dtd">
<svg version="1.1" id="Layer_1" xmlns="http://www.w3.org/2000/svg" xmlns:xlink="http://www.w3.org/1999/xlink" x="0px" y="0px"
	 width="200px" height="200px" viewBox="0 0 200 200" enable-background="new 0 0 200 200" xml:space="preserve">
<circle fill="#FF8400" cx="100.115" cy="100" r="94.5"/>
<g>
	<g>
		<path fill="#FFFFFF" d="M176.536,88.896c0-6.562-6.352-11.801-14.797-12.559c-2.354-9.248-8.449-17.683-17.75-24.324
			c-11.705-8.356-27.205-12.958-43.653-12.958s-31.949,4.602-43.653,12.958c-9.301,6.64-15.393,15.073-17.75,24.32
			c-8.701,0.758-15.469,6.098-15.469,12.563c0,4.311,2.715,5.768,5.615,6.326c-0.84,2.851-1.728,7.5-1.728,12.77
			c0,7.525,0.927,13.807,2.274,15.34v23.566v14.047h31.662h0.674v-11.564h74.108v11.564h31.665h0.672v-37.549
			c2.694-1.414,3.014-7.773,3.014-15.408c0-5.283-0.385-9.947-1.229-12.795C174.122,94.612,176.536,93.153,176.536,88.896z
			 M54.23,131.885c-7.638,0-18.227-9.201-19.34-29.541c1.748,3.346,5.263,8.176,11.294,9.143c9.321,1.49,13.76,4.15,13.76,15.219
			C59.945,130.525,56.994,131.885,54.23,131.885z M132.028,124.086c0,7.48-1.824,13.725-4.464,13.725h-54.96
			c-2.588,0-6.599-6.23-6.599-13.725v-2.295c0-5.863,2.412-10.656,4.653-12.293c4.042,0.168,8.337,0.168,12.358,0.168
			c2.444,0,5.045-0.018,7.619-0.031c2.693-0.018,5.496-0.033,8.31-0.033c2.799,0,5.581,0.018,8.297,0.033
			c2.627,0.018,5.217,0.031,7.739,0.031c4.522,0,8.951,0,13.646-0.236c1.984,1.51,3.4,6.102,3.4,12.361V124.086L132.028,124.086z
			 M100.484,84.275c-21.947,0-40.704,1.674-48.329,4.043c-1.037-1.585-1.583-3.491-1.583-5.832
			c0-15.781,22.789-29.112,49.765-29.112c26.977,0,49.766,13.33,49.766,29.112c0,2.271-0.605,4.134-1.732,5.695
			C140.472,85.886,122.005,84.275,100.484,84.275z M145.605,131.885c-2.763,0-5.713-1.359-5.713-5.182
			c0-11.066,4.437-13.727,13.761-15.217c6.031-0.967,9.547-5.797,11.295-9.145C163.833,122.684,153.245,131.885,145.605,131.885z"/>
	</g>
	<ellipse fill="#FFFFFF" cx="99.594" cy="109.316" rx="32.313" ry="2.914"/>
</g>
<polygon fill="#FFFFFF" points="100.727,168.288 131.907,168.288 116.317,176.791 100.727,185.296 85.135,176.791 69.545,168.288 
	"/>
</svg>
