<?xml version="1.0" encoding="utf-8"?>
<!-- Generator: Adobe Illustrator 16.0.0, SVG Export Plug-In . SVG Version: 6.00 Build 0)  -->
<!DOCTYPE svg PUBLIC "-//W3C//DTD SVG 1.1//EN" "http://www.w3.org/Graphics/SVG/1.1/DTD/svg11.dtd">
<svg version="1.1" id="Layer_1" xmlns="http://www.w3.org/2000/svg" xmlns:xlink="http://www.w3.org/1999/xlink" x="0px" y="0px"
	 width="200px" height="200px" viewBox="0 0 200 200" enable-background="new 0 0 200 200" xml:space="preserve">
<g>
	<circle fill="#404040" cx="74.913" cy="38.343" r="18.556"/>
	<path fill="#404040" d="M181.608,118.721c-10.121-13.613-19.979-21.743-31.022-25.585c-11.919-4.146-24.532-2.845-37.609,3.838
		l-10.453-14.51c2.321,0.214,4.642,0.346,6.881,0.346c5.079,0,9.747-0.652,13.068-2.417c9.788-5.197,19.728-23.759,22.541-29.324
		c2.135-4.221,0.443-9.371-3.775-11.506c-4.22-2.136-9.372-0.446-11.51,3.773c-4.523,8.934-11.916,20.136-15.22,21.892
		c-3.195,1.354-17.01-0.156-28.974-3.173c-0.357-0.09-0.713-0.148-1.069-0.191c-4.668-1.785-10.099-1.364-14.568,1.627l-0.375,0.251
		c-7.317,4.897-9.278,14.798-4.38,22.114l21.573,29.945c2.559,3.823,6.487,6.168,10.696,6.852c0.76,0.303,1.569,0.517,2.423,0.608
		c38.305,4.131,39.891,20.421,42.519,47.411l0.117,1.207c0.466,4.771,4.485,8.339,9.183,8.339c0.302,0,0.604-0.014,0.911-0.044
		c5.077-0.497,8.79-5.017,8.296-10.095l-0.119-1.197c-2.145-22.024-4.524-46.415-33.317-58.04
		c14.247-4.697,26.316,1.36,39.357,18.901c1.813,2.438,4.598,3.728,7.42,3.728c1.917-0.001,3.85-0.594,5.505-1.825
		C183.802,128.604,184.654,122.815,181.608,118.721z"/>
	<path fill="#404040" d="M86.825,128.553c-2.761,0.549-4.959,2.293-6.942,5.488c-1.726-3.024-3.588-5.132-5.754-6.567
		c-4.473-2.993-9.125-2.571-13.748-0.635c0.033-5.01-1.36-9.483-5.83-12.475c-2.159-1.434-4.815-2.355-8.271-2.809
		c2.193-3.051,2.919-5.74,2.431-8.518c-0.604-3.486-3.125-6.564-7.686-9.505c3.525-1.345,6.213-3.33,7.151-6.482
		c0.979-3.307,0.54-5.901-1.773-9.698c4.396,0.687,9.167,1.503,11.794-0.632c0.01-0.004,0.011-0.004,0.012-0.008
		c-3.269-3.716-5.115-5.142-7.865-6.799c-1.705,0.318-5.634-0.571-12.836-2.902L25.441,62.9l7.969,9.36
		c6.388,7.523,7.241,10.499,6.871,11.735c-0.357,1.212-2.647,2.915-11.461,4.317l-12.254,1.92l12.389,5.285
		c3.851,1.644,6.691,3.091,8.687,4.415c1.258,0.852,2.798,2.076,2.98,3.115c0.228,1.271-0.771,3.892-6.801,9.155l-8.643,7.545
		l12.612-0.733c6.569-0.37,10.874,0.083,12.754,1.333c1.924,1.298,2.139,5.636,0.631,12.912l-2.182,10.598l8.965-6.063
		c6.149-4.16,10.246-5.622,12.167-4.336c1.894,1.257,3.93,5.055,6.099,11.285l4.135,11.924l3.676-10.86
		c2.564-7.574,4.62-9.506,5.883-9.781c1.02-0.222,2.747,0.73,4.011,1.578c1.982,1.336,4.409,3.406,7.403,6.342l9.613,9.446
		l-2.863-12.059C107.472,138.802,99.369,126.005,86.825,128.553z"/>
</g>
</svg>
