<?xml version="1.0" encoding="utf-8"?>
<!-- Generator: Adobe Illustrator 16.0.0, SVG Export Plug-In . SVG Version: 6.00 Build 0)  -->
<!DOCTYPE svg PUBLIC "-//W3C//DTD SVG 1.1//EN" "http://www.w3.org/Graphics/SVG/1.1/DTD/svg11.dtd">
<svg version="1.1" id="Layer_1" xmlns="http://www.w3.org/2000/svg" xmlns:xlink="http://www.w3.org/1999/xlink" x="0px" y="0px"
	 width="200px" height="200px" viewBox="0 0 200 200" enable-background="new 0 0 200 200" xml:space="preserve">
<g>
	<g>
		<path fill="#404040" d="M180.886,147.191L116.626,35.89c-9.145-15.838-24.108-15.838-33.251,0l-64.26,111.302
			c-9.145,15.839-1.662,28.797,16.625,28.797h128.519C182.548,175.988,190.029,163.03,180.886,147.191z M143.486,158.463H56.512
			c-12.375,0-17.439-8.771-11.25-19.489l43.486-75.321c6.19-10.72,16.314-10.72,22.504,0l43.487,75.321
			C160.927,149.692,155.863,158.463,143.486,158.463z"/>
	</g>
	<g>
		<path fill="#404040" d="M108.654,119.245c0,4.779-3.875,8.652-8.653,8.652l0,0c-4.78,0-8.654-3.873-8.654-8.652V86.179
			c0-4.777,3.874-8.652,8.654-8.652l0,0c4.778,0,8.653,3.875,8.653,8.652V119.245z"/>
		<circle fill="#404040" cx="99.804" cy="141.871" r="8.062"/>
	</g>
</g>
</svg>
