<?xml version="1.0" encoding="utf-8"?>
<!-- Generator: Adobe Illustrator 16.0.0, SVG Export Plug-In . SVG Version: 6.00 Build 0)  -->
<!DOCTYPE svg PUBLIC "-//W3C//DTD SVG 1.1//EN" "http://www.w3.org/Graphics/SVG/1.1/DTD/svg11.dtd">
<svg version="1.1" id="Layer_1" xmlns="http://www.w3.org/2000/svg" xmlns:xlink="http://www.w3.org/1999/xlink" x="0px" y="0px"
	 width="200px" height="200px" viewBox="0 0 200 200" enable-background="new 0 0 200 200" xml:space="preserve">
<circle fill="#999999" cx="100.115" cy="100" r="94.5"/>
<g>
	<path fill="#999999" d="M144.768,85.167c0-13.022-20.486-24.022-44.737-24.022c-24.25,0-44.736,11-44.736,24.022
		c0,1.932,0.491,3.504,1.424,4.812c6.855-1.955,23.716-3.337,43.446-3.337c19.346,0,35.946,1.329,43.046,3.223
		C144.223,88.579,144.768,87.041,144.768,85.167z"/>
	<path fill="#999999" d="M125.468,107.398c-4.217,0.195-8.346,0.196-12.413,0.196c-2.267,0-4.51-0.014-6.873-0.027
		c-2.438-0.015-4.885-0.028-7.399-0.028c-2.53,0-4.993,0.014-7.414,0.028c-2.316,0.014-4.568,0.027-6.765,0.027
		c-3.616,0-7.622,0-11.256-0.139c-2.015,1.349-4.178,5.308-4.178,10.142v1.894c0,6.184,3.607,11.325,5.932,11.325h49.408
		c2.373,0,4.012-5.152,4.012-11.325v-1.894C128.521,112.435,127.251,108.643,125.468,107.398z"/>
	<path fill="#FFFFFF" d="M168.531,90.454c0-5.415-5.709-9.737-13.301-10.362c-2.116-7.632-7.596-14.592-15.956-20.071
		c-10.523-6.895-24.457-10.692-39.243-10.692c-14.786,0-28.721,3.797-39.242,10.692c-8.361,5.479-13.837,12.438-15.956,20.068
		c-7.822,0.625-13.906,5.031-13.906,10.366c0,3.557,2.44,4.76,5.048,5.221c-0.755,2.352-1.552,6.188-1.552,10.535
		c0,6.21,0.833,11.393,2.044,12.659v19.446v11.589h28.462h0.606v-9.544h66.62v9.544h28.465h0.604v-30.983
		c2.423-1.167,2.709-6.413,2.709-12.713c0-4.36-0.346-8.207-1.104-10.558C166.362,95.172,168.531,93.969,168.531,90.454z
		 M58.585,125.928c-6.866,0-16.385-7.592-17.386-24.376c1.571,2.761,4.731,6.746,10.153,7.543c8.38,1.23,12.37,3.425,12.37,12.557
		C63.722,124.804,61.069,125.928,58.585,125.928z M128.521,119.491c0,6.173-1.639,11.325-4.012,11.325H75.102
		c-2.326,0-5.932-5.142-5.932-11.325v-1.894c0-4.836,2.168-8.793,4.183-10.142c3.634,0.139,7.494,0.139,11.11,0.139
		c2.197,0,4.535-0.014,6.849-0.027c2.421-0.015,4.94-0.028,7.47-0.028c2.515,0,5.018,0.014,7.458,0.028
		c2.361,0.014,4.69,0.027,6.958,0.027c4.066,0,8.047-0.001,12.266-0.196c1.784,1.244,3.058,5.033,3.058,10.199L128.521,119.491
		L128.521,119.491z M100.165,86.642c-19.73,0-36.591,1.382-43.445,3.337c-0.933-1.308-1.423-2.881-1.423-4.812
		c0-13.022,20.486-24.022,44.735-24.022c24.251,0,44.737,11,44.737,24.022c0,1.874-0.544,3.411-1.557,4.698
		C136.111,87.971,119.511,86.642,100.165,86.642z M140.727,125.928c-2.484,0-5.136-1.124-5.136-4.276
		c0-9.132,3.988-11.326,12.37-12.557c5.423-0.797,8.582-4.782,10.154-7.543C157.111,118.336,147.594,125.928,140.727,125.928z"/>
</g>
<ellipse fill="#FFFFFF" cx="99.608" cy="104.818" rx="23.687" ry="1.817"/>
</svg>
