<?xml version="1.0" encoding="utf-8"?>
<!-- Generator: Adobe Illustrator 16.0.0, SVG Export Plug-In . SVG Version: 6.00 Build 0)  -->
<!DOCTYPE svg PUBLIC "-//W3C//DTD SVG 1.1//EN" "http://www.w3.org/Graphics/SVG/1.1/DTD/svg11.dtd">
<svg version="1.1" id="Layer_1" xmlns="http://www.w3.org/2000/svg" xmlns:xlink="http://www.w3.org/1999/xlink" x="0px" y="0px"
	 width="200px" height="200px" viewBox="0 0 200 200" enable-background="new 0 0 200 200" xml:space="preserve">
<g>
	<path fill="#404040" d="M159.444,70.888c0-32.849-26.619-59.481-59.463-59.506l0,0c-0.001,0-0.002,0-0.004,0
		c-0.001,0-0.003,0-0.005,0l0,0c-32.843,0.024-59.46,26.657-59.46,59.506c0,10.372,2.655,20.124,7.321,28.614h-0.069l52.209,90.43
		v0.017l0.005-0.009l0.004,0.009v-0.017l52.209-90.43h-0.069C156.786,91.012,159.444,81.26,159.444,70.888z M99.977,110.852
		c-22.231,0-40.255-18.022-40.255-40.255c0-22.231,18.023-40.254,40.255-40.254c22.233,0,40.254,18.023,40.254,40.254
		C140.231,92.829,122.21,110.852,99.977,110.852z"/>
</g>
</svg>
