<?xml version="1.0" encoding="utf-8"?>
<!-- Generator: Adobe Illustrator 16.0.0, SVG Export Plug-In . SVG Version: 6.00 Build 0)  -->
<!DOCTYPE svg PUBLIC "-//W3C//DTD SVG 1.1//EN" "http://www.w3.org/Graphics/SVG/1.1/DTD/svg11.dtd">
<svg version="1.1" id="Layer_1" xmlns="http://www.w3.org/2000/svg" xmlns:xlink="http://www.w3.org/1999/xlink" x="0px" y="0px"
	 width="200px" height="200px" viewBox="0 0 200 200" enable-background="new 0 0 200 200" xml:space="preserve">
<g>
	<path fill="#404040" d="M87.91,15.473c-9.953,0-18.113,8.16-18.113,18.112l0.044,71.44c0.002,3.1-1.787,3.839-3.976,1.645
		L52.438,93.208c-7.028-7.028-18.631-6.981-25.66,0c-7.028,7.029-6.981,18.632,0,25.66l43.396,43.347
		c14.293,14.295,33.725,22.36,53.963,22.312c29.951,0,54.339-24.387,54.339-54.337V93.963c0-9.953-8.159-18.114-18.112-18.114
		c-2.358,0-4.672,0.473-6.745,1.321c-2.123-7.641-9.104-13.396-17.407-13.396c-4.621,0-8.867,1.84-12.074,4.717
		c-3.209-2.877-7.453-4.717-12.076-4.717c-2.123,0-4.152,0.472-6.038,1.132V33.585C106.022,23.633,97.863,15.473,87.91,15.473z
		 M87.91,27.548c3.396,0,6.037,2.642,6.037,6.038v60.779c0,3.1,2.536,5.635,5.635,5.635h0.805c3.1,0,5.635-2.536,5.635-5.635V81.887
		c0-3.396,2.643-6.038,6.038-6.038c3.396,0,6.037,2.642,6.037,6.038v12.478c0,3.1,2.536,5.635,5.636,5.635h0.806
		c3.1,0,5.635-2.536,5.635-5.635V81.887c0-3.396,2.641-6.038,6.037-6.038c3.397,0,6.038,2.642,6.038,6.038v12.478
		c0,3.1,2.536,5.635,5.636,5.635h0.806c3.099,0,5.635-2.536,5.635-5.635v-0.402c0-3.396,2.642-6.038,6.038-6.038
		c3.395,0,6.037,2.641,6.037,6.038v36.227c0,23.443-18.821,42.264-42.264,42.264c-17.029,0.047-33.396-6.747-45.472-18.82
		l-43.302-43.349c-2.453-2.406-2.453-6.133,0-8.492c2.406-2.451,6.132-2.451,8.491,0l34.079,34.037
		c2.193,2.19,3.986,1.446,3.984-1.652L81.872,33.585C81.872,30.189,84.513,27.548,87.91,27.548z"/>
</g>
</svg>
