<?xml version="1.0" encoding="utf-8"?>
<!-- Generator: Adobe Illustrator 16.0.0, SVG Export Plug-In . SVG Version: 6.00 Build 0)  -->
<!DOCTYPE svg PUBLIC "-//W3C//DTD SVG 1.1//EN" "http://www.w3.org/Graphics/SVG/1.1/DTD/svg11.dtd">
<svg version="1.1" id="Layer_1" xmlns="http://www.w3.org/2000/svg" xmlns:xlink="http://www.w3.org/1999/xlink" x="0px" y="0px"
	 width="200px" height="200px" viewBox="0 0 200 200" enable-background="new 0 0 200 200" xml:space="preserve">
<g>
	<path fill="#404040" d="M182.525,119.153c-10.19-13.706-20.113-21.89-31.232-25.758c-11.999-4.174-24.697-2.864-37.862,3.864
		l-10.524-14.608c2.338,0.216,4.674,0.349,6.929,0.349c5.112,0,9.811-0.656,13.155-2.433c9.854-5.232,19.86-23.919,22.693-29.521
		c2.148-4.25,0.446-9.434-3.802-11.584c-4.248-2.149-9.435-0.448-11.586,3.799c-4.556,8.994-11.998,20.271-15.322,22.039
		c-3.218,1.363-17.126-0.158-29.171-3.195c-0.359-0.09-0.718-0.149-1.076-0.193c-4.7-1.796-10.167-1.373-14.667,1.639l-0.377,0.253
		c-7.366,4.931-9.34,14.898-4.41,22.263l21.719,30.147c2.577,3.851,6.533,6.211,10.772,6.898c0.765,0.304,1.578,0.519,2.436,0.611
		c38.563,4.157,40.16,20.56,42.807,47.731l0.117,1.214c0.469,4.804,4.516,8.396,9.245,8.396c0.304,0,0.609-0.015,0.917-0.046
		c5.111-0.5,8.851-5.049,8.351-10.16l-0.118-1.207c-2.158-22.173-4.556-46.728-33.541-58.431c14.343-4.728,26.493,1.37,39.621,19.03
		c1.825,2.453,4.629,3.752,7.471,3.752c1.929-0.001,3.875-0.599,5.542-1.839C184.732,129.104,185.591,123.275,182.525,119.153z"/>
	<path fill="#404040" d="M87.102,129.052c-2.78,0.552-4.993,2.308-6.99,5.524c-1.737-3.044-3.612-5.165-5.793-6.611
		c-4.502-3.014-9.186-2.59-13.841-0.639c0.034-5.044-1.369-9.547-5.869-12.559c-2.173-1.442-4.847-2.372-8.327-2.827
		c2.208-3.073,2.938-5.78,2.447-8.575c-0.607-3.51-3.146-6.609-7.738-9.569c3.549-1.354,6.255-3.352,7.2-6.525
		c0.985-3.33,0.543-5.94-1.785-9.764c4.426,0.691,9.229,1.514,11.874-0.637c0.009-0.004,0.011-0.004,0.012-0.008
		c-3.291-3.742-5.148-5.176-7.918-6.844c-1.716,0.32-5.672-0.576-12.922-2.922l-12.147-4.139l8.023,9.424
		c6.431,7.574,7.29,10.569,6.917,11.813c-0.359,1.221-2.665,2.936-11.537,4.347l-12.337,1.933l12.473,5.32
		c3.876,1.655,6.736,3.112,8.745,4.444c1.267,0.858,2.818,2.089,3,3.136c0.229,1.278-0.776,3.917-6.847,9.216l-8.701,7.597
		l12.697-0.738c6.614-0.372,10.948,0.083,12.84,1.343c1.937,1.306,2.153,5.674,0.634,12.998l-2.197,10.67l9.026-6.104
		c6.19-4.188,10.315-5.659,12.249-4.366c1.906,1.266,3.957,5.09,6.14,11.362l4.163,12.004l3.7-10.934
		c2.582-7.626,4.652-9.57,5.923-9.848c1.026-0.222,2.766,0.734,4.038,1.589c1.995,1.345,4.439,3.43,7.454,6.386l9.679,9.51
		l-2.884-12.141C107.889,139.37,99.73,126.486,87.102,129.052z"/>
	<path fill="#404040" d="M50.164,45.924l41.649-8.917l-0.96-4.481l-1.331,0.282c-2.515-9.492-9.994-15.386-16.323-16.846
		l0.546,2.501c0.159,0.717-0.486,1.466-1.199,1.617c-0.717,0.155-1.614-0.27-1.772-0.984l-0.721-3.286
		c-1.524,0.134-1.552,0.037-3.052,0.292l1.081,4.934c0.158,0.725-0.488,1.475-1.199,1.625c-0.715,0.153-1.618-0.264-1.775-0.986
		l-1.078-4.938c-1.479,0.384-1.454,0.487-2.898,0.984l0.715,3.284c0.157,0.724-0.487,1.47-1.203,1.62
		c-0.714,0.154-1.612-0.26-1.771-0.987l-0.544-2.489c-5.141,3.919-9.426,12.357-7.773,22.004l-1.351,0.288L50.164,45.924z"/>
	<path fill="#404040" d="M74.734,58.654c8.516-1.826,14.112-10.01,13.538-19.308l-33.935,7.262
		C57.7,55.311,66.221,60.474,74.734,58.654z"/>
</g>
</svg>
