<?xml version="1.0" encoding="utf-8"?>
<!-- Generator: Adobe Illustrator 16.0.0, SVG Export Plug-In . SVG Version: 6.00 Build 0)  -->
<!DOCTYPE svg PUBLIC "-//W3C//DTD SVG 1.1//EN" "http://www.w3.org/Graphics/SVG/1.1/DTD/svg11.dtd">
<svg version="1.1" id="Layer_1" xmlns="http://www.w3.org/2000/svg" xmlns:xlink="http://www.w3.org/1999/xlink" x="0px" y="0px"
	 width="200px" height="200px" viewBox="0 0 200 200" enable-background="new 0 0 200 200" xml:space="preserve">
<g>
	<path fill="#404040" d="M89.964,109.078c0-5.238-1.89-7.857-5.669-7.857c-3.995,0-5.992,2.714-5.992,8.145
		c0,5.167,1.938,7.75,5.813,7.75C88.015,117.115,89.964,114.437,89.964,109.078z"/>
	<path fill="#404040" d="M116.695,128.131c-3.973,0-5.957,2.704-5.957,8.109c0,5.166,1.938,7.75,5.813,7.75
		c3.877,0,5.813-2.68,5.813-8.038c0-2.535-0.51-4.472-1.523-5.813C119.821,128.8,118.44,128.131,116.695,128.131z"/>
	<path fill="#404040" d="M150.271,102h0.065L100,14.372L49.664,102h0.066c-4.497,7-7.059,17.109-7.059,27.111
		c0,31.666,25.662,56.889,57.325,56.889c0.001,0,0.002,0,0.004,0s0.003,0,0.006,0c31.663,0,57.322-25.223,57.322-56.889
		C157.328,119.109,154.769,109,150.271,102z M71.307,109.725c0-4.306,1.189-7.755,3.569-10.352c2.38-2.595,5.603-3.893,9.67-3.893
		c3.875,0,6.889,1.179,9.042,3.533c2.153,2.356,3.229,5.617,3.229,9.779c0,4.257-1.202,7.672-3.606,10.243
		c-2.404,2.57-5.591,3.857-9.562,3.857c-3.685,0-6.663-1.202-8.934-3.606C72.443,116.883,71.307,113.694,71.307,109.725z
		 M87.022,149h-7.858l34.159-53h7.964L87.022,149z M125.666,145.892c-2.394,2.605-5.563,3.91-9.51,3.91
		c-3.686,0-6.662-1.202-8.934-3.605c-2.273-2.403-3.409-5.604-3.409-9.598c0-4.305,1.19-7.763,3.57-10.369
		c2.379-2.607,5.58-3.911,9.6-3.911c3.921,0,6.947,1.161,9.077,3.48c2.128,2.318,3.192,5.609,3.192,9.866
		C129.253,139.877,128.057,143.284,125.666,145.892z"/>
</g>
</svg>
