<?xml version="1.0" encoding="utf-8"?>
<!-- Generator: Adobe Illustrator 16.0.0, SVG Export Plug-In . SVG Version: 6.00 Build 0)  -->
<!DOCTYPE svg PUBLIC "-//W3C//DTD SVG 1.1//EN" "http://www.w3.org/Graphics/SVG/1.1/DTD/svg11.dtd">
<svg version="1.1" id="Layer_1" xmlns="http://www.w3.org/2000/svg" xmlns:xlink="http://www.w3.org/1999/xlink" x="0px" y="0px"
	 width="200px" height="200px" viewBox="0 0 200 200" enable-background="new 0 0 200 200" xml:space="preserve">
<g>
	<path fill="#3C3C3C" d="M166.759,38H134V25.636C134,19.796,129.191,15,122.756,15H78.401C71.965,15,67,19.796,67,25.636V38H33.27
		C30.562,38,28,39.561,28,42.018v14.652C28,59.126,30.562,61,33.27,61h5.318c0.002,0-0.012,0.71,0.008,1.037l6.688,107.662
		C45.82,178.336,53.448,185,62.65,185h75.854c9.192,0,16.822-6.593,17.369-15.222l6.688-107.752
		c0.021-0.324,0.005-1.026,0.009-1.026h4.189c2.708,0,5.241-1.874,5.241-4.331V42.018C172,39.561,169.467,38,166.759,38z M80,27h41
		v11H80V27z M149.042,61.274l-6.688,107.841c-0.133,2.106-1.854,3.885-3.851,3.885H62.65c-1.995,0-3.717-1.676-3.848-3.781
		L52.114,61.262C52.112,61.217,52.119,61,52.117,61h96.921C149.035,61,149.046,61.2,149.042,61.274z"/>
	<path fill="#3C3C3C" d="M72.5,157.356c3.115,0,5.5-2.291,5.5-5.119V81.594c0-2.827-2.385-5.119-5.5-5.119S67,78.767,67,81.594
		v70.644C67,155.065,69.385,157.356,72.5,157.356z"/>
	<path fill="#3C3C3C" d="M100.5,157.356c3.117,0,6.5-2.291,6.5-5.119V81.594c0-2.827-3.383-5.119-6.5-5.119
		c-3.115,0-6.5,2.292-6.5,5.119v70.644C94,155.065,97.385,157.356,100.5,157.356z"/>
	<path fill="#3C3C3C" d="M128.5,157.356c3.115,0,5.5-2.291,5.5-5.119V81.594c0-2.827-2.385-5.119-5.5-5.119s-5.5,2.292-5.5,5.119
		v70.644C123,155.065,125.385,157.356,128.5,157.356z"/>
</g>
</svg>
