<?xml version="1.0" encoding="utf-8"?>
<!-- Generator: Adobe Illustrator 16.0.0, SVG Export Plug-In . SVG Version: 6.00 Build 0)  -->
<!DOCTYPE svg PUBLIC "-//W3C//DTD SVG 1.1//EN" "http://www.w3.org/Graphics/SVG/1.1/DTD/svg11.dtd">
<svg version="1.1" id="Layer_1" xmlns="http://www.w3.org/2000/svg" xmlns:xlink="http://www.w3.org/1999/xlink" x="0px" y="0px"
	 width="200px" height="200px" viewBox="0 0 200 200" enable-background="new 0 0 200 200" xml:space="preserve">
<g id="Layer_18_2_">
	<path fill="#404040" d="M90.425,20.894H59.15c-2.698,0-5.051,2-5.261,4.486l-7.061,83.388c-0.282,3.34,2.054,15.021,5.217,15.021
		h4.718l-29.051,58.158h21.259l3.154-8.947h95.739l3.154,8.947h21.268l-29.051-58.158h4.723c3.16,0,5.498-11.681,5.213-15.021
		l-7.057-83.388c-0.211-2.486-2.566-4.486-5.262-4.486h-28.061 M138.402,146.157H61.592l3.154-8.947h70.504L138.402,146.157z
		 M146.109,110.368c0,2.47-2.002,4.473-4.473,4.473h-13.422c-2.471,0-4.473-2.003-4.473-4.473v-4.475
		c0-2.474,2.002-4.473,4.473-4.473h13.422c2.471,0,4.473,1.999,4.473,4.473V110.368z M100.236,18.054c3.305,0,5.99,2.682,5.99,5.99
		c0,3.305-2.686,5.988-5.99,5.988c-3.306,0-5.99-2.684-5.99-5.988C94.247,20.735,96.93,18.054,100.236,18.054z M57.288,47.534
		c0.158-2.367,2.179-4.272,4.518-4.272h76.378c2.352,0,4.375,1.905,4.527,4.272l1.727,26.834c0.164,2.582-1.701,4.683-4.174,4.683
		H59.736c-2.47,0-4.339-2.101-4.175-4.683L57.288,47.534z M79.005,110.368c0,2.47-2.006,4.473-4.475,4.473H61.11
		c-2.468,0-4.475-2.003-4.475-4.473v-4.475c0-2.474,2.006-4.473,4.475-4.473h13.42c2.469,0,4.475,1.999,4.475,4.473V110.368z
		 M130.521,123.788l3.154,8.949h-67.35l3.159-8.949H130.521z M56.859,159.577l3.158-8.947h79.968l3.156,8.947H56.859z"/>
</g>
</svg>
