<?xml version="1.0" encoding="utf-8"?>
<!-- Generator: Adobe Illustrator 16.0.0, SVG Export Plug-In . SVG Version: 6.00 Build 0)  -->
<!DOCTYPE svg PUBLIC "-//W3C//DTD SVG 1.1//EN" "http://www.w3.org/Graphics/SVG/1.1/DTD/svg11.dtd">
<svg version="1.1" id="Layer_1" xmlns="http://www.w3.org/2000/svg" xmlns:xlink="http://www.w3.org/1999/xlink" x="0px" y="0px"
	 width="200px" height="200px" viewBox="0 0 200 200" enable-background="new 0 0 200 200" xml:space="preserve">
<g id="확대">
	<polygon fill="#404040" points="167.387,15 128,15 128,32 168,32 168,74 185,74 185,33.247 185,15 	"/>
	<polygon fill="#404040" points="15,15 15,33.247 15,74 32,74 32,32 72,32 72,15 32.602,15 	"/>
	<polygon fill="#404040" points="168,166 128,166 128,185 167.387,185 185,185 185,166.034 185,127 168,127 	"/>
	<polygon fill="#404040" points="32,127 15,127 15,166.034 15,185 32.602,185 72,185 72,166 32,166 	"/>
</g>
</svg>
