<?xml version="1.0" encoding="utf-8"?>
<!-- Generator: Adobe Illustrator 16.0.0, SVG Export Plug-In . SVG Version: 6.00 Build 0)  -->
<!DOCTYPE svg PUBLIC "-//W3C//DTD SVG 1.1//EN" "http://www.w3.org/Graphics/SVG/1.1/DTD/svg11.dtd">
<svg version="1.1" id="Layer_1" xmlns="http://www.w3.org/2000/svg" xmlns:xlink="http://www.w3.org/1999/xlink" x="0px" y="0px"
	 width="200px" height="200px" viewBox="0 0 200 200" enable-background="new 0 0 200 200" xml:space="preserve">
<path fill="#404040" d="M175.962,52.525l-6.031-0.626c-4.88-0.505-9.251,3.05-9.756,7.929l-0.221,2.129l-11.908-1.23l0.902-8.681
	c0.505-4.879-3.05-9.254-7.935-9.759L46.923,32.54c-4.885-0.505-9.254,3.044-9.76,7.923L31.698,93.2
	c-0.506,4.877,3.047,9.247,7.926,9.757l37.956,3.931l-9.382,22.154H35.461v-10.266c0-4.909-3.986-8.892-8.896-8.892H16.057v57.624
	h10.508c4.91,0,8.896-3.982,8.896-8.891v-10.271h45.374v-0.062l0.152,0.062l16.681-39.373l36.054,3.73
	c4.883,0.509,9.256-3.043,9.763-7.923l0.896-8.683l11.906,1.232l-0.223,2.131c-0.501,4.879,3.05,9.249,7.929,9.757l6.031,0.623
	c4.886,0.501,9.257-3.047,9.76-7.924l4.111-39.635C184.399,57.404,180.847,53.029,175.962,52.525z M71.178,60.216
	c-1.534,6.407-7.966,10.359-14.375,8.826c-6.407-1.541-10.351-7.969-8.817-14.373c1.534-6.411,7.967-10.355,14.374-8.825
	C68.767,47.379,72.714,53.812,71.178,60.216z"/>
</svg>
