<?xml version="1.0" encoding="utf-8"?>
<!-- Generator: Adobe Illustrator 16.0.0, SVG Export Plug-In . SVG Version: 6.00 Build 0)  -->
<!DOCTYPE svg PUBLIC "-//W3C//DTD SVG 1.1//EN" "http://www.w3.org/Graphics/SVG/1.1/DTD/svg11.dtd">
<svg version="1.1" id="Layer_1" xmlns="http://www.w3.org/2000/svg" xmlns:xlink="http://www.w3.org/1999/xlink" x="0px" y="0px"
	 width="200px" height="200px" viewBox="0 0 200 200" enable-background="new 0 0 200 200" xml:space="preserve">
<g>
	<path fill="#404040" d="M124,101.521V38.504c0-13.206-10.794-23.95-23.998-23.95C86.795,14.554,76,25.298,76,38.504V49h15V38.504
		c0-4.935,4.066-8.95,9.002-8.95c4.934,0,8.998,4.015,8.998,8.95v72.141l4.214,2.047c10.441,5.042,17.176,15.788,17.176,27.376
		c0,16.751-13.632,30.379-30.381,30.379c-16.751,0-30.382-13.628-30.382-30.379c0-11.587,6.721-22.333,17.163-27.376L91,110.645V91
		H76v10.521c-13,8.214-21.402,22.863-21.402,38.546c0,25.022,20.37,45.379,45.392,45.379c25.02,0,45.406-20.356,45.406-45.379
		C145.396,124.384,137,109.734,124,101.521z"/>
	<rect x="76" y="75" fill="#404040" width="15" height="7"/>
	<rect x="76" y="58" fill="#404040" width="15" height="7"/>
	<path fill="#404040" d="M111.602,135.622c2.213,0,4.193,0.507,5.941,1.521v-4.856c-1.678-0.664-3.764-0.996-6.256-0.996
		c-3.959,0-7.203,1.29-9.729,3.869c-2.528,2.58-3.792,5.896-3.792,9.949c0,3.866,1.132,6.961,3.397,9.284
		c2.266,2.324,5.303,3.485,9.111,3.485c2.98,0,5.402-0.472,7.268-1.415v-4.595c-1.887,1.118-4.002,1.678-6.342,1.678
		c-2.48,0-4.467-0.798-5.957-2.394c-1.492-1.596-2.236-3.727-2.236-6.394c0-2.714,0.783-4.915,2.35-6.604
		S109.006,135.622,111.602,135.622z"/>
	<path fill="#404040" d="M80.328,136.266c0,4.047,3.292,7.339,7.338,7.339s7.338-3.292,7.338-7.339c0-4.046-3.292-7.338-7.338-7.338
		S80.328,132.22,80.328,136.266z M91.661,136.266c0,2.203-1.792,3.995-3.995,3.995s-3.995-1.792-3.995-3.995
		c0-2.202,1.792-3.994,3.995-3.994S91.661,134.063,91.661,136.266z"/>
</g>
</svg>
