<?xml version="1.0" encoding="utf-8"?>
<!-- Generator: Adobe Illustrator 16.0.0, SVG Export Plug-In . SVG Version: 6.00 Build 0)  -->
<!DOCTYPE svg PUBLIC "-//W3C//DTD SVG 1.1//EN" "http://www.w3.org/Graphics/SVG/1.1/DTD/svg11.dtd">
<svg version="1.1" id="Layer_1" xmlns="http://www.w3.org/2000/svg" xmlns:xlink="http://www.w3.org/1999/xlink" x="0px" y="0px"
	 width="130.143px" height="37px" viewBox="0 0 130.143 37" enable-background="new 0 0 130.143 37" xml:space="preserve">
<g>
	<path fill="#f5f5f5" d="M41.234,13.233c-1.327,0-2.336,1.002-2.346,2.354v13.357h4.663V15.565l-0.002-0.262h-0.016
		C43.41,14.086,42.479,13.233,41.234,13.233z"/>
	<circle fill="#f5f5f5" cx="41.219" cy="7.316" r="3.792"/>
	<path fill="#f5f5f5" d="M107.465,22.682c-1.189,1.33-2.904,2.178-4.826,2.178c-2.834,0-5.247-1.824-6.146-4.352h8.38h3.912h4.24
		c0.146-0.703,0.227-1.432,0.227-2.18c0-0.742-0.08-1.471-0.227-2.172c-1.008-4.813-5.279-8.439-10.387-8.439
		c-5.853,0-10.613,4.764-10.613,10.611c0,5.855,4.76,10.615,10.613,10.615c4.301,0,8.004-2.574,9.666-6.262H107.465z
		 M102.639,11.803c2.836,0,5.248,1.82,6.146,4.354H96.493C97.393,13.624,99.805,11.803,102.639,11.803z"/>
	<path fill="#f5f5f5" d="M128.215,8.37c-2.6,0-5.059,0.887-7.053,2.518V8.37h-4.109v20.574h4.109l0.023-9.416
		c0-3.875,3.154-7.027,7.029-7.027h0.529V8.372h-0.529V8.37z"/>
	<polygon fill="#f5f5f5" points="77.625,22.247 84.108,28.731 90.705,28.731 80.734,18.76 90.705,8.79 84.108,8.79 77.625,15.272 
		77.625,0.596 72.961,0.596 72.961,28.944 77.625,28.944 	"/>
	<path fill="#f5f5f5" d="M33.107,28.938v0.006h1.632V24.28h-1.632v0.008c-1.705,0-3.092-1.387-3.092-3.092h0.006V4.641l-4.663-4
		v9.592v10.963h0.007C25.365,25.465,28.839,28.938,33.107,28.938z"/>
	<path fill="#f5f5f5" d="M5.663,28.92h6.849c4.548,0,8.247-3.699,8.247-8.246c0-2.311-0.958-4.398-2.493-5.896
		c1.535-1.5,2.493-3.588,2.493-5.898c0-4.547-3.699-8.246-8.247-8.246H5.708C5.709,0.622,5.709,0.608,5.71,0.596H1.033
		c-0.012,0.285-0.026,0.57-0.026,0.861H1v18.201v9.285h4.663V28.92z M16.06,20.674c0,1.955-1.592,3.547-3.548,3.547H5.663v-7.094
		h6.849C14.468,17.127,16.06,18.719,16.06,20.674z M16.06,8.879c0,1.957-1.592,3.549-3.548,3.549H5.663V5.334h6.849
		C14.468,5.334,16.06,6.924,16.06,8.879z"/>
	<path fill="#f5f5f5" d="M68.681,28.651V17.872c0-5.676-4.618-10.295-10.295-10.295c-2.079,0-4.012,0.625-5.632,1.688V7.463h-4.663
		v10.408v10.779v0.293h4.663V17.622c0.133-2.996,2.604-5.395,5.632-5.395c3.112,0,5.645,2.533,5.645,5.645v10.779H68.681z"/>
</g>
</svg>
