<?xml version="1.0" encoding="utf-8"?>
<!-- Generator: Adobe Illustrator 16.0.0, SVG Export Plug-In . SVG Version: 6.00 Build 0)  -->
<!DOCTYPE svg PUBLIC "-//W3C//DTD SVG 1.1//EN" "http://www.w3.org/Graphics/SVG/1.1/DTD/svg11.dtd">
<svg version="1.1" id="Layer_1" xmlns="http://www.w3.org/2000/svg" xmlns:xlink="http://www.w3.org/1999/xlink" x="0px" y="0px"
	 width="300px" height="40px" viewBox="0 0 300 40" enable-background="new 0 0 300 40" xml:space="preserve">
<g>
	<g>
		<circle fill="#3C3C3C" cx="268.929" cy="33.208" r="5.792"/>
		<g>
			<path fill="#3C3C3C" d="M263.97,12.987h-0.833l0.003,5.803h0.83c10.688,0,19.382,8.692,19.382,19.377V39h4.973l0.825-0.006
				v-0.828C289.149,24.283,277.854,12.987,263.97,12.987z"/>
			<path fill="#3C3C3C" d="M263.944,2.139h-0.808l0.003,5.549h0.807c16.82,0,30.504,13.686,30.504,30.51V39h4.748L300,38.988v-0.797
				C300,18.31,283.825,2.139,263.944,2.139z"/>
		</g>
	</g>
	<polygon fill="#3C3C3C" points="192.104,29.115 185.452,11.339 179.324,11.339 189.818,39 194.388,39 204.88,11.339 
		198.785,11.339 	"/>
	<path fill="#3C3C3C" d="M219.152,11.339c-7.63,0-13.834,6.207-13.834,13.829c0,7.631,6.204,13.832,13.834,13.832
		c5.604,0,10.429-3.352,12.596-8.158h-6.309c-1.551,1.73-3.783,2.836-6.287,2.836c-3.695,0-6.838-2.375-8.011-5.67h10.92h5.1h5.525
		c0.191-0.918,0.294-1.867,0.294-2.84c0-0.969-0.103-1.918-0.294-2.833C231.374,16.065,225.808,11.339,219.152,11.339z
		 M211.142,22.335c1.173-3.299,4.315-5.672,8.011-5.672c3.692,0,6.838,2.373,8.009,5.672H211.142z"/>
	<path fill="#3C3C3C" d="M252.937,11.34v-0.001c-3.494,0-6.802,1.192-9.479,3.385v-3.385h-5.525V39h5.525l0.028-12.658
		c0-5.213,4.243-9.449,9.451-9.449h0.713V11.34H252.937z"/>
	<path fill="#3C3C3C" d="M164.305,11.339c-7.625,0-13.829,6.202-13.829,13.829S156.68,39,164.305,39
		c3.176,0,6.097-1.086,8.435-2.895L178.135,39V24.447h-0.038C177.721,17.158,171.688,11.339,164.305,11.339z M164.305,33.602
		c-4.65,0-8.432-3.785-8.432-8.434c0-4.65,3.784-8.434,8.432-8.434c4.65,0,8.435,3.784,8.435,8.434
		C172.739,29.816,168.955,33.602,164.305,33.602z"/>
	<path fill="#3C3C3C" d="M141.922,21.629c-0.713-0.715-1.563-1.326-2.525-1.813c-0.864-0.439-1.795-0.817-2.773-1.125
		c-0.904-0.282-1.853-0.535-2.827-0.748c-0.91-0.199-1.793-0.388-2.649-0.57c-1.354-0.284-2.487-0.589-3.369-0.905
		c-0.773-0.277-1.381-0.585-1.812-0.916c-0.348-0.27-0.58-0.546-0.709-0.846c-0.157-0.361-0.237-0.821-0.237-1.368
		c0-0.072,0.005-0.14,0.013-0.252l0.005-0.149c0.347-2.966,3.197-5.266,6.56-5.266c3.641,0,6.603,2.636,6.603,5.876v0.342h6.126
		v-0.342c0-6.304-5.709-11.432-12.729-11.432c-6.702,0-12.205,4.633-12.679,10.606l-0.042,0.472
		c-0.008,0.102-0.016,0.203-0.016,0.307c0,1.29,0.228,2.453,0.675,3.459c0.466,1.047,1.188,1.979,2.144,2.775
		c0.89,0.74,2.015,1.394,3.349,1.939c1.25,0.511,2.752,0.964,4.464,1.35c1.859,0.396,3.435,0.789,4.686,1.17
		c1.117,0.336,2.012,0.715,2.66,1.121c0.504,0.32,0.845,0.66,1.039,1.043c0.178,0.359,0.282,0.844,0.31,1.41
		c-0.119,3.182-3.014,5.676-6.591,5.676c-3.64,0-6.601-2.637-6.601-5.875v-0.342h-6.127v0.342c0,6.305,5.71,11.432,12.729,11.432
		c6.764,0,12.268-4.674,12.689-10.705l0.039-0.412c0.005-0.051,0.008-0.098,0.008-0.148c0-1.314-0.219-2.49-0.653-3.498
		C143.247,23.232,142.656,22.353,141.922,21.629z"/>
	<g>
		<path fill="#3C3C3C" d="M111.885,19.803c-0.162-1.583-1.376-2.698-2.999-2.698c-1.73,0-3.044,1.305-3.058,3.066v17.41h6.078
			V20.145l-0.004-0.341H111.885z"/>
		<circle fill="#3C3C3C" cx="108.866" cy="9.395" r="4.941"/>
	</g>
</g>
<g>
	<path fill="#3C3C3C" d="M37.224,23.788c0.542-2.84,2.329-4.923,4.445-4.923c2.086,0,3.85,2.028,4.424,4.811L37.224,23.788z
		 M51.197,25.639c0-6.125-4.345-11.09-9.706-11.09c-5.365,0-9.712,4.965-9.712,11.09c0,6.121,4.347,11.09,9.712,11.09
		c3.91,0,7.281-2.642,8.819-6.449l-4.786-0.951c-0.826,1.831-2.243,3.038-3.855,3.038c-2.198,0-4.034-2.004-4.5-5.013l13.927-0.096
		C51.165,26.729,51.199,26.188,51.197,25.639z"/>
	<path fill="#3C3C3C" d="M55.514,15.267h4.917v3c0,0,2.878-3.835,8.03-3.357c0,0,5.756,0.119,5.756,7.431v13.548H68.82V22.463
		c0,0-0.119-4.316-4.91-3.357c0,0-3.12,1.198-3.003,5.034v11.869h-5.273L55.514,15.267z"/>
	<path fill="#3C3C3C" d="M84.885,36.488c-4.916,0-4.556-3.717-4.556-3.717V22.223h-2.755v-3.6h2.755v-3.475l5.274-2.518v6.235h3.478
		v3.598h-3.597v8.868c0.36,2.401,3.954,0.96,3.954,0.96l0.663,3.352C87.971,36.601,84.885,36.488,84.885,36.488z"/>
	<rect x="0.128" y="12.391" fill="#3C3C3C" width="5.397" height="4.195"/>
	<rect x="0.128" y="18.866" fill="#3C3C3C" width="5.397" height="17.023"/>
</g>
<path fill="#EF921E" d="M19.459,6.967c4.165,0,7.743,3.627,9.327,8.826l-5.307,1.282c-0.838-2.506-2.323-4.174-4.02-4.174
	c-2.615,0-4.735,3.971-4.735,8.872c0,4.898,2.12,8.871,4.735,8.871c1.987,0,3.691-2.295,4.391-5.547l5.314,1.207
	c-1.317,5.959-5.163,10.276-9.705,10.276c-5.627,0-10.188-6.631-10.188-14.808C9.271,13.594,13.832,6.967,19.459,6.967z
	 M30.13,38.924V-0.055H7.833v38.979H0V40h90.101v-1.076H30.13z"/>
</svg>
