<?xml version="1.0" encoding="utf-8"?>
<!-- Generator: Adobe Illustrator 16.0.0, SVG Export Plug-In . SVG Version: 6.00 Build 0)  -->
<!DOCTYPE svg PUBLIC "-//W3C//DTD SVG 1.1//EN" "http://www.w3.org/Graphics/SVG/1.1/DTD/svg11.dtd">
<svg version="1.1" id="Layer_1" xmlns="http://www.w3.org/2000/svg" xmlns:xlink="http://www.w3.org/1999/xlink" x="0px" y="0px"
	 width="70.714px" height="18.571px" viewBox="0 0 70.714 18.571" enable-background="new 0 0 70.714 18.571" xml:space="preserve">
<g>
	<g>
		<path fill="#FFFFFF" d="M50.235,12.902c0.273,0.06,0.461-0.039,0.647-0.16c0.074-0.048,0.178-0.083,0.263-0.075
			c0.183,0.018,0.329-0.062,0.482-0.132c0.029-0.015,0.063-0.022,0.096-0.029c0.189-0.036,0.386-0.051,0.566-0.111
			c0.299-0.102,0.591-0.223,0.877-0.354c0.082-0.036,0.144-0.131,0.196-0.212c0.05-0.075,0.063-0.174,0.113-0.248
			c0.096-0.146,0.094-0.308,0.088-0.468c-0.007-0.187,0.047-0.338,0.19-0.462c0.03-0.027,0.039-0.08,0.058-0.121
			c0.001-0.003,0.001-0.009,0-0.013c-0.017-0.266,0.033-0.507,0.212-0.72c0.086-0.104,0.065-0.257-0.009-0.34
			c-0.108-0.119-0.16-0.129-0.338-0.054c-0.102,0.043-0.199,0.095-0.302,0.132c-0.097,0.035-0.199,0.054-0.299,0.083
			c-0.072,0.021-0.143,0.05-0.216,0.07c-0.163,0.046-0.329,0.086-0.491,0.137c-0.159,0.051-0.315,0.114-0.474,0.167
			c-0.06,0.02-0.123,0.041-0.183,0.037c-0.311-0.023-0.604,0.028-0.88,0.177c-0.144,0.078-0.467,0.008-0.574-0.113
			c-0.07-0.079-0.146-0.123-0.255-0.118c-0.039,0.002-0.094-0.012-0.115-0.038c-0.169-0.211-0.349-0.417-0.486-0.647
			c-0.056-0.094-0.035-0.248-0.017-0.369c0.022-0.152,0.113-0.281,0.191-0.414c0.103-0.172,0.191-0.355,0.265-0.542
			c0.047-0.12,0.07-0.253,0.078-0.382c0.018-0.277,0.023-0.556,0.024-0.833c0.001-0.099-0.031-0.2-0.034-0.3
			c-0.006-0.226,0.053-0.432,0.212-0.604c0.025-0.027,0.031-0.078,0.034-0.119c0.012-0.208,0.072-0.393,0.21-0.556
			c0.05-0.062,0.057-0.158,0.1-0.229c0.053-0.087,0.115-0.171,0.187-0.244c0.055-0.056,0.134-0.088,0.193-0.141
			c0.311-0.277,0.674-0.455,1.068-0.582c0.136-0.045,0.258-0.132,0.394-0.173c0.098-0.028,0.204-0.134,0.313-0.027
			c0.047,0.048,0.084,0.109,0.113,0.17c0.035,0.075,0.051,0.159,0.088,0.233c0.08,0.157,0.115,0.32,0.062,0.489
			c-0.026,0.081-0.098,0.148-0.118,0.229c-0.036,0.138-0.064,0.281-0.066,0.424c-0.004,0.237-0.036,0.458-0.167,0.666
			c-0.062,0.098-0.07,0.23-0.097,0.348c-0.048,0.216-0.091,0.435-0.138,0.651c-0.005,0.023-0.027,0.043-0.034,0.066
			c-0.033,0.12-0.072,0.239-0.093,0.362c-0.032,0.208-0.063,0.417-0.072,0.626c-0.006,0.114,0.015,0.238,0.057,0.344
			c0.034,0.085,0.103,0.169,0.221,0.165c0.322-0.011,0.645-0.01,0.964-0.035c0.121-0.01,0.236-0.083,0.357-0.119
			c0.106-0.032,0.22-0.083,0.325-0.074c0.298,0.022,0.57-0.039,0.829-0.182c0.047-0.024,0.106-0.044,0.157-0.04
			c0.276,0.023,0.507-0.162,0.777-0.162c0.105,0,0.215-0.008,0.317-0.034c0.123-0.033,0.21,0.013,0.299,0.086
			c0.16,0.13,0.229,0.309,0.281,0.498c0.002,0.004,0.004,0.009,0.003,0.013c-0.06,0.221-0.043,0.462-0.199,0.66
			c-0.063,0.081-0.094,0.198-0.105,0.302c-0.023,0.216-0.084,0.393-0.288,0.511c-0.085,0.049-0.14,0.153-0.205,0.234
			c-0.106,0.135-0.211,0.272-0.315,0.41c-0.071,0.093-0.139,0.19-0.209,0.283c-0.073,0.097-0.15,0.191-0.223,0.289
			c-0.119,0.162-0.235,0.326-0.351,0.491c-0.014,0.02-0.021,0.047-0.023,0.071c-0.024,0.265,0.27,0.487,0.515,0.384
			c0.133-0.057,0.257-0.134,0.388-0.195c0.045-0.021,0.096-0.035,0.145-0.038c0.235-0.016,0.472-0.022,0.706-0.04
			c0.074-0.006,0.156-0.019,0.217-0.056c0.158-0.098,0.283,0.014,0.42,0.049c0.117,0.028,0.23,0.082,0.349,0.094
			c0.229,0.021,0.435,0.073,0.622,0.219c0.081,0.062,0.202,0.076,0.308,0.099c0.065,0.015,0.138-0.004,0.205,0.005
			c0.062,0.009,0.175,0.032,0.175,0.053c0.004,0.085-0.003,0.188-0.052,0.251c-0.116,0.154-0.255,0.294-0.395,0.428
			c-0.046,0.044-0.123,0.069-0.188,0.078c-0.249,0.035-0.501,0.033-0.742,0.126c-0.096,0.036-0.205,0.043-0.309,0.055
			c-0.176,0.021-0.354,0.024-0.528,0.056c-0.212,0.038-0.438,0.007-0.638,0.122c-0.02,0.012-0.048,0.014-0.073,0.016
			c-0.245,0.015-0.491,0.02-0.735,0.048c-0.123,0.014-0.24,0.072-0.36,0.107c-0.052,0.016-0.104,0.033-0.157,0.036
			c-0.266,0.014-0.533,0.019-0.799,0.036c-0.082,0.005-0.168,0.028-0.242,0.065c-0.226,0.112-0.465,0.142-0.713,0.128
			c-0.094-0.006-0.188-0.01-0.281-0.009c-0.283,0.002-0.566-0.002-0.827,0.135c-0.007,0.004-0.016,0.005-0.024,0.006
			c-0.177,0.014-0.354,0.047-0.528,0.035c-0.151-0.009-0.3-0.068-0.449-0.104c-0.216-0.051-0.432-0.098-0.646-0.152
			c-0.08-0.021-0.181-0.037-0.229-0.092c-0.112-0.127-0.263-0.157-0.404-0.22c-0.079-0.034-0.151-0.114-0.196-0.192
			c-0.041-0.071,0.006-0.138,0.091-0.163c0.176-0.054,0.35-0.115,0.527-0.162C50.032,12.926,50.154,12.915,50.235,12.902"/>
		<path fill="#FFFFFF" d="M68.845,5.556c-0.026,0.29-0.007,0.554-0.082,0.787c-0.111,0.346-0.073,0.694-0.112,1.041
			c-0.031,0.282-0.062,0.572-0.198,0.838c-0.098,0.193-0.074,0.413-0.068,0.623c0.004,0.188-0.039,0.364-0.094,0.541
			c-0.056,0.183-0.085,0.372-0.131,0.557c-0.045,0.181-0.099,0.36-0.146,0.541c-0.028,0.11-0.064,0.222-0.07,0.334
			c-0.009,0.187-0.065,0.356-0.162,0.511c-0.094,0.15-0.042,0.316-0.072,0.471c-0.022,0.119-0.008,0.265-0.164,0.33
			c-0.144,0.059-0.261-0.001-0.377-0.061c-0.082-0.043-0.152-0.11-0.233-0.158c-0.206-0.122-0.357-0.273-0.352-0.538
			c0.002-0.087-0.018-0.186-0.062-0.259c-0.099-0.168-0.016-0.316,0.036-0.46c0.067-0.185-0.035-0.371-0.229-0.363
			c-0.18,0.009-0.361,0.029-0.539,0.062c-0.067,0.012-0.123,0.08-0.189,0.11c-0.058,0.026-0.123,0.037-0.186,0.05
			c-0.231,0.049-0.464,0.091-0.693,0.147c-0.226,0.055-0.453,0.1-0.684,0.066c-0.063-0.01-0.132-0.073-0.173-0.13
			c-0.159-0.22-0.321-0.441-0.278-0.741c0.015-0.102,0.096-0.186,0.197-0.206c0.106-0.021,0.209-0.062,0.313-0.093
			c0.074-0.023,0.151-0.068,0.223-0.063c0.372,0.026,0.711-0.067,1.029-0.252c0.024-0.014,0.055-0.026,0.081-0.026
			c0.191,0.004,0.356-0.047,0.519-0.159c0.143-0.098,0.316-0.155,0.48-0.217c0.138-0.052,0.219-0.159,0.256-0.284
			c0.057-0.191,0.087-0.39,0.126-0.587c0.112-0.563,0.035-1.134,0.05-1.702c0.005-0.208-0.042-0.417-0.046-0.625
			c-0.002-0.085,0.023-0.187,0.073-0.253c0.132-0.174,0.273-0.343,0.432-0.494c0.066-0.063,0.183-0.078,0.277-0.114
			c0.115-0.044,0.238-0.077,0.346-0.136c0.137-0.075,0.236-0.004,0.345,0.054c0.09,0.047,0.19,0.079,0.271,0.139
			c0.081,0.061,0.183,0.135,0.21,0.225C68.82,5.23,68.825,5.414,68.845,5.556"/>
		<path fill="#FFFFFF" d="M59.551,5.983c0.006-0.331,0.172-0.603,0.36-0.865c0.027-0.037,0.055-0.083,0.06-0.126
			c0.022-0.182,0.073-0.341,0.2-0.488c0.151-0.176,0.294-0.373,0.391-0.583c0.071-0.155,0.16-0.291,0.259-0.425
			c0.057-0.077,0.13-0.14,0.193-0.212c0.074-0.085,0.142-0.174,0.219-0.256c0.059-0.064,0.129-0.069,0.188,0.001
			c0.042,0.049,0.073,0.109,0.117,0.155c0.107,0.113,0.217,0.223,0.33,0.331c0.081,0.077,0.172,0.144,0.253,0.221
			c0.158,0.15,0.492,0.184,0.685,0.084c0.185-0.095,0.379-0.086,0.567,0.008c0.027,0.014,0.057,0.033,0.087,0.036
			c0.219,0.017,0.397,0.133,0.559,0.259c0.121,0.094,0.214,0.231,0.298,0.362c0.18,0.278,0.302,0.576,0.216,0.918
			c-0.014,0.057-0.045,0.109-0.071,0.161c-0.038,0.075-0.069,0.157-0.122,0.22c-0.094,0.114-0.195,0.221-0.304,0.32
			c-0.133,0.122-0.27,0.242-0.419,0.344c-0.145,0.098-0.307,0.17-0.461,0.253c-0.165,0.089-0.327,0.185-0.497,0.264
			c-0.18,0.083-0.367,0.15-0.551,0.225C62.052,7.214,62,7.247,61.943,7.264c-0.128,0.039-0.258,0.069-0.388,0.103
			c-0.012,0.003-0.027,0-0.035,0.006c-0.217,0.169-0.464,0.108-0.704,0.095c-0.066-0.004-0.139,0.035-0.199,0.019
			c-0.127-0.033-0.246-0.09-0.369-0.137c-0.036-0.014-0.073-0.042-0.11-0.042c-0.141-0.005-0.232-0.072-0.299-0.192
			c-0.092-0.165-0.206-0.318-0.281-0.489C59.467,6.421,59.489,6.202,59.551,5.983 M61.195,5.783c-0.001,0-0.002,0-0.004-0.001
			c-0.018,0.113-0.043,0.224-0.052,0.338c-0.014,0.175,0.104,0.291,0.276,0.265c0.067-0.01,0.138-0.051,0.19-0.097
			c0.404-0.339,0.806-0.679,1.199-1.029c0.053-0.046,0.079-0.15,0.076-0.226c-0.003-0.092-0.1-0.107-0.178-0.113
			c-0.25-0.02-0.5-0.039-0.75-0.054c-0.039-0.002-0.085,0.003-0.118,0.023c-0.32,0.182-0.608,0.393-0.628,0.81
			C61.207,5.727,61.2,5.755,61.195,5.783"/>
		<path fill="#FFFFFF" d="M59.234,8.541c0.104,0,0.208-0.003,0.313,0.001c0.217,0.008,0.397-0.096,0.581-0.186
			c0.022-0.011,0.044-0.028,0.066-0.031c0.18-0.022,0.36-0.034,0.54-0.061c0.14-0.021,0.278-0.057,0.418-0.087
			c0.124-0.026,0.246-0.062,0.371-0.077c0.217-0.027,0.437-0.029,0.651-0.064c0.14-0.022,0.271-0.091,0.41-0.127
			c0.073-0.019,0.162-0.035,0.229-0.012c0.157,0.053,0.301,0.037,0.46,0.004c0.132-0.027,0.276,0.007,0.415,0.015
			c0.005,0,0.008,0.006,0.012,0.005c0.222-0.029,0.428,0.114,0.658,0.049c0.091-0.025,0.211,0.016,0.276,0.117
			c0.099,0.15,0.196,0.301,0.288,0.456c0.014,0.023,0.008,0.072-0.01,0.094c-0.076,0.1-0.181,0.153-0.309,0.156
			c-0.074,0.001-0.149,0.002-0.225-0.003c-0.157-0.012-0.298,0.035-0.441,0.092c-0.105,0.042-0.224,0.052-0.336,0.078
			c-0.031,0.008-0.066,0.015-0.09,0.034c-0.16,0.137-0.313,0.281-0.476,0.414c-0.119,0.099-0.15,0.236-0.198,0.371
			c-0.053,0.142-0.132,0.274-0.195,0.411c-0.097,0.209-0.239,0.397-0.253,0.644c-0.006,0.092-0.056,0.195-0.116,0.266
			c-0.148,0.172-0.162,0.372-0.153,0.58c0.005,0.128-0.037,0.233-0.123,0.326c-0.019,0.02-0.038,0.046-0.044,0.072
			c-0.048,0.246-0.222,0.387-0.422,0.504c-0.04,0.023-0.094,0.034-0.141,0.034c-0.179,0.004-0.36-0.014-0.538,0.005
			c-0.221,0.023-0.499-0.263-0.484-0.483c0.015-0.222-0.021-0.455,0.113-0.647c0.141-0.2,0.185-0.415,0.172-0.652
			c-0.002-0.04,0.028-0.083,0.048-0.124c0.177-0.355,0.353-0.71,0.532-1.063c0.066-0.132,0.008-0.258-0.139-0.249
			c-0.133,0.008-0.268,0.038-0.396,0.077c-0.206,0.063-0.404,0.14-0.629,0.147c-0.235,0.008-0.469,0.068-0.704,0.104
			c-0.045,0.006-0.092,0-0.137,0.006c-0.08,0.012-0.159,0.032-0.239,0.043c-0.044,0.007-0.091,0.009-0.137,0.004
			c-0.133-0.014-0.267-0.03-0.4-0.05c-0.128-0.019-0.259-0.034-0.384-0.069c-0.115-0.032-0.174-0.186-0.115-0.284
			c0.125-0.206,0.235-0.426,0.39-0.608c0.112-0.133,0.286-0.219,0.477-0.227c0.137-0.006,0.274-0.001,0.412-0.001V8.541z"/>
		<path fill="#FFFFFF" d="M64.823,14.334c0.204-0.056,0.407-0.116,0.613-0.167c0.13-0.032,0.265-0.068,0.397-0.07
			c0.291-0.003,0.575-0.006,0.841-0.159c0.097-0.056,0.229-0.057,0.348-0.067c0.263-0.025,0.53-0.021,0.789-0.067
			c0.228-0.041,0.435-0.006,0.634,0.083c0.129,0.057,0.238,0.159,0.36,0.234c0.065,0.039,0.149,0.053,0.205,0.102
			c0.107,0.095,0.04,0.351-0.098,0.391c-0.134,0.039-0.27,0.07-0.402,0.109c-0.066,0.02-0.143,0.034-0.192,0.076
			c-0.134,0.116-0.289,0.139-0.456,0.153c-0.085,0.007-0.165,0.064-0.247,0.099c-0.093,0.039-0.185,0.08-0.277,0.117
			c-0.053,0.022-0.111,0.034-0.161,0.061c-0.18,0.095-0.374,0.132-0.572,0.171c-0.137,0.026-0.263,0.112-0.394,0.172
			c-0.03,0.014-0.063,0.034-0.092,0.032c-0.179-0.013-0.325,0.075-0.48,0.141c-0.107,0.045-0.228,0.062-0.344,0.087
			c-0.17,0.036-0.342,0.07-0.514,0.101c-0.065,0.011-0.135,0.016-0.199,0.005c-0.172-0.03-0.342-0.067-0.512-0.108
			c-0.064-0.015-0.133-0.034-0.183-0.071c-0.136-0.103-0.251-0.232-0.395-0.319c-0.214-0.132-0.303-0.362-0.46-0.537
			c-0.119-0.133-0.208-0.312-0.103-0.523c0.057-0.112,0.039-0.26,0.081-0.382c0.043-0.124,0.119-0.238,0.181-0.357
			c0.008-0.015,0.021-0.03,0.021-0.044c-0.016-0.352,0.261-0.584,0.357-0.89c0.028-0.088,0.058-0.177,0.09-0.265
			c0.011-0.03,0.021-0.064,0.042-0.085c0.126-0.123,0.196-0.271,0.235-0.44c0.026-0.108,0.245-0.265,0.359-0.267
			c0.375-0.004,0.689,0.135,0.94,0.409c0.041,0.044,0.069,0.139,0.05,0.188c-0.066,0.17-0.159,0.328-0.236,0.495
			c-0.036,0.076-0.074,0.159-0.081,0.241c-0.011,0.134-0.07,0.234-0.158,0.326c-0.027,0.029-0.067,0.07-0.063,0.102
			c0.028,0.217-0.098,0.372-0.193,0.544c-0.038,0.069-0.047,0.174-0.024,0.249c0.016,0.049,0.11,0.078,0.174,0.104
			c0.031,0.014,0.073,0.002,0.111,0.002L64.823,14.334z"/>
		<path fill="#FFFFFF" d="M41.668,5.066c0.259,0,0.517,0.002,0.775,0c0.14-0.002,0.261,0.041,0.336,0.156
			c0.099,0.15,0.184,0.311,0.269,0.47c0.034,0.065,0.021,0.111-0.056,0.161c-0.315,0.205-0.621,0.425-0.934,0.635
			c-0.237,0.159-0.48,0.311-0.722,0.464c-0.097,0.062-0.197,0.117-0.294,0.177c-0.093,0.058-0.138,0.198-0.099,0.311
			c0.036,0.108,0.129,0.102,0.218,0.102c0.388,0,0.775,0,1.163-0.003c0.175-0.001,0.305,0.06,0.374,0.23
			c0.065,0.16,0.033,0.304-0.067,0.43c-0.128,0.159-0.268,0.309-0.406,0.458c-0.234,0.253-0.481,0.496-0.704,0.759
			c-0.053,0.063-0.06,0.204-0.028,0.286c0.038,0.096,0.146,0.077,0.239,0.031c0.362-0.177,0.729-0.343,1.091-0.523
			c0.331-0.166,0.664-0.331,0.98-0.522c0.294-0.177,0.571-0.381,0.847-0.585c0.153-0.113,0.3-0.24,0.428-0.38
			c0.066-0.073,0.113-0.187,0.121-0.286c0.03-0.373,0.027-0.747,0.064-1.119c0.015-0.146,0.039-0.283-0.014-0.423
			c-0.017-0.046-0.029-0.094-0.056-0.135c-0.077-0.122-0.107-0.222-0.02-0.373c0.115-0.201,0.226-0.397,0.411-0.539
			c0.074-0.056,0.167-0.086,0.251-0.127c0.104-0.05,0.208-0.099,0.312-0.149c0.151-0.074,0.297-0.029,0.437,0.054
			c0.218,0.131,0.286,0.304,0.269,0.546c-0.013,0.172,0.033,0.346,0.03,0.519c-0.005,0.256-0.016,0.514-0.05,0.768
			c-0.043,0.325-0.111,0.646-0.169,0.968c-0.004,0.021-0.006,0.042-0.005,0.062c0.013,0.327-0.046,0.639-0.161,0.947
			c-0.04,0.104-0.025,0.228-0.046,0.342c-0.024,0.137-0.04,0.281-0.097,0.404c-0.085,0.182-0.099,0.373-0.14,0.563
			c-0.062,0.284-0.145,0.564-0.217,0.846c-0.014,0.051-0.018,0.106-0.037,0.156c-0.093,0.243-0.251,0.31-0.465,0.152
			c-0.302-0.223-0.496-0.513-0.417-0.925c0.022-0.118-0.019-0.247-0.015-0.372c0.008-0.248,0.026-0.496,0.039-0.744
			c0.004-0.081,0.003-0.169-0.089-0.2c-0.086-0.028-0.169-0.017-0.241,0.056c-0.181,0.179-0.39,0.313-0.613,0.436
			c-0.304,0.167-0.582,0.378-0.871,0.57c-0.079,0.053-0.158,0.105-0.238,0.156c-0.194,0.125-0.393,0.247-0.584,0.376
			c-0.415,0.282-0.825,0.569-1.241,0.85c-0.112,0.077-0.229,0.154-0.354,0.204c-0.156,0.063-0.322,0.101-0.485,0.146
			c-0.018,0.005-0.043,0-0.06-0.01c-0.15-0.095-0.318-0.08-0.484-0.09c-0.136-0.007-0.285,0.002-0.402-0.053
			c-0.138-0.064-0.252-0.184-0.366-0.29c-0.021-0.02-0.006-0.095,0.012-0.137c0.089-0.207,0.246-0.361,0.403-0.518
			c0.316-0.312,0.637-0.62,0.94-0.944c0.266-0.285,0.515-0.587,0.761-0.889c0.035-0.042,0.047-0.156,0.017-0.186
			c-0.042-0.044-0.131-0.046-0.202-0.055c-0.033-0.004-0.07,0.025-0.106,0.027c-0.411,0.017-0.822,0.038-1.234,0.044
			C39.49,8.35,39.312,8.32,39.135,8.304c-0.106-0.01-0.119-0.096-0.12-0.174C39.014,7.977,39,7.832,38.887,7.713
			c-0.014-0.014-0.002-0.072,0.017-0.093c0.094-0.103,0.181-0.218,0.294-0.295c0.299-0.206,0.608-0.399,0.918-0.589
			c0.166-0.102,0.346-0.179,0.51-0.281c0.094-0.058,0.182-0.13,0.182-0.266c0-0.183-0.096-0.258-0.274-0.2
			C40.498,6,40.463,6.022,40.428,6.022c-0.632,0.017-1.265,0.051-1.895,0.034c-0.19-0.005-0.374,0.027-0.562,0.02
			c-0.133-0.005-0.197-0.092-0.119-0.198c0.059-0.077,0.149-0.151,0.241-0.179c0.263-0.081,0.534-0.136,0.801-0.207
			c0.05-0.013,0.089-0.063,0.138-0.079c0.13-0.04,0.262-0.067,0.393-0.103c0.149-0.041,0.299-0.083,0.448-0.125
			c0.096-0.026,0.19-0.064,0.288-0.07c0.501-0.026,1.004-0.043,1.506-0.063C41.667,5.058,41.668,5.062,41.668,5.066"/>
		<path fill="#FFFFFF" d="M43.752,15.141c-0.074,0-0.148,0-0.223,0c-0.125-0.001-0.233-0.038-0.353-0.088
			c-0.221-0.092-0.414-0.219-0.594-0.365c-0.074-0.062-0.127-0.156-0.17-0.245c-0.036-0.071-0.028-0.165-0.064-0.236
			c-0.13-0.259,0.026-0.471,0.125-0.674c0.201-0.41,0.478-0.776,0.783-1.117c0.361-0.402,0.723-0.804,1.081-1.207
			c0.061-0.068,0.105-0.151,0.165-0.221c0.016-0.019,0.083-0.021,0.083-0.02c0.024,0.083,0.081,0.182,0.055,0.247
			c-0.09,0.218,0.003,0.385,0.124,0.535c0.177,0.219,0.392,0.37,0.703,0.334c0.093-0.012,0.196,0.054,0.294,0.088
			c0.063,0.023,0.124,0.056,0.188,0.08c0.269,0.105,0.453,0.317,0.63,0.53c0.134,0.16,0.101,0.492-0.028,0.657
			c-0.09,0.115-0.146,0.266-0.254,0.355c-0.24,0.199-0.48,0.396-0.745,0.569c-0.41,0.268-0.837,0.501-1.274,0.712
			c-0.153,0.074-0.347,0.064-0.521,0.094C43.754,15.16,43.753,15.15,43.752,15.141 M43.741,13.655
			c-0.001,0.323,0.239,0.458,0.491,0.343c0.374-0.172,0.708-0.399,0.992-0.698c0.086-0.091,0.107-0.195,0.071-0.309
			c-0.036-0.111-0.12-0.169-0.24-0.176c-0.056-0.003-0.109-0.02-0.164-0.025c-0.227-0.026-0.453-0.042-0.665,0.071
			C43.884,13.044,43.905,13.434,43.741,13.655"/>
		<path fill="#FFFFFF" d="M35.256,8.425c0.018-0.352,0.034-0.704,0.055-1.056c0.012-0.207,0.026-0.414,0.049-0.619
			c0.022-0.207,0.065-0.412,0.085-0.62c0.008-0.086-0.01-0.179-0.033-0.265c-0.044-0.17-0.123-0.335-0.14-0.508
			c-0.009-0.092,0.069-0.2,0.124-0.292c0.14-0.235,0.306-0.461,0.573-0.546c0.246-0.077,0.506-0.153,0.772-0.031
			c0.153,0.07,0.219,0.202,0.242,0.339c0.039,0.226,0.055,0.46,0.053,0.69c-0.002,0.162-0.051,0.322-0.078,0.483
			c-0.02,0.118-0.049,0.236-0.055,0.354c-0.019,0.319-0.077,0.628-0.189,0.927c-0.027,0.072-0.02,0.156-0.04,0.232
			c-0.046,0.174-0.105,0.345-0.147,0.52c-0.026,0.108-0.016,0.226-0.049,0.33c-0.043,0.141-0.117,0.271-0.169,0.409
			c-0.025,0.069-0.028,0.146-0.045,0.218c-0.034,0.151-0.063,0.304-0.106,0.452c-0.023,0.081-0.194,0.136-0.296,0.11
			c-0.017-0.004-0.03-0.02-0.046-0.02c-0.4-0.015-0.413-0.36-0.508-0.619c-0.055-0.151-0.049-0.325-0.07-0.489
			C35.243,8.427,35.25,8.426,35.256,8.425"/>
		<path fill="#FFFFFF" d="M35.443,9.775c0.366,0.037,0.731,0.075,1.097,0.109c0.084,0.007,0.142,0.035,0.156,0.112
			c0.016,0.083,0.021,0.167,0.034,0.249c0.015,0.09,0.024,0.181,0.05,0.268c0.025,0.084,0.021,0.155-0.062,0.204
			c-0.117,0.069-0.237,0.133-0.357,0.196c-0.073,0.039-0.153,0.066-0.224,0.107c-0.271,0.161-0.541,0.325-0.811,0.488
			c-0.077,0.046-0.164,0.083-0.23,0.139c-0.045,0.038-0.071,0.101-0.09,0.156c-0.02,0.055,0.014,0.091,0.082,0.096
			c0.102,0.009,0.204,0.018,0.305,0.026c0.354,0.034,0.708,0.066,1.061,0.105c0.064,0.008,0.138,0.037,0.184,0.078
			c0.091,0.08,0.172,0.171,0.243,0.268c0.053,0.07,0.061,0.146,0,0.23c-0.191,0.267-0.438,0.483-0.718,0.669
			c-0.175,0.116-0.364,0.218-0.533,0.339c-0.104,0.075-0.207,0.162-0.222,0.299c-0.013,0.124,0.017,0.165,0.151,0.182
			c0.248,0.031,0.487,0.042,0.719-0.078c0.088-0.045,0.224-0.041,0.331-0.024c0.264,0.04,0.514-0.011,0.768-0.041
			c0.139-0.017,0.285,0.006,0.427,0.018c0.242,0.021,0.483,0.048,0.726,0.07c0.048,0.005,0.098,0.007,0.146,0.001
			c0.136-0.018,0.227,0.075,0.176,0.188c-0.073,0.162-0.393,0.459-0.7,0.43c-0.173-0.017-0.348-0.016-0.497,0.094
			c-0.045,0.032-0.126,0.046-0.186,0.037c-0.221-0.031-0.409,0.066-0.614,0.095c-0.1,0.014-0.203,0.006-0.302,0.022
			c-0.346,0.063-0.688,0.135-1.034,0.196c-0.077,0.014-0.162-0.001-0.243-0.006c-0.151-0.011-0.292,0.005-0.435,0.063
			c-0.114,0.047-0.256,0.047-0.386,0.06c-0.127,0.012-0.262-0.006-0.383,0.021c-0.114,0.025-0.164-0.019-0.213-0.091
			c-0.109-0.155-0.224-0.31-0.326-0.47c-0.097-0.148-0.078-0.339,0.08-0.452c0.293-0.209,0.587-0.418,0.876-0.632
			c0.233-0.172,0.462-0.349,0.69-0.527c0.091-0.071,0.122-0.17,0.119-0.276c-0.002-0.072-0.134-0.153-0.233-0.128
			c-0.232,0.059-0.463,0.04-0.696,0.007c-0.204-0.029-0.409-0.06-0.608-0.105c-0.072-0.018-0.144-0.072-0.195-0.126
			c-0.071-0.075-0.131-0.161-0.18-0.251c-0.018-0.032-0.009-0.1,0.018-0.126c0.119-0.115,0.242-0.229,0.376-0.328
			c0.181-0.133,0.391-0.236,0.556-0.382c0.125-0.11,0.275-0.172,0.41-0.259c0.159-0.104,0.304-0.228,0.436-0.358
			c0.048-0.048,0.057-0.144,0.048-0.214c-0.003-0.022-0.128-0.059-0.187-0.048c-0.297,0.057-0.591,0.126-0.886,0.193
			c-0.205,0.046-0.406,0.124-0.614,0.134c-0.231,0.012-0.48-0.003-0.698-0.07c-0.146-0.044-0.259-0.195-0.372-0.31
			c-0.06-0.06-0.009-0.145,0.1-0.188c0.23-0.094,0.457-0.196,0.694-0.273c0.215-0.07,0.443-0.112,0.665-0.167
			c0.042-0.01,0.094-0.014,0.125-0.038c0.14-0.106,0.299-0.086,0.464-0.068c0.309,0.035,0.617,0.063,0.926,0.094
			C35.443,9.779,35.443,9.777,35.443,9.775"/>
		<path fill="#FFFFFF" d="M29.807,9.188c0.043-0.095,0.08-0.194,0.133-0.283c0.107-0.181,0.219-0.36,0.34-0.532
			c0.146-0.207,0.303-0.407,0.455-0.609c0.162-0.215,0.33-0.426,0.484-0.646c0.147-0.209,0.291-0.421,0.416-0.645
			c0.041-0.072,0.056-0.214,0.013-0.264c-0.051-0.059-0.179-0.075-0.271-0.069c-0.095,0.006-0.186,0.063-0.279,0.095
			c-0.346,0.113-0.662,0.32-1.042,0.328c-0.043,0.001-0.091,0.021-0.127,0.044c-0.14,0.092-0.295,0.101-0.455,0.091
			c-0.297-0.017-0.595-0.033-0.892-0.047c-0.041-0.002-0.092-0.011-0.123,0.009c-0.08,0.052-0.11-0.015-0.137-0.056
			c-0.016-0.026-0.001-0.08,0.015-0.115c0.101-0.222,0.322-0.314,0.504-0.447c0.055-0.04,0.14-0.04,0.212-0.058
			c0.126-0.033,0.266-0.042,0.377-0.103c0.174-0.096,0.367-0.087,0.548-0.14c0.059-0.017,0.119-0.03,0.176-0.052
			c0.198-0.077,0.392-0.169,0.595-0.234c0.151-0.049,0.314-0.063,0.471-0.098c0.06-0.013,0.124-0.027,0.175-0.06
			c0.156-0.1,0.336-0.101,0.509-0.138c0.093-0.02,0.185-0.042,0.278-0.062c0.119-0.026,0.239-0.073,0.358-0.073
			c0.238,0,0.478,0.021,0.715,0.044c0.126,0.014,0.158,0.133,0.204,0.229c0.012,0.026,0.009,0.059,0.021,0.083
			c0.123,0.23,0.039,0.426-0.102,0.612c-0.198,0.261-0.397,0.522-0.596,0.782c-0.055,0.072-0.12,0.139-0.164,0.217
			c-0.079,0.14,0.021,0.316,0.178,0.349c0.088,0.019,0.175,0.054,0.253,0.099c0.215,0.125,0.431,0.249,0.635,0.391
			c0.076,0.054,0.11,0.164,0.177,0.235c0.19,0.205,0.092,0.404-0.02,0.588c-0.076,0.124-0.195,0.221-0.295,0.329
			c-0.265,0.284-0.618,0.429-0.952,0.603c-0.176,0.091-0.352,0.184-0.549,0.24c-0.23,0.067-0.44,0.204-0.667,0.289
			c-0.153,0.057-0.323,0.12-0.479,0.107c-0.228-0.019-0.467-0.058-0.611-0.294C30.216,9.811,30.092,9.726,30,9.618
			C29.898,9.5,29.829,9.364,29.807,9.188 M31.428,9.016c0.09-0.046,0.176-0.091,0.262-0.137c0.073-0.039,0.145-0.081,0.217-0.121
			c0.218-0.121,0.439-0.234,0.65-0.365c0.124-0.078,0.117-0.186-0.003-0.272c-0.091-0.065-0.187-0.125-0.285-0.18
			c-0.108-0.06-0.246-0.032-0.327,0.068c-0.21,0.258-0.419,0.516-0.623,0.779c-0.028,0.037-0.038,0.107-0.023,0.15
			C31.307,8.97,31.371,8.984,31.428,9.016"/>
		<path fill="#FFFFFF" d="M31.157,2.539c0.287-0.079,0.447,0.068,0.583,0.301c0.108,0.185,0.258,0.344,0.383,0.519
			c0.042,0.058,0.085,0.126,0.095,0.195c0.036,0.241,0.116,0.483,0.028,0.73c-0.033,0.092-0.153,0.13-0.237,0.063
			c-0.417-0.33-0.916-0.558-1.253-0.99c-0.079-0.101-0.158-0.202-0.231-0.307c-0.059-0.083-0.039-0.185,0.008-0.253
			c0.097-0.141,0.212-0.272,0.413-0.258C31.015,2.543,31.087,2.539,31.157,2.539"/>
	</g>
	<path fill="#FFFFFF" d="M9.407,7.088c0,0,1.097,0.762,0.742,1.277c0,0-0.326,0.333-0.74,0.622c0,0-0.98,0.609-0.916,3.043
		c0,0,0.188-0.799,1.076-1.265c0,0,1.103-0.567,1.918-1.43c0,0,0.196-0.212,0.32,0.042c0,0,0.073,0.608,0.094,0.974
		c0,0-0.005,0.057,0.092,0.02c0,0,1.542-0.734,2.1-2.048c0,0,0.037-0.116-0.075-0.119c0,0-0.878,0.334-1.56,0.09
		c0,0,0.489-0.358,1.038-1.549c0,0,0.38-0.939,1.61-0.754c-0.036-0.005-0.092-0.057-0.128-0.074
		c-0.108-0.055-0.224-0.094-0.338-0.126c-0.895-0.25-1.809,0.112-2.521,0.735c-0.197,0.173-0.379,0.412-0.592,0.558
		c0,0-0.317,0.373-0.935-0.053C10.593,7.031,10.059,6.56,9.407,7.088"/>
	<path fill="#FFFFFF" d="M16.558,11.024c-0.245-0.182-0.639-0.381-0.884-0.546c1.246,1.299,1.945,2.509,1.457,3.053
		c-0.756,0.843-3.023-0.147-5.753-1.935c-0.03-0.019-0.06-0.046-0.087-0.066c0.643,0.756,1.528,1.577,2.58,2.356
		c2.702,1.999,5.493,2.979,6.235,2.188C20.846,15.285,19.259,13.023,16.558,11.024"/>
	<path fill="#FFFFFF" d="M22.955,2.96c-0.409-1.282-3.091-1.684-6.751-0.463c-2.19,0.73-4.287,1.913-5.456,2.796
		c0.75-0.431,1.752-0.82,2.785-1.181c2.737-0.957,5.115-1.141,5.54-0.132c0.425,1.011-1.314,2.423-4.086,3.728
		c-0.022,0.01-0.045,0.014-0.067,0.021c1.088-0.239,2.313-0.513,3.254-0.856C22.077,5.449,23.363,4.244,22.955,2.96"/>
	<path fill="#FFFFFF" d="M18.701,7.675c-1.164-0.086-2.584,0-3.542,0.046c3.201,0.159,5.316,0.772,5.286,1.565
		c-0.024,0.638-2.034,1.127-4.947,1.15c0.943,0.185,1.938,0.285,3.091,0.37c3.694,0.272,5.82-0.259,5.844-1.085
		C24.456,8.896,22.395,7.947,18.701,7.675"/>
	<path fill="#FFFFFF" d="M11.121,11.742c-1.791,1.958-4.139,2.809-5.243,1.9c-1.105-0.907-0.549-3.229,1.242-5.187
		C7.233,8.332,7.383,8.206,7.5,8.091c-0.752,0.504-1.551,1.164-2.261,1.94c-2.316,2.532-3.192,5.406-1.956,6.421
		c1.236,1.015,4.115-0.215,6.432-2.745c0.663-0.725,1.189-1.447,1.601-2.177C11.246,11.612,11.194,11.663,11.121,11.742"/>
	<path fill="#FFFFFF" d="M4.554,5.578c0.314-0.969,3.091-1.15,6.173-0.439c-0.735-0.306-1.655-0.59-2.571-0.815
		C4.907,3.525,2.008,3.695,1.681,4.701C1.354,5.707,3.722,7.169,6.97,7.966c0.211,0.052,0.389,0.091,0.536,0.123
		C5.542,7.309,4.312,6.319,4.554,5.578"/>
</g>
</svg>
