<?xml version="1.0" encoding="utf-8"?>
<!-- Generator: Adobe Illustrator 16.0.0, SVG Export Plug-In . SVG Version: 6.00 Build 0)  -->
<!DOCTYPE svg PUBLIC "-//W3C//DTD SVG 1.1//EN" "http://www.w3.org/Graphics/SVG/1.1/DTD/svg11.dtd">
<svg version="1.1" id="Layer_1" xmlns="http://www.w3.org/2000/svg" xmlns:xlink="http://www.w3.org/1999/xlink" x="0px" y="0px"
	 width="178.31px" height="37px" viewBox="0 0 178.31 37" enable-background="new 0 0 178.31 37" xml:space="preserve">
<g>
	<path fill="#f5f5f5" d="M76.472,28.989c4.301,0,8.003-2.574,9.666-6.262h-4.841c-1.189,1.329-2.903,2.177-4.825,2.177
		c-2.835,0-5.247-1.823-6.146-4.352h8.38h3.913h4.24c0.146-0.703,0.226-1.431,0.226-2.179c0-0.742-0.08-1.471-0.226-2.173
		c-1.008-4.812-5.279-8.438-10.387-8.438c-5.854,0-10.613,4.764-10.613,10.611C65.858,24.228,70.618,28.989,76.472,28.989z
		 M76.472,11.847c2.835,0,5.247,1.821,6.146,4.354H70.325C71.225,13.668,73.637,11.847,76.472,11.847z"/>
	<path fill="#f5f5f5" d="M33.729,28.989c2.438,0,4.678-0.834,6.472-2.222l4.142,2.222V17.82h-0.029
		c-0.291-5.592-4.919-10.058-10.584-10.058c-5.851,0-10.61,4.76-10.61,10.611C23.119,24.227,27.879,28.989,33.729,28.989z
		 M33.729,11.902c3.568,0,6.472,2.904,6.472,6.472c0,3.568-2.903,6.473-6.472,6.473c-3.567,0-6.471-2.904-6.471-6.473
		C27.259,14.806,30.163,11.902,33.729,11.902z"/>
	<path fill="#f5f5f5" d="M3.162,14.204c0.683,0.57,1.546,1.072,2.569,1.489c0.961,0.391,2.112,0.739,3.426,1.035
		c1.426,0.305,2.636,0.605,3.596,0.898c0.856,0.258,1.544,0.548,2.04,0.86c0.388,0.245,0.649,0.507,0.797,0.801
		c0.138,0.275,0.218,0.646,0.238,1.08c-0.091,2.443-2.312,4.356-5.056,4.356c-2.794,0-5.066-2.023-5.066-4.507v-0.264H1.005v0.264
		c0,4.835,4.382,8.771,9.768,8.771c5.189,0,9.413-3.588,9.735-8.215l0.03-0.316c0.003-0.038,0.007-0.075,0.007-0.114
		c0-1.008-0.169-1.91-0.502-2.684c-0.335-0.771-0.788-1.445-1.351-2.003c-0.547-0.547-1.2-1.016-1.938-1.389
		c-0.661-0.338-1.376-0.628-2.128-0.864c-0.692-0.216-1.422-0.41-2.168-0.573c-0.698-0.152-1.376-0.299-2.034-0.438
		c-1.038-0.219-1.907-0.453-2.583-0.694C7.248,11.485,6.78,11.25,6.45,10.996c-0.267-0.207-0.445-0.419-0.545-0.649
		c-0.12-0.276-0.181-0.63-0.181-1.049c0-0.056,0.003-0.108,0.009-0.193l0.005-0.115c0.266-2.275,2.452-4.041,5.034-4.041
		c2.792,0,5.066,2.023,5.066,4.509v0.263h4.699V9.457c0-4.835-4.381-8.771-9.766-8.771c-5.144,0-9.365,3.556-9.729,8.139
		L1.011,9.185C1.005,9.264,1,9.341,1,9.42c0,0.99,0.174,1.883,0.518,2.655C1.875,12.88,2.43,13.595,3.162,14.204z"/>
	<path fill="#f5f5f5" d="M52.192,19.396v9.593h4.663V14.766h5.828v-4.663h-5.828v-1.67H56.85c0-1.704,1.387-3.091,3.092-3.091v0.007
		h2.632l3-4.664h-5.632v0.007c-4.269,0-7.742,3.473-7.742,7.741h-0.007v1.67H47.14v4.663h5.053V19.396z"/>
	<path fill="#f5f5f5" d="M166.59,7.636c-5.854,0-10.613,4.764-10.613,10.611c0,5.854,4.76,10.615,10.613,10.615
		c4.301,0,8.003-2.574,9.666-6.262h-4.841c-1.189,1.329-2.903,2.177-4.825,2.177c-2.835,0-5.247-1.823-6.146-4.352h8.38h3.913h4.24
		c0.146-0.703,0.226-1.431,0.226-2.179c0-0.742-0.08-1.471-0.226-2.173C175.969,11.263,171.697,7.636,166.59,7.636z M160.443,16.075
		c0.899-2.532,3.312-4.354,6.146-4.354s5.247,1.821,6.146,4.354H160.443z"/>
	<path fill="#f5f5f5" d="M147.921,20.136h-6.312c-2.067,0-3.75-1.683-3.75-3.75v-8.75h-4.5v8.75c0,4.549,3.701,8.25,8.25,8.25h6.312
		v3.866h0.006c0,1.704-1.387,3.091-3.092,3.091v-0.007h-6.633l-3,4.664h9.633v-0.007c4.269,0,7.742-3.473,7.742-7.741h0.007V17.54
		V7.947h-4.663V20.136z"/>
	<path fill="#f5f5f5" d="M116.266,10.733V8.527h-0.006c0-1.704,1.387-3.091,3.092-3.091v0.007h9.633l3-4.664h-12.633v0.007
		c-4.269,0-7.742,3.473-7.742,7.741h-0.007v0.962v1.244v8.349v1.244v0.962h0.007c0,4.269,3.474,7.741,7.742,7.741v0.007h9.655
		v-4.664h-9.655v0.007c-1.705,0-3.092-1.387-3.092-3.091h0.006v-2.206v-1.989h12.741v-4.37h-12.741V10.733z"/>
	<path fill="#f5f5f5" d="M104.46,17.337c0,1.381-0.972,2.5-2.169,2.5h-5.663c-1.197,0-2.168-1.119-2.168-2.5l0,0
		c0-1.381,0.971-2.5,2.168-2.5h5.663C103.488,14.837,104.46,15.956,104.46,17.337L104.46,17.337z"/>
</g>
</svg>
