<?xml version="1.0" encoding="utf-8"?>
<!-- Generator: Adobe Illustrator 16.0.0, SVG Export Plug-In . SVG Version: 6.00 Build 0)  -->
<!DOCTYPE svg PUBLIC "-//W3C//DTD SVG 1.1//EN" "http://www.w3.org/Graphics/SVG/1.1/DTD/svg11.dtd">
<svg version="1.1" id="Layer_1" xmlns="http://www.w3.org/2000/svg" xmlns:xlink="http://www.w3.org/1999/xlink" x="0px" y="0px"
	 width="166.59px" height="37px" viewBox="0 0 166.59 37" enable-background="new 0 0 166.59 37" xml:space="preserve">
<g>
	<path fill="#3D3D3D" d="M139.332,7.762c-5.816,0-10.531,4.715-10.531,10.529c0,5.816,4.715,10.531,10.531,10.531
		s10.531-4.715,10.531-10.531C149.863,12.477,145.148,7.762,139.332,7.762z M139.332,24.123c-3.215,0-5.83-2.615-5.83-5.832
		c0-3.215,2.615-5.83,5.83-5.83s5.83,2.615,5.83,5.83C145.162,21.508,142.547,24.123,139.332,24.123z"/>
	<path fill="#3D3D3D" d="M36.526,7.752c-5.854,0-10.613,4.764-10.613,10.611c0,5.854,4.76,10.615,10.613,10.615
		c4.301,0,8.003-2.574,9.666-6.262h-4.841c-1.189,1.328-2.903,2.176-4.825,2.176c-2.835,0-5.247-1.822-6.146-4.352h8.38h3.913h4.24
		c0.146-0.703,0.226-1.43,0.226-2.178c0-0.742-0.08-1.471-0.226-2.174C45.905,11.379,41.634,7.752,36.526,7.752z M30.38,16.189
		c0.899-2.531,3.312-4.354,6.146-4.354s5.247,1.822,6.146,4.354H30.38z"/>
	<path fill="#3D3D3D" d="M76.093,7.752c-5.854,0-10.613,4.764-10.613,10.611c0,5.854,4.76,10.615,10.613,10.615
		c4.301,0,8.003-2.574,9.666-6.262h-4.841c-1.189,1.328-2.903,2.176-4.825,2.176c-2.835,0-5.247-1.822-6.146-4.352h8.38h3.913h4.24
		c0.146-0.703,0.226-1.43,0.226-2.178c0-0.742-0.08-1.471-0.226-2.174C85.472,11.379,81.2,7.752,76.093,7.752z M69.946,16.189
		c0.899-2.531,3.312-4.354,6.146-4.354s5.247,1.822,6.146,4.354H69.946z"/>
	<path fill="#3D3D3D" d="M164.746,8.406V8.404c-2.6,0-5.059,0.885-7.053,2.518V8.404h-4.109v20.574h4.109l0.023-9.416
		c0-3.877,3.154-7.027,7.029-7.027h0.529V8.406H164.746z"/>
	<path fill="#3D3D3D" d="M9.108,0.668h-3.4c0.001-0.01,0.001-0.02,0.002-0.027H1.033c-0.012,0.285-0.026,0.57-0.026,0.861H1v18.201
		v9.285h4.43v0.014h3.679c7.812,0,14.167-6.355,14.167-14.168C23.275,7.023,16.92,0.668,9.108,0.668z M9.108,24.303H5.663V5.367
		h3.445c5.221,0,9.468,4.246,9.468,9.467S14.329,24.303,9.108,24.303z"/>
	<path fill="#3D3D3D" d="M58.264,4.684l-4.663-4v7.098h-5.47v4.664h5.47v8.793h0.007c0,4.27,3.474,7.742,7.742,7.742v0.006h1.632
		v-4.664H61.35v0.008c-1.705,0-3.092-1.387-3.092-3.092h0.006v-8.793h5.411V7.781h-5.411V4.684z"/>
	<path fill="#3D3D3D" d="M121.332,4.684l-4.664-4v7.098H111.2v4.664h5.468v8.793h0.008c0,4.27,3.473,7.742,7.742,7.742v0.006h1.631
		v-4.664h-1.631v0.008c-1.705,0-3.092-1.387-3.092-3.092h0.006v-8.793h5.41V7.781h-5.41V4.684z"/>
	<path fill="#3D3D3D" d="M99.709,12.602c2.055,0,3.871,1.027,4.975,2.59h5.01c-1.447-4.125-5.365-7.09-9.984-7.09
		c-5.848,0-10.589,4.742-10.589,10.59s4.741,10.588,10.589,10.588c4.619,0,8.537-2.963,9.984-7.088h-5.012
		c-1.104,1.563-2.918,2.588-4.973,2.588c-3.358,0-6.089-2.73-6.089-6.088S96.352,12.602,99.709,12.602z"/>
</g>
</svg>
