<?xml version="1.0" encoding="utf-8"?>
<!-- Generator: Adobe Illustrator 16.0.0, SVG Export Plug-In . SVG Version: 6.00 Build 0)  -->
<!DOCTYPE svg PUBLIC "-//W3C//DTD SVG 1.1//EN" "http://www.w3.org/Graphics/SVG/1.1/DTD/svg11.dtd">
<svg version="1.1" id="Layer_1" xmlns="http://www.w3.org/2000/svg" xmlns:xlink="http://www.w3.org/1999/xlink" x="0px" y="0px"
	 width="185px" height="60px" viewBox="0 0 185 60" enable-background="new 0 0 185 60" xml:space="preserve">
<path d="M45.202,29.076c0.631-3.302,2.708-5.723,5.168-5.723c2.425,0,4.476,2.356,5.145,5.593L45.202,29.076z M61.449,31.228
	c0-7.121-5.053-12.894-11.285-12.894c-6.239,0-11.294,5.773-11.294,12.894c0,7.118,5.055,12.894,11.294,12.894
	c4.545,0,8.464-3.071,10.255-7.496l-5.566-1.107c-0.96,2.128-2.607,3.533-4.482,3.533c-2.555,0-4.69-2.332-5.232-5.827l16.193-0.112
	C61.412,32.497,61.451,31.867,61.449,31.228z"/>
<path d="M66.469,19.169h5.717v3.487c0,0,3.344-4.458,9.335-3.903c0,0,6.693,0.139,6.693,8.641v15.753h-6.275V27.535
	c0,0-0.137-5.018-5.708-3.903c0,0-3.626,1.393-3.491,5.854v13.8h-6.13L66.469,19.169z"/>
<path d="M100.619,43.842c-5.715,0-5.299-4.319-5.299-4.319V27.256h-3.203v-4.184h3.203v-4.041l6.135-2.928v7.25h4.045v4.182h-4.182
	v10.313c0.416,2.792,4.596,1.115,4.596,1.115l0.77,3.897C104.207,43.975,100.619,43.842,100.619,43.842z"/>
<rect x="2.07" y="15.826" width="6.275" height="4.876"/>
<rect x="2.07" y="23.353" width="6.275" height="19.794"/>
<rect x="12.284" y="5.984" fill="none" stroke="#000000" stroke-width="0.1764" stroke-linecap="round" stroke-linejoin="round" width="24.383" height="40.101"/>
<path fill="#F09812" d="M24.547,9.519c4.841,0,9.002,4.217,10.844,10.261l-6.17,1.492c-0.975-2.915-2.703-4.854-4.674-4.854
	c-3.041,0-5.506,4.619-5.506,10.315c0,5.695,2.466,10.314,5.506,10.314c2.309,0,4.291-2.668,5.104-6.45L35.831,32
	c-1.532,6.93-6.003,11.949-11.283,11.949c-6.544,0-11.847-7.709-11.847-17.217C12.7,17.224,18.003,9.519,24.547,9.519z
	 M36.954,46.675V1.354H11.029v45.321H1.921v1.251h178.172v-1.251H36.954z"/>
<g>
	<path d="M3.477,58.014H1.921v-7.631h1.556V58.014z"/>
	<path d="M7.033,58.022H5.475v-7.64h3.339c0.715,0,1.278,0.222,1.694,0.667c0.409,0.435,0.611,1.033,0.611,1.795
		c-0.004,0.538-0.15,1.028-0.438,1.466c-0.42,0.647-1.063,0.966-1.925,0.966H7.033V58.022z M8.418,53.971
		c0.494,0,0.833-0.16,1.013-0.476c0.099-0.18,0.147-0.416,0.147-0.72c0-0.378-0.11-0.65-0.331-0.817
		c-0.215-0.17-0.556-0.254-1.024-0.254h-1.19v2.267H8.418z"/>
	<path d="M20.646,52.922c-0.099-0.372-0.224-0.648-0.379-0.828c-0.28-0.326-0.691-0.487-1.236-0.487
		c-0.487,0-0.893,0.167-1.215,0.508c-0.43,0.452-0.644,1.154-0.644,2.105c0,0.738,0.143,1.338,0.427,1.8
		c0.326,0.521,0.803,0.786,1.433,0.786c0.428,0,0.779-0.125,1.051-0.369c0.279-0.25,0.466-0.604,0.564-1.071h1.567
		c-0.175,0.871-0.523,1.549-1.04,2.031c-0.566,0.535-1.292,0.798-2.181,0.798c-1.026,0-1.839-0.338-2.44-1.021
		c-0.635-0.711-0.95-1.707-0.95-2.98c0-1.266,0.327-2.253,0.979-2.964c0.615-0.679,1.422-1.015,2.422-1.015
		c1.003,0,1.805,0.309,2.403,0.926c0.479,0.504,0.749,1.1,0.808,1.781H20.646z"/>
	<path d="M28.072,57.479c-0.499,0.488-1.128,0.73-1.887,0.73c-0.779,0-1.419-0.242-1.925-0.73c-0.565-0.542-0.846-1.293-0.846-2.252
		c0-0.972,0.281-1.729,0.846-2.272c0.506-0.484,1.146-0.724,1.925-0.724c0.759,0,1.388,0.239,1.887,0.724
		c0.565,0.544,0.847,1.301,0.847,2.272C28.919,56.187,28.637,56.938,28.072,57.479z M27.212,54.072
		c-0.215-0.396-0.556-0.59-1.022-0.59c-0.486,0-0.836,0.193-1.05,0.59c-0.15,0.286-0.225,0.668-0.225,1.153
		c0,0.453,0.075,0.829,0.225,1.121c0.214,0.4,0.563,0.598,1.05,0.598c0.466,0,0.808-0.197,1.022-0.598
		c0.154-0.292,0.233-0.668,0.233-1.121C27.445,54.747,27.366,54.363,27.212,54.072z"/>
	<path d="M35.277,58.009H33.83v-3.416c-0.006-0.31-0.051-0.547-0.134-0.711c-0.143-0.267-0.407-0.399-0.796-0.399
		c-0.335,0-0.61,0.112-0.824,0.33c-0.22,0.233-0.33,0.56-0.33,0.975v3.222h-1.446v-5.624h1.394v0.828h0.01
		c0.163-0.272,0.335-0.48,0.517-0.622c0.312-0.241,0.69-0.359,1.139-0.359c0.565,0,1.021,0.161,1.364,0.477
		c0.37,0.337,0.554,0.811,0.554,1.418V58.009z"/>
	<path d="M39.975,58.194h-1.541l-1.985-5.963h1.606l1.15,4.476h0.038l1.186-4.476h1.54L39.975,58.194z"/>
	<path d="M47.958,56.377c-0.173,0.622-0.504,1.094-0.991,1.408c-0.402,0.275-0.865,0.409-1.393,0.409
		c-0.821,0-1.467-0.227-1.926-0.679c-0.521-0.526-0.778-1.335-0.778-2.424c-0.007-0.636,0.131-1.198,0.41-1.693
		c0.437-0.775,1.167-1.167,2.189-1.167c0.681,0,1.238,0.194,1.672,0.585c0.58,0.527,0.866,1.363,0.866,2.517v0.292h-3.699v0.037
		c0.055,0.368,0.139,0.646,0.253,0.835c0.203,0.337,0.54,0.502,1.012,0.502c0.202,0,0.389-0.055,0.556-0.165
		c0.174-0.115,0.298-0.268,0.369-0.457H47.958z M46.546,54.639c-0.038-0.413-0.173-0.719-0.406-0.927
		c-0.195-0.16-0.42-0.244-0.681-0.244c-0.316,0-0.574,0.105-0.762,0.313c-0.18,0.204-0.291,0.488-0.33,0.857H46.546z"/>
	<path d="M49.448,52.388h1.39v0.988h0.011c0.188-0.379,0.368-0.644,0.545-0.804c0.259-0.226,0.595-0.341,1.013-0.341l0.281,0.022
		v1.532c-0.066-0.019-0.136-0.032-0.212-0.038c-0.049,0-0.108,0-0.188,0c-0.539,0-0.922,0.146-1.147,0.438
		c-0.164,0.214-0.243,0.52-0.243,0.912v2.919h-1.45V52.388z"/>
	<path d="M59.017,52.388v4.828c-0.004,0.591-0.135,1.051-0.39,1.366c-0.431,0.538-1.233,0.812-2.408,0.812
		c-0.649,0-1.178-0.114-1.585-0.336c-0.493-0.254-0.765-0.639-0.81-1.154h1.558c0.093,0.119,0.188,0.203,0.284,0.244
		c0.16,0.08,0.41,0.119,0.748,0.119c0.371,0,0.653-0.072,0.848-0.211c0.208-0.145,0.31-0.367,0.31-0.659v-0.567l-0.04-0.017
		c-0.135,0.256-0.302,0.454-0.493,0.592c-0.248,0.176-0.57,0.264-0.963,0.264c-0.702,0-1.265-0.235-1.693-0.71
		c-0.458-0.499-0.69-1.194-0.69-2.082c0-0.817,0.232-1.469,0.69-1.962c0.436-0.452,0.97-0.683,1.605-0.683
		c0.448,0,0.824,0.118,1.12,0.351c0.202,0.157,0.372,0.373,0.507,0.646h0.021v-0.84H59.017z M55.447,55.909
		c0.208,0.341,0.505,0.507,0.893,0.507c0.438,0,0.766-0.175,0.98-0.515c0.167-0.268,0.251-0.597,0.251-0.993
		c0-0.356-0.109-0.668-0.332-0.937c-0.236-0.298-0.543-0.448-0.911-0.448c-0.308,0-0.569,0.114-0.775,0.332
		c-0.24,0.26-0.362,0.637-0.362,1.122C55.193,55.333,55.28,55.645,55.447,55.909z"/>
	<path d="M65.387,56.377c-0.174,0.622-0.504,1.094-0.991,1.408c-0.403,0.275-0.868,0.409-1.394,0.409
		c-0.823,0-1.466-0.227-1.925-0.679c-0.521-0.526-0.778-1.335-0.778-2.424c-0.007-0.636,0.128-1.198,0.407-1.693
		c0.44-0.775,1.171-1.167,2.189-1.167c0.681,0,1.24,0.194,1.675,0.585c0.577,0.527,0.866,1.363,0.866,2.517v0.292h-3.699v0.037
		c0.052,0.368,0.136,0.646,0.253,0.835c0.203,0.337,0.54,0.502,1.011,0.502c0.202,0,0.387-0.055,0.556-0.165
		c0.174-0.115,0.299-0.268,0.368-0.457H65.387z M63.976,54.639c-0.039-0.413-0.173-0.719-0.407-0.927
		c-0.195-0.16-0.424-0.244-0.681-0.244c-0.319,0-0.574,0.105-0.761,0.313c-0.181,0.204-0.292,0.488-0.33,0.857H63.976z"/>
	<path d="M71.799,58.009h-1.445v-3.416c-0.008-0.31-0.053-0.547-0.136-0.711c-0.143-0.267-0.406-0.399-0.796-0.399
		c-0.337,0-0.611,0.112-0.824,0.33c-0.219,0.233-0.33,0.56-0.33,0.975v3.222h-1.447v-5.624h1.396v0.828h0.01
		c0.16-0.272,0.333-0.48,0.515-0.622c0.312-0.241,0.692-0.359,1.14-0.359c0.563,0,1.018,0.161,1.362,0.477
		c0.372,0.337,0.556,0.811,0.556,1.418V58.009z"/>
	<path d="M78.277,55.971c-0.049,0.492-0.214,0.936-0.507,1.332c-0.454,0.596-1.12,0.892-1.995,0.892
		c-0.941,0-1.629-0.326-2.065-0.973c-0.325-0.485-0.484-1.104-0.484-1.856c0-0.965,0.204-1.718,0.621-2.258
		c0.455-0.584,1.13-0.876,2.026-0.876c0.571,0,1.068,0.139,1.489,0.418c0.559,0.367,0.866,0.948,0.933,1.737h-1.449
		c-0.053-0.236-0.136-0.438-0.254-0.591c-0.159-0.216-0.378-0.319-0.65-0.313h-0.069c-0.417,0-0.723,0.189-0.924,0.558
		c-0.148,0.283-0.223,0.646-0.223,1.08c-0.006,0.5,0.042,0.888,0.147,1.15c0.166,0.466,0.489,0.701,0.962,0.701
		c0.317,0,0.574-0.135,0.768-0.408c0.149-0.202,0.223-0.398,0.223-0.593H78.277z"/>
	<path d="M84.482,56.377c-0.178,0.622-0.508,1.094-0.994,1.408c-0.404,0.275-0.865,0.409-1.391,0.409
		c-0.824,0-1.467-0.227-1.928-0.679c-0.518-0.526-0.779-1.335-0.779-2.424c-0.004-0.636,0.133-1.198,0.41-1.693
		c0.441-0.775,1.172-1.167,2.189-1.167c0.682,0,1.24,0.194,1.676,0.585c0.576,0.527,0.865,1.363,0.865,2.517v0.292h-3.699v0.037
		c0.053,0.368,0.137,0.646,0.254,0.835c0.199,0.337,0.539,0.502,1.012,0.502c0.201,0,0.387-0.055,0.553-0.165
		c0.178-0.115,0.299-0.268,0.371-0.457H84.482z M83.072,54.639c-0.039-0.413-0.18-0.719-0.41-0.927
		c-0.195-0.16-0.422-0.244-0.684-0.244c-0.316,0-0.568,0.105-0.756,0.313c-0.182,0.204-0.293,0.488-0.33,0.857H83.072z"/>
	<path d="M92.699,58.009H91.14v-6.277h-2.295v-1.349h6.15v1.349h-2.297V58.009z"/>
	<path d="M101.083,56.377c-0.176,0.622-0.506,1.094-0.992,1.408c-0.404,0.275-0.867,0.409-1.393,0.409
		c-0.822,0-1.465-0.227-1.928-0.679c-0.52-0.526-0.777-1.335-0.777-2.424c-0.006-0.636,0.131-1.198,0.41-1.693
		c0.439-0.775,1.172-1.167,2.188-1.167c0.684,0,1.238,0.194,1.672,0.585c0.582,0.527,0.869,1.363,0.869,2.517v0.292h-3.697v0.037
		c0.053,0.368,0.137,0.646,0.248,0.835c0.203,0.337,0.541,0.502,1.016,0.502c0.199,0,0.387-0.055,0.555-0.165
		c0.176-0.115,0.299-0.268,0.371-0.457H101.083z M99.673,54.639c-0.043-0.413-0.176-0.719-0.412-0.927
		c-0.193-0.16-0.42-0.244-0.68-0.244c-0.316,0-0.57,0.105-0.756,0.313c-0.186,0.204-0.295,0.488-0.336,0.857H99.673z"/>
	<path d="M107.333,55.971c-0.047,0.492-0.211,0.936-0.504,1.332c-0.455,0.596-1.119,0.892-1.996,0.892
		c-0.939,0-1.631-0.326-2.064-0.973c-0.326-0.485-0.49-1.104-0.49-1.856c0-0.965,0.209-1.718,0.625-2.258
		c0.457-0.584,1.131-0.876,2.027-0.876c0.57,0,1.068,0.139,1.488,0.418c0.559,0.367,0.867,0.948,0.934,1.737h-1.447
		c-0.053-0.236-0.137-0.438-0.256-0.591c-0.162-0.216-0.379-0.319-0.652-0.313h-0.066c-0.418,0-0.723,0.189-0.926,0.558
		c-0.146,0.283-0.225,0.646-0.225,1.08c-0.002,0.5,0.045,0.888,0.146,1.15c0.17,0.466,0.49,0.701,0.967,0.701
		c0.316,0,0.572-0.135,0.768-0.408c0.15-0.202,0.223-0.398,0.223-0.593H107.333z"/>
	<path d="M113.75,58.009h-1.445v-3.416c-0.004-0.316-0.051-0.553-0.125-0.711c-0.143-0.267-0.418-0.399-0.83-0.399
		c-0.328,0-0.6,0.112-0.816,0.33c-0.217,0.242-0.328,0.567-0.328,0.975v3.222h-1.445v-7.626h1.445v2.731h0.02
		c0.1-0.243,0.289-0.451,0.574-0.617c0.314-0.179,0.666-0.266,1.053-0.266c0.561,0,1.008,0.161,1.352,0.477
		c0.365,0.337,0.547,0.811,0.547,1.418V58.009z"/>
	<path d="M120.359,58.009h-1.445v-3.416c-0.006-0.31-0.051-0.547-0.135-0.711c-0.143-0.267-0.408-0.399-0.797-0.399
		c-0.338,0-0.611,0.112-0.824,0.33c-0.219,0.233-0.33,0.56-0.33,0.975v3.222h-1.445v-5.624h1.395v0.828h0.01
		c0.16-0.272,0.334-0.48,0.516-0.622c0.313-0.241,0.689-0.359,1.139-0.359c0.563,0,1.018,0.161,1.363,0.477
		c0.371,0.337,0.555,0.811,0.555,1.418V58.009z"/>
	<path d="M126.427,57.479c-0.5,0.488-1.131,0.73-1.887,0.73c-0.779,0-1.418-0.242-1.926-0.73c-0.563-0.542-0.844-1.293-0.844-2.252
		c0-0.972,0.281-1.729,0.844-2.272c0.508-0.484,1.146-0.724,1.926-0.724c0.756,0,1.387,0.239,1.887,0.724
		c0.564,0.544,0.848,1.301,0.848,2.272C127.275,56.187,126.992,56.938,126.427,57.479z M125.564,54.072
		c-0.211-0.396-0.551-0.59-1.02-0.59c-0.484,0-0.832,0.193-1.051,0.59c-0.148,0.286-0.221,0.668-0.221,1.153
		c0,0.453,0.072,0.829,0.221,1.121c0.219,0.4,0.566,0.598,1.051,0.598c0.469,0,0.809-0.197,1.02-0.598
		c0.158-0.292,0.24-0.668,0.24-1.121C125.804,54.747,125.722,54.363,125.564,54.072z"/>
	<path d="M133.716,52.388v4.828c-0.006,0.591-0.135,1.051-0.391,1.366c-0.432,0.538-1.234,0.812-2.406,0.812
		c-0.652,0-1.178-0.114-1.584-0.336c-0.494-0.254-0.766-0.639-0.813-1.154h1.557c0.09,0.119,0.186,0.203,0.281,0.244
		c0.164,0.08,0.414,0.119,0.75,0.119c0.369,0,0.656-0.072,0.852-0.211c0.205-0.145,0.309-0.367,0.309-0.659v-0.567l-0.039-0.017
		c-0.135,0.256-0.303,0.454-0.496,0.592c-0.242,0.176-0.568,0.264-0.965,0.264c-0.695,0-1.26-0.235-1.688-0.71
		c-0.463-0.499-0.689-1.194-0.689-2.082c0-0.817,0.227-1.469,0.689-1.962c0.434-0.452,0.969-0.683,1.605-0.683
		c0.447,0,0.82,0.118,1.119,0.351c0.201,0.157,0.371,0.373,0.506,0.646h0.023v-0.84H133.716z M130.148,55.909
		c0.205,0.341,0.504,0.507,0.891,0.507c0.438,0,0.766-0.175,0.982-0.515c0.168-0.268,0.25-0.597,0.25-0.993
		c0-0.356-0.107-0.668-0.33-0.937c-0.24-0.298-0.543-0.448-0.912-0.448c-0.314,0-0.568,0.114-0.773,0.332
		c-0.24,0.26-0.363,0.637-0.363,1.122C129.892,55.333,129.978,55.645,130.148,55.909z"/>
	<path d="M138.244,57.467c-0.199,0.46-0.354,0.793-0.457,0.994c-0.143,0.265-0.287,0.462-0.43,0.59
		c-0.141,0.132-0.316,0.222-0.535,0.274c-0.195,0.052-0.463,0.077-0.803,0.077c-0.15,0-0.268-0.003-0.344-0.009
		c-0.133-0.009-0.236-0.017-0.32-0.02v-1.197c0.027,0.007,0.059,0.014,0.105,0.018c0.045,0.008,0.098,0.013,0.154,0.013
		c0.326,0,0.563-0.03,0.713-0.087c0.17-0.064,0.289-0.181,0.369-0.351l-2.041-5.538h1.602l1.197,3.894h0.031l1.16-3.894h1.508
		L138.244,57.467z"/>
	<path d="M146.466,56.645h3.68v1.378h-5.236v-7.625h1.557V56.645z"/>
	<path d="M156.265,56.377c-0.17,0.622-0.5,1.094-0.984,1.408c-0.404,0.275-0.867,0.409-1.396,0.409
		c-0.826,0-1.461-0.227-1.924-0.679c-0.52-0.526-0.779-1.335-0.779-2.424c-0.006-0.636,0.127-1.198,0.41-1.693
		c0.441-0.775,1.172-1.167,2.189-1.167c0.68,0,1.238,0.194,1.67,0.585c0.578,0.527,0.869,1.363,0.869,2.517v0.292h-3.699v0.037
		c0.051,0.368,0.139,0.646,0.252,0.835c0.201,0.337,0.539,0.502,1.012,0.502c0.201,0,0.385-0.055,0.555-0.165
		c0.176-0.115,0.303-0.268,0.369-0.457H156.265z M154.857,54.639c-0.037-0.413-0.172-0.719-0.406-0.927
		c-0.195-0.16-0.424-0.244-0.68-0.244c-0.32,0-0.574,0.105-0.762,0.313c-0.18,0.204-0.293,0.488-0.332,0.857H154.857z"/>
	<path d="M162.294,56.942c0,0.301,0.027,0.517,0.082,0.652c0.047,0.101,0.123,0.175,0.227,0.226v0.202h-1.549
		c-0.045-0.124-0.08-0.229-0.096-0.31c-0.016-0.081-0.027-0.192-0.041-0.331c-0.248,0.244-0.463,0.425-0.654,0.537
		c-0.332,0.193-0.705,0.291-1.129,0.291c-0.467,0-0.848-0.132-1.152-0.4c-0.354-0.299-0.529-0.722-0.529-1.269
		c0-0.526,0.154-0.951,0.461-1.268c0.273-0.296,0.654-0.476,1.139-0.545l1.309-0.195c0.146-0.035,0.262-0.077,0.34-0.129
		c0.113-0.081,0.174-0.185,0.174-0.313c0-0.281-0.111-0.471-0.34-0.568c-0.137-0.061-0.338-0.096-0.604-0.096
		c-0.334,0-0.566,0.087-0.711,0.262c-0.111,0.13-0.17,0.309-0.186,0.526h-1.391c0.07-0.786,0.357-1.33,0.854-1.644
		c0.369-0.229,0.902-0.341,1.596-0.341c0.537,0,1.004,0.097,1.389,0.292c0.537,0.285,0.813,0.737,0.813,1.356V56.942z
		 M160.875,55.28c-0.07,0.065-0.178,0.122-0.324,0.168c-0.148,0.05-0.365,0.101-0.65,0.143c-0.336,0.068-0.566,0.144-0.709,0.235
		c-0.191,0.135-0.293,0.345-0.293,0.621c0,0.242,0.076,0.421,0.227,0.547c0.127,0.097,0.275,0.144,0.449,0.144
		c0.35,0,0.643-0.099,0.887-0.301c0.277-0.213,0.414-0.485,0.414-0.817V55.28z"/>
	<path d="M168.908,58.014h-1.41v-0.682c-0.174,0.291-0.406,0.509-0.713,0.659c-0.275,0.134-0.568,0.203-0.891,0.203
		c-0.777,0-1.377-0.311-1.791-0.943c-0.363-0.549-0.547-1.25-0.547-2.108c0-0.936,0.234-1.666,0.693-2.19
		c0.422-0.481,0.955-0.721,1.598-0.721c0.416,0,0.771,0.104,1.072,0.313c0.201,0.134,0.381,0.326,0.523,0.572h0.02v-2.734h1.445
		V58.014z M165.292,56.361c0.209,0.406,0.527,0.61,0.955,0.61c0.432,0,0.768-0.166,1.004-0.509c0.195-0.298,0.299-0.675,0.299-1.136
		c0-0.526-0.088-0.94-0.264-1.246c-0.209-0.372-0.535-0.558-0.979-0.558c-0.439,0-0.764,0.175-0.977,0.531
		c-0.184,0.298-0.275,0.697-0.275,1.205C165.056,55.679,165.138,56.048,165.292,56.361z"/>
	<path d="M175.363,56.377c-0.174,0.622-0.508,1.094-0.996,1.408c-0.396,0.275-0.863,0.409-1.385,0.409
		c-0.826,0-1.469-0.227-1.928-0.679c-0.52-0.526-0.779-1.335-0.779-2.424c-0.006-0.636,0.127-1.198,0.404-1.693
		c0.443-0.775,1.176-1.167,2.195-1.167c0.676,0,1.24,0.194,1.672,0.585c0.574,0.527,0.863,1.363,0.863,2.517v0.292h-3.693v0.037
		c0.049,0.368,0.135,0.646,0.254,0.835c0.201,0.337,0.539,0.502,1.012,0.502c0.199,0,0.383-0.055,0.553-0.165
		c0.174-0.115,0.293-0.268,0.369-0.457H175.363z M173.951,54.639c-0.039-0.413-0.172-0.719-0.408-0.927
		c-0.193-0.16-0.42-0.244-0.68-0.244c-0.318,0-0.572,0.105-0.76,0.313c-0.184,0.204-0.293,0.488-0.332,0.857H173.951z"/>
	<path d="M176.855,52.388h1.389v0.988h0.01c0.186-0.379,0.369-0.644,0.543-0.804c0.262-0.226,0.598-0.341,1.016-0.341l0.281,0.022
		v1.532c-0.066-0.019-0.135-0.032-0.215-0.038c-0.047,0-0.109,0-0.186,0c-0.537,0-0.92,0.146-1.146,0.438
		c-0.164,0.214-0.242,0.52-0.242,0.912v2.919h-1.449V52.388z"/>
</g>
</svg>
