<?xml version="1.0" encoding="utf-8"?>
<!-- Generator: Adobe Illustrator 16.0.0, SVG Export Plug-In . SVG Version: 6.00 Build 0)  -->
<!DOCTYPE svg PUBLIC "-//W3C//DTD SVG 1.1//EN" "http://www.w3.org/Graphics/SVG/1.1/DTD/svg11.dtd">
<svg version="1.1" id="Layer_1" xmlns="http://www.w3.org/2000/svg" xmlns:xlink="http://www.w3.org/1999/xlink" x="0px" y="0px"
	 width="336.959px" height="175.914px" viewBox="0 0 336.959 175.914" enable-background="new 0 0 336.959 175.914"
	 xml:space="preserve">
<g>
	<g>
		<path fill="#FFFFFF" d="M139.21,89.168c2.029-10.622,8.712-18.409,16.625-18.409c7.8,0,14.396,7.58,16.545,17.99L139.21,89.168z
			 M191.467,96.09c0-22.907-16.252-41.475-36.298-41.475c-20.065,0-36.324,18.568-36.324,41.475
			c0,22.895,16.259,41.471,36.324,41.471c14.622,0,27.228-9.877,32.983-24.113l-17.902-3.561
			c-3.088,6.848-8.386,11.361-14.415,11.361c-8.22,0-15.088-7.494-16.831-18.742l52.084-0.359
			C191.348,100.17,191.474,98.147,191.467,96.09z"/>
		<path fill="#FFFFFF" d="M207.613,57.303h18.389v11.215c0,0,10.762-14.342,30.029-12.553c0,0,21.529,0.447,21.529,27.793v50.668
			h-20.186V84.211c0,0-0.445-16.139-18.362-12.553c0,0-11.667,4.479-11.228,18.829v44.385h-19.72L207.613,57.303z"/>
		<path fill="#FFFFFF" d="M317.452,136.663c-18.382,0-17.037-13.896-17.037-13.896V83.313h-10.303V69.855h10.303V56.857
			l19.727-9.418v23.32h13.004v13.451h-13.45v33.17c1.345,8.979,14.788,3.588,14.788,3.588l2.476,12.537
			C328.993,137.088,317.452,136.663,317.452,136.663z"/>
		<rect x="0.479" y="46.549" fill="#FFFFFF" width="20.186" height="15.686"/>
		<rect x="0.479" y="70.76" fill="#FFFFFF" width="20.186" height="63.667"/>
		
			<rect x="33.33" y="14.895" fill="none" stroke="#1D1D1B" stroke-width="0.1764" stroke-linecap="round" stroke-linejoin="round" width="78.427" height="128.981"/>
		<path fill="#FFFFFF" d="M72.776,26.262c15.573,0,28.957,13.564,34.881,33.004l-19.847,4.799
			c-3.135-9.377-8.691-15.613-15.034-15.613c-9.78,0-17.71,14.855-17.71,33.178c0,18.323,7.93,33.176,17.71,33.176
			c7.428,0,13.803-8.584,16.419-20.744l19.872,4.512c-4.925,22.289-19.307,38.436-36.291,38.436
			c-21.048,0-38.105-24.799-38.105-55.379C34.671,51.047,51.729,26.262,72.776,26.262z M112.682,145.772V0H29.294v145.772H0v4.027
			h335.861v-4.027H112.682z"/>
	</g>
	<g>
		<path fill="#FFFFFF" d="M3.161,171.885h-2.94v-14.408h2.94V171.885z"/>
		<path fill="#FFFFFF" d="M9.876,171.905h-2.94v-14.428h6.305c1.35,0,2.416,0.42,3.2,1.26c0.771,0.82,1.155,1.949,1.155,3.389
			c-0.01,1.016-0.285,1.941-0.827,2.77c-0.794,1.221-2.009,1.824-3.637,1.824H9.876V171.905z M12.492,164.25
			c0.932,0,1.572-0.301,1.913-0.898c0.185-0.336,0.276-0.781,0.276-1.359c0-0.709-0.207-1.229-0.624-1.543
			c-0.406-0.32-1.05-0.479-1.933-0.479H9.876v4.279H12.492z"/>
		<path fill="#FFFFFF" d="M35.586,162.27c-0.185-0.697-0.424-1.223-0.716-1.563c-0.528-0.617-1.307-0.92-2.334-0.92
			c-0.919,0-1.687,0.314-2.298,0.957c-0.811,0.854-1.214,2.18-1.214,3.979c0,1.393,0.269,2.527,0.808,3.4
			c0.613,0.984,1.513,1.482,2.704,1.482c0.808,0,1.471-0.234,1.982-0.695c0.528-0.471,0.883-1.143,1.067-2.021h2.96
			c-0.331,1.643-0.987,2.922-1.966,3.834c-1.066,1.01-2.438,1.51-4.119,1.51c-1.937,0-3.473-0.643-4.608-1.93
			c-1.198-1.34-1.795-3.223-1.795-5.633c0-2.389,0.617-4.252,1.851-5.6c1.159-1.273,2.685-1.91,4.572-1.91
			c1.897,0,3.41,0.578,4.539,1.746c0.906,0.953,1.415,2.076,1.526,3.363H35.586z"/>
		<path fill="#FFFFFF" d="M49.613,170.879c-0.942,0.92-2.13,1.381-3.564,1.381c-1.471,0-2.682-0.461-3.637-1.381
			c-1.066-1.021-1.599-2.439-1.599-4.252c0-1.838,0.532-3.262,1.599-4.293c0.955-0.912,2.166-1.365,3.637-1.365
			c1.435,0,2.622,0.453,3.564,1.365c1.066,1.031,1.599,2.455,1.599,4.293C51.212,168.44,50.68,169.858,49.613,170.879z
			 M47.988,164.442c-0.406-0.742-1.05-1.109-1.93-1.109c-0.919,0-1.582,0.367-1.986,1.109c-0.281,0.545-0.423,1.266-0.423,2.18
			c0,0.859,0.142,1.566,0.423,2.119c0.404,0.756,1.067,1.129,1.986,1.129c0.88,0,1.523-0.373,1.93-1.129
			c0.292-0.553,0.44-1.26,0.44-2.119C48.429,165.721,48.28,164.993,47.988,164.442z"/>
		<path fill="#FFFFFF" d="M63.222,171.877H60.49v-6.451c-0.013-0.584-0.099-1.031-0.256-1.34c-0.27-0.506-0.769-0.754-1.503-0.754
			c-0.634,0-1.152,0.209-1.557,0.623c-0.416,0.439-0.623,1.057-0.623,1.838v6.084h-2.73v-10.619h2.632v1.563h0.017
			c0.309-0.514,0.633-0.906,0.975-1.176c0.591-0.453,1.307-0.676,2.153-0.676c1.066,0,1.927,0.303,2.576,0.898
			c0.699,0.637,1.048,1.531,1.048,2.678V171.877z"/>
		<path fill="#FFFFFF" d="M72.093,172.233h-2.908l-3.748-11.264h3.033l2.172,8.455h0.072l2.238-8.455h2.908L72.093,172.233z"/>
		<path fill="#FFFFFF" d="M87.171,168.799c-0.328,1.176-0.952,2.063-1.871,2.658c-0.762,0.52-1.634,0.775-2.632,0.775
			c-1.55,0-2.771-0.434-3.637-1.287c-0.984-0.99-1.471-2.52-1.471-4.574c-0.013-1.201,0.249-2.266,0.774-3.197
			c0.827-1.469,2.206-2.205,4.136-2.205c1.286,0,2.337,0.367,3.157,1.102c1.097,0.998,1.635,2.58,1.635,4.754v0.551h-6.984v0.072
			c0.104,0.695,0.263,1.221,0.479,1.576c0.381,0.637,1.018,0.951,1.91,0.951c0.38,0,0.734-0.105,1.05-0.314
			c0.328-0.217,0.564-0.506,0.696-0.861H87.171z M84.506,165.512c-0.072-0.775-0.328-1.354-0.769-1.748
			c-0.367-0.301-0.794-0.459-1.286-0.459c-0.598,0-1.083,0.197-1.438,0.592c-0.342,0.381-0.552,0.918-0.624,1.615H84.506z"/>
		<path fill="#FFFFFF" d="M89.986,161.264h2.626v1.863h0.02c0.354-0.713,0.696-1.213,1.031-1.516
			c0.485-0.426,1.122-0.643,1.91-0.643l0.532,0.039v2.895c-0.125-0.033-0.257-0.059-0.401-0.072c-0.092,0-0.203,0-0.354,0
			c-1.018,0-1.739,0.275-2.166,0.828c-0.309,0.406-0.459,0.984-0.459,1.725v5.516h-2.738V161.264z"/>
		<path fill="#FFFFFF" d="M108.059,161.264v9.117c-0.007,1.117-0.257,1.982-0.735,2.58c-0.814,1.018-2.33,1.529-4.549,1.529
			c-1.228,0-2.226-0.209-2.994-0.629c-0.932-0.48-1.443-1.209-1.528-2.18h2.94c0.177,0.223,0.354,0.381,0.538,0.459
			c0.302,0.15,0.774,0.223,1.411,0.223c0.703,0,1.234-0.131,1.602-0.393c0.395-0.275,0.585-0.695,0.585-1.248v-1.07l-0.072-0.033
			c-0.257,0.486-0.571,0.861-0.933,1.117c-0.466,0.334-1.076,0.498-1.818,0.498c-1.325,0-2.389-0.445-3.196-1.34
			c-0.867-0.943-1.307-2.258-1.307-3.932c0-1.543,0.439-2.775,1.307-3.707c0.82-0.854,1.831-1.287,3.032-1.287
			c0.847,0,1.556,0.223,2.113,0.662c0.382,0.295,0.703,0.703,0.959,1.215h0.039v-1.582H108.059z M101.317,167.913
			c0.394,0.645,0.951,0.961,1.687,0.961c0.827,0,1.444-0.33,1.852-0.973c0.314-0.506,0.473-1.129,0.473-1.877
			c0-0.676-0.204-1.262-0.624-1.768c-0.446-0.564-1.024-0.846-1.72-0.846c-0.584,0-1.076,0.211-1.464,0.623
			c-0.453,0.492-0.683,1.201-0.683,2.121C100.838,166.825,101.002,167.415,101.317,167.913z"/>
		<path fill="#FFFFFF" d="M120.091,168.799c-0.328,1.176-0.952,2.063-1.871,2.658c-0.762,0.52-1.641,0.775-2.632,0.775
			c-1.557,0-2.771-0.434-3.637-1.287c-0.984-0.99-1.471-2.52-1.471-4.574c-0.013-1.201,0.243-2.266,0.769-3.197
			c0.833-1.469,2.212-2.205,4.135-2.205c1.287,0,2.344,0.367,3.164,1.102c1.09,0.998,1.635,2.58,1.635,4.754v0.551h-6.984v0.072
			c0.099,0.695,0.256,1.221,0.479,1.576c0.381,0.637,1.018,0.951,1.91,0.951c0.38,0,0.729-0.105,1.05-0.314
			c0.328-0.217,0.564-0.506,0.696-0.861H120.091z M117.426,165.512c-0.072-0.775-0.328-1.354-0.768-1.748
			c-0.368-0.301-0.801-0.459-1.287-0.459c-0.604,0-1.083,0.197-1.438,0.592c-0.342,0.381-0.552,0.918-0.624,1.615H117.426z"/>
		<path fill="#FFFFFF" d="M132.202,171.877h-2.73v-6.451c-0.014-0.584-0.099-1.031-0.257-1.34c-0.269-0.506-0.768-0.754-1.503-0.754
			c-0.637,0-1.155,0.209-1.556,0.623c-0.413,0.439-0.624,1.057-0.624,1.838v6.084h-2.73v-10.619h2.633v1.563h0.02
			c0.302-0.514,0.63-0.906,0.971-1.176c0.592-0.453,1.307-0.676,2.153-0.676c1.063,0,1.924,0.303,2.573,0.898
			c0.702,0.637,1.051,1.531,1.051,2.678V171.877z"/>
		<path fill="#FFFFFF" d="M144.438,168.032c-0.092,0.932-0.407,1.766-0.958,2.514c-0.859,1.123-2.114,1.688-3.769,1.688
			c-1.778,0-3.078-0.617-3.898-1.838c-0.617-0.92-0.919-2.088-0.919-3.506c0-1.824,0.387-3.248,1.175-4.266
			c0.859-1.104,2.134-1.654,3.827-1.654c1.076,0,2.016,0.262,2.81,0.787c1.057,0.695,1.641,1.791,1.766,3.283h-2.737
			c-0.099-0.447-0.256-0.828-0.479-1.117c-0.302-0.406-0.715-0.604-1.228-0.59h-0.131c-0.788,0-1.365,0.354-1.747,1.051
			c-0.281,0.537-0.42,1.221-0.42,2.041c-0.013,0.943,0.079,1.674,0.276,2.172c0.315,0.879,0.925,1.326,1.818,1.326
			c0.598,0,1.083-0.256,1.45-0.773c0.283-0.383,0.421-0.75,0.421-1.117H144.438z"/>
		<path fill="#FFFFFF" d="M156.155,168.799c-0.335,1.176-0.959,2.063-1.878,2.658c-0.761,0.52-1.634,0.775-2.625,0.775
			c-1.557,0-2.771-0.434-3.644-1.287c-0.979-0.99-1.471-2.52-1.471-4.574c-0.007-1.201,0.25-2.266,0.774-3.197
			c0.834-1.469,2.213-2.205,4.136-2.205c1.287,0,2.344,0.367,3.164,1.102c1.09,0.998,1.635,2.58,1.635,4.754v0.551h-6.984v0.072
			c0.099,0.695,0.256,1.221,0.479,1.576c0.375,0.637,1.018,0.951,1.911,0.951c0.38,0,0.729-0.105,1.043-0.314
			c0.335-0.217,0.564-0.506,0.702-0.861H156.155z M153.49,165.512c-0.072-0.775-0.335-1.354-0.774-1.748
			c-0.368-0.301-0.795-0.459-1.287-0.459c-0.598,0-1.076,0.197-1.431,0.592c-0.342,0.381-0.552,0.918-0.624,1.615H153.49z"/>
		<path fill="#FFFFFF" d="M171.674,171.877h-2.941v-11.855h-4.339v-2.545h11.618v2.545h-4.338V171.877z"/>
		<path fill="#FFFFFF" d="M187.513,168.799c-0.335,1.176-0.958,2.063-1.877,2.658c-0.762,0.52-1.635,0.775-2.626,0.775
			c-1.556,0-2.77-0.434-3.643-1.287c-0.979-0.99-1.471-2.52-1.471-4.574c-0.014-1.201,0.249-2.266,0.774-3.197
			c0.833-1.469,2.212-2.205,4.136-2.205c1.287,0,2.337,0.367,3.156,1.102c1.097,0.998,1.643,2.58,1.643,4.754v0.551h-6.985v0.072
			c0.099,0.695,0.257,1.221,0.474,1.576c0.38,0.637,1.017,0.951,1.916,0.951c0.375,0,0.729-0.105,1.044-0.314
			c0.335-0.217,0.564-0.506,0.702-0.861H187.513z M184.848,165.512c-0.078-0.775-0.334-1.354-0.774-1.748
			c-0.367-0.301-0.794-0.459-1.286-0.459c-0.598,0-1.077,0.197-1.432,0.592c-0.348,0.381-0.551,0.918-0.631,1.615H184.848z"/>
		<path fill="#FFFFFF" d="M199.315,168.032c-0.085,0.932-0.4,1.766-0.952,2.514c-0.859,1.123-2.113,1.688-3.768,1.688
			c-1.779,0-3.078-0.617-3.898-1.838c-0.617-0.92-0.926-2.088-0.926-3.506c0-1.824,0.394-3.248,1.182-4.266
			c0.859-1.104,2.133-1.654,3.826-1.654c1.076,0,2.016,0.262,2.81,0.787c1.058,0.695,1.642,1.791,1.767,3.283h-2.738
			c-0.098-0.447-0.256-0.828-0.479-1.117c-0.309-0.406-0.716-0.604-1.234-0.59h-0.125c-0.787,0-1.365,0.354-1.746,1.051
			c-0.281,0.537-0.426,1.221-0.426,2.041c-0.008,0.943,0.084,1.674,0.275,2.172c0.321,0.879,0.926,1.326,1.824,1.326
			c0.598,0,1.084-0.256,1.451-0.773c0.282-0.383,0.42-0.75,0.42-1.117H199.315z"/>
		<path fill="#FFFFFF" d="M211.434,171.877h-2.73v-6.451c-0.008-0.598-0.093-1.043-0.237-1.34c-0.269-0.506-0.787-0.754-1.562-0.754
			c-0.624,0-1.137,0.209-1.543,0.623c-0.414,0.453-0.624,1.07-0.624,1.838v6.084h-2.73v-14.4h2.73v5.158h0.04
			c0.184-0.459,0.545-0.854,1.082-1.168c0.592-0.334,1.255-0.498,1.99-0.498c1.057,0,1.903,0.303,2.553,0.898
			c0.689,0.637,1.031,1.531,1.031,2.678V171.877z"/>
		<path fill="#FFFFFF" d="M223.918,171.877h-2.73v-6.451c-0.014-0.584-0.098-1.031-0.256-1.34c-0.27-0.506-0.768-0.754-1.503-0.754
			c-0.638,0-1.155,0.209-1.556,0.623c-0.414,0.439-0.624,1.057-0.624,1.838v6.084h-2.731v-10.619h2.633v1.563h0.02
			c0.303-0.514,0.631-0.906,0.972-1.176c0.591-0.453,1.307-0.676,2.153-0.676c1.063,0,1.924,0.303,2.573,0.898
			c0.702,0.637,1.05,1.531,1.05,2.678V171.877z"/>
		<path fill="#FFFFFF" d="M235.38,170.879c-0.945,0.92-2.134,1.381-3.564,1.381c-1.47,0-2.679-0.461-3.637-1.381
			c-1.063-1.021-1.595-2.439-1.595-4.252c0-1.838,0.531-3.262,1.595-4.293c0.958-0.912,2.167-1.365,3.637-1.365
			c1.431,0,2.619,0.453,3.564,1.365c1.063,1.031,1.602,2.455,1.602,4.293C236.981,168.44,236.443,169.858,235.38,170.879z
			 M233.752,164.442c-0.4-0.742-1.044-1.109-1.93-1.109c-0.92,0-1.576,0.367-1.982,1.109c-0.283,0.545-0.42,1.266-0.42,2.18
			c0,0.859,0.137,1.566,0.42,2.119c0.406,0.756,1.063,1.129,1.982,1.129c0.886,0,1.529-0.373,1.93-1.129
			c0.295-0.553,0.445-1.26,0.445-2.119C234.197,165.721,234.047,164.993,233.752,164.442z"/>
		<path fill="#FFFFFF" d="M249.145,161.264v9.117c-0.013,1.117-0.256,1.982-0.734,2.58c-0.814,1.018-2.33,1.529-4.549,1.529
			c-1.229,0-2.227-0.209-2.994-0.629c-0.932-0.48-1.443-1.209-1.529-2.18h2.941c0.17,0.223,0.348,0.381,0.531,0.459
			c0.309,0.15,0.781,0.223,1.418,0.223c0.695,0,1.234-0.131,1.602-0.393c0.387-0.275,0.584-0.695,0.584-1.248v-1.07l-0.072-0.033
			c-0.256,0.486-0.57,0.861-0.938,1.117c-0.46,0.334-1.069,0.498-1.818,0.498c-1.319,0-2.383-0.445-3.19-1.34
			c-0.873-0.943-1.306-2.258-1.306-3.932c0-1.543,0.433-2.775,1.306-3.707c0.82-0.854,1.832-1.287,3.033-1.287
			c0.847,0,1.549,0.223,2.113,0.662c0.381,0.295,0.703,0.703,0.959,1.215h0.039v-1.582H249.145z M242.403,167.913
			c0.388,0.645,0.952,0.961,1.687,0.961c0.828,0,1.445-0.33,1.852-0.973c0.315-0.506,0.473-1.129,0.473-1.877
			c0-0.676-0.203-1.262-0.623-1.768c-0.453-0.564-1.024-0.846-1.721-0.846c-0.59,0-1.076,0.211-1.463,0.623
			c-0.453,0.492-0.684,1.201-0.684,2.121C241.924,166.825,242.082,167.415,242.403,167.913z"/>
		<path fill="#FFFFFF" d="M257.698,170.856c-0.38,0.871-0.669,1.496-0.866,1.875c-0.27,0.5-0.539,0.875-0.808,1.117
			c-0.269,0.25-0.604,0.42-1.011,0.52c-0.367,0.098-0.873,0.145-1.523,0.145c-0.282,0-0.498-0.008-0.643-0.021
			c-0.25-0.012-0.447-0.025-0.611-0.033V172.2c0.053,0.008,0.119,0.02,0.203,0.033c0.086,0.014,0.185,0.02,0.297,0.02
			c0.609,0,1.057-0.053,1.338-0.164c0.322-0.117,0.552-0.342,0.703-0.662l-3.859-10.457h3.031l2.259,7.352h0.06l2.186-7.352h2.85
			L257.698,170.856z"/>
		<path fill="#FFFFFF" d="M273.229,169.305h6.944v2.6h-9.885v-14.402h2.94V169.305z"/>
		<path fill="#FFFFFF" d="M291.74,168.799c-0.327,1.176-0.952,2.063-1.87,2.658c-0.762,0.52-1.634,0.775-2.632,0.775
			c-1.557,0-2.765-0.434-3.637-1.287c-0.979-0.99-1.471-2.52-1.471-4.574c-0.014-1.201,0.243-2.266,0.775-3.197
			c0.832-1.469,2.211-2.205,4.134-2.205c1.286,0,2.338,0.367,3.157,1.102c1.091,0.998,1.636,2.58,1.636,4.754v0.551h-6.985v0.072
			c0.098,0.695,0.264,1.221,0.479,1.576c0.382,0.637,1.017,0.951,1.911,0.951c0.379,0,0.729-0.105,1.05-0.314
			c0.328-0.217,0.564-0.506,0.695-0.861H291.74z M289.076,165.512c-0.073-0.775-0.329-1.354-0.769-1.748
			c-0.368-0.301-0.802-0.459-1.287-0.459c-0.603,0-1.077,0.197-1.437,0.592c-0.342,0.381-0.551,0.918-0.625,1.615H289.076z"/>
		<path fill="#FFFFFF" d="M303.117,169.864c0,0.572,0.059,0.979,0.164,1.234c0.085,0.189,0.229,0.328,0.426,0.426v0.381h-2.929
			c-0.084-0.236-0.149-0.434-0.182-0.584c-0.027-0.152-0.053-0.361-0.072-0.623c-0.474,0.459-0.88,0.801-1.24,1.012
			c-0.624,0.365-1.333,0.551-2.135,0.551c-0.873,0-1.595-0.25-2.173-0.756c-0.663-0.564-0.998-1.365-0.998-2.396
			c0-0.996,0.289-1.797,0.867-2.396c0.513-0.557,1.235-0.898,2.153-1.029l2.469-0.367c0.281-0.066,0.49-0.145,0.643-0.242
			c0.216-0.152,0.328-0.35,0.328-0.592c0-0.531-0.211-0.887-0.645-1.07c-0.256-0.119-0.635-0.184-1.134-0.184
			c-0.63,0-1.077,0.164-1.347,0.498c-0.21,0.242-0.322,0.578-0.347,0.992h-2.626c0.131-1.484,0.668-2.516,1.614-3.105
			c0.696-0.434,1.699-0.643,3.013-0.643c1.018,0,1.891,0.184,2.62,0.551c1.018,0.539,1.529,1.391,1.529,2.561V169.864z
			 M300.438,166.725c-0.131,0.125-0.336,0.23-0.611,0.316c-0.281,0.098-0.688,0.189-1.232,0.275
			c-0.631,0.125-1.071,0.27-1.328,0.439c-0.373,0.256-0.557,0.65-0.557,1.174c0,0.455,0.145,0.797,0.426,1.031
			c0.237,0.186,0.519,0.275,0.848,0.275c0.657,0,1.214-0.189,1.68-0.57c0.519-0.4,0.775-0.918,0.775-1.543V166.725z"/>
		<path fill="#FFFFFF" d="M315.614,171.885h-2.67v-1.287c-0.316,0.551-0.763,0.967-1.341,1.248c-0.519,0.256-1.075,0.387-1.68,0.387
			c-1.47,0-2.599-0.59-3.387-1.785c-0.684-1.037-1.03-2.363-1.03-3.984c0-1.766,0.438-3.145,1.306-4.137
			c0.802-0.904,1.805-1.357,3.019-1.357c0.788,0,1.458,0.195,2.022,0.592c0.382,0.254,0.715,0.615,0.998,1.082h0.033v-5.166h2.729
			V171.885z M308.781,168.766c0.395,0.77,0.998,1.156,1.805,1.156c0.821,0,1.451-0.316,1.893-0.959
			c0.379-0.564,0.569-1.279,0.569-2.152c0-0.992-0.163-1.771-0.498-2.35c-0.388-0.703-1.012-1.051-1.852-1.051
			c-0.821,0-1.438,0.328-1.838,0.998c-0.349,0.564-0.519,1.318-0.519,2.277C308.342,167.481,308.492,168.176,308.781,168.766z"/>
		<path fill="#FFFFFF" d="M327.805,168.799c-0.327,1.176-0.958,2.063-1.876,2.658c-0.756,0.52-1.636,0.775-2.626,0.775
			c-1.557,0-2.771-0.434-3.638-1.287c-0.984-0.99-1.47-2.52-1.47-4.574c-0.013-1.201,0.243-2.266,0.767-3.197
			c0.835-1.469,2.214-2.205,4.137-2.205c1.286,0,2.344,0.367,3.163,1.102c1.09,0.998,1.636,2.58,1.636,4.754v0.551h-6.985v0.072
			c0.098,0.695,0.256,1.221,0.479,1.576c0.382,0.637,1.018,0.951,1.911,0.951c0.379,0,0.728-0.105,1.05-0.314
			c0.327-0.217,0.557-0.506,0.695-0.861H327.805z M325.141,165.512c-0.073-0.775-0.33-1.354-0.774-1.748
			c-0.368-0.301-0.796-0.459-1.287-0.459c-0.598,0-1.077,0.197-1.432,0.592c-0.341,0.381-0.551,0.918-0.624,1.615H325.141z"/>
		<path fill="#FFFFFF" d="M330.621,161.264h2.626v1.863h0.019c0.354-0.713,0.695-1.213,1.025-1.516
			c0.491-0.426,1.129-0.643,1.917-0.643l0.531,0.039v2.895c-0.125-0.033-0.256-0.059-0.406-0.072c-0.087,0-0.204,0-0.349,0
			c-1.018,0-1.74,0.275-2.166,0.828c-0.31,0.406-0.46,0.984-0.46,1.725v5.516h-2.737V161.264z"/>
	</g>
</g>
</svg>
