<?xml version="1.0" encoding="utf-8"?>
<!-- Generator: Adobe Illustrator 16.0.0, SVG Export Plug-In . SVG Version: 6.00 Build 0)  -->
<!DOCTYPE svg PUBLIC "-//W3C//DTD SVG 1.1//EN" "http://www.w3.org/Graphics/SVG/1.1/DTD/svg11.dtd">
<svg version="1.1" id="Layer_1" xmlns="http://www.w3.org/2000/svg" xmlns:xlink="http://www.w3.org/1999/xlink" x="0px" y="0px"
	 width="130px" height="30px" viewBox="0 0 130 30" enable-background="new 0 0 130 30" xml:space="preserve">
<g>
	<g id="XMLID_3_">
		<g>
			<path fill="#3C3C3C" d="M128.146,29.247c-0.011,0-0.019,0-0.027,0c-0.585-0.017-1.049-0.5-1.032-1.085
				c0.163-6.193-2.333-12.314-6.841-16.799c-4.495-4.468-10.572-6.923-16.676-6.725c-0.58-0.002-1.072-0.441-1.09-1.024
				c-0.021-0.584,0.437-1.071,1.021-1.09c6.705-0.204,13.331,2.465,18.233,7.343c4.92,4.889,7.644,11.578,7.466,18.351
				C129.186,28.792,128.716,29.247,128.146,29.247z"/>
			<path fill="#3C3C3C" d="M119.736,29.247c-0.021,0-0.041,0-0.063-0.004c-0.583-0.033-1.025-0.534-0.992-1.116
				c0.229-3.898-1.341-7.837-4.306-10.799c-2.96-2.957-6.903-4.516-10.776-4.285c-0.582,0.041-1.084-0.408-1.119-0.991
				c-0.037-0.583,0.408-1.084,0.992-1.12c4.5-0.269,9.008,1.516,12.396,4.899c3.394,3.39,5.188,7.915,4.923,12.418
				C120.758,28.813,120.293,29.247,119.736,29.247z"/>
		</g>
	</g>
	<g>
		<path fill="#3C3C3C" d="M2.615,5.695c-0.505,0-0.933-0.171-1.291-0.516C0.971,4.835,0.792,4.4,0.792,3.873S0.97,2.908,1.324,2.559
			c0.357-0.35,0.786-0.524,1.291-0.524c0.515,0,0.954,0.174,1.315,0.524c0.361,0.349,0.542,0.787,0.542,1.314
			c0,0.506-0.18,0.936-0.542,1.291C3.569,5.518,3.13,5.695,2.615,5.695z M3.99,27.771H1.171V10.167H3.99V27.771z"/>
		<path fill="#3C3C3C" d="M14.86,19.072H7.82v-2.219h7.04V19.072z"/>
		<path fill="#3C3C3C" d="M17.945,26.773v-3.402c0.389,0.343,0.856,0.652,1.401,0.928c0.545,0.276,1.117,0.508,1.72,0.696
			c0.602,0.19,1.207,0.335,1.813,0.438c0.608,0.104,1.168,0.153,1.685,0.153c1.776,0,3.103-0.328,3.979-0.987
			c0.877-0.66,1.316-1.609,1.316-2.848c0-0.663-0.146-1.24-0.438-1.734c-0.292-0.492-0.696-0.941-1.212-1.351
			c-0.517-0.408-1.126-0.796-1.831-1.169c-0.705-0.372-1.464-0.768-2.278-1.18c-0.86-0.434-1.661-0.875-2.407-1.323
			c-0.745-0.445-1.393-0.937-1.942-1.479c-0.551-0.537-0.984-1.149-1.299-1.83c-0.315-0.68-0.472-1.48-0.472-2.398
			c0-1.124,0.246-2.1,0.738-2.932c0.493-0.832,1.141-1.517,1.943-2.056c0.803-0.538,1.716-0.938,2.743-1.202
			c1.025-0.263,2.072-0.396,3.138-0.396c2.429,0,4.2,0.292,5.313,0.876v3.25C30.4,5.82,28.531,5.316,26.249,5.316
			c-0.631,0-1.26,0.066-1.891,0.198c-0.63,0.131-1.192,0.347-1.684,0.646c-0.493,0.296-0.895,0.68-1.203,1.149
			c-0.311,0.471-0.465,1.045-0.465,1.72c0,0.632,0.116,1.177,0.353,1.634c0.234,0.459,0.582,0.877,1.04,1.255
			c0.459,0.378,1.017,0.747,1.677,1.103c0.659,0.353,1.418,0.743,2.277,1.168c0.884,0.436,1.72,0.892,2.511,1.375
			c0.79,0.479,1.485,1.014,2.081,1.601c0.595,0.582,1.068,1.229,1.419,1.94c0.348,0.711,0.522,1.523,0.522,2.441
			c0,1.215-0.238,2.241-0.713,3.085c-0.476,0.845-1.118,1.527-1.926,2.056c-0.807,0.527-1.739,0.91-2.793,1.145
			c-1.054,0.234-2.166,0.354-3.336,0.354c-0.389,0-0.871-0.031-1.443-0.097c-0.574-0.062-1.158-0.155-1.754-0.274
			c-0.597-0.119-1.161-0.271-1.694-0.447C18.692,27.191,18.267,26.993,17.945,26.773z"/>
		<path fill="#3C3C3C" d="M49.148,27.771h-2.82V25.02H46.26c-1.227,2.11-3.032,3.166-5.415,3.166c-1.755,0-3.127-0.467-4.119-1.393
			c-0.992-0.932-1.487-2.162-1.487-3.699c0-3.289,1.937-5.203,5.812-5.742l5.277-0.74c0-2.989-1.209-4.486-3.627-4.486
			c-2.12,0-4.035,0.722-5.743,2.167v-2.887c1.73-1.103,3.726-1.653,5.982-1.653c4.139,0,6.208,2.19,6.208,6.568V27.771z
			 M46.328,18.866l-4.247,0.584c-1.307,0.185-2.292,0.509-2.957,0.972c-0.666,0.465-0.997,1.286-0.997,2.467
			c0,0.858,0.307,1.563,0.92,2.106c0.612,0.545,1.431,0.815,2.45,0.815c1.399,0,2.553-0.49,3.464-1.47
			c0.912-0.979,1.367-2.221,1.367-3.723V18.866z"/>
		<path fill="#3C3C3C" d="M67.421,10.167l-7.016,17.604h-2.767l-6.67-17.604h3.093l4.469,12.791c0.333,0.94,0.54,1.76,0.62,2.459
			h0.069c0.116-0.883,0.298-1.679,0.551-2.392l4.676-12.858H67.421z"/>
		<path fill="#3C3C3C" d="M83.714,19.674h-12.43c0.047,1.96,0.573,3.473,1.582,4.538c1.009,1.067,2.396,1.599,4.161,1.599
			c1.982,0,3.807-0.651,5.469-1.959V26.5c-1.551,1.123-3.596,1.686-6.141,1.686c-2.484,0-4.439-0.799-5.86-2.397
			c-1.423-1.601-2.134-3.851-2.134-6.748c0-2.742,0.777-4.974,2.33-6.698c1.552-1.724,3.48-2.589,5.787-2.589
			c2.304,0,4.086,0.745,5.347,2.236c1.26,1.49,1.889,3.56,1.889,6.207V19.674z M80.828,17.285c-0.012-1.627-0.404-2.895-1.178-3.801
			c-0.772-0.904-1.851-1.359-3.226-1.359c-1.329,0-2.458,0.477-3.389,1.428c-0.927,0.951-1.5,2.194-1.718,3.732H80.828z"/>
		<path fill="#3C3C3C" d="M96.281,13.022c-0.491-0.38-1.204-0.569-2.133-0.569c-1.203,0-2.209,0.569-3.018,1.703
			c-0.809,1.133-1.213,2.681-1.213,4.643v8.975H87.1V10.167h2.819v3.628h0.069c0.402-1.239,1.014-2.204,1.841-2.899
			c0.823-0.692,1.748-1.04,2.769-1.04c0.731,0,1.293,0.081,1.685,0.242L96.281,13.022L96.281,13.022z"/>
	</g>
	<g>
		<path fill="#3C3C3C" d="M107.805,29.146c-2.588,0-4.69-2.106-4.69-4.692c0-2.589,2.104-4.692,4.69-4.692
			c2.588,0,4.694,2.104,4.694,4.692C112.499,27.04,110.393,29.146,107.805,29.146z M107.805,21.682c-1.527,0-2.77,1.244-2.77,2.772
			c0,1.526,1.24,2.771,2.77,2.771c1.527,0,2.772-1.242,2.772-2.771S109.331,21.682,107.805,21.682z"/>
	</g>
</g>
</svg>
