<?xml version="1.0" encoding="utf-8"?>
<!-- Generator: Adobe Illustrator 16.0.0, SVG Export Plug-In . SVG Version: 6.00 Build 0)  -->
<!DOCTYPE svg PUBLIC "-//W3C//DTD SVG 1.1//EN" "http://www.w3.org/Graphics/SVG/1.1/DTD/svg11.dtd">
<svg version="1.1" id="Layer_1" xmlns="http://www.w3.org/2000/svg" xmlns:xlink="http://www.w3.org/1999/xlink" x="0px" y="0px"
	 width="135px" height="30px" viewBox="0 0 135 30" enable-background="new 0 0 135 30" xml:space="preserve">
<g>
	<path fill="#3C3C3C" d="M31.099,17.82c-0.297-0.765-0.702-1.438-1.207-2c-0.493-0.55-1.08-1.02-1.745-1.396
		c-0.611-0.347-1.267-0.643-1.947-0.881c-0.652-0.229-1.325-0.427-2-0.593c-0.651-0.158-1.281-0.31-1.895-0.454
		c-0.983-0.231-1.805-0.479-2.441-0.734c-0.578-0.231-1.036-0.492-1.363-0.773c-0.283-0.244-0.473-0.499-0.583-0.782
		c-0.126-0.325-0.189-0.729-0.189-1.202c0-1.008,0.321-1.736,1.01-2.295c0.745-0.603,1.926-0.908,3.512-0.908
		c0.766,0,1.444,0.095,2.019,0.279c0.557,0.179,1.037,0.427,1.43,0.735c0.39,0.308,0.7,0.663,0.946,1.087
		c0.256,0.439,0.443,0.922,0.556,1.436l0.199,0.9h3.682L30.93,8.955c-0.131-1.103-0.44-2.111-0.92-2.996
		c-0.485-0.893-1.128-1.663-1.913-2.29c-0.773-0.617-1.683-1.093-2.703-1.415c-2.004-0.629-4.588-0.637-6.569,0.042
		c-1.016,0.348-1.906,0.849-2.648,1.491c-0.751,0.654-1.34,1.447-1.749,2.356c-0.408,0.908-0.615,1.914-0.615,2.991
		c0,0.99,0.155,1.884,0.462,2.653c0.317,0.797,0.811,1.511,1.466,2.118c0.619,0.577,1.404,1.084,2.332,1.508
		c0.875,0.398,1.929,0.755,3.151,1.063c1.342,0.319,2.476,0.636,3.373,0.94c0.822,0.278,1.482,0.59,1.962,0.928
		c0.402,0.283,0.673,0.591,0.831,0.941c0.173,0.388,0.261,0.9,0.261,1.522c0,0.581-0.102,1.081-0.31,1.526
		c-0.206,0.44-0.497,0.807-0.89,1.123c-0.407,0.328-0.915,0.585-1.513,0.763c-1.253,0.377-3.023,0.364-4.44,0.054
		c-0.639-0.14-1.213-0.379-1.705-0.712c-0.478-0.324-0.874-0.755-1.208-1.316c-0.338-0.568-0.576-1.317-0.707-2.225l-0.141-0.986
		h-3.715l0.069,1.214c0.07,1.233,0.325,2.369,0.758,3.374c0.446,1.035,1.101,1.936,1.946,2.672c0.833,0.726,1.863,1.288,3.06,1.672
		c1.16,0.372,2.52,0.561,4.042,0.561c1.21,0,2.352-0.194,3.394-0.576c1.059-0.389,1.987-0.945,2.76-1.654
		c0.779-0.714,1.396-1.573,1.834-2.554c0.438-0.984,0.661-2.074,0.661-3.236C31.547,19.493,31.396,18.589,31.099,17.82z"/>
	<polygon fill="#3C3C3C" points="66.285,10.803 62.004,22.193 57.741,10.803 53.815,10.803 60.539,28.528 63.467,28.528 
		70.189,10.803 	"/>
	<path fill="#3C3C3C" d="M84.168,21.442h3.561c0.123-0.591,0.189-1.202,0.189-1.828s-0.066-1.237-0.189-1.828
		c-0.846-4.04-4.434-7.085-8.723-7.085c-4.916,0-8.914,3.999-8.914,8.913c0,4.915,3.998,8.914,8.914,8.914
		c3.611,0,6.721-2.162,8.117-5.259h-4.064c-1,1.116-2.439,1.828-4.053,1.828c-2.381,0-4.406-1.53-5.162-3.655h7.037H84.168z
		 M79.006,14.132c2.381,0,4.406,1.529,5.162,3.654H73.844C74.6,15.661,76.625,14.132,79.006,14.132z"/>
	<path fill="#3C3C3C" d="M100.775,10.729c-2.248,0-4.377,0.767-6.1,2.178v-2.178h-3.555v17.8h3.555l0.02-8.146
		c0-3.353,2.729-6.08,6.08-6.08h0.459v-3.573H100.775z"/>
	<g>
		<path fill="#3C3C3C" d="M4.776,7.726c0.911,0,1.723-0.32,2.286-0.901C7.592,6.275,7.87,5.533,7.843,4.75
			c0-1.753-1.252-3.023-2.977-3.023c-1.723,0-3.022,1.299-3.022,3.023C1.845,6.446,3.105,7.726,4.776,7.726z"/>
		<g>
			<rect x="2.845" y="10.786" fill="#3C3C3C" width="4" height="17.8"/>
		</g>
	</g>
	<g>
		<circle fill="#3C3C3C" cx="110.407" cy="24.781" r="3.663"/>
	</g>
	<g>
		<path fill="#3C3C3C" d="M106.99,10.661h-0.246l0.002,3.432h0.246c7.777,0,14.107,6.328,14.107,14.107v0.245h3.186l0.244-0.002
			v-0.245C124.529,18.528,116.662,10.661,106.99,10.661z"/>
		<path fill="#3C3C3C" d="M106.99,1.627h-0.246l0.002,3.431h0.246c12.76,0,23.141,10.38,23.141,23.143v0.245h3.186l0.246-0.004
			v-0.245C133.564,13.546,121.643,1.627,106.99,1.627z"/>
	</g>
	<path fill="#3C3C3C" d="M52.598,19.299c-0.245-4.728-4.158-8.502-8.946-8.502c-4.946,0-8.969,4.023-8.969,8.969
		c0,4.947,4.023,8.972,8.969,8.972c2.06,0,3.954-0.705,5.47-1.877v1.701h3.5v-9.263H52.598z M43.652,25.237
		c-3.016,0-5.469-2.455-5.469-5.472c0-3.016,2.454-5.469,5.469-5.469c3.016,0,5.47,2.453,5.47,5.469
		C49.122,22.782,46.668,25.237,43.652,25.237z"/>
</g>
</svg>
