<?xml version="1.0" encoding="utf-8"?>
<!-- Generator: Adobe Illustrator 16.0.0, SVG Export Plug-In . SVG Version: 6.00 Build 0)  -->
<!DOCTYPE svg PUBLIC "-//W3C//DTD SVG 1.1//EN" "http://www.w3.org/Graphics/SVG/1.1/DTD/svg11.dtd">
<svg version="1.1" id="Layer_1" xmlns="http://www.w3.org/2000/svg" xmlns:xlink="http://www.w3.org/1999/xlink" x="0px" y="0px"
	 width="205px" height="40px" viewBox="-35 -5 205 40" enable-background="new -35 -5 205 40" xml:space="preserve">
<g>
	<g>
		<path fill="#FFFFFF" d="M135.902,22.22c-3.254,0-5.891,2.637-5.891,5.893c0,3.252,2.637,5.888,5.891,5.888
			s5.893-2.636,5.893-5.888C141.795,24.856,139.156,22.22,135.902,22.22z"/>
		<g>
			<path fill="#FFFFFF" d="M130.859,7.547h-0.848l0.004,5.901h0.846c10.867,0,19.709,8.84,19.709,19.707V34h5.057l0.84-0.007v-0.842
				C156.467,19.033,144.979,7.547,130.859,7.547z"/>
			<path fill="#FFFFFF" d="M130.834-3.485h-0.822l0.004,5.643h0.82c17.105,0,31.021,13.918,31.021,31.023V34h4.826l0.816-0.013
				v-0.812C167.5,12.96,151.051-3.485,130.834-3.485z"/>
		</g>
	</g>
	<polygon fill="#FFFFFF" points="56.746,23.833 49.903,5.552 43.601,5.552 54.394,34 59.093,34 69.885,5.552 63.617,5.552 	"/>
	<path fill="#FFFFFF" d="M84.73,5.388c-7.893,0-14.309,6.419-14.309,14.305C70.422,27.583,76.838,34,84.73,34
		c5.797,0,10.787-3.468,13.027-8.438h-6.523c-1.605,1.789-3.914,2.934-6.504,2.934c-3.822,0-7.074-2.457-8.287-5.867H87.74h5.275
		h5.715c0.197-0.947,0.305-1.93,0.305-2.936c0-1.004-0.107-1.984-0.305-2.932C97.373,10.275,91.615,5.388,84.73,5.388z
		 M76.443,16.761c1.213-3.412,4.465-5.867,8.287-5.867c3.82,0,7.072,2.455,8.285,5.867H76.443z"/>
	<path fill="#FFFFFF" d="M119.672,5.431V5.429c-3.609,0-7.025,1.232-9.791,3.496V5.429h-5.707V34h5.707l0.031-13.075
		c0-5.383,4.381-9.758,9.76-9.758h0.736V5.431H119.672z"/>
	<path fill="#FFFFFF" d="M27.982,5.202c-7.938,0-14.396,6.458-14.396,14.396c0,7.94,6.458,14.401,14.396,14.401
		c3.307,0,6.347-1.131,8.781-3.013L42.38,34V18.849h-0.038C41.949,11.26,35.667,5.202,27.982,5.202z M27.982,28.38
		c-4.84,0-8.778-3.941-8.778-8.781c0-4.842,3.939-8.779,8.778-8.779c4.841,0,8.781,3.938,8.781,8.779
		C36.763,24.438,32.824,28.38,27.982,28.38z"/>
	<path fill="#FFFFFF" d="M6.141,16.332c-0.725-0.727-1.589-1.347-2.567-1.841c-0.877-0.446-1.826-0.83-2.821-1.145
		c-0.918-0.287-1.884-0.543-2.874-0.76c-0.925-0.203-1.823-0.396-2.695-0.58c-1.376-0.289-2.528-0.599-3.425-0.921
		c-0.785-0.281-1.405-0.595-1.842-0.932c-0.354-0.273-0.59-0.554-0.722-0.859c-0.16-0.367-0.241-0.835-0.241-1.392
		c0-0.072,0.005-0.143,0.014-0.256l0.005-0.152c0.353-3.016,3.25-5.355,6.672-5.355c3.701,0,6.713,2.682,6.713,5.977v0.348h6.229
		V8.116c0-6.41-5.806-11.625-12.943-11.625c-6.817,0-12.412,4.711-12.895,10.785l-0.042,0.48c-0.008,0.104-0.015,0.205-0.015,0.312
		c0,1.312,0.231,2.495,0.687,3.518c0.474,1.065,1.208,2.015,2.18,2.821c0.905,0.754,2.05,1.419,3.406,1.973
		c1.272,0.519,2.798,0.98,4.54,1.373c1.89,0.401,3.493,0.801,4.764,1.188c1.137,0.343,2.047,0.728,2.705,1.142
		c0.514,0.324,0.86,0.672,1.057,1.06C2.211,21.508,2.317,22,2.346,22.575c-0.122,3.238-3.065,5.774-6.701,5.774
		c-3.703,0-6.714-2.681-6.714-5.976v-0.348H-17.3v0.348C-17.3,28.784-11.494,34-4.355,34C2.522,34,8.12,29.245,8.547,23.114
		l0.041-0.42c0.004-0.051,0.009-0.101,0.009-0.151c0-1.335-0.223-2.532-0.665-3.559C7.488,17.965,6.886,17.071,6.141,16.332z"/>
	<path fill="#FFFFFF" d="M-24.406,15.226c-0.165-1.609-1.399-2.744-3.049-2.744c-1.759,0-3.095,1.327-3.109,3.119v17.704h6.182
		V15.572l-0.004-0.347H-24.406z"/>
	<circle fill="#FFFFFF" cx="-27.475" cy="4.641" r="5.024"/>
</g>
</svg>
