<?xml version="1.0" standalone="no"?>
<!DOCTYPE svg PUBLIC "-//W3C//DTD SVG 1.1//EN" "http://www.w3.org/Graphics/SVG/1.1/DTD/svg11.dtd" >
<svg xmlns="http://www.w3.org/2000/svg">
<metadata>Generated by IcoMoon</metadata>
<defs>
<font id="japple" horiz-adv-x="1024">
<font-face units-per-em="1024" ascent="960" descent="-64" />
<missing-glyph horiz-adv-x="1024" />
<glyph unicode="&#x20;" horiz-adv-x="512" d="" />
<glyph unicode="&#xe900;" glyph-name="ico_01" d="M158.003 146.551v0c-29.662 0-49.903 11.349-60.177 29.235-16.128 28.041 2.082 65.229 6.4 73.011 4.676 10.53 33.263 66.679 131.686 110.558l2.202 1.109c3.209 1.024 7.049 3.055 9.557 4.745-1.297 1.297-3.345 3.174-6.571 5.41-49.715 34.423-76.766 96.512-80.401 184.508-2.475 60.006 13.039 107.025 44.868 140.203 28.262 29.457 68.966 42.803 117.692 42.803h8.346c48.725 0 89.429-13.312 117.692-42.786 31.829-33.178 47.36-81.306 44.868-141.295-3.584-86.63-30.635-147.473-80.401-181.931-3.533-2.458-5.666-4.096-6.912-5.444 2.662-1.98 7.134-4.147 10.223-5.171l1.877-0.649c98.441-43.895 127.027-99.874 131.703-110.49 4.335-7.834 22.511-43.981 6.332-72.073-10.291-17.869-30.515-29.218-60.109-29.218l-338.876-2.526zM250.607 324.386c-90.027-40.414-111.053-89.583-111.258-90.078l-1.263-2.594c-5.581-9.745-11.127-27.221-6.912-34.509 2.765-4.779 12.783-7.629 26.795-7.629l338.893 0.239c14.012 0 24.030 2.867 26.795 7.68 4.608 8.004-2.355 26.863-6.912 34.731l-1.331 2.833c-0.119 0.307-21.163 49.954-111.292 90.385-7.543 2.628-33.399 13.244-36.762 36.215-2.27 15.462 5.99 29.798 24.525 42.633 39.322 27.221 60.809 78.524 63.863 152.457 2.031 49.289-9.796 88.695-34.202 114.125-21.129 22.050-51.388 33.126-89.941 33.126h-8.346c-38.537 0-68.796-11.076-89.941-33.109-24.405-25.446-36.233-64.887-34.202-114.176 3.072-74.223 25.156-127.607 63.863-154.419 18.637-12.902 26.88-27.238 24.474-42.615-3.499-22.579-29.065-32.7-36.847-35.294zM938.667 448h-187.733v187.733c0 14.148-11.469 25.6-25.6 25.6s-25.6-11.452-25.6-25.6v-187.733h-187.733c-14.131 0-25.6-11.452-25.6-25.6 0-14.131 11.469-25.6 25.6-25.6h187.733v-187.733c0-14.131 11.469-25.6 25.6-25.6s25.6 11.469 25.6 25.6v187.733h187.733c14.131 0 25.6 11.469 25.6 25.6 0 14.148-11.469 25.6-25.6 25.6z" />
<glyph unicode="&#xe901;" glyph-name="ico_02" d="M406.357 174.933l491.247 485.171-205.636 202.53-511.044-511.966-28.791-240.742 28.774-3.26h672.427v68.267h-446.976zM691.968 795.836l141.466-141.346-119.518-119.45-141.466 141.363 119.518 119.433zM204.151 167.117l19.814 161.109 3.635 3.601 312.832 312.542 141.466-141.346-316.416-316.109-161.331-19.797z" />
<glyph unicode="&#xe902;" glyph-name="ico_03" d="M875.469 789.333h-209.869v55.398c0 16.435-11.452 29.815-25.6 29.815s-25.6-13.38-25.6-29.815v-55.398h-204.8v55.398c0 16.435-11.469 29.815-25.617 29.815-14.131 0-25.583-13.38-25.583-29.815v-55.398h-209.852c-14.148 0-29.082-5.888-29.082-22.34v-715.742c0-16.418 14.933-29.918 29.082-29.918h726.921c14.148 0 29.065 13.5 29.065 29.935v715.725c0 16.452-14.916 22.34-29.065 22.34zM170.667 516.267h682.667v-426.667h-682.667v426.667zM383.983 661.521c14.148 0 25.617 13.38 25.617 29.833v46.78h204.8v-46.78c0-16.435 11.452-29.833 25.6-29.833 14.131 0 25.6 13.38 25.6 29.833v46.78h187.733v-170.667h-682.667v170.667h187.733v-46.78c0-16.452 11.452-29.833 25.583-29.833zM273.067 448h102.4v-102.4h-102.4v102.4zM460.8 448h102.4v-102.4h-102.4v102.4zM648.533 448h102.4v-102.4h-102.4v102.4zM273.067 260.267h102.4v-119.467h-102.4v119.467zM460.8 260.267h102.4v-119.467h-102.4v119.467zM648.533 260.267h102.4v-119.467h-102.4v119.467z" />
<glyph unicode="&#xe903;" glyph-name="ico_04" d="M947.985 482.133h-162.918v160.034c0 13.705-11.895 24.815-25.6 24.815s-25.6-11.11-25.6-24.815v-160.034h-158.037c-13.705 0-24.815-11.895-24.815-25.6s11.11-25.6 24.815-25.6h158.037v-160.922c0-13.705 11.895-24.815 25.6-24.815s25.6 11.11 25.6 24.815v160.922h162.918c13.705 0 24.815 11.895 24.815 25.6s-11.11 25.6-24.815 25.6zM512.887 652.8h-120.354v33.178c0 10.359-6.724 18.722-17.067 18.722-10.291 0-17.067-8.363-17.067-18.722v-33.178h-136.533v33.178c0 10.359-6.741 18.722-17.067 18.722-10.308 0-17.067-8.363-17.067-18.722v-33.178h-115.866c-10.308 0-20.668-13.38-20.668-23.74v-402.825c0-10.342 10.359-17.169 20.668-17.169h441.020c10.359 0 16.179 6.827 16.179 17.186v402.807c0 10.359-5.82 23.74-16.179 23.74zM187.733 618.667v-44.971c0-10.308 6.758-18.705 17.067-18.705 10.325 0 17.067 8.397 17.067 18.705v44.971h136.533v-44.971c0-10.308 6.775-18.705 17.067-18.705 10.342 0 17.067 8.397 17.067 18.705v44.971h102.4v-85.333h-409.6v85.333h102.4zM85.333 243.2v256h409.6v-256h-409.6z" />
<glyph unicode="&#xe904;" glyph-name="ico_05" d="M629.265 782.131h201.506v-667.034h-201.506v-41.677h201.506c23.057 0 41.711 18.654 41.711 41.677v667.034c0 23.057-18.654 41.711-41.711 41.711h-201.506v-41.711zM717.363 450.714l-260.608-274.722c-8.67-8.772-22.835-8.858-31.573-0.154-8.789 8.687-8.858 22.818-0.154 31.59l229.274 243.132-228.591 240.299c-8.738 8.738-8.738 22.852 0 31.59s22.886 8.738 31.59 0l260.062-271.735zM666.761 448c0-13.807-10.65-25.6-23.774-25.6h-442.743c-13.141 0-23.791 11.793-23.791 25.6s10.65 25.6 23.791 25.6h442.761c13.107 0 23.757-11.793 23.757-25.6z" />
<glyph unicode="&#xe905;" glyph-name="ico_06" d="M440.013 782.131h-201.506v-667.034h201.506v-41.677h-201.506c-23.057 0-41.711 18.654-41.711 41.677v667.034c0 23.057 18.654 41.711 41.711 41.711h201.506v-41.711zM892.843 447.625l-260.625 274.756c-8.653 8.772-22.818 8.858-31.573 0.154-8.789-8.687-8.823-22.818-0.137-31.59l229.274-243.166-228.591-240.282c-8.721-8.738-8.721-22.852 0-31.59 8.738-8.738 22.869-8.738 31.59 0l260.062 271.718zM842.257 448c0 13.807-10.667 25.6-23.791 25.6h-442.743c-13.141 0-23.808-11.793-23.808-25.6s10.667-25.6 23.808-25.6h442.743c13.107 0 23.791 11.793 23.791 25.6z" />
<glyph unicode="&#xe906;" glyph-name="ico_07" d="M111.070 787.132l1.178-697.788 823.262 0.017-0.034 697.788h-824.405zM895.351 747.418l0.307-516.267v-99.703h-744.755v615.526l744.448 0.444zM555.725 545.007l-166.724 96.836v-387.328l333.517 193.655-166.793 96.836zM432.299 333.414l1.519 234.308 206.182-118.067-207.701-116.241z" />
<glyph unicode="&#xe907;" glyph-name="ico_08" d="M110.882 785.493l1.178-697.788 823.262 0.017-0.034 697.771h-824.405zM895.164 744.926v-457.062l-169.301 132.198-116.429-107.657-297.353 250.487-1.024-1.212-160.649-160.683v343.927h744.755zM150.409 127.949v205.926l165.308 165.291 295.475-249.037 0.375 0.478 0.427-0.478 116.48 107.725 166.707-130.185v-99.703h-744.772zM645.905 451.26c72.090 0 130.526 58.47 130.526 130.543 0 72.090-58.436 130.509-130.526 130.509-72.073 0-130.526-58.402-130.526-130.509 0.017-72.073 58.47-130.543 130.526-130.543zM645.905 664.849c45.773 0 83.063-37.257 83.063-83.063 0-45.79-37.274-83.063-83.063-83.063-45.807 0-83.063 37.274-83.063 83.063 0.017 45.824 37.257 83.063 83.063 83.063z" />
<glyph unicode="&#xe908;" glyph-name="ico_09" d="M629.009 490.479v295.117h-517.325v-697.993h822.852v402.876h-305.527zM895.778 126.345h-745.335v620.476h439.825v-295.117h305.527v-325.359zM673.178 785.596h-0.273v-252.279h261.649z" />
<glyph unicode="&#xe909;" glyph-name="ico_10" d="M362.803 651.708c-16.265-9.387-44.919-17.067-63.693-17.067h-83.797c-18.773 0-41.694-3.379-50.961-7.526-9.25-4.147-16.828-41.506-16.828-60.279v-237.739c0-18.773 3.379-41.694 7.526-50.944s41.472-16.811 60.245-16.811h83.831c18.773 0 47.428-7.68 63.693-17.067l165.956-95.829c16.265-9.387 29.559-1.707 29.559 17.067v564.975c0 18.773-13.295 26.453-29.559 17.067l-165.973-95.846zM513.297 243.593c0-18.773-13.295-26.453-29.559-17.067l-98.355 56.781c-16.265 9.387-32.853 18.432-36.881 20.087s-30.583 3.021-49.357 3.021h-72.397c-18.773 0-34.133 15.36-34.133 34.133v214.886c0 18.773 15.36 34.133 34.133 34.133h72.363c18.773 0 37.666 0.478 41.967 1.058s28.006 12.698 44.254 22.084l98.389 56.798c16.265 9.387 29.559 1.707 29.559-17.067v-408.849zM618.53 605.713v-45.039c62.225 0 112.657-50.449 112.657-112.691 0-62.225-50.432-112.657-112.657-112.657v-45.073c87.091 0 157.73 70.639 157.73 157.73 0 87.142-70.639 157.73-157.73 157.73zM618.53 700.092v-45.090c114.142 0 207.019-92.86 207.019-207.019 0-114.125-92.877-207.019-207.019-207.019v-45.073c139.196 0 252.075 112.913 252.075 252.092 0.017 139.247-112.862 252.109-252.075 252.109z" />
<glyph unicode="&#xe90a;" glyph-name="ico_11" d="M323.209 748.186c-23.962 0-43.383-19.439-43.383-43.383 0-23.962 19.422-43.383 43.383-43.383s43.383 19.422 43.383 43.383c0.017 23.945-19.422 43.383-43.383 43.383zM323.209 653.841c-28.092 0-50.961 22.852-50.961 50.961s22.869 50.978 50.961 50.978 50.961-22.869 50.961-50.978c0.017-28.109-22.852-50.961-50.961-50.961zM323.209 740.608c-19.746 0-35.806-16.060-35.806-35.806 0-19.729 16.060-35.789 35.806-35.789s35.806 16.060 35.806 35.789c0 19.729-16.060 35.806-35.806 35.806zM694.955 748.186c-23.962 0-43.383-19.439-43.383-43.383 0-23.962 19.439-43.383 43.383-43.383 23.962 0 43.383 19.422 43.383 43.383 0 23.945-19.422 43.383-43.383 43.383zM694.955 653.841c-28.092 0-50.961 22.852-50.961 50.961s22.869 50.978 50.961 50.978 50.961-22.869 50.961-50.978c0-28.109-22.869-50.961-50.961-50.961zM694.955 740.608c-19.729 0-35.806-16.060-35.806-35.806 0-19.729 16.060-35.789 35.806-35.789s35.806 16.060 35.806 35.789c-0.017 19.729-16.077 35.806-35.806 35.806zM509.082 748.186c-23.962 0-43.383-19.439-43.383-43.383 0-23.962 19.422-43.383 43.383-43.383s43.383 19.422 43.383 43.383c0 23.945-19.422 43.383-43.383 43.383zM509.082 653.841c-28.092 0-50.961 22.852-50.961 50.961s22.869 50.978 50.961 50.978 50.961-22.869 50.961-50.978c0-28.109-22.852-50.961-50.961-50.961zM509.082 740.608c-19.746 0-35.806-16.060-35.806-35.806 0-19.729 16.060-35.789 35.806-35.789s35.806 16.060 35.806 35.789c0 19.729-16.060 35.806-35.806 35.806zM323.209 576.99c-23.962 0-43.383-19.439-43.383-43.383 0-23.962 19.422-43.383 43.383-43.383s43.383 19.422 43.383 43.383c0.017 23.962-19.422 43.383-43.383 43.383zM323.209 482.628c-28.092 0-50.961 22.869-50.961 50.978 0 28.092 22.869 50.961 50.961 50.961s50.961-22.869 50.961-50.961c0.017-28.109-22.852-50.978-50.961-50.978zM323.209 569.412c-19.746 0-35.806-16.060-35.806-35.806s16.060-35.806 35.806-35.806 35.806 16.060 35.806 35.806-16.060 35.806-35.806 35.806zM694.955 576.99c-23.962 0-43.383-19.439-43.383-43.383 0-23.962 19.439-43.383 43.383-43.383 23.962 0 43.383 19.422 43.383 43.383s-19.422 43.383-43.383 43.383zM694.955 482.628c-28.092 0-50.961 22.869-50.961 50.978 0 28.092 22.869 50.961 50.961 50.961s50.961-22.869 50.961-50.961c0-28.109-22.869-50.978-50.961-50.978zM694.955 569.412c-19.729 0-35.806-16.060-35.806-35.806s16.060-35.806 35.806-35.806 35.806 16.060 35.806 35.806-16.077 35.806-35.806 35.806zM509.082 576.99c-23.962 0-43.383-19.439-43.383-43.383 0-23.962 19.422-43.383 43.383-43.383s43.383 19.422 43.383 43.383c0 23.962-19.422 43.383-43.383 43.383zM509.082 482.628c-28.092 0-50.961 22.869-50.961 50.978 0 28.092 22.869 50.961 50.961 50.961s50.961-22.869 50.961-50.961c0-28.109-22.852-50.978-50.961-50.978zM509.082 569.412c-19.746 0-35.806-16.060-35.806-35.806s16.060-35.806 35.806-35.806 35.806 16.060 35.806 35.806-16.060 35.806-35.806 35.806zM323.209 405.777c-23.962 0-43.383-19.422-43.383-43.383s19.422-43.383 43.383-43.383c23.962 0 43.383 19.422 43.383 43.383 0.017 23.962-19.422 43.383-43.383 43.383zM323.209 311.433c-28.092 0-50.961 22.869-50.961 50.961s22.869 50.961 50.961 50.961 50.961-22.869 50.961-50.961-22.852-50.961-50.961-50.961zM323.209 398.199c-19.746 0-35.806-16.060-35.806-35.806s16.060-35.806 35.806-35.806 35.806 16.060 35.806 35.806-16.060 35.806-35.806 35.806zM694.955 405.777c-23.962 0-43.383-19.422-43.383-43.383s19.439-43.383 43.383-43.383c23.962 0 43.383 19.422 43.383 43.383s-19.422 43.383-43.383 43.383zM694.955 311.433c-28.092 0-50.961 22.869-50.961 50.961s22.869 50.961 50.961 50.961 50.961-22.869 50.961-50.961-22.869-50.961-50.961-50.961zM694.955 398.199c-19.729 0-35.806-16.060-35.806-35.806s16.060-35.806 35.806-35.806 35.806 16.060 35.806 35.806-16.077 35.806-35.806 35.806zM509.082 405.777c-23.962 0-43.383-19.422-43.383-43.383s19.422-43.383 43.383-43.383c23.962 0 43.383 19.422 43.383 43.383s-19.422 43.383-43.383 43.383zM509.082 311.433c-28.092 0-50.961 22.869-50.961 50.961s22.869 50.961 50.961 50.961 50.961-22.869 50.961-50.961-22.852-50.961-50.961-50.961zM509.082 398.199c-19.746 0-35.806-16.060-35.806-35.806s16.060-35.806 35.806-35.806 35.806 16.060 35.806 35.806-16.060 35.806-35.806 35.806zM509.082 234.598c-23.962 0-43.383-19.422-43.383-43.383s19.422-43.383 43.383-43.383c23.962 0 43.383 19.422 43.383 43.383s-19.422 43.383-43.383 43.383zM509.082 140.237c-28.092 0-50.961 22.869-50.961 50.961 0 28.109 22.869 50.978 50.961 50.978s50.961-22.869 50.961-50.978c0-28.092-22.852-50.961-50.961-50.961zM509.082 227.021c-19.746 0-35.806-16.060-35.806-35.823 0-19.729 16.060-35.806 35.806-35.806s35.806 16.060 35.806 35.806c0 19.746-16.060 35.823-35.806 35.823z" />
<glyph unicode="&#xe90b;" glyph-name="ico_12" d="M532.463 112.026v109.568h-40.926v-109.568h-126.464v-40.926h293.888v40.926zM391.885 423.646c-4.506 14.319-7.083 29.611-7.083 45.568v157.867c0 77.073 57.037 139.793 127.181 139.793 65.553 0 119.671-54.818 126.464-124.928l35.806 31.727c-19.132 77.21-84.429 134.127-162.253 134.127-92.843 0-168.107-80.896-168.107-180.719v-157.867c0-26.658 5.513-51.883 15.138-74.667l32.853 29.099zM639.181 533.299v-64.068c0-77.056-57.037-139.776-127.181-139.776-27.46 0-52.838 9.694-73.626 26.027l-31.044-27.494c28.74-24.627 65.075-39.458 104.67-39.458 92.843 0 168.107 80.93 168.107 180.702v100.318l-40.926-36.25zM324.471 363.913c-13.312 27.426-20.992 58.061-20.992 90.522v9.335h-40.926v-9.335c0-42.991 10.871-83.405 30.020-118.75l31.898 28.228zM720.521 454.417c0-114.978-93.525-208.503-208.521-208.503-52.924 0-101.154 19.985-137.967 52.599l-30.857-27.341c44.442-40.96 103.595-66.185 168.823-66.185 137.728 0 249.446 111.667 249.446 249.429v9.335h-40.926v-9.335zM767.834 728.887l27.098-30.645-538.783-476.425-27.098 30.645 538.783 476.425z" />
<glyph unicode="&#xe90c;" glyph-name="ico_13" d="M958.208 405.47c3.191 13.090 4.864 26.607 6.349 40.055 1.638 13.978-3.413 26.146-11.793 37.154-8.789 11.537-17.545 23.040-26.351 34.56-1.195 1.604-2.219 3.345-3.362 5.035-10.752 10.769-21.47 21.487-32.239 32.239-10.086 7.868-20.053 16.026-30.447 23.62-59.273 43.247-125.679 70.485-196.949 86.067-110.66 24.081-220.843 21.897-329.762-9.455-80.947-23.347-154.163-61.321-213.163-122.863-16.879-17.647-31.044-38.042-45.636-57.788-8.346-11.23-7.373-25.003-5.513-38.007 4.506-32.683 14.507-63.539 32.734-91.443 0.393-0.478 0.427-1.246 0.597-1.894 4.25-4.25 8.482-8.482 12.715-12.715 11.435-6.639 23.484-6.588 35.84-3.191 5.069 1.417 10.359 2.15 15.548 3.243 44.971 9.37 90.027 18.688 135.049 28.058 24.32 5.171 36.932 21.129 35.499 45.739-0.495 8.687-2.389 17.289-3.806 25.873-1.946 12.049-4.762 23.962-6.093 36.028-2.287 21.231 5.666 38.059 24.405 48.589 9.028 5.069 18.449 9.728 28.143 12.971 75.52 24.798 152.183 29.491 229.922 11.554 23.467-5.461 47.019-11.025 68.369-22.972 22.818-12.783 33.434-32.188 30.686-58.368-0.922-9.591-3.14-19.029-4.369-28.587-1.485-11.827-3.669-23.689-3.567-35.533 0.171-19.575 10.308-31.147 29.542-35.209 50.398-10.701 100.864-20.941 151.177-31.846 12.783-2.782 24.9-3.43 36.506 3.43 3.908 3.925 7.799 7.817 11.725 11.725 12.681 19.9 22.682 41.079 28.245 63.932zM896.546 363.725c-1.263 0.119-3.294 0.393-6.417 1.075-29.013 6.281-58.010 12.356-87.006 18.381-20.924 4.352-41.847 8.687-62.72 13.141 0.188 6.434 1.075 12.749 1.997 19.337l1.143 8.397c0.461 3.516 1.075 7.066 1.707 10.615 1.109 6.332 2.167 12.681 2.833 19.081 3.157 30.703-5.973 57.924-26.539 78.49-6.81 6.81-14.899 12.851-24.047 17.954-26.385 14.797-54.187 21.265-78.711 26.965-83.098 19.183-167.561 14.967-251.068-12.493-11.059-3.652-22.118-8.721-35.089-15.957-32.205-18.193-48.316-49.92-44.237-87.159 0.956-8.602 2.492-17.135 4.096-25.617 0.802-4.096 1.553-8.226 2.236-12.373l1.212-6.861c0.887-5.001 1.86-10.001 2.167-15.070 0.102-2.031-0.034-3.294-0.119-3.891-0.427-0.017-1.809-0.597-4.233-1.092l-139.452-28.945c-4.642-0.819-9.267-1.741-13.756-3.021-1.502-0.427-2.697-0.614-3.516-0.717l-1.792 1.775c-0.154 0.222-0.273 0.461-0.444 0.717-13.824 21.18-22.511 45.722-26.556 75.025-0.887 6.212-0.973 9.165-0.87 10.564l6.059 8.209c11.844 16.196 23.023 31.505 35.43 44.476 49.766 51.917 113.783 88.644 195.669 112.265 100.301 28.877 204.8 31.829 310.511 8.806 70.485-15.411 130.065-41.387 182.118-79.411 6.929-5.001 13.636-10.359 20.343-15.65l7.185-5.683 27.665-27.665c0.853-1.246 1.536-2.236 2.236-3.191l26.914-35.345c2.901-3.84 4.25-6.775 4.045-8.755-1.314-11.861-2.833-24.235-5.564-35.465-3.874-15.872-10.718-31.795-20.975-48.452l-2.458-2.458zM938.667 174.933h-853.333c-14.148 0-25.6 11.469-25.6 25.6s11.452 25.6 25.6 25.6h853.333c14.131 0 25.6-11.469 25.6-25.6s-11.469-25.6-25.6-25.6z" />
<glyph unicode="&#xe90d;" glyph-name="ico_14" d="M498.569 858.010c-221.423 0-400.879-167.697-400.879-374.562 0-137.916 80.009-258.099 198.758-323.106-22.647-39.748-54.562-80.862-98.526-106.923-84.292-50.005 131.209-80.469 274.278 56.713 8.738-0.546 17.459-1.246 26.368-1.246 221.389 0 400.879 167.697 400.879 374.579 0 206.865-179.49 374.545-400.879 374.545zM498.569 155.938c-6.059 0-11.981 0.41-17.954 0.768l-26.146 1.621-14.848-14.251c-48.725-46.729-107.452-71.219-155.853-80.862 19.575 20.924 37.513 45.585 53.589 73.813l23.654 41.591-41.933 22.972c-107.554 58.863-174.353 166.878-174.353 281.873 0 180.599 158.703 327.509 353.843 327.509 195.106 0 353.843-146.927 353.843-327.509s-158.737-327.526-353.843-327.526zM648.533 465.067h-324.267c-18.842 0-34.133 15.292-34.133 34.133s15.292 34.133 34.133 34.133h324.267c18.842 0 34.133-15.292 34.133-34.133s-15.292-34.133-34.133-34.133zM512 277.333c-18.842 0-34.133 15.292-34.133 34.133v358.4c0 18.842 15.292 34.133 34.133 34.133s34.133-15.292 34.133-34.133v-358.4c0-18.842-15.292-34.133-34.133-34.133z" />
<glyph unicode="&#xe90e;" glyph-name="ico_15" d="M869.461 224.085c-5.854 15.241-41.728 95.625-165.257 150.716l-2.816 1.263-3.055 0.512c-0.956 0.154-2.048 0.393-3.191 0.7 0.887 0.666 1.877 1.365 2.953 2.116 62.14 43.008 95.932 120.201 100.437 229.427 3.089 74.957-16.282 135.253-56.064 176.708-34.987 36.454-85.248 55.006-145.408 55.006h-1.57c-26.146 0-51.849-2.645-72.55-9.301-12.629-4.062-19.575-16.981-15.514-29.594 4.062-12.629 17.613-19.302 30.208-15.223 16.060 5.154 37.393 8.311 58.658 8.38 47.753-0.154 85.282-14.029 111.531-41.387 30.498-31.778 45.261-81.084 42.718-142.643-3.857-93.389-30.703-157.935-79.787-191.915-24.252-16.777-34.423-34.645-30.293-53.111 5.581-24.832 33.946-33.365 46.711-35.977 111.155-50.449 136.55-120.371 137.54-123.153l1.86-4.215c7.27-13.107 14.285-39.27 8.55-49.015-3.652-6.178-15.753-12.578-33.212-12.578h-24.576c-13.261 0-24.013-3.806-24.013-17.067s10.752-17.067 24.013-17.067h24.576c36.54 0 61.679 7.185 74.701 29.491 20.565 35.209-1.382 77.056-7.151 87.927zM560.486 306.176l-2.338 0.905c-3.874 1.263-9.455 4.147-12.766 6.622 1.553 1.673 4.198 4.079 8.619 7.134 62.174 43.042 95.966 119.74 100.437 227.925 3.089 74.957-16.282 139.674-56.064 181.129-35.311 36.796-86.135 59.443-146.995 59.443h-10.428c-60.86 0-111.701-22.665-146.995-59.477-39.765-41.438-59.153-104.585-56.047-179.541 4.54-109.892 38.332-188.262 100.437-231.253 4.011-2.782 6.588-5.513 8.192-7.151-3.14-2.116-7.936-4.847-11.947-6.127l-2.748-1.485c-122.914-54.801-158.635-124.996-164.471-138.155-5.393-9.728-28.126-56.201-7.987-91.221 12.817-22.323 38.093-36.523 75.127-36.523h0.017l423.287 3.157c36.966 0 62.242 14.182 75.093 36.506 20.207 35.089-2.509 80.265-7.902 90.061-5.854 13.227-41.54 83.2-164.523 138.052zM691.285 102.025c-3.465-6.007-15.974-9.591-33.485-9.591l-423.305-0.307c-17.493 0-30.003 3.567-33.468 9.54-5.274 9.097 1.655 30.925 8.619 43.093l1.57 3.243c0.256 0.614 26.522 62.037 138.974 112.521 9.728 3.226 41.66 15.872 46.046 44.1 2.987 19.217-7.305 37.12-30.583 53.248-48.35 33.468-75.947 100.181-79.77 192.905-2.543 61.559 12.22 112.503 42.718 144.282 26.402 27.511 64.205 43.076 112.35 43.076h10.428c48.145 0 85.931-15.565 112.35-43.076 30.498-31.778 45.261-81.92 42.718-143.479-3.806-92.348-30.652-156.826-79.77-190.839-23.159-16.026-33.451-34.133-30.635-53.436 4.198-28.706 36.489-42.069 45.909-45.346 112.589-50.517 138.871-112.589 139.025-112.947l1.69-3.55c5.683-9.83 14.37-33.434 8.619-43.435z" />
<glyph unicode="&#xe90f;" glyph-name="ico_16" d="M921.6 430.933h-204.8c-18.842 0-34.133-15.292-34.133-34.133s15.292-34.133 34.133-34.133h204.8c18.842 0 34.133 15.292 34.133 34.133s-15.292 34.133-34.133 34.133zM921.6 226.133h-204.8c-18.842 0-34.133-15.292-34.133-34.133s15.292-34.133 34.133-34.133h204.8c18.842 0 34.133 15.292 34.133 34.133s-15.292 34.133-34.133 34.133zM921.6 618.667h-204.8c-18.842 0-34.133-15.292-34.133-34.133s15.292-34.133 34.133-34.133h204.8c18.842 0 34.133 15.292 34.133 34.133s-15.292 34.133-34.133 34.133zM563.2 721.067h358.4c18.842 0 34.133 15.292 34.133 34.133s-15.292 34.133-34.133 34.133h-358.4c-18.842 0-34.133-15.292-34.133-34.133s15.292-34.133 34.133-34.133zM446.857 314.47l-2.253 0.87c-3.721 1.212-9.079 3.977-12.254 6.366 1.485 1.604 4.028 3.908 8.277 6.861 59.665 41.301 92.092 114.91 96.393 218.743 2.97 71.936-15.633 139.639-53.794 179.405-33.894 35.294-82.688 62.618-141.090 62.618h-10.018c-58.402 0-107.196-27.341-141.073-62.669-38.161-39.765-56.764-103.168-53.794-175.104 4.369-105.472 36.779-182.067 96.393-223.334 3.857-2.662 6.315-5.99 7.868-7.561-3.021-2.031-7.612-5.001-11.452-6.229l-2.645-1.604c-117.982-52.565-152.252-120.013-157.867-132.642-5.171-9.335-26.982-53.982-7.663-87.586 12.322-21.436 36.591-35.089 72.107-35.089l0.017-0.017 406.238 3.021c35.482 0 59.733 13.602 72.073 35.038 19.388 33.673-2.406 77.022-7.595 86.426-5.598 12.698-39.851 79.855-157.867 132.489zM572.365 118.545c-3.328-5.769-15.326-9.199-32.137-9.199l-406.238-0.29c-16.794 0-28.809 3.43-32.119 9.148-5.052 8.738 1.587 29.679 8.277 41.37l1.519 3.106c0.239 0.597 25.446 59.546 133.376 107.998 9.335 3.089 39.97 15.241 44.186 42.325 2.867 18.432-7.014 35.618-29.355 51.098-46.404 32.119-72.875 96.137-76.561 185.122-2.441 59.068 11.742 112.521 40.994 143.036 25.344 26.385 61.611 45.875 107.81 45.875h10.018c46.199 0 82.483-19.49 107.81-45.892 29.269-30.498 43.435-80.896 40.994-139.981-3.652-88.627-29.423-151.637-76.561-184.286-22.221-15.377-32.102-33.331-29.406-51.866 4.028-27.546 35.021-40.653 44.066-43.81 108.049-48.469 133.274-108.186 133.427-108.544l1.621-3.482c5.461-9.421 13.807-32.137 8.277-41.728z" />
<glyph unicode="&#xe910;" glyph-name="ico_17" d="M878.677 278.63v193.024h-341.385v132.54h69.564v189.645h-189.662v-189.645h69.547v-132.54h-341.367v-50.586h-0.034v-142.438h-69.53v-189.645h189.662v189.645h-69.547v142.438h290.816v-142.438h-69.547v-189.645h189.662v189.645h-69.564v142.438h290.816v-142.438h-69.564v-189.645h189.645v189.645h-69.513zM467.746 654.763v88.508h88.525v-88.508h-88.525zM214.886 228.062v-88.491h-88.508v88.491h88.508zM556.271 228.062v-88.491h-88.525v88.491h88.525zM897.638 139.554h-88.508v88.491h88.491v-88.491z" />
<glyph unicode="&#xe911;" glyph-name="ico_18" d="M512 862.413c-233.609 0-422.963-189.355-422.963-422.946s189.355-422.946 422.963-422.946c233.591 0 422.946 189.372 422.946 422.946 0.017 233.591-189.355 422.946-422.946 422.946zM564.958 652.8l-24.627-341.333h-56.508l-34.731 341.333h115.866zM458.359 192.614l26.231 84.719h54.699l28.962-86.357-109.892 1.638z" />
<glyph unicode="&#xe912;" glyph-name="ico_19" d="M508.211 862.413c-233.591 0-422.946-189.355-422.946-422.946s189.355-422.946 422.946-422.946c233.591 0 422.946 189.355 422.946 422.946s-189.338 422.946-422.946 422.946zM421.239 251.238l-44.288 44.322 0.068 0.051-114.022 114.074 44.288 44.271 114.005-114.057 287.829 287.778 44.288-44.288-332.169-332.151z" />
<glyph unicode="&#xe913;" glyph-name="ico_20" d="M520.619 870.946c-233.591 0-422.963-189.355-422.963-422.946s189.355-422.946 422.963-422.946c233.591 0 422.946 189.372 422.946 422.946 0.017 233.591-189.355 422.946-422.946 422.946zM520.619 72.038c-207.309 0-375.962 168.67-375.962 375.962s168.653 375.962 375.962 375.962c207.292 0 375.945-168.687 375.945-375.962 0-207.292-168.653-375.962-375.945-375.962zM497.118 654.251h46.985v-310.101h-46.985v310.101zM497.118 289.348h46.985v-58.044h-46.985v58.044z" />
<glyph unicode="&#xe914;" glyph-name="ico_21" d="M508.996 863.727c-233.591 0-422.946-189.355-422.946-422.946s189.355-422.946 422.946-422.946c233.591 0 422.946 189.355 422.946 422.946s-189.338 422.946-422.946 422.946zM508.996 64.836c-207.292 0-375.945 168.653-375.945 375.945s168.653 375.945 375.945 375.945 375.945-168.653 375.945-375.945-168.653-375.945-375.945-375.945zM659.763 581.99l-215.979-215.927-85.538 85.589-33.229-33.212 118.716-118.903 249.242 249.225z" />
<glyph unicode="&#xe915;" glyph-name="ico_22" d="M513.485 870.281c-233.216 0.819-422.929-187.58-423.748-420.796s187.563-422.929 420.796-423.765c233.216-0.819 422.946 187.58 423.748 420.796 0.819 233.216-187.58 422.929-420.796 423.765zM510.686 72.636c-206.985 0.734-374.767 169.728-374.033 376.695 0.734 206.95 169.711 374.75 376.678 374.033 206.967-0.734 374.75-169.711 374.016-376.678-0.717-206.967-169.694-374.767-376.661-374.050zM688.019 470.839l-0.164-46.916-351.881 1.232 0.164 46.916 351.881-1.232zM534.841 271.979l-46.933 0.164 1.232 351.881 46.933-0.164-1.232-351.881z" />
<glyph unicode="&#xe916;" glyph-name="ico_23" d="M512 328.533c-18.842 0-34.133 15.292-34.133 34.133v324.267c0 18.842 15.292 34.133 34.133 34.133s34.133-15.292 34.133-34.133v-324.267c0-18.842-15.292-34.133-34.133-34.133zM682.667 482.133h-324.267c-18.842 0-34.133 15.292-34.133 34.133s15.292 34.133 34.133 34.133h324.267c18.842 0 34.133-15.292 34.133-34.133s-15.292-34.133-34.133-34.133zM341.333 12.39l275.49 230.81h289.314l0.393 580.267h-771.942l-0.034-580.267h206.78v-230.81zM857.071 294.673l-265.609 0.017-198.929-186.658v186.368h-206.182l0.034 477.867h666.948z" />
<glyph unicode="&#xe917;" glyph-name="ico_24" d="M341.333 12.39l275.49 230.81h289.314l0.393 580.267h-771.942l-0.034-580.267h206.78v-230.81zM857.071 294.673l-265.609 0.017-198.929-186.658v186.368h-206.182l0.034 477.867h666.948zM393.899 550.571c-18.005 0-32.597-14.609-32.597-32.597s14.592-32.597 32.597-32.597c17.988 0 32.58 14.609 32.58 32.597-0.017 17.988-14.592 32.597-32.58 32.597zM393.899 481.604c-20.053 0-36.369 16.333-36.369 36.386s16.316 36.386 36.369 36.386c20.053 0 36.369-16.333 36.369-36.386s-16.333-36.386-36.369-36.386zM393.899 546.782c-15.872 0-28.791-12.919-28.791-28.809s12.919-28.809 28.791-28.809 28.791 12.919 28.791 28.809-12.919 28.809-28.791 28.809zM647.526 550.571c-17.988 0-32.58-14.609-32.58-32.597s14.592-32.597 32.58-32.597c18.022 0 32.58 14.609 32.58 32.597s-14.575 32.597-32.58 32.597zM647.509 481.604c-20.053 0-36.352 16.333-36.352 36.386s16.299 36.386 36.352 36.386 36.369-16.333 36.369-36.386-16.316-36.386-36.369-36.386zM647.509 546.782c-15.872 0-28.791-12.919-28.791-28.809s12.919-28.809 28.791-28.809c15.889 0 28.809 12.919 28.809 28.809s-12.919 28.809-28.809 28.809zM520.721 550.571c-17.988 0-32.597-14.609-32.597-32.597s14.609-32.597 32.597-32.597c17.971 0 32.58 14.609 32.58 32.597-0.017 17.988-14.609 32.597-32.58 32.597zM520.721 481.604c-20.070 0-36.403 16.333-36.403 36.386s16.333 36.386 36.403 36.386c20.053 0 36.352-16.333 36.352-36.386s-16.299-36.386-36.352-36.386zM520.721 546.782c-15.889 0-28.809-12.919-28.809-28.809s12.919-28.809 28.809-28.809c15.872 0 28.791 12.919 28.791 28.809s-12.937 28.809-28.791 28.809z" />
<glyph unicode="&#xe918;" glyph-name="ico_25" d="M516.608 865.331c-230.673 0-417.655-186.999-417.655-417.655 0-230.673 186.982-417.655 417.655-417.655s417.655 186.999 417.655 417.655c0.017 230.656-186.982 417.655-417.655 417.655zM516.608 76.407c-204.698 0-371.251 166.537-371.251 371.251s166.554 371.251 371.251 371.251c204.715 0 371.251-166.537 371.251-371.251 0.017-204.698-166.537-371.251-371.251-371.251zM665.498 587.127l-213.282-213.231-84.463 84.514-32.836-32.819 84.48-84.514-0.051-0.068 32.819-32.819 246.135 246.118z" />
<glyph unicode="&#xe919;" glyph-name="ico_26" d="M515.874 862.549c-230.844 0-417.98-187.136-417.98-418.014 0-230.827 187.136-417.963 417.98-417.963s417.98 187.153 417.98 417.963c0.017 230.861-187.119 418.014-417.98 418.014zM515.874 73.011c-204.851 0-371.558 166.69-371.558 371.541 0 204.885 166.707 371.558 371.558 371.558s371.558-166.673 371.558-371.558c0.017-204.851-166.69-371.541-371.558-371.541zM655.379 337.804l-32.846-32.832-246.246 246.35 32.846 32.832 246.246-246.35zM409.112 305.072l-32.82 32.834 246.338 246.234 32.82-32.834-246.338-246.234z" />
<glyph unicode="&#xe91a;" glyph-name="ico_27" d="M510.669 862.003c-231.612 0-419.345-187.75-419.345-419.345s187.733-419.328 419.345-419.328c231.595 0 419.328 187.75 419.328 419.328 0 231.595-187.716 419.345-419.328 419.345zM510.669 69.922c-205.534 0-372.753 167.219-372.753 372.736 0 205.534 167.219 372.753 372.753 372.753 205.517 0 372.736-167.219 372.736-372.753 0-205.517-167.219-372.736-372.736-372.736zM335.923 465.971h349.457v-46.592h-349.457v46.592z" />
<glyph unicode="&#xe91b;" glyph-name="ico_28" d="M913.988 337.783v-243.2h-805.103v243.2h-50.313v-243.2c0-27.819 22.494-50.313 50.313-50.313h805.086c27.819 0 50.313 22.511 50.313 50.313v243.2h-50.295zM724.105 327.646c-9.045 0-18.091 3.584-24.798 10.684l-241.698 255.625 242.278 252.689c13.056 13.619 34.645 14.046 48.247 1.024 13.619-13.056 14.063-34.662 1.024-48.265l-197.291-205.773 197.035-208.384c12.954-13.705 12.356-35.294-1.348-48.247-6.605-6.246-15.036-9.353-23.45-9.353zM287.283 327.646c-8.397 0-16.794 3.089-23.398 9.284-13.722 12.937-14.37 34.526-1.434 48.247l196.096 208.179-195.584 206.148c-12.971 13.67-12.407 35.277 1.28 48.265 13.687 12.954 35.26 12.407 48.265-1.28l239.991-252.962-240.35-255.147c-6.724-7.134-15.787-10.735-24.866-10.735z" />
<glyph unicode="&#xe91c;" glyph-name="ico_29" d="M914.193 337.783v-243.2h-805.086v243.2h-50.33v-243.2c0-27.819 22.511-50.313 50.313-50.313h805.086c27.819 0 50.313 22.511 50.313 50.313v243.2h-50.295zM514.167 231.475l-331.588 314.539c-10.581 10.479-10.667 27.563-0.171 38.127 10.479 10.581 27.546 10.667 38.127 0.171l293.478-276.736 289.997 275.9c10.53 10.53 27.597 10.53 38.127 0s10.53-27.597 0-38.127l-327.97-313.873zM512 292.54c-19.046 0-34.133 12.868-34.133 28.706v534.374c0 15.855 15.087 28.723 34.133 28.723s34.133-12.868 34.133-28.723v-534.374c0-15.838-15.087-28.706-34.133-28.706z" />
<glyph unicode="&#xe91d;" glyph-name="ico_30" d="M80.572 339.285v106.052c0 237.875 193.553 397.295 431.445 397.295 237.858 0 431.411-159.42 431.411-397.295v-106.052h58.436v106.052c0 270.575-219.426 455.731-489.847 455.731-270.49 0-489.882-185.156-489.882-455.731v-106.052h58.436zM948.036 389.188h-174.029c-29.781 0-53.862-25.242-53.862-56.354v-280.73c0-31.13 24.081-56.371 53.862-56.371h174.029c29.73 0 53.828 25.242 53.828 56.371v280.73c0 31.113-24.098 56.354-53.828 56.354zM778.615 54.17l-0.051 276.582h164.864v-276.582h-164.813zM250.061 388.369h-174.063c-29.781 0-53.862-25.225-53.862-56.354v-280.695c0-31.147 24.081-56.371 53.862-56.371h174.046c29.713 0 53.794 25.225 53.794 56.371v280.695c0.017 31.13-24.064 56.354-53.777 56.354zM80.623 53.367l-0.051 276.565h164.847v-276.565h-164.796z" />
<glyph unicode="&#xe91e;" glyph-name="ico_31" d="M730.743 30.583l-261.649 424.329c-9.95 16.145-4.949 37.325 11.213 47.292 16.128 9.967 37.325 4.949 47.292-11.213l205.312-332.971 221.372 333.261c10.496 15.821 31.795 20.139 47.633 9.609 15.804-10.496 20.105-31.829 9.609-47.65l-280.781-422.656zM324.267 328.533h-273.067c-18.842 0-34.133 15.292-34.133 34.133s15.292 34.133 34.133 34.133h273.067c18.842 0 34.133-15.292 34.133-34.133s-15.292-34.133-34.133-34.133zM324.267 499.2h-273.067c-18.842 0-34.133 15.292-34.133 34.133s15.292 34.133 34.133 34.133h273.067c18.842 0 34.133-15.292 34.133-34.133s-15.292-34.133-34.133-34.133zM494.933 89.6h-443.733c-18.842 0-34.133 15.292-34.133 34.133s15.292 34.133 34.133 34.133h443.733c18.842 0 34.133-15.292 34.133-34.133s-15.292-34.133-34.133-34.133zM494.933 721.067h-443.733c-18.842 0-34.133 15.292-34.133 34.133s15.292 34.133 34.133 34.133h443.733c18.842 0 34.133-15.292 34.133-34.133s-15.292-34.133-34.133-34.133zM733.867 123.733c-18.842 0-34.133 15.292-34.133 34.133v682.667c0 18.842 15.292 34.133 34.133 34.133s34.133-15.292 34.133-34.133v-682.667c0-18.842-15.292-34.133-34.133-34.133z" />
<glyph unicode="&#xe91f;" glyph-name="ico_32" d="M938.667 413.867h-853.333c-18.842 0-34.133 15.292-34.133 34.133s15.292 34.133 34.133 34.133h853.333c18.842 0 34.133-15.292 34.133-34.133s-15.292-34.133-34.133-34.133zM938.667 55.467h-853.333c-18.842 0-34.133 15.292-34.133 34.133s15.292 34.133 34.133 34.133h853.333c18.842 0 34.133-15.292 34.133-34.133s-15.292-34.133-34.133-34.133zM938.667 772.267h-853.333c-18.842 0-34.133 15.292-34.133 34.133s15.292 34.133 34.133 34.133h853.333c18.842 0 34.133-15.292 34.133-34.133s-15.292-34.133-34.133-34.133z" />
<glyph unicode="&#xe920;" glyph-name="ico_33" d="M746.308 80.794l-225.195 280.149c-8.858 11.025-7.117 27.136 3.908 35.977 11.025 8.858 27.136 7.117 35.994-3.908l186.743-232.311 201.421 232.431c9.267 10.667 25.412 11.844 36.113 2.577 10.684-9.267 11.827-25.429 2.577-36.113l-241.562-278.801zM742.4 115.2c-14.131 0-25.6 11.469-25.6 25.6v597.333c0 14.148 11.469 25.6 25.6 25.6s25.6-11.452 25.6-25.6v-597.333c0-14.131-11.469-25.6-25.6-25.6zM475.733 475.887c-7.697 0-15.309 3.465-20.343 10.035l-186.385 243.61-200.994-243.729c-8.977-10.906-25.139-12.476-36.028-3.465-10.906 8.994-12.459 25.122-3.465 36.028l241.988 293.461 225.553-294.793c8.585-11.23 6.451-27.307-4.779-35.891-4.642-3.55-10.121-5.257-15.548-5.257zM264.533 115.2c-14.148 0-25.6 11.469-25.6 25.6v597.333c0 14.148 11.452 25.6 25.6 25.6s25.6-11.452 25.6-25.6v-597.333c0-14.131-11.452-25.6-25.6-25.6z" />
<glyph unicode="&#xe921;" glyph-name="ico_34" d="M389.973 127.676l-316.587 332.117 37.069 35.328 279.433-293.137 524.459 552.687 37.137-35.26z" />
<glyph unicode="&#xe922;" glyph-name="ico_35" d="M913.493 16.708c-8.209 0-16.435 3.14-22.699 9.404l-291.516 291.567c-12.544 12.544-12.544 32.853 0 45.397s32.853 12.544 45.397 0l291.533-291.567c12.544-12.544 12.544-32.853 0-45.397-6.281-6.263-14.49-9.404-22.716-9.404zM398.507 215.586c-180.309 0-327.014 146.688-327.014 326.997s146.705 326.997 327.014 326.997c180.309 0 326.997-146.688 326.997-326.997s-146.688-326.997-326.997-326.997zM398.507 805.376c-144.913 0-262.81-117.897-262.81-262.793 0-144.913 117.897-262.793 262.81-262.793s262.793 117.879 262.793 262.793c0 144.896-117.879 262.793-262.793 262.793z" />
<glyph unicode="&#xe923;" glyph-name="ico_36" d="M553.353 55.091c8.209 0 16.435 3.14 22.699 9.404l385.655 385.673-387.174 359.407c-13.005 12.066-33.331 11.298-45.38-1.69-12.066-13.005-11.315-33.314 1.69-45.38l338.347-314.078-338.551-338.534c-12.544-12.544-12.544-32.853 0-45.397 6.263-6.281 14.49-9.404 22.716-9.404zM103.834 413.867h786.637c17.732 0 32.102 16.401 32.102 34.133s-14.37 34.133-32.102 34.133h-786.637c-17.732 0-32.102-16.401-32.102-34.133s14.37-34.133 32.102-34.133z" />
<glyph unicode="&#xe924;" glyph-name="ico_37" d="M480.102 55.091c-8.209 0-16.435 3.14-22.699 9.404l-385.673 385.673 387.191 359.407c13.005 12.066 33.331 11.298 45.38-1.69 12.066-13.005 11.315-33.314-1.69-45.38l-338.347-314.061 338.534-338.551c12.544-12.544 12.544-32.853 0-45.397-6.263-6.281-14.49-9.404-22.699-9.404zM929.604 413.867h-786.654c-17.732 0-32.102 16.401-32.102 34.133s14.37 34.133 32.102 34.133h786.637c17.732 0 32.102-16.401 32.102-34.133s-14.353-34.133-32.085-34.133z" />
<glyph unicode="&#xe925;" glyph-name="ico_38" d="M886.323 18.466c-8.516 0-17.015 3.379-23.33 10.052l-394.854 417.604 395.742 412.723c12.271 12.817 32.614 13.21 45.38 0.956 12.817-12.271 13.227-32.597 0.956-45.397l-353.399-368.589 352.836-373.18c12.186-12.885 11.622-33.212-1.263-45.38-6.212-5.871-14.148-8.789-22.067-8.789zM141.875 18.466c-7.902 0-15.804 2.901-22.016 8.738-12.902 12.169-13.517 32.478-1.348 45.38l351.095 372.719-350.259 369.203c-12.203 12.868-11.657 33.195 1.195 45.397 12.868 12.203 33.178 11.657 45.397-1.195l392.038-413.252-392.721-416.905c-6.315-6.707-14.831-10.086-23.381-10.086z" />
<glyph unicode="&#xe926;" glyph-name="ico_39" d="M320.41 18.466c8.209 0 16.435 3.14 22.699 9.404l430.865 430.865-432.452 401.425c-12.988 12.049-33.28 11.315-45.363-1.69-12.049-13.005-11.298-33.314 1.69-45.38l383.607-356.079-383.744-383.744c-12.544-12.544-12.544-32.853 0-45.397 6.263-6.263 14.49-9.404 22.699-9.404z" />
<glyph unicode="&#xe927;" glyph-name="ico_40" d="M692.992 18.466c-8.209 0-16.435 3.14-22.699 9.404l-430.865 430.865 432.452 401.425c12.988 12.049 33.28 11.315 45.363-1.69 12.049-13.005 11.298-33.314-1.69-45.38l-383.607-356.079 383.744-383.727c12.544-12.544 12.544-32.853 0-45.397-6.263-6.281-14.49-9.421-22.699-9.421z" />
<glyph unicode="&#xe928;" glyph-name="ico_41" d="M923.238 413.867h-822.084c-16.811 0-30.447 17.323-30.447 34.133s13.636 34.133 30.447 34.133h822.067c16.811 0 30.447-17.323 30.447-34.133s-13.619-34.133-30.43-34.133zM512 6.519c-16.811 0-34.133 13.636-34.133 30.447v822.067c0 16.811 17.323 30.447 34.133 30.447s34.133-13.636 34.133-30.447v-822.067c0-16.811-17.323-30.447-34.133-30.447z" />
<glyph unicode="&#xe929;" glyph-name="ico_42" d="M815.394 191.573c-6.349 0-12.715 2.423-17.562 7.27l-172.493 172.493c-9.694 9.694-9.694 25.412 0 35.123 9.694 9.694 25.412 9.694 35.123 0l172.493-172.493c9.694-9.694 9.694-25.412 0-35.123-4.847-4.847-11.213-7.27-17.562-7.27zM513.775 310.477c-109.909 0-199.339 89.412-199.339 199.305s89.429 199.322 199.339 199.322c109.892 0 199.305-89.412 199.305-199.322s-89.412-199.305-199.305-199.305zM513.775 659.439c-82.534 0-149.658-67.123-149.658-149.641s67.14-149.641 149.658-149.641c82.5 0 149.623 67.123 149.623 149.641 0 82.5-67.123 149.641-149.623 149.641zM132.403 850.022v-788.139c0-14.268 11.605-25.89 25.89-25.89h791.006c14.302 0 25.89 11.622 25.89 25.89v788.139c0 14.319-11.588 25.89-25.89 25.89h-791.006c-14.302 0.017-25.89-11.571-25.89-25.89zM923.392 824.132v-736.358h-739.226v736.358h739.226zM53.675 287.642c0-14.251 11.571-25.873 25.89-25.873h155.358c14.285 0 25.89 11.639 25.89 25.873 0 14.319-11.622 25.89-25.89 25.89h-155.375c-14.302 0-25.873-11.571-25.873-25.89zM53.675 598.34c0-14.268 11.571-25.89 25.89-25.89h155.358c14.285 0 25.89 11.622 25.89 25.89 0 14.319-11.622 25.89-25.89 25.89h-155.375c-14.302 0-25.873-11.571-25.873-25.89z" />
<glyph unicode="&#xe92a;" glyph-name="ico_43" d="M175.292 833.519c-13.431-8.175-25.958-17.937-38.298-27.819-12.868-10.172-18.773-24.388-20.907-40.397-2.253-16.759-4.54-33.485-6.775-50.261-0.341-2.304-0.922-4.591-1.382-6.929 0-17.749 0-35.465 0-53.214 1.826-14.831 3.311-29.781 5.632-44.612 13.21-84.617 45.551-161.894 91.511-233.557 71.441-111.206 164.181-200.329 279.962-264.346 86.067-47.531 177.835-76.629 277.299-74.547 28.501 0.631 57.020 5.769 85.35 10.035 16.145 2.372 26.692 14.541 35.908 26.812 23.245 30.686 40.482 64.41 48.469 102.468 0.085 0.717 0.683 1.382 1.058 2.048 0 7.031 0 14.012 0 20.992-3.959 14.916-13.926 24.815-26.931 32.188-5.359 3.021-10.325 6.775-15.497 10.172-44.851 29.389-89.737 58.863-134.622 88.303-24.337 15.821-47.906 13.039-67.038-8.431-6.775-7.595-12.288-16.247-18.21-24.491-8.329-11.537-15.838-23.706-24.713-34.765-15.633-19.405-36.062-26.726-60.245-19.951-11.622 3.26-23.245 7.185-33.911 12.527-82.807 41.847-149.931 101.257-199.305 180.224-14.865 23.893-29.73 47.906-37.478 75.383-8.277 29.389-1.041 54.17 22.852 73.489 8.687 7.134 18.278 13.107 27.204 19.985 10.991 8.516 22.579 16.503 32.273 26.385 16.009 16.299 17.203 34.219 4.676 53.436-32.751 50.432-65.963 100.54-98.492 151.040-8.26 12.851-17.698 23.381-32.973 27.29-6.451 0-12.902 0-19.354 0-26.846-5.956-52.599-15.172-76.066-29.457zM260.659 817.101c0.922-1.143 2.389-3.055 4.403-6.178 18.773-29.15 37.683-58.078 56.644-86.972 13.687-20.855 27.358-41.694 40.926-62.618-5.461-5.154-11.383-9.643-17.596-14.302l-7.885-5.99c-3.26-2.526-6.724-4.932-10.172-7.356-6.127-4.301-12.254-8.687-18.108-13.397-27.955-22.75-42.871-52.736-42.871-86.682 0-11.23 1.707-22.903 5.018-34.662 9.574-33.98 27.17-62.259 42.701-87.211 52.736-84.395 125.935-150.63 217.532-196.881 12.134-6.11 25.446-11.076 42.121-15.787 41.591-11.571 81.084 1.331 108.442 35.43 6.315 7.885 12.083 16.196 17.749 24.525 2.731 4.028 5.513 8.073 8.38 12.049l4.642 6.656c3.396 4.864 6.724 9.796 10.65 14.234 1.587 1.775 2.765 2.679 3.311 3.106 0.375-0.324 1.997-0.973 4.403-2.577l138.974-91.204c4.506-3.157 9.079-6.212 13.824-8.858 1.587-0.905 2.731-1.707 3.499-2.304v-2.953c-0.051-0.324-0.154-0.614-0.222-0.956-6.076-28.911-19.166-56.32-40.004-83.849-4.403-5.871-6.775-8.363-8.021-9.455l-11.793-1.775c-23.142-3.584-44.988-6.98-65.963-7.441-83.917-1.775-167.049 20.77-254.14 68.83-106.598 58.948-195.294 142.746-263.526 248.986-45.466 70.895-73.199 141.5-84.77 215.842-1.587 9.847-2.714 19.797-3.874 29.696l-1.161 10.581v45.687c0.324 1.724 0.58 3.106 0.802 4.489l6.946 51.388c0.768 5.581 2.065 9.097 3.874 10.564 10.889 8.704 22.34 17.681 33.86 24.678 16.299 9.899 35.089 17.391 57.31 22.665h4.096z" />
<glyph unicode="&#xe92b;" glyph-name="ico_44" d="M51.2 806.4v-716.8h921.6v716.8h-921.6zM902.059 755.2l-390.025-308.497-390.059 308.497h780.083zM102.4 140.8v550.042l409.634-318.191 409.566 318.191v-550.042h-819.2z" />
<glyph unicode="&#xe92c;" glyph-name="ico_45" d="M382.737 113.306c-23.467 0-48.367 8.431-71.543 30.72-55.757 53.623-92.945 93.628-98.048 99.174-6.366 6.195-37.478 38.81-38.673 84.429-0.751 29.065 10.667 56.115 33.946 80.435 70.4 73.455 373.743 374.886 376.798 377.924l1.775 1.604c26.197 21.589 89.173 48.998 139.793-1.655l46.592-46.575c6.434-5.308 23.347-21.777 26.044-49.971 2.935-30.635-11.827-63.198-43.878-96.785-67.157-70.4-279.996-283.409-297.438-300.868-5.154-6.366-20.907-23.091-45.466-24.661-14.114-0.819-35.772 3.174-58.351 27.733-17.63 19.183-26.061 39.612-25.071 60.723 1.365 28.587 20.122 46.268 22.255 48.196l230.229 231.407c9.967 10.035 26.197 10.052 36.198 0.085 10.035-9.967 10.069-26.18 0.102-36.215l-231.253-232.397c-7.236-7.185-11.605-18.859 5.239-37.205 6.656-7.219 12.971-11.861 17.237-11.264 3.959 0.171 8.141 4.557 9.028 5.717l2.526 2.935c2.27 2.287 228.437 228.489 297.711 301.124 20.309 21.299 30.976 41.097 30.037 55.757-0.683 10.377-7.339 15.855-7.612 16.094l-2.714 2.355-47.616 47.616c-28.416 28.399-63.42 4.198-70.315-1.092-19.729-19.61-306.995-305.152-374.886-375.996-13.67-14.268-20.122-28.553-19.729-43.674 0.7-26.743 23.108-48.981 23.33-49.203l1.314-1.331c0.375-0.41 38.775-42.103 96.375-97.502 38.059-36.608 75.793-2.167 82.961 5.086l330.103 330.121c10.001 10.001 26.197 10.001 36.198 0 10.001-9.984 10.001-26.214 0-36.198l-329.882-329.916c-18.313-18.995-49.306-36.727-83.319-36.727z" />
<glyph unicode="&#xe92d;" glyph-name="ico_46" d="M170.667 827.733v-640.444l239.872-110.541 213.282 99.977 246.579-108.459v638.993l-249.975 109.175-210.705-99.14-239.053 110.438zM392.533 136.721l-187.733 78.097v541.594l187.733-78.029v-541.662zM648.533 758.835l187.733-81.067v-543.044l-187.733 81.033v543.078zM429.534 678.69l171.435 79.292 0.222-541.389-170.991-78.746-0.666 540.843z" />
<glyph unicode="&#xe92e;" glyph-name="ico_47" d="M692.156 649.847l-45.943 141.841-267.913 0.239-46.353-142.080h-240.35v-521.626h840.806v521.626h-240.247zM885.675 174.933h-747.349v428.203h227.516l46.353 142.046 200.021-0.188 45.943-141.875h227.516v-428.186zM512.017 575.898c-97.86 0-177.118-79.292-177.118-177.152 0-97.775 79.258-177.067 177.118-177.067 97.775 0 177.067 79.292 177.067 177.067-0.017 97.877-79.292 177.152-177.067 177.152zM512.017 268.407c-71.936 0-130.423 58.47-130.423 130.355 0 71.953 58.487 130.423 130.423 130.423 71.868 0 130.355-58.47 130.355-130.423-0.017-71.885-58.487-130.355-130.355-130.355z" />
<glyph unicode="&#xe92f;" glyph-name="ico_48" d="M1044.241-81.084c-4.608 5.956-115.627 146.176-386.901 200.141-7.031 1.28-15.411 4.25-20.343 6.946 2.492 2.918 7.253 7.509 16.145 13.653 84.617 58.556 132.676 170.718 139.025 324.335 4.386 106.684-23.262 194.321-79.974 253.423-48.708 50.773-117.948 77.602-200.192 77.602-82.261 0-151.484-26.829-200.226-77.602-56.713-59.102-84.361-146.739-79.94-253.406 6.349-153.617 54.426-265.762 139.008-324.335 8.875-6.161 13.653-10.735 16.145-13.636-4.949-2.714-13.414-5.7-20.787-7.066-270.814-53.879-381.867-194.082-386.458-200.038-8.636-11.179-6.571-27.273 4.608-35.908s27.273-6.605 35.908 4.608c1.007 1.297 103.714 130.953 355.396 181.009 13.124 2.321 56.525 12.561 63.915 46.421 7.441 34.116-27.955 58.607-39.595 66.679-70.878 49.067-111.326 147.405-116.992 284.365-3.755 91.085 19.593 167.748 65.741 215.842 39.373 41.062 94.31 61.867 163.26 61.867s123.87-20.804 163.243-61.85c46.182-48.094 69.53-124.757 65.758-215.842-5.649-136.96-46.114-235.298-116.975-284.365-11.639-8.038-47.070-32.563-39.612-66.679 7.407-33.877 50.807-44.1 63.403-46.319 250.641-49.869 354.953-179.9 355.942-181.129 5.035-6.537 12.629-9.95 20.275-9.95 5.461 0 10.991 1.758 15.616 5.325 11.213 8.653 13.261 24.73 4.608 35.908z" />
<glyph unicode="&#xe930;" glyph-name="ico_49" d="M516.267 843.844l129.621-262.639 289.843-42.121-209.732-204.425 49.51-288.683-259.243 136.294-259.243-136.294 49.51 288.683-209.732 204.425 289.843 42.121z" />
<glyph unicode="&#xe931;" glyph-name="ico_50" d="M175.292 836.523c-13.431-8.175-25.958-17.937-38.298-27.819-12.868-10.172-18.773-24.388-20.907-40.397-2.253-16.777-4.54-33.502-6.775-50.278-0.341-2.304-0.922-4.591-1.382-6.929 0-17.749 0-35.465 0-53.214 1.826-14.831 3.311-29.781 5.632-44.612 13.21-84.617 45.551-161.894 91.511-233.557 71.441-111.206 164.181-200.329 279.962-264.346 86.067-47.531 177.835-76.629 277.299-74.547 28.501 0.631 57.020 5.769 85.35 10.035 16.145 2.372 26.692 14.541 35.908 26.812 23.245 30.686 40.482 64.41 48.469 102.468 0.085 0.717 0.683 1.382 1.058 2.048 0 7.031 0 14.012 0 20.992-3.959 14.916-13.926 24.815-26.931 32.188-5.359 3.021-10.325 6.775-15.497 10.172-44.851 29.389-89.737 58.863-134.622 88.303-24.337 15.821-47.906 13.039-67.038-8.431-6.775-7.595-12.288-16.247-18.21-24.491-8.329-11.537-15.838-23.706-24.713-34.765-15.633-19.405-36.062-26.726-60.245-19.951-11.622 3.26-23.245 7.185-33.911 12.527-82.807 41.847-149.931 101.257-199.305 180.224-14.865 23.893-29.73 47.906-37.478 75.383-8.277 29.389-1.041 54.17 22.852 73.489 8.687 7.134 18.278 13.107 27.204 19.985 10.991 8.516 22.579 16.503 32.273 26.385 16.009 16.299 17.203 34.219 4.676 53.436-32.751 50.432-65.963 100.54-98.492 151.040-8.26 12.851-17.698 23.381-32.973 27.29-6.451 0-12.902 0-19.354 0-26.846-5.939-52.599-15.155-76.066-29.44zM260.659 820.105c0.922-1.143 2.389-3.055 4.403-6.178 18.773-29.15 37.683-58.078 56.644-86.972 13.687-20.855 27.358-41.694 40.926-62.618-5.461-5.154-11.383-9.643-17.596-14.302l-7.885-5.99c-3.26-2.526-6.724-4.932-10.172-7.356-6.127-4.301-12.254-8.687-18.108-13.397-27.955-22.75-42.871-52.736-42.871-86.682 0-11.23 1.707-22.903 5.018-34.662 9.574-33.98 27.17-62.259 42.701-87.211 52.736-84.395 125.935-150.63 217.532-196.881 12.134-6.11 25.446-11.076 42.121-15.787 41.591-11.571 81.084 1.331 108.442 35.43 6.315 7.885 12.083 16.196 17.749 24.525 2.731 4.028 5.513 8.073 8.38 12.049l4.642 6.656c3.396 4.864 6.724 9.796 10.65 14.234 1.587 1.775 2.765 2.679 3.311 3.106 0.375-0.324 1.997-0.973 4.403-2.577l138.974-91.204c4.506-3.157 9.079-6.212 13.824-8.858 1.587-0.905 2.731-1.707 3.499-2.304v-2.953c-0.051-0.324-0.154-0.614-0.222-0.956-6.076-28.911-19.166-56.32-40.004-83.849-4.403-5.871-6.775-8.363-8.021-9.455l-11.793-1.775c-23.142-3.584-44.988-6.98-65.963-7.441-83.917-1.775-167.049 20.77-254.14 68.83-106.598 58.948-195.294 142.746-263.526 248.986-45.466 70.895-73.199 141.5-84.77 215.842-1.587 9.847-2.714 19.797-3.874 29.696l-1.161 10.581v45.67c0.324 1.724 0.58 3.106 0.802 4.489l6.946 51.388c0.768 5.581 2.065 9.097 3.874 10.564 10.889 8.704 22.34 17.681 33.86 24.678 16.299 9.899 35.089 17.391 57.31 22.665h4.096zM896.051 833.929c-8.329 8.329-21.111 8.329-29.457 0l-218.061-218.761v167.851c0 11.776-5.291 21.333-17.067 21.333s-17.067-9.557-17.067-21.333v-232.619h232.516c11.776 0 21.333 5.291 21.333 17.067s-9.557 17.067-21.333 17.067h-170.121l219.255 219.238c8.329 8.329 8.329 21.828 0 30.157z" />
<glyph unicode="&#xe932;" glyph-name="ico_51" d="M175.292 836.523c-13.431-8.175-25.958-17.937-38.298-27.819-12.868-10.172-18.773-24.388-20.907-40.397-2.253-16.777-4.54-33.502-6.775-50.278-0.341-2.304-0.922-4.591-1.382-6.929 0-17.749 0-35.465 0-53.214 1.826-14.831 3.311-29.781 5.632-44.612 13.21-84.617 45.551-161.894 91.511-233.557 71.441-111.206 164.181-200.329 279.962-264.346 86.067-47.531 177.835-76.629 277.299-74.547 28.501 0.631 57.020 5.769 85.35 10.035 16.145 2.372 26.692 14.541 35.908 26.812 23.245 30.686 40.482 64.41 48.469 102.468 0.085 0.717 0.683 1.382 1.058 2.048 0 7.031 0 14.012 0 20.992-3.959 14.916-13.926 24.815-26.931 32.188-5.359 3.021-10.325 6.775-15.497 10.172-44.851 29.389-89.737 58.863-134.622 88.303-24.337 15.821-47.906 13.039-67.038-8.431-6.775-7.595-12.288-16.247-18.21-24.491-8.329-11.537-15.838-23.706-24.713-34.765-15.633-19.405-36.062-26.726-60.245-19.951-11.622 3.26-23.245 7.185-33.911 12.527-82.807 41.847-149.931 101.257-199.305 180.224-14.865 23.893-29.73 47.906-37.478 75.383-8.277 29.389-1.041 54.17 22.852 73.489 8.687 7.134 18.278 13.107 27.204 19.985 10.991 8.516 22.579 16.503 32.273 26.385 16.009 16.299 17.203 34.219 4.676 53.436-32.751 50.432-65.963 100.54-98.492 151.040-8.26 12.851-17.698 23.381-32.973 27.29-6.451 0-12.902 0-19.354 0-26.846-5.939-52.599-15.155-76.066-29.44zM260.659 820.105c0.922-1.143 2.389-3.055 4.403-6.178 18.773-29.15 37.683-58.078 56.644-86.972 13.687-20.855 27.358-41.694 40.926-62.618-5.461-5.154-11.383-9.643-17.596-14.302l-7.885-5.99c-3.26-2.526-6.724-4.932-10.172-7.356-6.127-4.301-12.254-8.687-18.108-13.397-27.955-22.75-42.871-52.736-42.871-86.682 0-11.23 1.707-22.903 5.018-34.662 9.574-33.98 27.17-62.259 42.701-87.211 52.736-84.395 125.935-150.63 217.532-196.881 12.134-6.11 25.446-11.076 42.121-15.787 41.591-11.571 81.084 1.331 108.442 35.43 6.315 7.885 12.083 16.196 17.749 24.525 2.731 4.028 5.513 8.073 8.38 12.049l4.642 6.656c3.396 4.864 6.724 9.796 10.65 14.234 1.587 1.775 2.765 2.679 3.311 3.106 0.375-0.324 1.997-0.973 4.403-2.577l138.974-91.204c4.506-3.157 9.079-6.212 13.824-8.858 1.587-0.905 2.731-1.707 3.499-2.304v-2.953c-0.051-0.324-0.154-0.614-0.222-0.956-6.076-28.911-19.166-56.32-40.004-83.849-4.403-5.871-6.775-8.363-8.021-9.455l-11.793-1.775c-23.142-3.584-44.988-6.98-65.963-7.441-83.917-1.775-167.049 20.77-254.14 68.83-106.598 58.948-195.294 142.746-263.526 248.986-45.466 70.895-73.199 141.5-84.77 215.842-1.587 9.847-2.714 19.797-3.874 29.696l-1.161 10.581v45.67c0.324 1.724 0.58 3.106 0.802 4.489l6.946 51.388c0.768 5.581 2.065 9.097 3.874 10.564 10.889 8.704 22.34 17.681 33.86 24.678 16.299 9.899 35.089 17.391 57.31 22.665h4.096zM601.446 512.785l217.754 219.238v-170.121c0-11.776 5.291-21.333 17.067-21.333s17.067 9.557 17.067 21.333v227.43h-229.649c-11.776 0-21.333-5.291-21.333-17.067s9.557-17.067 21.333-17.067h167.851l-218.761-215.501c-8.329-8.329-9.079-19.849-0.734-28.177 8.311-8.329 21.077-7.066 29.406 1.263z" />
<glyph unicode="&#xe933;" glyph-name="ico_52" d="M641.946 686.916l-70.929-73.677 162.321-165.239h-511.471v358.4h-102.4v-460.8h613.871l-162.219-158.481 70.827-68.966 283.426 284.365z" />
<glyph unicode="&#xe934;" glyph-name="ico_53" d="M375.467 516.267h307.2v-34.133h-307.2v34.133zM375.467 601.6h307.2v-51.2h-307.2v51.2zM375.467 448h307.2v-51.2h-307.2v51.2zM375.467 362.667h204.8v-34.133h-204.8v34.133zM136.533 806.4v-699.733h768v699.733h-768zM853.333 157.867h-665.6v597.333h665.6v-597.333z" />
<glyph unicode="&#xe935;" glyph-name="ico_54" d="M828.058 831.198c-12.749 3.601-28.228-1.69-35.174-12.937-62.14-100.642-402.005-95.249-405.026-95.13-94.242 0-174.592-62.669-200.789-148.48 0 0-15.445-55.484-9.421-103.305 3.191-25.344 12.834-49.118 12.834-49.118 15.616-51.115 48.452-93.867 99.652-120.183v-246.579h204.8v213.999c119.467-8.909 260.113-33.195 295.697-90.88 6.946-11.247 24.491-16.538 37.239-12.902 12.715 3.618 25.463 15.223 25.463 28.45v608.58c0 13.261-12.561 24.883-25.276 28.484zM443.733 123.733h-102.4v154.897c17.067-3.072 34.731-4.847 50.022-4.847 9.54 0.324 35.311 0.205 52.378-0.614v-149.436zM785.067 456.67v-189.815c-85.333 70.673-391.782 66.338-398.899 66.082-82.842 0-149.862 67.413-149.862 150.289s66.833 180.719 148.651 180.736c7.987-0.273 314.778-4.608 400.111 66.065v-273.357z" />
<glyph unicode="&#xe936;" glyph-name="ico_55" d="M935.885 651.332c-14.438 9.83-34.133 6.127-43.964-8.294l-303.582-444.757-384.461 462.165 335.906-106.018c16.572-5.274 34.441 3.789 39.697 20.48 5.257 16.657-3.994 34.082-20.651 39.339l-462.626 145.203 1.417-486.758c0.051-17.442 14.217-29.491 31.642-29.491 0.034 0 0.068 0 0.085 0 17.476 0 31.607 12.151 31.556 29.628l-0.99 343.962 433.408-522.223 350.874 513.399c9.83 14.421 6.127 33.502-8.311 43.366z" />
<glyph unicode="&#xe937;" glyph-name="ico_56" d="M515.43 872.909c-231.339 0-418.867-187.529-418.867-418.867 0-231.305 187.529-418.85 418.867-418.85 231.322 0 418.85 187.546 418.85 418.85 0 231.339-187.529 418.867-418.85 418.867zM515.43 81.715c-205.312 0-372.326 167.049-372.326 372.326s167.014 372.343 372.326 372.343c205.278 0 372.309-167.066 372.309-372.343s-167.031-372.326-372.309-372.326zM514.884 224.222c121.873 0 222.771 87.245 240.282 206.711h-480.546c17.493-119.467 118.391-206.711 240.265-206.711zM388.915 516.267h7.236c16.862 0 30.515 13.653 30.515 30.498v75.537c0 16.845-13.653 30.498-30.515 30.498h-7.236c-16.862 0-30.515-13.653-30.515-30.498v-75.537c0-16.845 13.653-30.498 30.515-30.498zM627.849 516.267h7.236c16.862 0 30.515 13.653 30.515 30.498v75.537c0 16.845-13.653 30.498-30.515 30.498h-7.236c-16.862 0-30.515-13.653-30.515-30.498v-75.537c0-16.845 13.653-30.498 30.515-30.498z" />
<glyph unicode="&#xe938;" glyph-name="ico_57" d="M612.267 957.867h-612.267v-1019.733c0 0 112.247 763.733 612.267 1019.733z" />
<glyph unicode="&#xe939;" glyph-name="ico_58" d="M1024-61.867v1019.733h-612.267c500.019-256 612.267-1019.733 612.267-1019.733z" />
<glyph unicode="&#xe93a;" glyph-name="ico_59" d="M813.005 499.046c-10.001 10.001-26.197 10.001-36.198 0l-330.103-330.121c-7.168-7.253-44.902-41.677-82.961-5.086-57.6 55.398-96 97.075-96.375 97.502l-1.314 1.331c-0.222 0.222-22.63 22.443-23.33 49.203-0.393 15.121 6.059 29.406 19.729 43.674 67.891 70.844 355.157 356.386 374.886 375.996 6.895 5.308 41.899 29.508 70.315 1.092l47.616-47.616 2.714-2.355c0.29-0.239 6.929-5.717 7.612-16.094 0.956-14.643-9.711-34.458-30.037-55.757-23.398-24.542-64.717-66.611-109.261-111.65h71.936c30.498 30.976 57.207 58.317 74.377 76.322 32.051 33.587 46.814 66.15 43.878 96.785-2.697 28.194-19.61 44.663-26.044 49.971l-46.592 46.575c-50.637 50.654-113.596 23.245-139.793 1.655l-1.775-1.604c-3.055-3.038-306.415-304.469-376.798-377.924-23.279-24.32-34.714-51.371-33.946-80.435 1.195-45.619 32.324-78.234 38.673-84.429 5.103-5.53 42.291-45.551 98.048-99.174 23.177-22.289 48.077-30.72 71.543-30.72 34.014 0 65.007 17.732 83.319 36.727l329.882 329.933c10.001 10.001 10.001 26.214 0 36.198zM635.085 581.922c9.967 10.018 9.933 26.231-0.102 36.215-10.001 9.95-26.231 9.95-36.198-0.085l-118.238-118.852h72.209l82.33 82.722z" />
<glyph unicode="&#xe93b;" glyph-name="ico_60" d="M948.668 143.667l-248.934 150.050v-152.917h-614.4v614.4h614.4v-160.717l248.542 155.375 0.393-606.191zM136.533 192h512v193.417l256-159.283v438.050l-256-166.042v205.858h-512v-512z" />
<glyph unicode="&#xe93c;" glyph-name="ico_61" d="M356.625 225.229c-25.822 0-41.114 12.698-45.397 37.769-6.741 39.1 22.579 55.262 40.107 64.922 23.74 13.090 47.189 26.675 70.605 40.192l14.677 8.482c-3.738 5.513-7.509 10.871-11.213 16.111-20.975 29.85-40.772 58.044-43.213 96-4.437 68.881 7.083 116.941 35.174 146.893 21.282 22.682 51.524 34.167 89.907 34.167l3.14-0.017c39.612-0.666 71.185-14.199 93.781-40.294 46.899-54.067 36.608-140.1 36.164-143.735-5.427-42.342-21.333-75.708-53.931-111.087l14.763-8.226c24.405-13.67 46.933-26.231 69.632-38.451 17.63-9.421 47.138-25.242 40.294-64.956-4.335-25.054-19.558-37.751-45.363-37.751v0c-3.294 0-6.707 0.154-10.035 0.341-2.799 0.137-5.564 0.29-8.26 0.29-91.102-0.307-181.658-0.29-272.333-0.017v0c-2.97 0-5.717-0.137-8.482-0.273-3.396-0.188-6.741-0.358-10.018-0.358zM507.255 637.781c-29.594 0-51.354-7.885-66.526-24.081-21.709-23.142-30.413-63.351-26.607-122.931 1.86-29.013 18.364-52.497 37.478-79.65 6.98-9.984 14.234-20.292 21.214-31.505 2.27-3.669 2.97-8.158 1.911-12.373-1.058-4.181-3.789-7.782-7.543-9.95l-29.218-16.879c-23.62-13.67-47.241-27.358-71.185-40.55-20.821-11.469-26.539-16.981-24.013-31.471 1.758-10.223 4.028-11.179 13.875-11.179 2.748 0 5.564 0.154 8.329 0.324 3.311 0.171 6.656 0.324 9.865 0.324 91.392-0.256 181.641-0.307 272.265 0 0.034 0 0.034 0 0.034 0 3.567 0 6.827-0.154 10.206-0.324 2.833-0.171 5.632-0.307 8.397-0.307v0c9.762 0 12.066 0.956 13.841 11.162 2.372 13.807-2.099 19.661-23.893 31.334-22.869 12.322-45.534 24.969-70.093 38.724l-33.007 18.381c-4.403 2.475-7.407 6.878-8.107 11.895-0.666 5.035 1.126 10.069 4.762 13.602 37.461 36.284 54.135 66.389 59.341 107.401 2.628 20.821 2.662 82.739-28.57 118.733-16.64 19.217-39.561 28.791-70.093 29.269l-2.662 0.051zM460.8 123.733h85.333v-34.133h-85.333v34.133zM256 789.333h68.267v-33.621h-68.267v33.621zM699.733 123.733h68.267v-34.133h-68.267v34.133zM580.267 123.733h68.267v-34.133h-68.267v34.133zM358.4 123.733h68.267v-34.133h-68.267v34.133zM699.733 789.333h68.267v-33.348h-68.267v33.348zM580.267 789.333h68.267v-33.417h-68.267v33.417zM153.6 516.267h-38.639l0.119-68.267h38.519zM153.6 635.733h-38.827l0.102-68.267h38.724zM256 123.733h68.267v-34.133h-68.267v34.133zM153.6 755.593l51.2 0.051v33.69h-90.266l0.171-102.4h38.895zM358.4 789.333h68.267v-33.553h-68.267v33.553zM460.8 789.333h85.333v-33.485h-85.333v33.485zM153.6 123.733v51.2h-38.076l0.154-85.333h89.122v34.133zM153.6 413.867h-38.434l0.102-68.267h38.332zM153.6 311.467h-38.263l0.119-85.333h38.144zM870.4 516.267h33.707l-0.102-68.267h-33.604zM870.4 635.733h33.894l-0.119-68.267h-33.775zM870.4 755.593l-51.2 0.051v33.69h85.333l-0.171-102.4h-33.963zM870.4 123.733v51.2h33.126l-0.137-85.333h-84.19v34.133zM870.4 413.867h33.502l-0.102-68.267h-33.399zM870.4 311.467h33.331l-0.137-85.333h-33.195z" />
<glyph unicode="&#xe93d;" glyph-name="ico_62" d="M921.6 680.26l-252.177 254.14h-567.023v-972.8h819.2v703.863l-0.017 0.017h0.017v14.78zM870.4 12.8h-716.8v870.4h505.907l0.051-217.412 210.842-0.239v-652.749z" />
<glyph unicode="&#xe93e;" glyph-name="ico_63" d="M512 903.151c-251.392 0-455.168-203.776-455.168-455.168 0-251.358 203.776-455.134 455.168-455.134s455.168 203.759 455.168 455.134c0 251.392-203.776 455.168-455.168 455.168zM512 43.418c-223.078 0-404.582 181.504-404.582 404.565 0 223.095 181.504 404.599 404.582 404.599 223.061 0 404.565-181.504 404.565-404.599 0-223.061-181.504-404.565-404.565-404.565zM753.681 579.533c-4.915 2.662-5.854 2.406-10.564-0.7l-128.717-68.762v91.529h-358.4v-307.2h358.4v82.671l128.717-68.693c2.492-1.707 2.884-2.526 5.854-2.526 2.492 0 3.738 0.58 5.956 1.809 4.966 2.611 7.407 7.817 7.407 13.431l-0.273 245.009c0 5.598-3.396 10.803-8.38 13.431z" />
<glyph unicode="&#xe93f;" glyph-name="ico_64" d="M349.952 873.318c-234.923-89.498-352.785-352.461-263.287-587.383 89.481-234.906 352.444-352.768 587.383-263.27 234.923 89.498 352.785 352.461 263.305 587.366-89.498 234.906-352.461 352.802-587.401 263.287zM656.026 69.939c-208.452-79.428-442.675 25.566-522.103 234.001-79.428 208.486 25.566 442.709 234.035 522.138 208.452 79.411 442.675-25.583 522.103-234.052 79.428-208.452-25.583-442.692-234.035-522.086zM763.699 543.898c-52.89 138.786-208.794 208.708-347.597 155.819-138.769-52.873-208.691-208.811-155.802-347.58 52.89-138.837 208.845-208.708 347.614-155.853 138.786 52.89 208.674 208.811 155.785 347.614zM602.624 258.082l-149.333 391.987c104.192 30.345 216.252-23.962 255.539-127.061 39.287-103.168-8.226-218.266-106.206-264.926z" />
<glyph unicode="&#xe940;" glyph-name="ico_65" d="M512 903.151c-251.392 0-455.168-203.776-455.168-455.168 0-251.358 203.776-455.134 455.168-455.134s455.168 203.759 455.168 455.134c0 251.392-203.776 455.168-455.168 455.168zM512 43.418c-223.078 0-404.582 181.504-404.582 404.565 0 223.095 181.504 404.599 404.582 404.599 223.061 0 404.565-181.504 404.565-404.599 0-223.061-181.504-404.565-404.565-404.565zM665.6 140.8h-307.2c-14.148 0-25.6 11.469-25.6 25.6s11.452 25.6 25.6 25.6h307.2c14.131 0 25.6-11.469 25.6-25.6s-11.469-25.6-25.6-25.6zM770.338 669.867h-505.412c-20.651 0-43.059-13.278-43.059-33.246v-353.161c0-19.985 22.409-40.26 43.059-40.26h505.395c20.685 0 31.812 20.275 31.812 40.243v353.178c0 19.968-11.127 33.246-31.795 33.246zM496.043 332.322c-66.56 0-120.593 53.965-120.593 120.542 0 66.253 51.2 119.962 119.467 120.491v-125.355h121.566c0.034 0 0.119 1.963 0.119 1.007 0.017-66.577-53.982-116.685-120.559-116.685zM529.067 482.133v123.221c0 0-1.246-1.86-0.922-1.86 66.611 0 118.784-53.094 120.337-121.361h-119.415z" />
<glyph unicode="&#xe941;" glyph-name="ico_66" d="M512 903.151c-251.392 0-455.168-203.776-455.168-455.168 0-251.358 203.776-455.134 455.168-455.134s455.168 203.759 455.168 455.134c0 251.392-203.776 455.168-455.168 455.168zM512 43.418c-223.078 0-404.582 181.504-404.582 404.565 0 223.095 181.504 404.599 404.582 404.599 223.061 0 404.565-181.504 404.565-404.599 0-223.061-181.504-404.565-404.565-404.565zM409.6 396.8h102.4v-375.467h-102.4v375.467zM392.533 35.089l-102.4 34.133v276.378h102.4zM529.067 465.067h102.4v-426.667h-102.4v426.667zM750.933 86.289l-102.4-22.75v452.727h102.4zM275.866 441.839c-7.543 0-15.019 3.311-20.087 9.694-8.772 11.076-6.912 27.187 4.164 35.959l165.683 131.277 94.43-65.792 212.77 156.911c11.366 8.38 27.392 5.99 35.806-5.393s5.973-27.392-5.393-35.806l-242.33-178.705-93.303 65.041-135.851-107.657c-4.71-3.721-10.325-5.53-15.889-5.53zM747.401 610.441c-0.973 0-1.963 0.085-2.97 0.256-9.301 1.638-15.497 10.496-13.875 19.763l8.892 50.432-47.684 8.38c-9.267 1.638-15.462 10.479-13.841 19.763s10.428 15.531 19.763 13.858l81.289-14.302-14.78-84.036c-1.468-8.311-8.653-14.114-16.794-14.114z" />
<glyph unicode="&#xe942;" glyph-name="ico_67" d="M512 903.151c-251.392 0-455.168-203.776-455.168-455.168 0-251.358 203.776-455.134 455.168-455.134s455.168 203.759 455.168 455.134c0 251.392-203.776 455.168-455.168 455.168zM512 43.418c-223.078 0-404.582 181.504-404.582 404.565 0 223.095 181.504 404.599 404.582 404.599 223.061 0 404.565-181.504 404.565-404.599 0-223.061-181.504-404.565-404.565-404.565zM557.414 327.987c-0.341-3.959-0.836-8.073-1.485-12.373-0.666-4.301-1.826-8.26-3.465-11.895-1.673-3.959-3.806-6.929-6.451-8.892-3.635-3.294-7.919-5.137-12.868-5.461-4.625-1.638-9.097-2.133-13.38-1.468s-8.26 1.792-11.878 3.465c-4.625 2.97-8.004 6.502-10.155 10.633s-3.721 8.499-4.71 13.141-1.485 9.404-1.485 14.37c0 4.932 0 9.574 0 13.875v38.571l-0.495 75.776c0 5.291 0 9.421 0 12.39s0 5.7 0 8.175-0.085 5.274-0.239 8.414c-0.171 3.14-0.256 7.68-0.256 13.619 0 1.007 0.068 2.731 0.256 5.205 0.154 2.475-0.085 9.165-0.734 20.070-12.885-21.47-23.518-38.724-31.949-51.763s-15.531-23.108-21.299-30.208-10.82-11.878-15.104-14.37c-4.301-2.475-8.755-3.874-13.38-4.198-2.645-0.341-5.291 0.171-7.919 1.485s-5.205 2.97-7.68 4.949-4.779 4.028-6.929 6.195c-2.15 2.133-3.891 4.198-5.205 6.178-7.919 9.899-16.828 21.777-26.743 35.652-9.899 13.875-20.139 30.703-30.703 50.517 0-0.341-0.085-5.786-0.256-16.35s-0.239-23.689-0.239-39.373-0.085-32.512-0.256-50.5c-0.171-18.005-0.341-34.765-0.495-50.261-0.171-15.531-0.41-28.467-0.734-38.861-0.341-10.394-0.666-15.599-0.99-15.599 0-5.632-1.314-10.837-3.959-15.599-2.645-4.796-6.195-8.67-10.65-11.639-4.454-3.004-9.643-4.625-15.599-4.966-5.939-0.341-12.373 1.331-19.302 4.966-4.301 2.628-7.509 6.434-9.66 11.366-2.15 4.966-3.55 9.609-4.215 13.875-0.341 4.625-0.58 9.097-0.734 13.363-0.171 4.301-0.256 8.772-0.256 13.397l0.495 38.605 0.495 76.271v66.372c0 28.723 0.99 56.951 2.97 84.668 0 3.635 0.41 7.031 1.246 10.172 0.819 3.14 1.894 6.178 3.209 9.165 2.645 5.274 6.11 9.233 10.394 11.861 4.949 2.987 10.24 4.471 15.855 4.471 2.304 0 4.54-0.085 6.69-0.256 2.133-0.171 4.215-0.41 6.195-0.751 6.605-1.314 12.288-5.205 17.084-11.639 4.779-6.434 9.318-11.964 13.619-16.589 2.645-2.987 5.444-6.622 8.431-10.889 2.97-4.301 5.939-8.772 8.909-13.38 2.97-4.625 5.769-9.079 8.414-13.363 2.645-4.301 4.966-8.107 6.929-11.383 8.585-13.875 16.265-26.607 23.040-38.127 6.758-11.571 13.124-21.47 19.063-29.73 0.99 1.007 2.133 2.406 3.465 4.233 1.314 1.792 2.714 3.789 4.215 5.939 1.485 2.133 2.799 4.198 3.959 6.178s2.065 3.635 2.731 4.949c3.294 5.291 6.605 10.479 9.916 15.599 3.294 5.12 6.844 10.564 10.65 16.35 3.789 5.769 7.765 12.134 11.878 19.063s8.994 14.848 14.609 23.774c2.304 3.942 5.291 8.755 8.909 14.353 3.635 5.632 7.765 11.059 12.39 16.35s9.489 9.813 14.609 13.619c5.12 3.806 10.308 5.7 15.599 5.7 2.628 0 4.949-0.085 6.929-0.256s3.959-0.41 5.939-0.751c3.959-0.341 7.748-2.133 11.383-5.427 2.645-2.645 4.625-5.444 5.956-8.431 1.314-4.284 2.133-7.919 2.475-10.889 0.341-2.321 0.58-4.454 0.751-6.451 0.171-1.963 0.256-3.942 0.256-5.939 0-18.5 0.171-36.813 0.495-54.972s0.478-36.489 0.478-54.972c0-22.46 0.085-45.568 0.256-69.342s0.256-46.865 0.256-69.342c0-4.625 0.171-9.574 0.495-14.831 0.29-5.291 0.29-10.564-0.034-15.855zM812.442 513.178c2.97-4.625 4.284-9.574 3.942-14.831 0-7.595-1.314-14.199-3.942-19.814-0.666-1.655-1.57-3.806-2.731-6.451-1.143-2.628-2.304-5.427-3.465-8.397-1.143-2.987-2.406-5.803-3.703-8.431-1.331-2.628-2.321-4.625-2.987-5.939l-0.99-2.492c-4.625-10.24-9.079-20.156-13.363-29.713-4.301-9.574-9.079-19.797-14.37-30.703-5.291-10.564-10.308-20.873-15.104-30.942-4.796-10.103-9.506-19.9-14.114-29.474-1.331-2.628-2.492-5.205-3.465-7.697-1.007-2.475-2.321-5.001-3.959-7.663l-23.774-50.995c-4.301-8.567-8.346-16.998-12.134-25.259-3.806-8.226-8.021-16.503-12.629-24.764-0.99-1.638-1.894-3.209-2.714-4.693-0.836-1.468-1.57-3.038-2.236-4.693-2.321-3.959-5.7-7.834-10.155-11.639s-9.165-5.871-14.114-6.195c-8.909-0.631-16.674 1.997-23.262 7.936-3.959 2.304-7.117 5.632-9.421 9.899-1.314 2.97-1.98 6.758-1.98 11.401 0.341 1.963 0.58 3.874 0.751 5.7 0.171 1.792 0.393 3.533 0.734 5.205 0.666 1.638 1.161 3.294 1.502 4.932 0.324 1.673 0.819 2.97 1.485 3.959 0.99 2.662 1.792 3.959 2.475 3.959l36.147 78.234c-1.655 3.635-3.294 7.373-4.949 11.162s-3.14 7.168-4.454 10.138c-4.301 10.24-8.841 21.060-13.619 32.427-4.796 11.401-9.66 22.801-14.609 34.167-4.949 11.401-10.069 22.528-15.343 33.434s-10.564 21.299-15.855 31.198c-1.98 3.294-3.806 6.844-5.444 10.65-1.655 3.789-2.97 7.578-3.942 11.383-1.007 3.806-1.331 7.663-1.007 11.639s1.809 7.936 4.471 11.895c2.628 4.932 6.093 8.499 10.394 10.633 4.284 2.15 8.823 3.14 13.619 2.97 4.779-0.171 9.318-1.229 13.619-3.209 4.284-1.997 7.748-4.625 10.394-7.936 5.598-5.939 10.069-12.544 13.363-19.797 3.294-7.27 6.434-14.694 9.421-22.306 6.263-13.193 12.698-27.068 19.302-41.609s13.193-28.706 19.814-42.564l25.754 54.46c2.628 5.274 5.035 10.394 7.185 15.343 2.133 4.949 4.369 9.728 6.69 14.353 2.628 5.615 5.205 11.401 7.68 17.34 2.475 5.956 5.342 11.401 8.653 16.35 0.666 1.314 1.314 2.492 1.98 3.465s1.314 2.15 1.98 3.465c2.97 3.942 5.615 7.083 7.936 9.421 1.638 1.297 3.055 2.389 4.198 3.209 1.143 0.836 2.543 1.399 4.215 1.741 2.304 0.666 4.54 1.075 6.69 1.246 2.133 0.154 4.198 0.085 6.178-0.256 3.294-1.007 7.27-2.475 11.878-4.471 4.966-1.946 8.738-5.41 11.383-10.377z" />
<glyph unicode="&#xe943;" glyph-name="ico_68" d="M955.733 4.267h-887.467v785.067h887.467v-785.067zM119.467 55.467h785.067v682.667h-785.067v-682.667zM384 657.067c-14.131 0-25.6 11.452-25.6 25.6v187.733c0 14.148 11.469 25.6 25.6 25.6s25.6-11.452 25.6-25.6v-187.733c0-14.148-11.469-25.6-25.6-25.6zM640 657.067c-14.131 0-25.6 11.452-25.6 25.6v187.733c0 14.148 11.469 25.6 25.6 25.6s25.6-11.452 25.6-25.6v-187.733c0-14.148-11.469-25.6-25.6-25.6zM470.75 218.385l-158.908 158.925c-10.001 9.967-10.001 26.197 0 36.198s26.197 10.001 36.198 0l122.692-122.692 239.292 239.309c10.001 10.001 26.197 10.001 36.198 0s10.001-26.197 0-36.198l-275.473-275.541z" />
</font>
</defs>
</svg>
