<?xml version="1.0" encoding="utf-8"?>
<!-- Generator: Adobe Illustrator 16.0.0, SVG Export Plug-In . SVG Version: 6.00 Build 0)  -->
<!DOCTYPE svg PUBLIC "-//W3C//DTD SVG 1.1//EN" "http://www.w3.org/Graphics/SVG/1.1/DTD/svg11.dtd">
<svg version="1.1" xmlns="http://www.w3.org/2000/svg" xmlns:xlink="http://www.w3.org/1999/xlink" x="0px" y="0px"
	 width="217.814px" height="59.569px" viewBox="0 0 217.814 59.569" enable-background="new 0 0 217.814 59.569"
	 xml:space="preserve">
<g id="Layer_1" display="none">
	<g display="inline">
		<g>
			<g>
				<g>
					<path fill="#1D1D1B" d="M79.072,37.657c0.686-2.504,1.059-5.146,1.059-7.872C80.131,13.34,66.797,0,50.35,0
						C33.898,0,20.568,13.34,20.568,29.785c0,6.112,1.842,11.792,4.998,16.518c-7.752-0.713-14.215-5.877-16.801-12.916L0,38.375
						c4.994,7.869,13.781,13.102,23.791,13.102c2.014,0,3.877-0.188,5.613-0.525c5.381,5.326,12.777,8.617,20.945,8.617
						c13.674,0,25.191-9.227,28.688-21.783l0.008-0.01C79.053,37.739,79.061,37.698,79.072,37.657z M50.35,8.135
						c10.004,0,18.602,5.992,22.423,14.578c-2.005-1.176-4.333-1.846-6.823-1.846c-15.078,0-18.75,23.29-36.033,25.374
						c-2.584-3.889-4.098-8.555-4.098-13.574C25.818,19.117,36.803,8.135,50.35,8.135z M50.35,57.196
						c-6.783,0-12.922-2.756-17.359-7.201c14.865-5.137,19.367-21.881,30.277-21.881c5.727,0,10.367,4.637,10.367,10.362
						c0,1.416-0.285,2.76-0.793,3.986C69.057,51.133,60.414,57.196,50.35,57.196z"/>
				</g>
			</g>
		</g>
		<g>
			<g>
				<path fill="#1D1D1B" d="M96.361,15.529l-1.186,2.773c1.266,0.92,2.82,1.457,4.5,1.457h10.076l1.252-2.938h-10.92
					C98.68,16.822,97.387,16.338,96.361,15.529z"/>
				<path fill="#1D1D1B" d="M101.645,28.189h8.107v-2.943h-8.107v-3.779h-3.646v12.137H98c0,1.521,1.232,2.752,2.754,2.752h9.625
					v-2.939h-8.734V28.189z"/>
				<polygon fill="#1D1D1B" points="118.473,16.086 118.473,25.246 115.809,25.246 115.809,16.086 112.16,16.086 112.16,43.485 
					115.809,43.485 115.809,28.189 118.473,28.189 118.473,43.485 122.121,43.485 122.121,16.086 				"/>
			</g>
			<g>
				<path fill="#1D1D1B" d="M184.428,19.76l1.254-2.938h-20.184c-1.404,0-2.697-0.484-3.723-1.293l-1.186,2.773
					c1.266,0.92,2.82,1.457,4.5,1.457H184.428z"/>
				<path fill="#1D1D1B" d="M176.059,37.911v-6.416h8.998v-2.946h-17.998v-7.082h-3.645v7.271c0,1.52,1.23,2.754,2.754,2.754
					l-0.002,0.002h6.244v6.416h-12.305v2.943h28.26v-2.943H176.059z"/>
			</g>
			<path fill="#1D1D1B" d="M135.65,35.231h3.646v-4.917h8.498v-2.941h-1.604V16.826h-15.684v2.939h12.037v7.607h-13.23v2.941h6.336
				V35.231z M143.512,36.579h9.715V16.086h-3.648v17.551h-6.066V36.579z M134.766,40.543v-5.271h-3.645v5.459
				c0,1.523,1.234,2.754,2.754,2.754h20.016v-2.941H134.766z"/>
			<path fill="#1D1D1B" d="M207.432,37.553h9.715V16.086H213.5V34.61h-6.068V37.553z M202.041,27.869c3.949,0,7.15-2.895,7.15-6.471
				c0-3.568-3.201-6.465-7.15-6.465c-3.947,0-7.148,2.896-7.148,6.465C194.893,24.975,198.094,27.869,202.041,27.869z
				 M202.041,17.912c1.928,0,3.49,1.563,3.49,3.486c0,1.93-1.563,3.492-3.49,3.492c-1.926,0-3.488-1.563-3.488-3.492
				C198.553,19.475,200.115,17.912,202.041,17.912z M200.221,36.209h3.648v-4.02h7.848v-2.946h-18.482v2.946h6.986V36.209z
				 M198.689,40.543v-5.271h-3.646v5.459c0,1.523,1.234,2.754,2.754,2.754h20.018v-2.941H198.689z"/>
		</g>
	</g>
</g>
<g id="Layer_2">
	<g>
		<g>
			<g>
				<g>
					<path fill="#FFFFFF" d="M79.072,37.657c0.686-2.504,1.059-5.146,1.059-7.872C80.131,13.34,66.797,0,50.35,0
						C33.898,0,20.568,13.34,20.568,29.785c0,6.112,1.842,11.792,4.998,16.518c-7.752-0.713-14.215-5.877-16.801-12.916L0,38.375
						c4.994,7.869,13.781,13.102,23.791,13.102c2.014,0,3.877-0.188,5.613-0.525c5.381,5.326,12.777,8.617,20.945,8.617
						c13.674,0,25.191-9.227,28.688-21.783l0.008-0.01C79.053,37.739,79.061,37.698,79.072,37.657z M50.35,8.135
						c10.004,0,18.602,5.992,22.423,14.578c-2.005-1.176-4.333-1.846-6.823-1.846c-15.078,0-18.75,23.29-36.033,25.374
						c-2.584-3.889-4.098-8.555-4.098-13.574C25.818,19.117,36.803,8.135,50.35,8.135z M50.35,57.196
						c-6.783,0-12.922-2.756-17.359-7.201c14.865-5.137,19.367-21.881,30.277-21.881c5.727,0,10.367,4.637,10.367,10.362
						c0,1.416-0.285,2.76-0.793,3.986C69.057,51.133,60.414,57.196,50.35,57.196z"/>
				</g>
			</g>
		</g>
		<g>
			<g>
				<path fill="#FFFFFF" d="M96.361,15.529l-1.186,2.773c1.266,0.92,2.82,1.457,4.5,1.457h10.076l1.252-2.938h-10.92
					C98.68,16.822,97.387,16.338,96.361,15.529z"/>
				<path fill="#FFFFFF" d="M101.645,28.189h8.107v-2.943h-8.107v-3.779h-3.646v12.137H98c0,1.521,1.232,2.752,2.754,2.752h9.625
					v-2.939h-8.734V28.189z"/>
				<polygon fill="#FFFFFF" points="118.473,16.086 118.473,25.246 115.809,25.246 115.809,16.086 112.16,16.086 112.16,43.485 
					115.809,43.485 115.809,28.189 118.473,28.189 118.473,43.485 122.121,43.485 122.121,16.086 				"/>
			</g>
			<g>
				<path fill="#FFFFFF" d="M184.428,19.76l1.254-2.938h-20.184c-1.404,0-2.697-0.484-3.723-1.293l-1.186,2.773
					c1.266,0.92,2.82,1.457,4.5,1.457H184.428z"/>
				<path fill="#FFFFFF" d="M176.059,37.911v-6.416h8.998v-2.946h-17.998v-7.082h-3.645v7.271c0,1.52,1.23,2.754,2.754,2.754
					l-0.002,0.002h6.244v6.416h-12.305v2.943h28.26v-2.943H176.059z"/>
			</g>
			<path fill="#FFFFFF" d="M135.65,35.231h3.646v-4.917h8.498v-2.941h-1.604V16.826h-15.684v2.939h12.037v7.607h-13.23v2.941h6.336
				V35.231z M143.512,36.579h9.715V16.086h-3.648v17.551h-6.066V36.579z M134.766,40.543v-5.271h-3.645v5.459
				c0,1.523,1.234,2.754,2.754,2.754h20.016v-2.941H134.766z"/>
			<path fill="#FFFFFF" d="M207.432,37.553h9.715V16.086H213.5V34.61h-6.068V37.553z M202.041,27.869c3.949,0,7.15-2.895,7.15-6.471
				c0-3.568-3.201-6.465-7.15-6.465c-3.947,0-7.148,2.896-7.148,6.465C194.893,24.975,198.094,27.869,202.041,27.869z
				 M202.041,17.912c1.928,0,3.49,1.563,3.49,3.486c0,1.93-1.563,3.492-3.49,3.492c-1.926,0-3.488-1.563-3.488-3.492
				C198.553,19.475,200.115,17.912,202.041,17.912z M200.221,36.209h3.648v-4.02h7.848v-2.946h-18.482v2.946h6.986V36.209z
				 M198.689,40.543v-5.271h-3.646v5.459c0,1.523,1.234,2.754,2.754,2.754h20.018v-2.941H198.689z"/>
		</g>
	</g>
</g>
</svg>
