<?xml version="1.0" encoding="utf-8"?>
<!-- Generator: Adobe Illustrator 16.0.0, SVG Export Plug-In . SVG Version: 6.00 Build 0)  -->
<!DOCTYPE svg PUBLIC "-//W3C//DTD SVG 1.1//EN" "http://www.w3.org/Graphics/SVG/1.1/DTD/svg11.dtd">
<svg version="1.1" id="Layer_2" xmlns="http://www.w3.org/2000/svg" xmlns:xlink="http://www.w3.org/1999/xlink" x="0px" y="0px"
	 width="200px" height="200px" viewBox="0 0 200 200" enable-background="new 0 0 200 200" xml:space="preserve">
<g id="Layer_37_copy">
	<g>
		<path fill="#FFFFFF" d="M161.053,103c-1.34-37.287-28.135-86.745-60.998-86.745c-32.863,0-59.658,49.458-60.998,86.745H37v19h126
			v-19H161.053z"/>
		<path fill="#FFFFFF" d="M125,157H73v-30H46.876c0,28,23.519,52.529,52.531,52.529c29.012,0,52.531-24.529,52.531-52.529H125V157z"
			/>
		<path fill="#FFFFFF" d="M99.744,154c7.181,0,12.256-6.027,12.256-13.209v-0.672c0-7.184-5.075-13.119-12.256-13.119H99.07
			C91.888,127,86,132.938,86,140.119v0.672C86,147.973,91.888,154,99.07,154H99.744z M92.899,140.938
			c0-3.594,2.914-6.506,6.506-6.506c3.592,0,6.505,2.912,6.505,6.506c0,3.592-2.913,6.506-6.505,6.506
			C95.813,147.441,92.899,144.529,92.899,140.938z"/>
	</g>
</g>
</svg>
