<?xml version="1.0" encoding="utf-8"?>
<!-- Generator: Adobe Illustrator 16.0.0, SVG Export Plug-In . SVG Version: 6.00 Build 0)  -->
<!DOCTYPE svg PUBLIC "-//W3C//DTD SVG 1.1//EN" "http://www.w3.org/Graphics/SVG/1.1/DTD/svg11.dtd">
<svg version="1.1" id="Layer_1" xmlns="http://www.w3.org/2000/svg" xmlns:xlink="http://www.w3.org/1999/xlink" x="0px" y="0px"
	 width="200px" height="200px" viewBox="0 0 200 200" enable-background="new 0 0 200 200" xml:space="preserve">
<g>
	<path fill="#FFFFFF" d="M162.392,68.412c0-34.478-27.938-62.43-62.41-62.456c-0.001,0-0.002,0-0.005,0c-0.001,0-0.003,0-0.005,0
		C65.5,5.981,37.563,33.934,37.563,68.412c0,10.886,2.787,21.122,7.684,30.033h-0.073l54.797,94.913v0.017l0.005-0.009l0.005,0.009
		v-0.017l54.797-94.913h-0.072C159.603,89.533,162.392,79.298,162.392,68.412z M107,109.765V96.986c0-3.858-3.128-6.986-6.986-6.986
		h-0.027C96.128,90,93,93.128,93,96.986v12.786C74.569,106.709,60.178,91.721,58.017,73h10.997C72.872,73,76,69.872,76,66.014
		v-0.027C76,62.128,72.872,59,69.014,59H58.721C62.396,42.276,75.975,29.27,93,26.439v8.574C93,38.872,96.128,42,99.986,42h0.027
		c3.858,0,6.986-3.128,6.986-6.986v-8.566c17.004,2.847,30.56,15.843,34.231,32.552h-10.245c-3.858,0-6.986,3.128-6.986,6.986v0.027
		c0,3.858,3.128,6.986,6.986,6.986h10.949C139.776,91.706,125.408,106.683,107,109.765z"/>
	<circle fill="#FFFFFF" cx="100" cy="66" r="8"/>
</g>
</svg>
